<svg xmlns="http://www.w3.org/2000/svg" xmlns:xlink="http://www.w3.org/1999/xlink" viewBox="0 0 240 336"><use xlink:href="#a"/><rect width="216" height="312" x="12" y="12" fill="url(#b)" rx="12" ry="12"/><defs><pattern id="b" width="24" height="24" patternUnits="userSpaceOnUse"><path fill="#AB2A15" d="M12 0C5.373 0 0 5.373 0 12c6.627 0 12-5.373 12-12M0 12c0 6.627 5.373 12 12 12 0-6.627-5.373-12-12-12m24 0c0-6.627-5.373-12-12-12 0 6.627 5.373 12 12 12m0 0c0 6.627-5.373 12-12 12 0-6.627 5.373-12 12-12"/></pattern><rect id="a" width="240" height="336" fill="#fff" rx="12" ry="12"/></defs></svg>