<svg xmlns="http://www.w3.org/2000/svg" xmlns:xlink="http://www.w3.org/1999/xlink" viewBox="0 0 240 336"><use xlink:href="#a"/><use xlink:href="#b" transform="rotate(180 120 168)"/><g id="b"><use xlink:href="#c" width="36" height="36" x="6" y="12" stroke="#151515"/><use xlink:href="#d" width="24" height="24" x="12" y="52"/><use xlink:href="#d" width="48" height="48" x="96" y="48"/></g><defs><symbol id="c" fill="none" preserveAspectRatio="xMinYMid" viewBox="0 0 36 36"><path stroke-linecap="square" stroke-width="4.5" d="M10 10.5c-.563-1.687.687-8.25 8-8.25s7.75 4.875 7.75 8.25C25.75 17.813 10 23.063 10 33.75h15.75V28.5"/></symbol><symbol id="d" viewBox="0 0 16 16"><path fill="#151515" d="M15.88 9.392a3.717 3.717 0 0 1-7.197 1.306c-.003 2.446.154 4.073 2.474 5.302H4.838c2.322-1.229 2.479-2.855 2.475-5.302a3.716 3.716 0 1 1-2.36-4.85 3.717 3.717 0 1 1 6.09 0 3.72 3.72 0 0 1 4.836 3.544"/></symbol><rect id="a" width="240" height="336" fill="#fff" rx="12" ry="12"/></defs></svg>