<svg xmlns="http://www.w3.org/2000/svg" xmlns:xlink="http://www.w3.org/1999/xlink" viewBox="0 0 240 336"><use xlink:href="#a"/><use xlink:href="#b" transform="rotate(180 120 168)"/><g id="b"><use xlink:href="#c" width="36" height="36" x="6" y="12" stroke="#151515"/><use xlink:href="#d" width="24" height="24" x="12" y="52"/><use xlink:href="#d" width="48" height="48" x="48" y="48"/><use xlink:href="#d" width="48" height="48" x="144" y="48"/><use xlink:href="#d" width="48" height="48" x="48" y="144"/><use xlink:href="#d" width="48" height="48" x="96" y="96"/></g><defs><symbol id="c" fill="none" preserveAspectRatio="xMinYMid" viewBox="0 0 36 36"><path stroke-linecap="square" stroke-width="4.5" d="M18 15.75c-1.954-.01-3.623-.613-5-2S11.245 10.954 11.25 9s.367-3.37 1.75-4.75 3.046-2 5-2 3.616.62 5 2S24.745 7.046 24.75 9s-.373 3.363-1.75 4.75-3.046 1.99-5 2m0 0c-2.431.01-4.786 1.026-6.5 2.75S8.995 22.318 9 24.75s.779 4.532 2.5 6.25 4.069 2.75 6.5 2.75 4.779-1.032 6.5-2.75 2.495-3.818 2.5-6.25-.786-4.526-2.5-6.25-4.068-2.74-6.5-2.75"/></symbol><symbol id="d" viewBox="0 0 16 16"><path fill="#151515" d="M15.88 9.392a3.717 3.717 0 0 1-7.197 1.306c-.003 2.446.154 4.073 2.474 5.302H4.838c2.322-1.229 2.479-2.855 2.475-5.302a3.716 3.716 0 1 1-2.36-4.85 3.717 3.717 0 1 1 6.09 0 3.72 3.72 0 0 1 4.836 3.544"/></symbol><rect id="a" width="240" height="336" fill="#fff" rx="12" ry="12"/></defs></svg>