<svg xmlns="http://www.w3.org/2000/svg" xmlns:xlink="http://www.w3.org/1999/xlink" viewBox="0 0 240 336"><use xlink:href="#a"/><use xlink:href="#b" x="48" y="48"/><use xlink:href="#c" transform="rotate(180 120 168)"/><g id="c"><use xlink:href="#d" width="36" height="36" x="6" y="12" stroke="#151515"/><use xlink:href="#e" width="24" height="24" x="12" y="52"/><use xlink:href="#f" x="48" y="48"/></g><defs><symbol id="d" fill="none" preserveAspectRatio="xMinYMid" viewBox="0 0 36 36"><path stroke-linecap="square" stroke-width="4.5" d="M8.5 20.75c10.8 0 8.2 13 19 13M11.75 18V8.5c0-1.67.569-3.319 1.75-4.5s2.83-1.75 4.5-1.75 3.319.569 4.5 1.75 1.75 2.83 1.75 4.5v19c0 1.67-.569 3.319-1.75 4.5s-2.83 1.75-4.5 1.75-3.318-.569-4.5-1.75-1.75-2.83-1.75-4.5z"/></symbol><symbol id="e" viewBox="0 0 16 16"><path fill="#151515" d="M15.88 9.392a3.717 3.717 0 0 1-7.197 1.306c-.003 2.446.154 4.073 2.474 5.302H4.838c2.322-1.229 2.479-2.855 2.475-5.302a3.716 3.716 0 1 1-2.36-4.85 3.717 3.717 0 1 1 6.09 0 3.72 3.72 0 0 1 4.836 3.544"/></symbol><symbol id="f" fill="none"><use xlink:href="#e" width="24" height="24" x="4" y="4"/><use xlink:href="#e" width="8" height="8" x="57" y="78"/><use xlink:href="#e" width="8" height="8" x="100" y="78"/><use xlink:href="#e" width="6" height="6" x="57" y="89"/><use xlink:href="#e" width="6" height="6" x="111" y="77"/><path fill="#151515" d="M73.488 22.66c.195 0 .389.066.57.194.18.127.344.314.482.55s.248.516.323.824c.074.308.113.638.113.972s-.039.664-.113.972a3 3 0 0 1-.323.824 1.75 1.75 0 0 1-.483.55 1 1 0 0 1-.57.193c-.394 0-.772-.267-1.051-.743-.28-.477-.436-1.122-.436-1.796s.157-1.32.436-1.796.657-.743 1.052-.744m15.508.146a1 1 0 0 1 .569.193c.18.127.344.315.483.55.138.236.248.516.322.824a4.2 4.2 0 0 1 0 1.944 3 3 0 0 1-.322.824 1.75 1.75 0 0 1-.483.55 1 1 0 0 1-.57.194c-.394 0-.773-.268-1.052-.744-.279-.477-.435-1.122-.435-1.796s.156-1.32.436-1.796c.278-.476.657-.743 1.052-.743M114.84 61.18q.552.78 1.133 1.53l-.43-.506a16 16 0 0 0-.677-.01q-.322.002-.643.014l-.244.01q-.189.007-.377.017-.638.035-1.277.078l-.668.04-.255.013q-.209.01-.417.017l-.257.009-.067.001q-.277.007-.553.006a2 2 0 0 0 .1.204l.017.028q.048.085.106.168v.001a2 2 0 0 0 .148.19h.001a2 2 0 0 0 .085.094q.043.045.091.09a3.3 3.3 0 0 0 .455.364q.131.09.283.18l.001.002q.151.09.327.184.172.092.37.186l.002.002c.661.317 1.527.657 2.667 1.057q.684.24 1.506.51c-.726.431-1.098.843-1.312 1.335.402-.002.804.01 1.207.028 1.208.056 2.42.176 3.626.177l-1.306-1.536a38 38 0 0 0 2.785 2.693l-70.404.04.534-1.098h.05l.307-.004h.002l.028-.001q.165-.005.329-.012h.002l.06-.004q.141-.007.282-.017c1.556-.116 3.097-.525 4.6-1.629l-.08.023q.053-.036.105-.074c.245.025.477.1.717.18-.726.43-1.098.841-1.311 1.334 3.53-.022 7.118 1.032 10.515-1.447q.36.122.75.25c-.726.431-1.097.843-1.31 1.335 3.53-.02 7.117 1.032 10.514-1.446q.304.103.632.211c-.726.43-1.097.842-1.31 1.335 3.184-.02 6.416.835 9.512-.817a2.3 2.3 0 0 0-.366.585c3.53-.022 7.117 1.032 10.514-1.447.205.07.413.139.633.211-.727.43-1.098.842-1.311 1.335 3.537-.021 7.134 1.037 10.537-1.463l-2.238-.928a57 57 0 0 0 2.981 1.056c-.726.43-1.098.842-1.311 1.335 3.538-.021 7.134 1.037 10.538-1.463l-4.355-1.806q-.446.147-.851.285l.358-.149c-3.404-2.5-7-1.44-10.538-1.462.299.69.908 1.22 2.37 1.868l-1.308-.542q-.446.147-.851.285l.358-.149c-3.404-2.5-7-1.44-10.538-1.462.197.456.534.842 1.159 1.239l-.815.272.358-.148c-1.808-1.328-3.671-1.652-5.55-1.667-1.659-.013-3.33.214-4.988.204.255.59.74 1.063 1.785 1.592l-.755.253.361-.15c-3.404-2.5-7-1.441-10.538-1.463.198.457.535.843 1.16 1.24q-.428.14-.816.272l.358-.148c-3.404-2.5-7-1.442-10.537-1.463.189.437.505.81 1.08 1.19l-.004-.002q-.448.147-.854.286l.361-.15a9 9 0 0 0-.649-.432l-.09-.054a8 8 0 0 0-.31-.174l-.074-.037a8 8 0 0 0-.601-.28l-.076-.032a8 8 0 0 0-.315-.119l-.09-.03a8 8 0 0 0-.243-.08l-.095-.029a8 8 0 0 0-.314-.087l-.017-.004a9 9 0 0 0-.316-.073l-.095-.02-.255-.048-.077-.014a10 10 0 0 0-.325-.049l-.064-.007a11 11 0 0 0-.627-.062l-.072-.006q-.03 0-.059-.003a14 14 0 0 0-.562-.023 17 17 0 0 0-1.083.01q-.096.002-.191.007a35 35 0 0 0-.63.03q-.618.037-1.235.077.286-.617.565-1.224zm-28.993 4.287c.282.096.575.194.888.298l-.068.042zM27.138 68.4c0 1.342-.308 3.018-.694 4.033-.773-.078-1.65-.059-2.632.08l2.454-2.659c.214-.225.067-.618-.232-.618a.32.32 0 0 0-.238.11l-2.454 2.657c.128-1.063.145-2.013.074-2.85.936-.42 2.483-.753 3.723-.753m-13.846 0c1.24 0 2.786.334 3.723.752-.072.838-.055 1.79.073 2.853l-2.454-2.66a.32.32 0 0 0-.239-.109c-.298 0-.445.393-.231.618l2.453 2.658c-.98-.138-1.858-.157-2.63-.08-.387-1.014-.695-2.69-.695-4.032m117.265 5.869c4.224 3.933 8.713 6.037 13.443 5.417v13.051l-.133.81c-5.056-4.914-11.495-8.239-18.646-9.192zM23.811 79.287c.982.14 1.86.158 2.633.08.386 1.015.695 2.69.695 4.033-1.24 0-2.787-.334-3.723-.752a14 14 0 0 0-.073-2.85l2.451 2.656c.314.354.797-.17.47-.509zm-7.192 0-2.454 2.658c-.326.34.157.863.47.51l2.454-2.659a14 14 0 0 0-.074 2.852c-.937.418-2.484.752-3.723.752 0-1.342.308-3.018.695-4.033.773.078 1.65.059 2.632-.08M32.79 95.514l8.864 13.761L0 142.831v-20.919z"/><path fill="#151515" d="M100.397 0 144 74.229v5.458C122.152 82.551 105.513 27.177 98.878 0zM72.419 37.978c.696 3.692 1.537 6.97 2.35 7.622 1.983 1.59 6.727 10.172 7.754 10.8.602.368 1.287.503 2 .48l-.136.72-19.241-.012c3.063-7.347 5.415-13.805 7.273-19.61m53.969 34.012a30 30 0 0 0 3.69 1.777l.444.535-5.273 10.057c-1.441-.25-2.964-.359-4.511-.359-.326 0-.652.005-.974.028l4.407-8.422-72.762-.032c-.709-1.273-1.511-2.431-2.354-3.536zm-79.17 2.4a23.7 23.7 0 0 1 2.26 3.477c5.412 10.156 2.961 22.725-5.281 29.371l-1.678-2.368c7.112-5.735 9.273-16.576 4.536-25.464a21 21 0 0 0-1.74-2.732zm39.961 38.393a39.5 39.5 0 0 0-.779 7.817c0 1.192.053 2.371.157 3.567l-7.356.033.023-8.4-21.785-.009c-.097-1.009-.227-1.997-.355-2.981z"/><path stroke="#151515" stroke-linecap="round" stroke-linejoin="round" d="M0 118.173 33.643 91.08m110.224 2.467C137.765 87.617 129.648 84 120.738 84 101.774 84 86.4 100.386 86.4 120.6c0 6.875 1.778 13.307 4.871 18.802m52.515-45.8L98.279 130.25m-11.11-17.45H57.122M0 142.832l41.656-33.547m-7.964-18.269 12.03 18.734M32.815 95.502l8.837 13.763m7.396-37.162L33.694 91.02m12.081 18.684c9.412-7.533 12.21-21.872 6.1-33.337a26.4 26.4 0 0 0-2.849-4.292m-4.83 35.163c8.243-6.646 10.694-19.214 5.281-29.37a23.7 23.7 0 0 0-2.26-3.479C34.464 55.387 61.497 41.08 72.78.017M32.766 95.525 0 121.912m42.519-17.042c7.112-5.735 9.273-16.575 4.536-25.464a21 21 0 0 0-1.74-2.732M33.779 91.2h15.723m-10.61-6.6H49.02M37.99 97.8h9.871M49.083 72h77.319m-75.55-3.6h70.458m-67.033-7.2h60.591m-58.936-3.6h56.556M72.831.02C69.03 16.988 67.697 30.972 55.904 57.6a342 342 0 0 1-6.88 14.542m2.374 3.458h72.731m-56.57.035c-.257 15.401-5.294 19.464-5.52 37.127m8.841-37.127c-.309 15.401-6.353 19.464-6.624 37.127m15.487-37.148c-.377 19.927-10.013 21.821-10.494 37.179m14.922-37.18c-.448 19.368-11.594 21.803-12.15 37.18m23.221-37.181c-.628 19.377-16.276 22.91-17.115 37.184m20.439-37.23c-.624 19.418-16.778 23.495-18.175 37.231m6.27 3.003H57.442m30.159-4.8h-6.925m7.43-1.8H81.14m7.572-1.8h-6.885m6.807-1.8h-5.906m5.799-1.8h-4.712m4.605-1.8h-3.33m3.222-1.8h-1.8M62.093 111h-5.42m5.49-1.8H56.24m6.044-1.8h-6.58m6.746-1.8h-6.488m6.69-1.8h-5.967m6.228-1.8h-5.506m5.82-1.8H58.13m5.456-1.8h-4.734m29.353 0h-.188M2.383 144.603C7.946 149.828 15.238 153 23.262 153c17.492 0 31.569-15.034 31.569-33.6 0-5.704-1.329-11.056-3.678-15.754M9.312 139.09c3.871 3.083 8.648 4.91 13.95 4.91 13.098 0 23.261-10.963 23.261-24.6 0-3.207-.562-6.213-1.595-8.986m-23.002 18.499q.642.086 1.336.087c5.453 0 9.003-3.725 9.381-8.706m-13.61 10.951a11.8 11.8 0 0 0 4.229.755c7.239 0 12.184-5.534 12.184-12.6q0-.68-.06-1.318M11.62 137.185c3.283 2.406 7.239 3.815 11.64 3.815 11.634 0 20.493-9.606 20.493-21.6 0-2.539-.397-4.916-1.136-7.133M79.2 115.8v8.4m40.567-40.158 4.446-8.43m.984 8.786 5.325-10.096M100.397 0 144 74.229m-20.192-34.334c5.524-2.215 11.173-1.76 16.869-.295-8.937-10.405-8.429-25.715-10.66-39.602M107.043 0l22.563 38.41M98.861-.06C105.49 27.106 122.142 82.554 144 79.689M95.492-.045c5.337 26.89 10.931 64.354 34.586 73.812m-1.627-37.322-5.415 2.095m4.451-3.737-5.415 2.095m4.349-3.91-5.416 2.095m4.349-3.911-5.416 2.095m2.85-3.331-3.916 1.515m1.036-2.63-2.103.814m21.555 9.58c-1.75-1.299-3.491-2.608-4.775-4.415-2.408 1.03-4.703.505-7.013.182m8.343-3.01c-3.072.667-6.424.574-9.783.46m6.198-13.98c-2.867 2.69.339 8.685-3.838 10.948-3.994 2.163-6.544-4.555-3.877-6 2.216-1.2 4.985 3 2.216 4.2-1.566.678-2.23-3.437-1.108-2.4m6.629-6.799c-3.702 1.38-6.663-4.97-10.724-2.34-3.833 2.482.021 8.427 2.581 6.77 2.126-1.377.349-6.166-2.075-4.284-1.37 1.064 1.473 3.886 1.271 2.303m-5.209-1.84c.419-2.492.981-4.854 3.096-5.81-.463-3.347-.157-6.28 1.662-8.4-1.923-.194-3.818-.236-6.093-2.4-3.098 1.192-5.818.384-8.576-.23m7.936 13.448c.561-1.355 1.218-2.64 2.302-3.618-.167-1.722-.032-3.168.554-4.2-.941.145-2.412.072-3.877-1.2-.996.831-2.281 1.035-3.619 1.126m-11.279-2.1c-1.543-.547-2.903-1.57-4.232-2.676m5 5.599c-1.63-.526-3.054-1.591-4.442-2.746m5.181 5.467c-1.732-.655-3.236-1.903-4.732-3.171m5.615 6.295c-1.844-.45-3.413-1.608-4.94-2.878m5.716 5.639c-1.959-.577-3.615-1.942-5.259-3.335m6.188 6.393c-2.081-.32-3.806-1.562-5.476-2.945m6.383 5.917c-2.145-.642-4.2-2.427-5.987-3.961m6.932 6.915c-2.25-.52-4.414-2.378-6.289-3.988m7.21 6.792c-2.41-.637-4.714-2.764-6.661-4.42m7.556 7.1c-2.433-1.04-5.238-3.1-6.98-4.536m8.048 7.592c-2.456-.917-5.423-3.054-7.303-4.585m8.412 7.623c-2.447-.742-5.568-2.936-7.605-4.569m8.684 7.41c-2.589-.795-5.923-3.202-7.931-4.847m9.125 7.864c-2.508-.519-5.98-2.937-8.193-4.708m9.374 7.572c-2.595-.502-6.263-3.096-8.481-4.895m9.453 7.16c-2.665-.756-6.262-2.517-8.29-3.992m9.6 6.9c-2.676-.722-6.394-2.528-8.478-4.04m9.938 7.098c-2.333-.433-5.963-2.056-8.399-3.586m9.817 6.387c-2.468-.523-6.197-2.24-8.542-3.786m10.161 6.777c-2.484-.537-6.217-2.262-8.546-3.807m10.014 6.321c-2.896-.807-6.936-2.83-8.845-4.382m10.68 7.28c-2.664-.71-6.384-2.51-8.486-4.024m10.563 6.977c-2.121-.49-5.079-1.793-7.317-3.106M70.684 23.346c-2.273 9.427-5.526 20.086-11.69 34.204m10.995-43.955c.32 4.4.903 12.534.903 13.405 0 1.8 2.012 17.105 3.877 18.6 1.983 1.59 6.727 10.172 7.754 10.8 2.859 1.749 7.6-1.761 8.308-2.4 4.489 1.367 14.571-11.65 11.077-13.8l2.573-1.195m-33.13-7.227c-2.112 7.417-4.991 15.777-9.327 25.84m10.39-19.692c-1.854 5.857-4.206 12.315-7.32 19.65M62.538 56.4h3.04m-2.28-1.8h3.02m-2.282-1.8h3.023M64.763 51h3.002m-2.298-1.8h2.99m-2.297-1.8h2.989m-2.322-1.8h2.97m-2.31-1.8h2.952m-2.34-1.8h2.97m-2.361-1.8h2.955m-2.346-1.8h2.94m-2.364-1.8h2.216m-1.644-1.8h1.417M99.35 48.428a52.3 52.3 0 0 0 5.746-7.398M88.654 57.61c2.088-1.488 4.138-3.058 6.12-4.776m-3.363 4.777c5.239-3.896 10.183-8.433 14.338-14.683m-11.65 14.68c4.474-3.49 8.69-7.541 12.329-12.845m-9.735 12.855c3.755-3.084 7.297-6.629 10.43-11.062m-7.88 11.046c3.064-2.662 5.965-5.678 8.591-9.293m-6.163 9.314c2.438-2.24 4.759-4.734 6.902-7.613m-4.505 7.592a54 54 0 0 0 5.27-5.937m-2.99 5.961a53 53 0 0 0 3.774-4.34m-1.517 4.316a53 53 0 0 0 2.333-2.745m-.167 2.746q.513-.598 1.015-1.221m-9.15-14.547a52 52 0 0 0 1.798-2.71M85.846 57.6c1.22-.838 2.429-1.699 3.622-2.593M99.692 66c1.275.01 2.521-.38 3.744-1.1m2.363.837c-3.403 2.5-7 1.442-10.538 1.463.484-1.117 1.773-1.814 6.184-3.269m-6.6-.126c1.274-.01 2.52.38 3.743 1.1m2.364-.838c-3.404-2.5-7-1.441-10.538-1.462.483 1.116 1.772 1.814 6.183 3.269m-6.74.027c1.274.01 2.52-.38 3.743-1.101m2.364.838c-3.404 2.5-7 1.441-10.538 1.463.483-1.117 1.772-1.815 6.183-3.27m-6.6-.126c1.274-.01 2.52.38 3.743 1.1m2.364-.837c-3.404-2.5-7-1.441-10.538-1.463.483 1.117 1.772 1.815 6.183 3.27m-6.051.358c1.275.01 2.52-.38 3.744-1.1m2.363.837c-3.404 2.5-7 1.441-10.538 1.463.484-1.117 1.772-1.814 6.184-3.27m-6.6-.126c1.274-.01 2.52.38 3.743 1.101m2.363-.838c-3.404-2.5-7-1.441-10.538-1.463.484 1.117 1.773 1.815 6.184 3.27m-6.741.026c1.275.01 2.52-.38 3.744-1.1m2.363.838c-3.404 2.5-7 1.441-10.538 1.462.484-1.116 1.772-1.814 6.184-3.269m-6.6-.126c1.274-.01 2.52.38 3.743 1.1m2.363-.837c-3.404-2.5-7-1.442-10.538-1.463.484 1.117 1.773 1.814 6.184 3.269m-6.86-.012c1.275.01 2.521-.38 3.744-1.1m2.364.837c-3.404 2.5-7 1.441-10.538 1.463.483-1.117 1.772-1.814 6.183-3.27m-6.6-.126c1.274-.01 2.52.38 3.743 1.101m2.364-.838c-2.74-2.013-5.606-1.719-8.466-1.539M53 63.863c.923.537 2.403 1.107 4.825 1.905M109.66 66c1.275.01 2.521-.38 3.744-1.1m2.364.837c-3.404 2.5-7 1.442-10.538 1.463.483-1.117 1.772-1.814 6.183-3.269m-6.6-.126c1.274-.01 2.521.38 3.743 1.1m2.364-.838c-3.404-2.5-7-1.441-10.538-1.462.483 1.116 1.772 1.814 6.184 3.269m8.977-3.669c-1.805-.066-3.628.206-5.436.195.484 1.116 1.773 1.814 6.184 3.269m-1.753-2.07a6.6 6.6 0 0 1 2.559.512m2.69 3.089c-1.607-.002-3.225-.215-4.832-.205.328-.756 1.024-1.32 2.81-2.057m-65.656.856c.874-.158 1.734-.5 2.584-1m2.363.838c-1.853 1.361-3.764 1.668-5.691 1.667m-16.078 54.16 5.697.941c.243 1.504-.212 2.185-.554 3l-5.577-1.945m-.52 1.414 5.134 2.589c-.125 1.522-.728 2.051-1.253 2.742l-4.8-3.587m-.916 1.232 4.263 4.203c-.64 1.36-1.382 1.608-2.107 2.036l-3.509-4.866m-1.712 1.197 2.548 5.266c-1.036 1.036-1.81.99-2.628 1.119l-1.709-5.565m-1.628.475 1.121 6.29c-1.269.665-1.998.376-2.815.242l-.29-6.279m-2.176-.049-.625 6.611c-1.389.265-2.017-.228-2.77-.598l1.363-6.422m15.822-13.654 5.609-.895c.64 1.361.389 2.157.282 3.044H35.42m-17.827 12.429-2.085 4.371c-1.02-.225-1.515-.67-1.935-1.145m12.87-63.218c.387-1.014.695-2.693.695-4.037-1.24 0-2.79.335-3.726.754m-6.393 0c-.936-.42-2.486-.754-3.727-.754 0 1.344.31 3.023.696 4.037m12.455 6.926c.387 1.014.695 2.693.695 4.037-1.24 0-2.79-.335-3.726-.754m-6.393 0c-.936.42-2.486.754-3.727.754 0-1.344.31-3.023.696-4.037M24.29 98.614c-.112-.802-.381-1.913-1.028-2.614-1.108-1.2-7.754-4.8-8.862-4.8S12.185 93 11.077 93s-1.662 3 .554 3c2.215 0 3.877-1.2 3.877-1.2-.193 2.594 1.423 3.252 2.769 4.2m-2.007-1.532c-.518 2.776-.145 5.009.66 6.978m-5.842-11.419a6.5 6.5 0 0 0-1.485-1.253c-4.987-3.142-5.775 1.713-.84 3.8 1.012.428 1.787.508 2.314.353m1.661-4.127c2.017-4.717-3.876-9.6-5.538-15-.935 6.459-1.504 12.726 5.538 15m0 0c-1.974-3.166-3.349-6.78-4.984-10.2m4.984 10.2c.69-2.865 1.144-5.81 1.91-8.537m4.641 3.862c-1.47.41-2.902 1.553-4.335 4.075m0 0c6.926.772 12.47.393 14.4-3-2.855.31-5.416-.976-7.835-1.225M14.954 91.2c2.66-1.23 5.715-2.013 9.415-2.062m45.801-73.02c2.091-.788 3.964-1.94 5.549-3.78 2.125-2.468 3.789-6.25 4.577-12.33m-10.21 14.87c1.844-.73 3.45-1.764 4.823-3.358C76.825 9.294 78.4 5.826 79.176.014m-9.18 13.62c1.589-.667 2.937-1.578 4.103-2.932 1.71-1.987 3.196-5.145 3.957-10.681m-7.443 10.655a8.1 8.1 0 0 0 1.865-1.612c1.308-1.518 2.61-4.067 3.335-9.033m-5.509 12.164a9.3 9.3 0 0 0 2.984-2.312c1.508-1.751 2.903-4.602 3.647-9.856m-5.982 8.946q.376-.332.715-.727c1.112-1.29 2.319-3.542 3.023-8.214M87.301.02c1.009 6.353 3.053 11.257 6.088 14.781 1.807 2.098 3.876 3.592 5.991 4.67M88.424.017c.993 6.088 2.948 10.681 5.775 13.965a18.2 18.2 0 0 0 4.866 3.982M89.549.014c.974 5.818 2.838 10.104 5.46 13.15a17 17 0 0 0 3.727 3.232M90.674.01c.954 5.543 2.726 9.525 5.145 12.335.8.93 1.662 1.718 2.566 2.389m-1.26-6.348c-1.308-2.01-2.371-4.7-3.065-8.369M91.8.002c.932 5.265 2.61 8.947 4.83 11.524q.671.779 1.399 1.422M92.929.005c.936 5.129 2.589 8.565 4.7 10.918m-26.21-4.24c.786-1.191 1.605-3.138 2.152-6.666M99.503 2.59c-1.45-.564-2.74-1.54-4.002-2.59M78.646 20.4v.657c-2.215-2.457-5.023-2.015-7.754-1.257 4.118-2.268 6.033-.991 7.754.6m0 0s.554 1.8.554 5.4m0 0c0 3-2.215 10.2-2.215 11.4 0 1.564 1.36 2.655 2.215 2.4.534-.16 2.215 2.4 2.215 2.4M79.2 25.8c-2.215.6-4.43-5.4-8.308-1.8m8.308 1.8c-3.239.791-5.538 3.6-8.308-.6m13.846 10.2c1.108 0 3.323 4.2.554 4.2m0 0c-4.43-1.8-6.646-.6 0 0m2.216 4.8 1.107.6-.553-1.2zm0 0c-1.108 0-2.216-.6-3.323-.6-1.108 0-1.662.6-2.216.6s-1.107-.6-1.661-.6-1.108.6-1.662.6m0 0-.554.6-.554-1.2zm6.646 3c-1.496.45-2.422 2.46-4.984 0m4.984-24c5.782-2.17 8.237 3.424 11.077 3.6-4.43 0-3.883 1.048-5.538 1.2-4.243.39-5.64-3.171-4.727-5.081M15.212 90.668c.547-2.626 1.022-5.252 1.837-7.652m-6.62 23.418c.681.533 1.989.772 3.024.879M79.493 79.8h-6.255m5.648 4.2h-6.198m5.146 4.2h-6.053m4.457 4.2h-5.66m3.607 4.2h-4.857m2.763 4.2h-3.873m2.266 4.2h-3.039m2.131 4.2h-2.562M79.25 81.9h-6.012c-1.082.017-1.966-.928-1.966-2.1 0-1.171.884-2.117 1.966-2.1h6.255m-1.071 8.4h-5.734c-1.082.017-1.967-.928-1.967-2.1 0-1.171.885-2.117 1.966-2.1h6.2m-1.78 8.4H71.78c-1.082.017-1.966-.928-1.966-2.1s.885-2.117 1.966-2.1h6.053m-2.587 8.4H70.58c-1.081.017-1.966-.928-1.966-2.1s.885-2.117 1.966-2.1h5.659m-3.129 8.4h-3.781c-1.082.017-1.966-.928-1.966-2.1 0-1.171.884-2.117 1.966-2.1h4.857m-2.981 8.4h-2.986c-1.081.017-1.966-.928-1.966-2.1 0-1.171.885-2.117 1.966-2.1h3.873m-2.146 8.4h-2.5c-1.08.017-1.966-.928-1.966-2.1s.885-2.117 1.966-2.1h3.039m-1.155 8.4h-2.315c-1.081.017-1.966-.928-1.966-2.1s.885-2.117 1.966-2.1h2.562m22.628-27.3H83.88m7.224 4.2h-7.95m5.968 4.2h-7.26m4.41 4.2h-6.296m2.944 4.2h-5.307m2.158 4.2h-4.532M77.4 105h-3.973m2.583 4.2h-3.634m11.697-31.5h8.131c1.082-.017 1.966.928 1.966 2.1s-.884 2.117-1.966 2.1H83.88m-.298 0h7.522c1.081-.017 1.966.928 1.966 2.1 0 1.171-.885 2.117-1.966 2.1h-7.95m-.584 0h6.552c1.081-.017 1.966.928 1.966 2.1 0 1.171-.885 2.117-1.966 2.1h-7.26m-.866 0h5.276c1.082-.017 1.966.928 1.966 2.1 0 1.171-.884 2.117-1.966 2.1h-6.296m-1.148 0h4.092c1.082-.017 1.966.928 1.966 2.1S84 98.717 82.92 98.7h-5.307m-1.224 0h3.382c1.08-.017 1.966.928 1.966 2.1s-.885 2.117-1.966 2.1h-4.532m-1 0H77.4c1.081-.017 1.966.928 1.966 2.1s-.885 2.117-1.966 2.1h-3.973m-.611 0h3.194c1.082-.017 1.966.928 1.966 2.1s-.884 2.117-1.966 2.1h-3.634m-1.207 6.527c-.391-2.97-3.916.849-1.175 1.273-2.215-1.8-2.215 3.6 0 1.8-2.741.424.784 4.243 1.175 1.273-1.661 2.4 3.323 2.4 1.662 0 .391 2.97 3.916-.849 1.175-1.273 2.215 1.8 2.215-3.6 0-1.8 2.741-.424-.784-4.243-1.175-1.273 1.661-2.4-3.323-2.4-1.662 0M70.615 120c0 .398.146.779.406 1.061s.612.439.979.439.72-.158.979-.439c.26-.282.406-.663.406-1.061s-.146-.779-.406-1.061A1.33 1.33 0 0 0 72 118.5c-.367 0-.72.158-.98.439a1.57 1.57 0 0 0-.405 1.061m-21.546-4.06c.029.396.202.764.481 1.023.28.258.642.386 1.008.355s.706-.219.944-.521c.239-.303.357-.696.328-1.092a1.54 1.54 0 0 0-.481-1.023 1.32 1.32 0 0 0-1.008-.355 1.35 1.35 0 0 0-.944.521 1.58 1.58 0 0 0-.328 1.092m2.87 1.26c2.89 1.56 2.413-5.02-.217-2.991 1.44-3.131-4.634-2.615-2.761.235-2.89-1.56-2.414 5.02.217 2.991-1.44 3.132 4.633 2.615 2.76-.235m-3.333 8.694a1.6 1.6 0 0 0 .227 1.121c.103.162.236.3.389.406q.232.161.502.214c.18.035.363.031.54-.011q.269-.064.496-.234c.15-.112.276-.256.375-.421a1.62 1.62 0 0 0-.029-1.667 1.4 1.4 0 0 0-.39-.406 1.3 1.3 0 0 0-.502-.214 1.3 1.3 0 0 0-.54.011 1.3 1.3 0 0 0-.495.234 1.5 1.5 0 0 0-.375.422 1.6 1.6 0 0 0-.198.545m2.481 2.006c2.432 2.302 3.51-4.194.49-2.953 2.125-2.634-3.872-3.801-2.726-.53-2.432-2.302-3.509 4.194-.49 2.953-2.124 2.635 3.872 3.801 2.726.53m-6.234 7.051a1.62 1.62 0 0 0-.013 1.148c.137.369.403.664.74.821a1.3 1.3 0 0 0 1.513-.306c.13-.138.234-.302.305-.483a1.6 1.6 0 0 0 .013-1.148 1.45 1.45 0 0 0-.74-.821 1.28 1.28 0 0 0-1.06-.013 1.4 1.4 0 0 0-.453.319c-.13.138-.234.302-.305.483m2 2.559c1.893 2.835 4.29-3.232 1.09-2.758 2.617-2.05-2.983-4.647-2.546-1.18-1.892-2.836-4.289 3.232-1.09 2.758-2.616 2.049 2.984 4.646 2.547 1.18m-8.137 4.137a1.56 1.56 0 0 0-.44 1.045c-.013.397.12.784.37 1.075.125.144.274.261.44.342a1.3 1.3 0 0 0 1.058.041c.17-.069.327-.174.46-.308.269-.271.427-.647.44-1.045a1.57 1.57 0 0 0-.371-1.075 1.4 1.4 0 0 0-.439-.342 1.3 1.3 0 0 0-1.06-.041q-.257.105-.458.308m.875 3.218c.673 3.421 5.13-1.079 2.026-2.046 3.158-.729-.996-5.557-1.889-2.194-.672-3.422-5.129 1.078-2.025 2.045-3.159.729.995 5.557 1.888 2.195m-8.576.899a1.4 1.4 0 0 0-.822.723c-.175.35-.214.761-.11 1.142.052.189.138.365.253.518s.256.28.416.373a1.3 1.3 0 0 0 1.053.119c.352-.114.648-.374.823-.724s.214-.761.11-1.142a1.5 1.5 0 0 0-.253-.517 1.4 1.4 0 0 0-.416-.374 1.28 1.28 0 0 0-1.054-.118m-.537 3.303c-.802 3.389 5.037 1.505 2.655-.856 3.128.869 1.39-5.457-.79-2.875.802-3.389-5.037-1.506-2.655.856-3.128-.87-1.39 5.456.79 2.875m-9.164-2.101a1.33 1.33 0 0 0-.992.404 1.56 1.56 0 0 0-.438 1.045c-.006.197.024.393.088.578s.16.353.285.497.273.26.439.341.344.127.526.133c.367.014.724-.132.992-.403.268-.272.426-.648.438-1.046a1.6 1.6 0 0 0-.088-.577 1.5 1.5 0 0 0-.285-.498 1.4 1.4 0 0 0-.439-.341 1.3 1.3 0 0 0-.526-.133m-1.476 2.948c-1.753 2.939 4.336 3.158 2.768.1 2.712 1.899 2.915-4.697.092-2.998 1.753-2.939-4.336-3.158-2.768-.1-2.712-1.899-2.915 4.698-.092 2.998m-7.544-5.442a1.3 1.3 0 0 0-1.06-.006 1.45 1.45 0 0 0-.753.808 1.6 1.6 0 0 0-.005 1.148c.068.182.17.348.298.488s.28.252.447.328c.339.154.72.156 1.06.006s.61-.441.753-.808a1.6 1.6 0 0 0-.292-1.636 1.4 1.4 0 0 0-.448-.328m-2.35 2.185c-2.604 2.068 3.013 4.625 2.554 1.162 1.909 2.822 4.27-3.263 1.073-2.765 2.604-2.069-3.012-4.626-2.553-1.163-1.91-2.821-4.27 3.263-1.073 2.766M23.263 72.6c1.661-10.8-7.754-10.8-6.093 0-9.969-1.8-9.969 8.4 0 6.6-1.661 10.8 7.754 10.8 6.093 0 9.969 1.8 9.969-8.4 0-6.6m-3.047-4.5c0 7.2-.553 7.8-7.2 7.8 6.647 0 7.2.6 7.2 7.8 0-7.2.554-7.8 7.2-7.8-6.646 0-7.2-.6-7.2-7.8m-1.384 7.8c0 .398.146.78.405 1.06.26.282.612.44.98.44.367 0 .719-.158.978-.44.26-.28.406-.662.406-1.06s-.146-.78-.406-1.06a1.33 1.33 0 0 0-.979-.44c-.367 0-.72.158-.979.44a1.56 1.56 0 0 0-.405 1.06m-7.754 20.7c-8.308-3-9.066 1.432-1.108 3 6.092 1.201 6.594-1.02 1.108-3m.2 3.206c-7.825-2.272-8.591 1.835-.948 3.047 5.851.927 6.292-1.495.947-3.047m-.122 3.431c-7.962-1.162-8.276 3.021-.607 3.156 5.872.104 6.046-2.362.607-3.156M97.477 21.6c-4.195-2.736-8.357-5.766-13.292-1.8v.6c6.646-4.2 7.753-1.2 13.292 1.2"/><path stroke="#151515" stroke-linecap="round" stroke-linejoin="round" stroke-width=".5" d="M12.797 92.064c-.04 1.85-1.334 1.975-2.648 2.073m2.983 3.272c-.402 1.118-.692 2.065-.227 2.53m.299.488c-.402 1.118-.692 2.064-.227 2.53m.227.799c-.402 1.118-.692 2.064-.227 2.53m-3.42-9.053a2 2 0 0 0-.287 1.159m-.408 2.097a2 2 0 0 0-.14 1.19m.307 2.503c-.164.38-.224.775-.149 1.189M8.862 93a2 2 0 0 0-.288 1.159M95.815 24.6c-3.306-3.571-9.96-2.426-9.721-1.458M90.83 30c-2.39 1.607-4.431-3-4.985-4.8m-7.2.6c-1.945-6.154-6.092-4.8-6.646-3m15.797.045c-.514.55-.843 1.4-.843 2.355 0 1.657.992 3 2.215 3 1.224 0 2.216-1.343 2.216-3a3.9 3.9 0 0 0-.27-1.434m-19.501-.313c-.108.353-.168.74-.168 1.147 0 1.657.992 3 2.216 3 1.223 0 2.215-1.343 2.215-3q0-.406-.076-.78"/></symbol><rect id="a" width="240" height="336" fill="#fff" rx="12" ry="12"/><path id="b" fill="none" stroke="#151515" d="M0 0h144v240H0z"/></defs></svg>