<svg xmlns="http://www.w3.org/2000/svg" xmlns:xlink="http://www.w3.org/1999/xlink" viewBox="0 0 240 336"><use xlink:href="#a"/><use xlink:href="#b" transform="rotate(180 120 168)"/><g id="b"><use xlink:href="#c" width="36" height="36" x="6" y="12" stroke="#AB2A15"/><use xlink:href="#d" width="24" height="24" x="12" y="52"/><use xlink:href="#d" width="48" height="48" x="48" y="48"/><use xlink:href="#d" width="48" height="48" x="144" y="48"/><use xlink:href="#d" width="48" height="48" x="48" y="112"/><use xlink:href="#d" width="48" height="48" x="144" y="112"/><use xlink:href="#d" width="48" height="48" x="96" y="80"/></g><defs><symbol id="c" fill="none" preserveAspectRatio="xMinYMid" viewBox="0 0 36 36"><path stroke-linecap="square" stroke-width="4.5" d="M8.75 32.5v-29m7.5 14.5V8c0-1.432.487-2.987 1.5-4s2.568-1.75 4-1.75 2.987.737 4 1.75 1.5 2.568 1.5 4v20c0 1.432-.487 2.987-1.5 4s-2.568 1.75-4 1.75-2.987-.737-4-1.75-1.5-2.594-1.5-4z"/></symbol><symbol id="d" viewBox="0 0 16 16"><path fill="#AB2A15" d="M14.261 8c-2.456 1.503-4.886 4.516-6.256 8-1.37-3.484-3.8-6.497-6.255-8 2.456-1.503 4.886-4.516 6.255-8 1.37 3.484 3.8 6.497 6.256 8"/></symbol><rect id="a" width="240" height="336" fill="#fff" rx="12" ry="12"/></defs></svg>