<svg xmlns="http://www.w3.org/2000/svg" xmlns:xlink="http://www.w3.org/1999/xlink" viewBox="0 0 240 336"><use xlink:href="#a"/><use xlink:href="#b" transform="rotate(180 120 168)"/><g id="b"><use xlink:href="#c" width="36" height="36" x="6" y="12" stroke="#AB2A15"/><use xlink:href="#d" width="24" height="24" x="12" y="52"/><use xlink:href="#d" width="48" height="48" x="96" y="48"/></g><defs><symbol id="c" fill="none" preserveAspectRatio="xMinYMid" viewBox="0 0 36 36"><path stroke-linecap="square" stroke-width="4.5" d="M10 10.5c-.563-1.687.687-8.25 8-8.25s7.75 4.875 7.75 8.25C25.75 17.813 10 23.063 10 33.75h15.75V28.5"/></symbol><symbol id="d" viewBox="0 0 16 16"><path fill="#AB2A15" d="M14.261 8c-2.456 1.503-4.886 4.516-6.256 8-1.37-3.484-3.8-6.497-6.255-8 2.456-1.503 4.886-4.516 6.255-8 1.37 3.484 3.8 6.497 6.256 8"/></symbol><rect id="a" width="240" height="336" fill="#fff" rx="12" ry="12"/></defs></svg>