<svg xmlns="http://www.w3.org/2000/svg" xmlns:xlink="http://www.w3.org/1999/xlink" viewBox="0 0 240 336"><use xlink:href="#a"/><use xlink:href="#b" width="48" height="48" x="96" y="144"/><use xlink:href="#c" transform="rotate(180 120 168)"/><g id="c"><use xlink:href="#d" width="36" height="36" x="6" y="12" stroke="#AB2A15"/><use xlink:href="#b" width="24" height="24" x="12" y="52"/><use xlink:href="#b" width="48" height="48" x="96" y="48"/></g><defs><symbol id="d" fill="none" preserveAspectRatio="xMinYMid" viewBox="0 0 36 36"><path stroke-linecap="square" stroke-width="4.5" d="M9.25 6.75v-4.5H25.5l-11.25 13.5c.585-.495 2.313-1.75 4-1.75 7.313 0 9 3.938 9 9 0 7.313-2.687 10.75-10 10.75-7.312 0-8.5-5.25-8.5-5.25"/></symbol><symbol id="b" viewBox="0 0 16 16"><path fill="#AB2A15" d="M15.981 4.454c0 5.738-7.98 11.546-7.98 11.546S.02 10.192.02 4.454C.02 1.2 2.534 0 3.855 0c2.764 0 4.146 2.34 4.146 2.34S9.382 0 12.146 0c1.32 0 3.835 1.2 3.835 4.454"/></symbol><rect id="a" width="240" height="336" fill="#fff" rx="12" ry="12"/></defs></svg>