<svg xmlns="http://www.w3.org/2000/svg" xmlns:xlink="http://www.w3.org/1999/xlink" viewBox="0 0 240 336"><use xlink:href="#a"/><use xlink:href="#b" transform="rotate(180 120 168)"/><g id="b"><use xlink:href="#c" width="36" height="36" x="6" y="12" stroke="#AB2A15"/><use xlink:href="#d" width="24" height="24" x="12" y="52"/><use xlink:href="#d" width="48" height="48" x="48" y="48"/><use xlink:href="#d" width="48" height="48" x="144" y="48"/><use xlink:href="#d" width="48" height="48" x="48" y="144"/></g><defs><symbol id="c" fill="none" preserveAspectRatio="xMinYMid" viewBox="0 0 36 36"><path stroke-linecap="square" stroke-width="4.5" d="M9 21.5c0-2.25.562-4.562 2.25-6.25s4.5-2.75 6.75-2.75 5.062 1.062 6.75 2.75 2.25 4 2.25 6.25v3.25c0 2.25-.562 4.562-2.25 6.25s-4.5 2.75-6.75 2.75-5.062-1.062-6.75-2.75S9 27 9 24.75V11c0-2.25 1.062-4.812 2.75-6.5s4-2.25 6.25-2.25c5.625 0 7 1.75 7.5 2.25"/></symbol><symbol id="d" viewBox="0 0 16 16"><path fill="#AB2A15" d="M15.981 4.454c0 5.738-7.98 11.546-7.98 11.546S.02 10.192.02 4.454C.02 1.2 2.534 0 3.855 0c2.764 0 4.146 2.34 4.146 2.34S9.382 0 12.146 0c1.32 0 3.835 1.2 3.835 4.454"/></symbol><rect id="a" width="240" height="336" fill="#fff" rx="12" ry="12"/></defs></svg>