<svg xmlns="http://www.w3.org/2000/svg" xmlns:xlink="http://www.w3.org/1999/xlink" viewBox="0 0 240 336"><use xlink:href="#a"/><use xlink:href="#b" width="48" height="48" x="96" y="144"/><use xlink:href="#c" transform="rotate(180 120 168)"/><g id="c"><use xlink:href="#d" width="36" height="36" x="6" y="12" stroke="#AB2A15"/><use xlink:href="#b" width="24" height="24" x="12" y="52"/><use xlink:href="#b" width="48" height="48" x="48" y="48"/><use xlink:href="#b" width="48" height="48" x="144" y="48"/><use xlink:href="#b" width="48" height="48" x="48" y="112"/><use xlink:href="#b" width="48" height="48" x="144" y="112"/></g><defs><symbol id="d" fill="none" preserveAspectRatio="xMinYMid" viewBox="0 0 36 36"><path stroke-linecap="square" stroke-width="4.5" d="M27 14.5c0 2.25-.562 4.562-2.25 6.25S20.25 23.5 18 23.5s-4.562-1.062-6.25-2.75S9 16.75 9 14.5v-3.25C9 9 10.062 6.688 11.75 5s4-2.75 6.25-2.75S23.062 3.312 24.75 5 27 9 27 11.25V25c0 1.125.063 2.375-.5 3.5s-1.125 1.875-2.25 3c-1.688 1.688-4 2.25-6.25 2.25-5.625 0-7-1.75-7.5-2.25"/></symbol><symbol id="b" viewBox="0 0 16 16"><path fill="#AB2A15" d="M15.981 4.454c0 5.738-7.98 11.546-7.98 11.546S.02 10.192.02 4.454C.02 1.2 2.534 0 3.855 0c2.764 0 4.146 2.34 4.146 2.34S9.382 0 12.146 0c1.32 0 3.835 1.2 3.835 4.454"/></symbol><rect id="a" width="240" height="336" fill="#fff" rx="12" ry="12"/></defs></svg>