<svg xmlns="http://www.w3.org/2000/svg" xmlns:xlink="http://www.w3.org/1999/xlink" viewBox="0 0 240 336"><use xlink:href="#a"/><use xlink:href="#b" width="120" height="120" x="60" y="108"/><use xlink:href="#c" transform="rotate(180 120 168)"/><g id="c"><use xlink:href="#d" width="36" height="36" x="6" y="12" stroke="#AB2A15"/><use xlink:href="#b" width="24" height="24" x="12" y="52"/></g><defs><symbol id="d" fill="none" preserveAspectRatio="xMinYMid" viewBox="0 0 36 36"><path stroke-linecap="square" stroke-width="4.5" d="M8.5 33.75H14m-3.25 0L18 1l7.25 32.75m-3.25 0h5.5m-13-11.25h7"/></symbol><symbol id="b" viewBox="0 0 16 16"><path fill="#AB2A15" d="M15.981 4.454c0 5.738-7.98 11.546-7.98 11.546S.02 10.192.02 4.454C.02 1.2 2.534 0 3.855 0c2.764 0 4.146 2.34 4.146 2.34S9.382 0 12.146 0c1.32 0 3.835 1.2 3.835 4.454"/></symbol><rect id="a" width="240" height="336" fill="#fff" rx="12" ry="12"/></defs></svg>