<svg xmlns="http://www.w3.org/2000/svg" xmlns:xlink="http://www.w3.org/1999/xlink" viewBox="0 0 240 336"><use xlink:href="#a"/><use xlink:href="#b" x="48" y="48"/><use xlink:href="#c" transform="rotate(180 120 168)"/><g id="c"><use xlink:href="#d" width="36" height="36" x="6" y="12" stroke="#AB2A15"/><use xlink:href="#e" width="24" height="24" x="12" y="52"/><use xlink:href="#f" x="48" y="48"/></g><defs><symbol id="d" fill="none" preserveAspectRatio="xMinYMid" viewBox="0 0 36 36"><path stroke-linecap="square" stroke-width="4.5" d="M19.75 2.25h3.75m3.5 0h-3.5m0 0V26c0 1.91-.9 4.15-2.25 5.5s-3.09 2.25-5 2.25-3.65-.9-5-2.25S9 27.91 9 26v-.75"/></symbol><symbol id="e" viewBox="0 0 16 16"><path fill="#AB2A15" d="M15.981 4.454c0 5.738-7.98 11.546-7.98 11.546S.02 10.192.02 4.454C.02 1.2 2.534 0 3.855 0c2.764 0 4.146 2.34 4.146 2.34S9.382 0 12.146 0c1.32 0 3.835 1.2 3.835 4.454"/></symbol><symbol id="f" fill="none"><use xlink:href="#e" width="24" height="24" x="4" y="4"/><use xlink:href="#e" width="6" height="6" x="65" y="117"/><use xlink:href="#e" width="6" height="6" x="81" y="117"/><use xlink:href="#e" width="6" height="6" x="36" y="80" transform="rotate(-30 36 80)"/><use xlink:href="#e" width="6" height="6" x="41" y="89" transform="rotate(-20 41 89)"/><use xlink:href="#e" width="8" height="8" x="115" y="77" transform="rotate(-50 115 77)"/><use xlink:href="#e" width="8" height="8" x="125" y="88" transform="rotate(-35 125 88)"/><use xlink:href="#e" width="8" height="8" x="132" y="100" transform="rotate(-20 132 100)"/><path stroke="#151515" stroke-linecap="round" stroke-linejoin="round" d="M88.892 131.7v-23.4m0 0H55.108c-3.163-14.059-8.028-26.858-16.019-38.332M88.892 108.3l30.711-43.007M88.888 110.4h-33.74m33.717 2.4H55.104m30.466-4.5 31.859-44.616M73.385 108.3l33.835-47.383m-3.097-.317-34.062 47.7c-3.85-17.116-8.281-33.944-19.5-47.41m-2 1.644c10.252 13.178 14.483 29.34 18.177 45.766M41.232 68.314c8.697 11.895 13.884 25.248 17.199 39.986M31.077 76.46c5.805 7.881 10.06 16.406 13.241 25.551M28.943 78.115c5.772 8.227 9.927 17.137 12.99 26.706m9.84-8.635c-10.391 6.069-17.435 17.817-17.435 31.314 0 8.599 2.86 16.487 7.62 22.65m12.378-45.116c-6.939 4.75-11.535 13.037-11.535 22.466 0 5.649 1.65 10.889 4.465 15.203m7.829-33.858c-5.4 4.203-8.908 10.993-8.908 18.655 0 4.442 1.178 8.591 3.222 12.113M98.535 68.4H55.932m46.896-6H51.913m49.995-3.6H53.169m0 0L0 101.118M53.17 58.8l2.757-2.24m58.601 4.966L144 83.545m-26.083-15.888L144 87.146m-105.284 16.36c-4.828 6.633-7.7 14.957-7.7 23.994 0 8.158 2.34 15.735 6.348 22.011M.003 131.556c16.908-3.038 29.905-21.291 29.905-43.356 0-3.455-.319-6.816-.921-10.04M0 118.16c11.072-2.888 19.392-15.205 19.392-29.96q0-1.213-.074-2.403M.008 114.469c9.471-2.826 16.516-13.515 16.516-26.269v-.245M.001 106.99c5.107-2.134 9.053-7.458 10.34-14.088m-.615 35.068c5.471 14.311 13.672 27.736 21.693 36.844m-19.03-38.61c5.068 13.899 12.799 27.104 20.564 36.511m-17.98-38.6c4.145 12.069 10.378 23.733 17.001 32.991m5.423-7.574-5.401 7.606m-2.202-72.623c3.677 5.966 6.596 12.27 8.943 18.902M97.185 70.2H57.057M.002 129.341c15.892-2.3 28.244-19.638 28.244-40.684 0-3.226-.29-6.365-.839-9.376m-.756 9.652.001-.276c0-2.828-.234-5.585-.68-8.242m-1.372 22.35a48 48 0 0 0 1.84-9.485m-8.753 23.012c2.227-2.836 4.113-6.114 5.572-9.723m-16.778 18.77c3.437-1.561 6.59-3.899 9.33-6.849M.003 127.277a24 24 0 0 0 2.647-.558m22.104-40.526a47 47 0 0 0-.443-4.443m-1.461 20.294a45 45 0 0 0 1.796-9.347m-8.035 21.644c1.947-2.532 3.608-5.428 4.916-8.601M5.243 123.39c3.166-1.331 6.087-3.358 8.655-5.941m9.003-31.55a44 44 0 0 0-.264-2.789m-.804 15.534a42 42 0 0 0 .763-4.125m-6.072 16.474a35 35 0 0 0 2.381-4.132m-12.42 13.431a25 25 0 0 0 4.359-2.935m10.092-32.924a41 41 0 0 1 .18 5.954m-1.27 8.502c.432-1.64.764-3.34.985-5.087m-2.114 8.636q.17-.453.329-.914m-4.304 8.502a32.5 32.5 0 0 0 2.611-4.42m-5.155 7.551q.194-.207.383-.418M.003 120.145c3.546-.664 6.848-2.296 9.74-4.679m-9.758 5.742c.557-.276 1.359-.224 2.43.411.243-5.637 7.576-.595 2.8 1.743 4.075 3.165-2.793 7.053-2.9 1.754-.977.698-1.761.691-2.321.319m55.13-.481c-1.36-.73-4.12-2.143-5.832-2.554-3.534-.849-3.73 4.627-.554 4.8 1.64.089 4.8.376 6.33.518m.066-1.336-3.626-.982m3.544-3.333c-.932-1.123-2.64-3.095-3.85-3.993-2.63-1.953-4.453 2.453-1.91 3.726 1.772.887 5.703 3.055 5.703 3.055m.097-1.191-2.99-2.349m2.972-5.086c-.429-.838-.884-1.641-1.3-2.201-2-2.691-4.917.959-2.82 2.972 1.089 1.045 3.138 3.148 4.11 4.15m.037-1.85-1.328-1.887m1.315-7.464c-1.375.105-2.61 1.98-1.472 3.615.388.556.92 1.355 1.462 2.176m-.049 12.396c-1.464-.199-4.61-.567-6.396-.336-3.595.464-2.109 5.703.942 4.728 1.374-.438 3.889-1.151 5.494-1.6m-.03-1.43-3.4.34m3.433 1.134c-1.454.409-4.439 1.312-5.997 2.228-2.861 1.681-.59 5.305 1.716 4.474m3.353-4.653-1.58.87m.514-27.929-2.124-2.762c-2.308-3-5.539 1.44-3.877 3.6l2.164 2.813m-1.18 1.528-2.867-1.999c-3.032-2.114-4.887 3.171-2.704 4.693l2.831 1.974m-.73 1.722-3.21-.867c-3.497-.945-3.685 4.705-1.166 5.385l2.954.798m-.276 2.242-2.968.093c-3.603.113-2.376 5.608.219 5.526l2.827-.088m.41 2.548-2.812.741c-3.502.923-1.246 6.021 1.276 5.356l3.143-.828m.606 1.358-2.565 2.125c-2.13 1.765-.485 4.254 1.346 4.711m7.618-49.924c-.92 1.343-1.298 3.077-.547 4.538-3.764-4.893-9.033 2.349-6.323 5.872-4.944-3.447-7.97 5.172-4.41 7.654-5.704-1.541-6.01 7.674-1.902 8.784-5.877.184-3.876 9.146.356 9.014-5.713 1.505-2.033 9.82 2.08 8.736-3.257 2.699-1.102 6.436 1.642 7.507M144 3.261 132.369 18.6v56.178M144 12.235 137.354 21v57.522m-5.045-52.014c-7.349-7.189-5.272-11.813-4.924-16.908-16.744 15.453-12.166 30.573-1.662 45.6.081-7.117.906-13.54 6.698-15.336m-5.376-27.385c-2.475 3.48-5.265 6.757-.214 15.121-2.236.944-4.484 1.64-6.646 4.2 1.761 2.922 4.161 3.985 6.646 4.8-1.911 4.424-5.781 7.36-1.101 16.794M23.7 82.266c-.19-1.77-.575-5.051-.992-5.466-.58-.577-4.91-6.52-5.539-7.2-.554-.6-3.877-1.2-4.43-1.2-.554 0-2.961 1.144-3.324 3-1.06 5.438 1.135 9.044 3.877 1.2 1.108 1.2 1.662 1.2 3.323 1.2-4.732 4.067-3.2 7.225 1.662 9.6m-6.074-15.02c-.41-.576-.965-1.178-1.68-1.78-3.406-2.87-8.53-.913-3.323 3.6.762.66 1.47 1.15 2.115 1.493m-1.668-1.105c-4.143-1.376-7.4 1.104-.934 5.064 6.158 3.77 8.651 1.571 6.027-1.57M6.857 75.71c-3.797-.318-6.056 2.222.285 4.593 6.643 2.484 8.524-.224 4.857-2.684m-5.075 2.61C3.14 79.984.732 82.95 6.887 84.6c6.332 1.699 7.572-1.477 3.49-3.41m3.156 9.207c-2.467-.827-5.6-3.832-5.904-5.595m6.93-4.09c-.541 2.32 1.759 5.25 2.056 5.088m14.954-30c.554 4.8-3.877 6.6-8.307 3C17.3 53.957 5.86 53.751 11.63 66.6m19.938-10.8c7.754 3.6.554 16.8-7.2 11.4-4.674-3.255-11.63-4.8-12.738-.6m19.938-10.8c5.035 6.319-1.574 12.235-9.969 6-8.227-6.11-12.464 2.843-9.97 4.8m0 0 .555 1.8m1.791-12.567c-.959 1.923-1.676 3.854-1.803 5.807m4.403-5.803c-1.098 1.337-1.987 2.749-2.47 4.305m6.952-2.786c-1.017.819-1.965 1.697-2.736 2.69m6.451-.213c-1.436.297-2.778.739-3.947 1.451m6.976-.562c-1.095.9-2.058 1.882-2.782 3.01m6.018-4.771c-.819 1.816-1.453 3.628-1.633 5.43m-14.453-.315c-.62-1.203-.477-2.607-.006-4.213m2.56 4.393c-.517-1.21-.375-2.712-.002-4.45m4.523 5.994c-.515-1.051-.582-2.414-.494-3.995m5.907 6.65c-.793-1.01-1.125-2.526-1.362-4.329m6.651 2.176c-.746-.49-1.408-1.284-2.065-2.255m23.93-46.399c-.636 2.184-1.425 5.036-1.425 5.752 0 1.342.554 1.575.554 2.4 0 .6-4.43 8.4-4.43 10.8s2.215 2.4 2.769 2.4c.553 0 0 2.4 0 3s.553 1.8.553 1.8-.553.952-.553 1.8c0 1.8 3.323 1.8 3.323 1.8s-.554 1.8-.554 2.4-2.216 0-2.216 3c0 1.2 3.323 4.2 4.431 4.2s2.215-1.2 3.323-1.2 2.77 1.2 3.877 1.2c1.108 0 6.76-2.462 8.862-3.6 1.107-.6.95-2.397 2.835-3.188 1.152-.484 2.408-2.304 3.379-4.335M55.385 35.4c4.322.42 1.745 4.834-2.216 1.8-.904-.693 0 .6 0 .6 1.006 0 1.996.568 2.77.48m1.218 6.6c-1.563-.262-3.118-.094-4.542-1.2M64.8 29.4c-3.694-.26-6.671-3.785-9.637-3.6m6.318 2.615c1.378 3.414-4.515.939-6.429 2.065m48.357-11.753c5.748 14.692-1.929 26.283 5.145 38.873m0 0c1.056 1.88 5.538 3 6.092 0 .978-5.295-5.566-3.347-3.877-1.2m-2.215 1.2c-2.216-6.6 9.045-8.968 8.308.6-.426 5.521-8.308 4.2-10.524-.6-6.179-13.39.995-24.632-5.409-39.576m-2.534-.723c6.957 15.306-.55 26.695 5.728 40.299 1.367 2.963 4.894 4.6 7.493 4.121M95.91 16.714c7.47 15.604.193 27.108 6.552 40.886.946 2.051 2.522 2.93 4.265 3.117M93.451 16.21c7.871 15.778.369 26.266 6.795 40.191 1.368 2.963 4.047 4.679 6.646 4.2M91.014 15.77c8.232 15.991.53 25.977 7.017 40.03 1.314 2.847 3.328 3.99 5.791 3.649M88.585 15.36c8.578 16.231.69 26.268 7.23 40.44 1.368 2.963 2.94 3.479 5.539 3m-15.14-43.731C95.042 31.47 87.02 41.543 93.6 55.8c1.367 2.963 3.493 3.479 6.092 3M83.851 14.797c9.064 16.545.917 25.467 7.534 39.803 1.367 2.963 2.939 4.079 5.538 3.6M81.528 14.602c9.236 16.665.999 25.006 7.641 39.398 1.368 2.963 2.94 4.079 5.539 3.6M79.246 14.483c9.342 16.743 1.05 24.49 7.708 38.917 1.147 2.486 2.048 3.25 3.844 3.148M76.985 14.4c9.415 16.8 1.084 22.75 7.753 37.2 1.021 2.212 1.847 3.394 3.281 3.652M74.77 14.4c9.416 16.8 1.085 21.55 7.754 36 .682 1.477 1.69 2.197 2.85 2.488M72.595 14.475c9.348 16.728.5 17.896 7.159 32.325.825 1.787 1.522 2.684 2.516 3.01m24.554-33.222c-15.29-4.608-34.594-8.299-56.083-1.97M121.885 0l-17.286 19.063c-14.23-4.41-33.549-7.32-50.876-1.063L37.611 0M19.38 102.29c-2.743-4.799 5.937-5.131 3.219-.279 5.012.115 1.377 7.529-1.478 3.225-1.837 4.887-7.302-2.343-1.741-2.946m2.646-12.34c-3.625-4.054 4.79-6.386 3.09-1.016 4.92-1.047 2.829 7.037-.808 3.492-.833 5.199-7.596-.601-2.282-2.476m-9.389 23.237c-1.328-5.457 7.063-3.028 3.154.753 4.763 1.696-.714 7.636-2.283 2.616-3.075 4.092-6.351-4.552-.87-3.369M61.145 43.92c-2.216-.308-4.741-2.868-5.317-3.48-.454-.482-1.653.52-1.551 1.2 2.191 1.236 5.322 2.595 6.868 2.28M67.9 26.88c-.226.417-7.273-4.661-8.529-5.16-1.54-.612-2.946.803-2.88.72l-.221 1.32s1.817-1.424 2.769-1.08c.997.36 8.744 4.817 8.862 4.2"/><path fill="#151515" d="M73.896 11.25c12.247-.062 23.371 2.462 32.928 5.349l-2.225 2.464c-14.23-4.41-33.549-7.32-50.876-1.063l-2.987-3.362c8.06-2.38 15.812-3.35 23.16-3.387m40.648 50.263.408.282.753 2.652-1.227 1.539-5.407-.901 1.641 5.336-1.142 1.575-5.134-.464 1.32 6.198-1.261 1.454-5.04-.91 1.32 6.674-1.265 1.436-4.878-.881 1.688 5.944-1.227 1.539-5.453-.909 1.696 5.97-1.059 1.553H84.66l1.674 4.99-1.04 1.61h-5.48l.865 2.063-2.412.051-1.182-2.817 1.008-1.697h5.619l-1.675-4.99 1.041-1.61h5.7l-1.774-6.247 1.227-1.539 5.453.909-1.696-5.97 1.241-1.537 5.04.91-1.32-6.674 1.265-1.436 5.012.905-1.289-6.051 1.171-1.466 4.973.45-1.685-5.474 1.22-1.566 5.453.909-.418-1.47zm-69.486 3.675 4.957.826.91 1.456-1.412 6.63 6.12 1.53.774 1.632-2.343 6.092 5.624 2.538.596 1.57-2.4 6.242 4.717 3.067.398 1.612-2.314 4.513 4.807 4.167c.345.288.49.751.41 1.183l-2.525.057-4.807-4.166-.277-1.52 2.25-4.385-4.62-3.003-.453-1.49 2.343-6.093-5.623-2.538-.597-1.57 2.265-5.888-5.922-1.48-.83-1.44 1.393-6.54-5.814-.97zm60.173.812c.22 0 .432.095.587.264a.94.94 0 0 1 .244.636.94.94 0 0 1-.244.636.8.8 0 0 1-.587.264.8.8 0 0 1-.588-.264.94.94 0 0 1-.243-.636.94.94 0 0 1 .243-.636.8.8 0 0 1 .588-.264m6.923.9c.22 0 .432.095.587.264a.94.94 0 0 1 .244.636.94.94 0 0 1-.244.636.8.8 0 0 1-.587.264.8.8 0 0 1-.587-.264.94.94 0 0 1-.244-.636.94.94 0 0 1 .244-.636.8.8 0 0 1 .587-.264m-67.015 2.4a.8.8 0 0 1 .587.264.94.94 0 0 1 .243.636.94.94 0 0 1-.243.636.8.8 0 0 1-.587.264.8.8 0 0 1-.588-.264.94.94 0 0 1-.243-.636.94.94 0 0 1 .243-.636.8.8 0 0 1 .588-.264m50.123.9-24.37 34.2c-2.7-12.116-6.298-23.984-11.63-34.2zm-42.923.9a.8.8 0 0 1 .587.264.94.94 0 0 1 .243.636.94.94 0 0 1-.243.636.8.8 0 0 1-.587.264.8.8 0 0 1-.588-.264.94.94 0 0 1-.243-.636.94.94 0 0 1 .243-.636.8.8 0 0 1 .588-.264m39.6.9H62.03c4.43 9 7.477 18.546 9.415 28.8zm15.23.9a.8.8 0 0 1 .588.264.94.94 0 0 1 .243.636.94.94 0 0 1-.243.636.8.8 0 0 1-.588.264.8.8 0 0 1-.587-.264.94.94 0 0 1-.243-.636c0-.239.087-.468.243-.636a.8.8 0 0 1 .587-.264m-6.646 0a.8.8 0 0 1 .588.264.94.94 0 0 1 .243.636.94.94 0 0 1-.243.636.8.8 0 0 1-.588.264.8.8 0 0 1-.587-.264.94.94 0 0 1-.244-.636.94.94 0 0 1 .244-.636.8.8 0 0 1 .587-.264m-71.558 5.237c5.75 8.205 9.905 17.115 12.995 26.681-4.752 6.165-7.621 14.067-7.621 22.682 0 8.599 2.858 16.487 7.606 22.652l-8.961 12.526c-7.795-9.37-15.526-22.575-20.596-36.495a34 34 0 0 0 2.595-2.067c4.136 12.068 10.37 23.733 17.003 33.006l5.395-7.601c-4.024-6.286-6.366-13.863-6.366-22.021q0-.874.037-1.74h-3.36a.3.3 0 0 1-.128-.026.36.36 0 0 1-.183-.195.39.39 0 0 1 .073-.395.3.3 0 0 1 .11-.078.3.3 0 0 1 .128-.026h3.396q.085-1.455.268-2.88h-5.048a.33.33 0 0 1-.238-.104.385.385 0 0 1 0-.512.33.33 0 0 1 .238-.104h5.147q.212-1.459.523-2.88h-5.947a.33.33 0 0 1-.238-.104.385.385 0 0 1 0-.512.33.33 0 0 1 .238-.104h6.112q.304-1.277.685-2.52H24.37a.64.64 0 0 1-.487-.22q.36-.602.701-1.22H33.3q.381-1.095.821-2.16h-8.09a.6.6 0 0 1-.284-.065q.333-.68.646-1.375h8.356q.504-1.1 1.07-2.16h-8.513q.282-.712.544-1.44h8.775q.649-1.104 1.364-2.16h-9.413q.221-.715.424-1.44h9.592q-.383-1.087-.789-2.16h-8.247q.169-.716.318-1.44h7.372q-.429-1.087-.88-2.16h-6.092a55 55 0 0 0 .218-1.44h5.252a97 97 0 0 0-.98-2.16h-4.017q.07-.717.122-1.44h3.202a91 91 0 0 0-4.28-7.764 52 52 0 0 0-.825-6.379m21.712.163a.8.8 0 0 1 .587.264.94.94 0 0 1 .244.636.94.94 0 0 1-.244.636.8.8 0 0 1-.587.264.8.8 0 0 1-.587-.264.94.94 0 0 1-.244-.636.94.94 0 0 1 .244-.636.8.8 0 0 1 .587-.264m51.508 1.8a.8.8 0 0 1 .587.264.94.94 0 0 1 .244.636.94.94 0 0 1-.244.636.8.8 0 0 1-.587.264.8.8 0 0 1-.588-.264.94.94 0 0 1-.243-.636c0-.239.087-.468.243-.636a.8.8 0 0 1 .588-.264m-6.646 0a.8.8 0 0 1 .587.264.94.94 0 0 1 .243.636.94.94 0 0 1-.243.636.8.8 0 0 1-.587.264.8.8 0 0 1-.588-.264.94.94 0 0 1-.243-.636.94.94 0 0 1 .243-.636.8.8 0 0 1 .588-.264m-38.216 1.2a.8.8 0 0 1 .588.264.94.94 0 0 1 .243.636.94.94 0 0 1-.243.636.8.8 0 0 1-.588.264.8.8 0 0 1-.587-.264.94.94 0 0 1-.244-.636.94.94 0 0 1 .244-.636.8.8 0 0 1 .587-.264m33.231 5.4a.8.8 0 0 1 .587.264.94.94 0 0 1 .244.636.94.94 0 0 1-.244.636.8.8 0 0 1-.587.264.8.8 0 0 1-.588-.264.94.94 0 0 1-.243-.636.94.94 0 0 1 .243-.636.8.8 0 0 1 .588-.264m7.2.6a.8.8 0 0 1 .587.264.94.94 0 0 1 .244.636.94.94 0 0 1-.244.636.8.8 0 0 1-.587.264.8.8 0 0 1-.588-.264.94.94 0 0 1-.243-.636.94.94 0 0 1 .243-.636.8.8 0 0 1 .588-.264m-42.923.9a.8.8 0 0 1 .587.264.94.94 0 0 1 .244.636.94.94 0 0 1-.244.636.8.8 0 0 1-.587.264.8.8 0 0 1-.588-.264A.94.94 0 0 1 54 89.1a.94.94 0 0 1 .243-.636.8.8 0 0 1 .588-.264m6.092 3.6a.8.8 0 0 1 .588.264.94.94 0 0 1 .243.636.94.94 0 0 1-.243.636.8.8 0 0 1-.588.264.8.8 0 0 1-.587-.264.94.94 0 0 1-.244-.636.94.94 0 0 1 .244-.636.8.8 0 0 1 .587-.264m-50.602 1.11c-1.268 6.625-5.213 11.946-10.32 14.08v-5.87c3.434-2.734 6.868-5.467 10.32-8.208m82.448.99a.8.8 0 0 1 .588.264.94.94 0 0 1 .243.636.94.94 0 0 1-.243.636.8.8 0 0 1-.588.264.8.8 0 0 1-.587-.264.94.94 0 0 1-.243-.636.94.94 0 0 1 .243-.636.8.8 0 0 1 .587-.264m-7.2 0a.8.8 0 0 1 .588.264.94.94 0 0 1 .243.636.94.94 0 0 1-.243.636.8.8 0 0 1-.588.264.8.8 0 0 1-.587-.264.94.94 0 0 1-.243-.636.94.94 0 0 1 .243-.636.8.8 0 0 1 .587-.264m-27.692 4.2a.8.8 0 0 1 .587.264.94.94 0 0 1 .244.636.94.94 0 0 1-.243.636.8.8 0 0 1-.588.264.8.8 0 0 1-.587-.264.94.94 0 0 1-.244-.636.94.94 0 0 1 .244-.636.8.8 0 0 1 .587-.264m29.908 3a.8.8 0 0 1 .587.264.94.94 0 0 1 .243.636.94.94 0 0 1-.243.636.8.8 0 0 1-.587.264.8.8 0 0 1-.588-.264.94.94 0 0 1-.243-.636.94.94 0 0 1 .243-.636.8.8 0 0 1 .588-.264m-7.2 0a.8.8 0 0 1 .587.264.94.94 0 0 1 .243.636.94.94 0 0 1-.243.636.8.8 0 0 1-.587.264.8.8 0 0 1-.588-.264.94.94 0 0 1-.243-.636c0-.239.087-.468.243-.636a.8.8 0 0 1 .588-.264m-16.893.3a.8.8 0 0 1 .588.264.94.94 0 0 1 .243.636.94.94 0 0 1-.243.636.8.8 0 0 1-.588.264.8.8 0 0 1-.587-.264.94.94 0 0 1-.243-.636c0-.239.087-.468.243-.636a.8.8 0 0 1 .587-.264"/><path fill="#151515" d="m31.986 157.122 5.395-7.601c-4.024-6.286-6.366-13.863-6.366-22.021 0-9.037 2.873-17.361 7.712-24.038-2.336-6.677-5.256-12.98-8.937-18.962.076 1.21.117 2.449.117 3.7 0 14.825-5.867 27.929-14.89 35.885 4.102 12.099 10.335 23.763 16.969 33.037M61.144 43.92c-2.215-.308-4.74-2.868-5.316-3.48-.454-.482-1.653.52-1.551 1.2 2.19 1.236 5.322 2.595 6.867 2.28m6.757-17.04c-.226.417-7.274-4.661-8.529-5.16-1.54-.612-2.946.803-2.88.72l-.221 1.32s1.817-1.424 2.769-1.08c.997.36 8.744 4.817 8.861 4.2m-11.187 1.14c0 .244.024.486.071.712.048.226.117.43.204.603.088.173.192.31.306.403a.57.57 0 0 0 .36.142.57.57 0 0 0 .36-.142c.115-.093.219-.23.306-.403.087-.172.157-.378.204-.603a3.5 3.5 0 0 0 0-1.424 2.5 2.5 0 0 0-.204-.603 1.2 1.2 0 0 0-.305-.403.57.57 0 0 0-.36-.142.57.57 0 0 0-.361.142c-.114.093-.218.23-.306.403a2.5 2.5 0 0 0-.204.603 3.5 3.5 0 0 0-.071.712"/><path stroke="#151515" stroke-linecap="round" stroke-linejoin="round" stroke-width=".5" d="M131.261 25.42v14.904m-1.107-16.184v16.838m-1.108-18.345v19.285m-1.108-21.29v22.749M126.831 10.8v35.063m-1.108-34.655V54.6m-1.108-42.236v41.19m-1.107-39.939v38.247m-1.108-36.89v35.09m-1.108-33.594v31.636m-1.107-29.955v27.837m-1.108-25.848V43.62M10.855 81.6c-1.086 1.055-.845 3.22-.443 3.24m1.33-6.96c-1.087 1.055-.846 3.22-.444 3.24m-1.883-8.76c.997.6.443 4.32.443 4.32m-1.107 1.08c-.357.566-.424 1.234-.443 1.92m-.665 2.16c-.356.566-.424 1.234-.443 1.92m47.74-53.28c.323-.306 2.885.645 2.991 1.32m-2.88-6.12c1.33.36 2.548-1.2 4.099-1.2.456 0 2.437.96 2.437.96m-4.586.719c-.403.333-.61.992-.62 1.741 0 1.226.719 2.22 1.606 2.22s1.606-.994 1.606-2.22q0-.278-.048-.538M78.18 48h2.16m-3.707 1.8h5.594m-7.776 1.8h8.844m-10.163 1.8h12.573m-15.92 1.8h17.723M72.554 57h18.858"/></symbol><rect id="a" width="240" height="336" fill="#fff" rx="12" ry="12"/><path id="b" fill="none" stroke="#151515" d="M0 0h144v240H0z"/></defs></svg>