<svg xmlns="http://www.w3.org/2000/svg" xmlns:xlink="http://www.w3.org/1999/xlink" viewBox="0 0 240 336"><use xlink:href="#a"/><use xlink:href="#b" transform="rotate(180 120 168)"/><g id="b"><use xlink:href="#c" width="36" height="36" x="6" y="12" stroke="#151515"/><use xlink:href="#d" width="24" height="24" x="12" y="52"/><use xlink:href="#d" width="48" height="48" x="48" y="48"/><use xlink:href="#d" width="48" height="48" x="144" y="48"/><use xlink:href="#d" width="48" height="48" x="48" y="112"/><use xlink:href="#d" width="48" height="48" x="144" y="112"/><use xlink:href="#d" width="48" height="48" x="96" y="80"/></g><defs><symbol id="c" fill="none" preserveAspectRatio="xMinYMid" viewBox="0 0 36 36"><path stroke-linecap="square" stroke-width="4.5" d="M8.75 32.5v-29m7.5 14.5V8c0-1.432.487-2.987 1.5-4s2.568-1.75 4-1.75 2.987.737 4 1.75 1.5 2.568 1.5 4v20c0 1.432-.487 2.987-1.5 4s-2.568 1.75-4 1.75-2.987-.737-4-1.75-1.5-2.594-1.5-4z"/></symbol><symbol id="d" viewBox="0 0 16 16"><path fill="#151515" d="M15.224 9.84c0 2.23-1.921 3.251-3.25 3.251-1.483 0-2.603-.672-3.27-1.219.089 1.814.518 3.11 2.444 4.128H4.856c1.925-1.02 2.356-2.314 2.443-4.128-.666.547-1.787 1.22-3.268 1.22C2.704 13.091.78 12.068.78 9.84.78 5.767 3.65 6.875 8.001 0c4.353 6.875 7.223 5.767 7.223 9.84"/></symbol><rect id="a" width="240" height="336" fill="#fff" rx="12" ry="12"/></defs></svg>