<svg xmlns="http://www.w3.org/2000/svg" xmlns:xlink="http://www.w3.org/1999/xlink" viewBox="0 0 240 336"><use xlink:href="#a"/><use xlink:href="#b" transform="rotate(180 120 168)"/><g id="b"><use xlink:href="#c" width="36" height="36" x="6" y="12" stroke="#151515"/><use xlink:href="#d" width="24" height="24" x="12" y="52"/><use xlink:href="#d" width="48" height="48" x="48" y="48"/><use xlink:href="#d" width="48" height="48" x="144" y="48"/><use xlink:href="#d" width="48" height="48" x="48" y="144"/><use xlink:href="#d" width="48" height="48" x="96" y="96"/></g><defs><symbol id="c" fill="none" preserveAspectRatio="xMinYMid" viewBox="0 0 36 36"><path stroke-linecap="square" stroke-width="4.5" d="M18 15.75c-1.954-.01-3.623-.613-5-2S11.245 10.954 11.25 9s.367-3.37 1.75-4.75 3.046-2 5-2 3.616.62 5 2S24.745 7.046 24.75 9s-.373 3.363-1.75 4.75-3.046 1.99-5 2m0 0c-2.431.01-4.786 1.026-6.5 2.75S8.995 22.318 9 24.75s.779 4.532 2.5 6.25 4.069 2.75 6.5 2.75 4.779-1.032 6.5-2.75 2.495-3.818 2.5-6.25-.786-4.526-2.5-6.25-4.068-2.74-6.5-2.75"/></symbol><symbol id="d" viewBox="0 0 16 16"><path fill="#151515" d="M15.224 9.84c0 2.23-1.921 3.251-3.25 3.251-1.483 0-2.603-.672-3.27-1.219.089 1.814.518 3.11 2.444 4.128H4.856c1.925-1.02 2.356-2.314 2.443-4.128-.666.547-1.787 1.22-3.268 1.22C2.704 13.091.78 12.068.78 9.84.78 5.767 3.65 6.875 8.001 0c4.353 6.875 7.223 5.767 7.223 9.84"/></symbol><rect id="a" width="240" height="336" fill="#fff" rx="12" ry="12"/></defs></svg>