<svg xmlns="http://www.w3.org/2000/svg" xmlns:xlink="http://www.w3.org/1999/xlink" viewBox="0 0 240 336"><use xlink:href="#a"/><use xlink:href="#b" width="48" height="48" x="96" y="144"/><use xlink:href="#c" transform="rotate(180 120 168)"/><g id="c"><use xlink:href="#d" width="36" height="36" x="6" y="12" stroke="#151515"/><use xlink:href="#b" width="24" height="24" x="12" y="52"/><use xlink:href="#b" width="48" height="48" x="48" y="48"/><use xlink:href="#b" width="48" height="48" x="144" y="48"/><use xlink:href="#b" width="48" height="48" x="48" y="112"/><use xlink:href="#b" width="48" height="48" x="144" y="112"/></g><defs><symbol id="d" fill="none" preserveAspectRatio="xMinYMid" viewBox="0 0 36 36"><path stroke-linecap="square" stroke-width="4.5" d="M27 14.5c0 2.25-.562 4.562-2.25 6.25S20.25 23.5 18 23.5s-4.562-1.062-6.25-2.75S9 16.75 9 14.5v-3.25C9 9 10.062 6.688 11.75 5s4-2.75 6.25-2.75S23.062 3.312 24.75 5 27 9 27 11.25V25c0 1.125.063 2.375-.5 3.5s-1.125 1.875-2.25 3c-1.688 1.688-4 2.25-6.25 2.25-5.625 0-7-1.75-7.5-2.25"/></symbol><symbol id="b" viewBox="0 0 16 16"><path fill="#151515" d="M15.224 9.84c0 2.23-1.921 3.251-3.25 3.251-1.483 0-2.603-.672-3.27-1.219.089 1.814.518 3.11 2.444 4.128H4.856c1.925-1.02 2.356-2.314 2.443-4.128-.666.547-1.787 1.22-3.268 1.22C2.704 13.091.78 12.068.78 9.84.78 5.767 3.65 6.875 8.001 0c4.353 6.875 7.223 5.767 7.223 9.84"/></symbol><rect id="a" width="240" height="336" fill="#fff" rx="12" ry="12"/></defs></svg>