<svg xmlns="http://www.w3.org/2000/svg" viewBox="0 0 24 24"><path d="M0 14.433c0 3.061 2.394 5.43 5.437 5.43 1.693 0 3.425-.563 4.176-2.062h.128c0 1.704-1.86 3.113-2.61 3.907-.917.96-.357 2.292.827 2.292h8.084c1.172 0 1.732-1.332.815-2.292-.75-.794-2.61-2.203-2.61-3.907h.14c.739 1.499 2.483 2.063 4.164 2.063 3.043 0 5.449-2.37 5.449-5.43 0-3.074-2.317-5.674-5.36-5.674a5.4 5.4 0 0 0-3.297 1.14c1.578-1.294 2.139-2.92 2.139-4.38a5.54 5.54 0 0 0-1.606-3.905A5.48 5.48 0 0 0 11.994 0C8.977 0 6.519 2.459 6.519 5.52c0 1.46.548 3.086 2.126 4.38-.929-.744-2.138-1.14-3.297-1.14C2.305 8.76 0 11.36 0 14.433"/></svg>