<svg xmlns="http://www.w3.org/2000/svg" width="24" height="24"><path fill-rule="evenodd" d="M4.257 12c0 3.58-.81 6.972-2.257 10a23.1 23.1 0 0 1 10-2.256c3.58 0 6.972.81 10 2.256a23.14 23.14 0 0 1-2.256-10c0-3.58.81-6.971 2.256-10a23.1 23.1 0 0 1-10 2.257c-3.58 0-6.97-.81-10-2.257a23.1 23.1 0 0 1 2.257 10m5.006 2.738A11.6 11.6 0 0 1 12 19.071a11.6 11.6 0 0 1 2.738-4.333 11.6 11.6 0 0 1 4.333-2.737 11.6 11.6 0 0 1-4.333-2.738A11.6 11.6 0 0 1 12 4.93a11.6 11.6 0 0 1-2.737 4.333A11.6 11.6 0 0 1 4.929 12a11.6 11.6 0 0 1 4.334 2.737"/></svg>
