<svg xmlns="http://www.w3.org/2000/svg" viewBox="0 0 12 12"><path d="m3.755 3.091.216.433-.895.447-.223-.447a1.1 1.1 0 0 1-.104-.467 2.3 2.3 0 0 1 .043-.493c.065-.345.207-.742.445-1.12C3.72.672 4.607-.02 6-.02c1.325 0 2.176.457 2.664 1.18.463.684.536 1.517.536 2.14 0 .784-.437 1.49-.961 2.112-.423.504-.961 1.017-1.496 1.528q-.2.19-.395.38c-.673.65-1.315 1.309-1.79 2.014-.367.546-.623 1.103-.717 1.686H8.2V9.1h1v2.92H2.8v-.5c0-1.031.388-1.941.929-2.745.538-.799 1.247-1.52 1.924-2.174l.42-.404c.53-.507 1.016-.97 1.4-1.428.49-.581.727-1.053.727-1.469 0-.577-.076-1.154-.364-1.58C7.574 1.333 7.075.98 6 .98c-1.007 0-1.591.478-1.917.996a2.3 2.3 0 0 0-.309.774 1.3 1.3 0 0 0-.026.275.4.4 0 0 0 .007.066"/></svg>