<svg xmlns="http://www.w3.org/2000/svg" viewBox="0 0 12 12"><path d="M2.5-.02h5.9l.387.816-2.663 3.265c1.238.025 2.119.42 2.672 1.14.551.715.704 1.661.704 2.599 0 1.252-.248 2.324-.9 3.085-.666.777-1.67 1.135-2.96 1.135-1.356 0-2.186-.552-2.668-1.145a3 3 0 0 1-.554-1.06l-.026-.108-.002-.009v-.003l-.001-.002.491-.093-.491.092-.093-.491.983-.185.092.488.001.006.01.04q.014.057.057.166c.057.144.153.337.31.529.298.367.847.775 1.891.775 1.11 0 1.786-.302 2.2-.785.428-.5.66-1.287.66-2.435 0-.862-.147-1.536-.496-1.99-.328-.426-.908-.75-2.004-.75a1.7 1.7 0 0 0-.64.153c-.189.083-.3.162-.322.178l-.004.003-.741-.67L7.347.98H3.5v1.68h-1z"/></svg>