<svg xmlns="http://www.w3.org/2000/svg" viewBox="0 0 12 12"><path d="M3.448-.02H8.54v1H4.352l-.245 2.415C4.555 3.216 5.167 3.1 6 3.1c.776 0 1.665.449 2.346 1.18.695.745 1.214 1.824 1.214 3.16 0 1.248-.232 2.392-.846 3.235-.635.87-1.623 1.345-2.954 1.345-1.373 0-2.218-.612-2.706-1.245a3.4 3.4 0 0 1-.595-1.216l-.006-.026-.002-.01v-.002l-.001-.002.49-.099-.49.098-.098-.49.98-.196.098.487.002.009.012.047a2.4 2.4 0 0 0 .402.79c.322.417.887.855 1.914.855 1.07 0 1.73-.365 2.146-.935.436-.597.654-1.494.654-2.645 0-1.064-.41-1.905-.946-2.48-.55-.589-1.19-.86-1.614-.86-1.136 0-1.643.242-1.854.406a.6.6 0 0 0-.164.182q-.013.026-.011.026l.002-.01.001-.01.001-.007.001-.004V4.68l-.05-.007-.944-.103.42-4.14z"/></svg>