<svg xmlns="http://www.w3.org/2000/svg" viewBox="0 0 12 12"><path fill-rule="evenodd" d="M6 .98a1.6 1.6 0 0 0-1.6 1.6v4.414c.298.131.56.301.793.501.533.457.898 1.055 1.216 1.575l.018.03c.296.484.556.904.887 1.233A1.6 1.6 0 0 0 7.6 9.42V2.58A1.6 1.6 0 0 0 6 .98m2.157 9.892A2.6 2.6 0 0 0 8.6 9.42V2.58a2.6 2.6 0 0 0-5.2 0v4.15a5 5 0 0 0-.52-.03h-.5v1h.5q.284 0 .52.038V9.42a2.6 2.6 0 0 0 3.984 2.201c.47.251 1.035.399 1.736.399h.5v-1h-.5c-.383 0-.697-.055-.963-.148m-1.649.065c-.377-.404-.662-.87-.917-1.287l-.018-.03c-.338-.552-.629-1.02-1.031-1.365a2 2 0 0 0-.142-.113V9.42a1.6 1.6 0 0 0 2.108 1.517"/></svg>