<svg xmlns="http://www.w3.org/2000/svg" fill="none" width="166" height="258"><path fill="currentColor" d="M89.416 89.655H72.773l.026 1.935h16.565zm0 16.77H76.154l1.94 1.935H89.31zm-38.99-45.266.013 5.33-1.028 1.558 1.035 1.57.013 5.368-4.578-6.937zm-16.538-.588 4.934 7.477-4.984 7.55.018-5.374 1.436-2.177-1.422-2.154zm13.683-5.783-5.22 7.91-3.72-5.638 3.022-.768.698 1.058.98-1.484zm-5.22 18.608 4.983 7.552-4.983 7.55-2.491-3.775-2.492-3.775 2.492-3.776zm0 5.349-.048.072-1.405 2.13 1.405 2.13.048.073 1.454-2.203zm8.09 13.028a41 41 0 0 0-2.747-.617l2.71-4.076zm-14.212-1.826-2.39-3.653-.018 3.686c.797-.014 1.6-.028 2.408-.033m84.32 54.252c-2.298-4.649-4.237-9.348-5.919-14.124l-8.608 5.788c4.465 3.583 9.227 6.518 14.527 8.336m-82.093-43.284c1.54.033 3.132.08 4.565.27l.8.106-.66 4.696-.758-.071q-.406-.037-.814-.072l-1.001-1.686q.605.047 1.203.1l.219-1.551a44 44 0 0 0-2.48-.209l-3.293-4.922.797.004c4.517.022 8.613.576 12.412 1.54l.823.208-1.916 6.11a39.5 39.5 0 0 1 7.959 3.15l.828-1.298c-1.278-.678-2.58-1.307-3.925-1.83l-.824-.32 2.16-4.316.683.284c3.83 1.59 7.332 3.657 10.626 6.079l.668.491-3.867 5.001c2.46 1.856 4.848 3.962 7.25 6.279l1.097-1.172a107 107 0 0 0-3.547-3.25l-.611-.533 3.13-3.576.596.507c3.034 2.584 5.954 5.442 8.894 8.447l.773.681-4.603 4.63c2.507 2.571 5.032 5.335 7.687 8.155l1.167-1.118c-.69-.719-1.372-1.439-2.025-2.145l-.545-.589 1.166-1.101.545.589c.834.903 1.67 1.806 2.555 2.708l.574.585-3.497 3.349-.549-.58c-3.075-3.248-5.935-6.431-8.761-9.296l-.564-.571 4.537-4.565c-2.593-2.639-5.164-5.146-7.796-7.429l-1.026 1.173a112 112 0 0 1 3.583 3.31l.573.554-3.294 3.524-.58-.568c-2.784-2.72-5.512-5.14-8.324-7.198l-.67-.49 3.844-4.972c-2.81-2.005-5.764-3.73-8.941-5.112l-.702 1.401a41 41 0 0 1 4.075 1.966l.75.417-2.56 4.012-.65-.358a38 38 0 0 0-9.061-3.575l-.824-.208 1.9-6.06c-3.215-.755-6.653-1.207-10.403-1.28l-.004.648M167.277 215.43l-15.323-15.48ZM122.585 63.21a158.5 158.5 0 0 0 1.276 28.38l8.045-2.167c-.226 1.22-.219 2.354.029 3.368 1.298-.8 2.631-1.834 3.912-2.906 2.388 11.896 4.744 23.744 16.087 37.349l-.001 29.086c-17.708-16.342-32.495-52.371-30.745-92.101m-9.873-30.679c0 .684.134 1.34.374 1.824.239.484.564.756.903.756.338 0 .663-.272.902-.756.24-.483.374-1.14.374-1.824 0-.339-.033-.674-.097-.987a3.5 3.5 0 0 0-.277-.837 1.7 1.7 0 0 0-.414-.56.76.76 0 0 0-.488-.196.76.76 0 0 0-.489.196c-.155.13-.296.32-.414.56a3.5 3.5 0 0 0-.277.837 5 5 0 0 0-.097.987m-17.989.262c0 .684.135 1.34.375 1.824.239.484.564.756.902.756.34 0 .664-.272.903-.756.24-.483.374-1.14.374-1.824 0-.339-.033-.674-.097-.987a3.5 3.5 0 0 0-.277-.837 1.7 1.7 0 0 0-.414-.56.76.76 0 0 0-.489-.196.76.76 0 0 0-.488.197c-.155.13-.296.32-.414.559-.12.24-.213.524-.277.837a5 5 0 0 0-.098.987"/><path fill="currentColor" d="m91.3 89.655 14.411-7.634a102 102 0 0 1-.22-3.56L91.938 86.43l-38.95-20.682.006 3.232zm18.573 23.015a77 77 0 0 0 1.001 4.485c-5.599 2.563-10.358 5.947-14.928 9.476-1.324-1.388-2.683-2.813-4.026-4.209l.015-33.124 2.587-1.322v33.866c4.599-3.565 9.595-6.726 15.351-9.172m-39.676-11.048.077-23.268-2.566-1.362-.052 22.805c.835.584 1.678 1.184 2.54 1.825m-41.49-40.487c.806-.443 1.665-.87 2.569-1.276l.024 30.254c-.374.046-.767.078-1.197.13-.47-.5-.91-1.015-1.365-1.54zM123.86 91.59a158.5 158.5 0 0 1-1.276-28.38l2.419 1.008a69 69 0 0 0-.204 1.759c-.782 8.34-.01 17.781 1.358 25.009zm28.038 33.024h-2.07l-1.154-1.548h3.198zm.026-3.87h-4.927l-.79-1.548h5.822zm-.01-7.74h-9.268l-.629-1.548h9.971zm-.016 3.87h-7.234l-.786-1.548h8.046zm.016-7.74H140.97l-.577-1.548h11.522zm-.074-3.87H141.1a.77.77 0 0 1-.777-.774c0-.432.35-.78.777-.774h10.815zm.111-4.257h-8.298c-.518.007-.518-.781 0-.774h8.298zm0-3.87h-5.744c-.518.007-.518-.781 0-.774h5.818zm-18.594-5.168.166.8c2.268 10.92 5.132 22.535 15.449 35.389l.172.213v21.088l-1.364-1.719c-9.757-12.292-18.126-31.198-21.855-53.04l-.12-.697zm-1.161 1.915-4.632 1.248c3.565 20.275 11.184 37.935 20.047 49.847v-16.068c-10.121-12.7-13.171-24.342-15.415-35.027m-62.52-22.565 3.2-6.926 7.642 3.912-3.288 7.117m-2.212-7.052c-.881 0-1.596.722-1.596 1.612s.715 1.613 1.596 1.613 1.596-.722 1.596-1.612-.714-1.613-1.596-1.613m-7.35-6.661-3.214 6.954-7.583-4.039 3.12-6.752zm-5.42-.112c-.88 0-1.595.722-1.595 1.613 0 .89.714 1.613 1.596 1.613.881 0 1.596-.722 1.596-1.613 0-.89-.715-1.613-1.596-1.613m29.597 12.548-3.324 7.195-7.626-3.946 3.322-7.191zm-5.335-.292c-.881 0-1.596.722-1.596 1.612s.715 1.612 1.596 1.612 1.597-.721 1.597-1.612c0-.89-.715-1.612-1.597-1.612m14.247-3.354 3.313 5.834-7.46 4.247-3.308-5.826zm-3.421 4.038a1.623 1.623 0 0 0 .386 2.247 1.587 1.587 0 0 0 2.224-.39 1.623 1.623 0 0 0-.386-2.248 1.586 1.586 0 0 0-2.224.39M50.209 17.97l1.7-.263C65.357 15.63 79.1 13.721 93.29 13.79c8.515.042 17.191.797 26.06 2.655l1.548.31-2.144 2.595c-23.07-4.833-44.936-2.025-66.4 1.29l-2.163-2.622L33.2-2.58"/><path stroke="currentColor" stroke-linecap="round" stroke-linejoin="round" d="m48.324 15.651 3.2-.494c13.473-2.081 27.365-4.022 41.787-3.949 8.654.044 17.498.813 26.558 2.71l2.833.594m-10.971 39.023c-.639 3.225-.639 9.675 3.83 10.965s8.939-1.935 8.939-1.935m27.454-.845V20.64M166 214.14l-14.046-14.19V72.947m.006 110.722c-40.112-33.682-45.748-75.416-47.155-119.754m15.771 80.32c-31.035-10.801-42.895-58.291-90.437-54.009m92.727 58.467c-17.824-4.519-29.243-19.666-41.77-32.473-12.607-12.887-25.842-23.76-48.16-22.574m75.346-33.116c1.222 44.449 5.699 85.138 43.672 118.419M28.731 61.137v27.554m2.554-28.825v30.23m2.553-31.342v31.21m16.6-35.684v37.482m2.554-37.88V92.53m-.428-38.576c-21.112 3.2-29.628 9.773-38.525 18.36m89.558 61.391c3.146-2.403 6.308-4.784 9.907-6.606l-1.798-3.419c-1.545-2.608-4.771-.304-3.363 2.348m3.378-5.395c-4.982 2.638-9.05 5.639-12.891 8.73m12.05-12.233c-5.605 2.589-10.364 5.973-14.975 9.495m14.013-13.92c-5.801 2.412-10.797 5.573-15.367 9.131m10.698-46.23-13.31 7.6-38.953-20.613m52.527 15.838-13.575 8-38.956-20.615m52.739 16.292L91.3 89.655 52.996 69.058m41.496 18.94v33.851m-2.554-32.577v33.195m-2.553-33.85v31.023m-16.6-39.942v23.952M70.23 78.335v23.312m-2.554-24.65v22.797m37.25-31.735L93.215 74.82 52.456 53.957m34.219 62.73c-.008-.65-.245-1.397-.483-1.877.639-1.29 1.277-4.515-2.554-2.58 1.916-3.87-1.276-3.225-2.553-2.58-.503-.254-1.301-.507-1.969-.486M82.37 84.79c-.377.222-.817.35-1.285.35a2.564 2.564 0 0 1-2.54-2.312m-3.011-1.683c.078.52.26 1.046.443 1.415-.639 1.29-1.353 4.432 2.554 2.58-1.916 3.87 1.277 3.225 2.554 2.58 1.21.612 4.144 1.223 2.81-2.015m30.71 44.369-8.574 5.775M50.392 55.863l-16.57 25.11m-.03-.095 6.084 9.219m10.458-8.346-5.833 8.84m-8.746-32.54 14.558 22.061m.055 6.936-2.722 4.125M36.243 89.94l-2.405-3.644m76.115 42.791-1.61-3.06m0 0c-1.546-2.608-5.053-.442-3.645 2.209m0 0 1.846 3.158m-1.846-3.158c-1.546-2.607-4.772-.304-3.364 2.348l1.546 2.644m54.181-70.396V25.8H166m-8.939 47.226V71.49m0 8.288v-5.163M166 206.4l-8.939-9.03V81.446M166 20.64h-17.877L166 .323m0 16.447h-10.215L166 6.45m-40.223 109.005c0 .257.101.503.28.684a.954.954 0 0 0 1.635-.684.97.97 0 0 0-.28-.684.95.95 0 0 0-1.355 0 .97.97 0 0 0-.28.684m0 0c-3.831-5.16-10.216.645-11.492-1.29.638 5.16 6.914-.864 11.113 1.445m-1.849-9.169a.98.98 0 0 0 .537.927.945.945 0 0 0 1.048-.149.97.97 0 0 0 .265-1.041.96.96 0 0 0-.845-.647.95.95 0 0 0-.688.243.97.97 0 0 0-.317.667m0 0c-3.514-5.372-10.181.055-11.34-1.951.343 5.188 6.914-.463 10.955 2.084m-1.486-10.043a1 1 0 0 0 .214.705.9.9 0 0 0 .278.234.87.87 0 0 0 1.004-.124 1.01 1.01 0 0 0 .103-1.364.9.9 0 0 0-.278-.234.865.865 0 0 0-1.004.124 1 1 0 0 0-.317.66m0 0c-3.238-5.453-9.721-.184-10.785-2.217.216 5.195 6.612-.3 10.414 2.341m-1.099-8.966c-.019.125-.015.254.01.377q.04.188.141.345a.9.9 0 0 0 .248.258.81.81 0 0 0 .972-.032.98.98 0 0 0 .355-.628 1.06 1.06 0 0 0-.15-.721.9.9 0 0 0-.249-.26.8.8 0 0 0-.66-.122.8.8 0 0 0-.312.155 1 1 0 0 0-.234.275 1 1 0 0 0-.121.353m0 0c-2.679-5.73-9.301-1.072-10.162-3.194-.197 5.196 6.359.304 9.798 3.284m-.665-10.068a1.04 1.04 0 0 0 .149.722.9.9 0 0 0 .245.259.79.79 0 0 0 .959-.032 1 1 0 0 0 .35-.629 1.06 1.06 0 0 0-.148-.721.9.9 0 0 0-.245-.259.79.79 0 0 0-.959.032 1 1 0 0 0-.351.628m0 0c-2.644-5.73-9.178-1.072-10.027-3.194-.195 5.196 6.275.305 9.667 3.284m.344-8.567a1.03 1.03 0 0 0 .135.725.9.9 0 0 0 .245.266q.147.105.32.142a.82.82 0 0 0 .663-.148.98.98 0 0 0 .373-.618 1.1 1.1 0 0 0-.002-.377 1 1 0 0 0-.134-.348.9.9 0 0 0-.245-.266.81.81 0 0 0-.982.005.9.9 0 0 0-.243.269 1 1 0 0 0-.13.35m0 0c-2.576-5.802-9.371-1.329-10.193-3.474-.317 5.189 6.417.48 9.822 3.553m9.836 55.045q.024.204.121.384.096.178.251.306a.96.96 0 0 0 .728.212.96.96 0 0 0 .657-.391 1.06 1.06 0 0 0 .202-.764 1.05 1.05 0 0 0-.372-.69.96.96 0 0 0-.728-.212.9.9 0 0 0-.365.126 1 1 0 0 0-.292.264 1.07 1.07 0 0 0-.202.765m0 0c-4.56-4.98-10.37 2.033-11.917.144 1.295 5.402 6.966-1.83 11.549.071m4.207 8.821c.034.272.169.518.375.685.207.167.467.24.725.205a.96.96 0 0 0 .649-.396 1.06 1.06 0 0 0 .194-.765 1.03 1.03 0 0 0-.376-.685.93.93 0 0 0-1.086-.074 1 1 0 0 0-.287.266 1.06 1.06 0 0 0-.194.764m0 0c-4.569-4.924-10.275 2.128-11.826.259 1.332 5.375 6.897-1.893 11.462-.041m5.103 8.578q.056.2.181.365.124.163.3.265a1 1 0 0 0 .767.091 1 1 0 0 0 .35-.188q.156-.13.254-.313a1.1 1.1 0 0 0 .088-.8 1.05 1.05 0 0 0-.481-.63.97.97 0 0 0-.767-.091 1.02 1.02 0 0 0-.604.501c-.13.244-.161.532-.088.8m0 0c-5.359-4.233-10.156 3.764-12.004 2.128 2.128 5.199 6.751-2.994 11.665-1.851m6.468 8.614a1.05 1.05 0 0 0 .554.571 1 1 0 0 0 .79.007 1.046 1.046 0 0 0 .57-1.364 1.04 1.04 0 0 0-.554-.572 1.02 1.02 0 0 0-1.126.218 1.05 1.05 0 0 0-.234 1.14m0 0c-5.891-3.609-9.949 4.837-11.999 3.418 2.702 4.918 6.563-3.703 11.683-3.107m6.891 7.119q.093.201.252.351.159.148.36.223a1.04 1.04 0 0 0 1.157-.309 1.14 1.14 0 0 0 .273-.812 1.2 1.2 0 0 0-.104-.425 1.1 1.1 0 0 0-.612-.574 1.03 1.03 0 0 0-.821.046 1.12 1.12 0 0 0-.549.641 1.18 1.18 0 0 0 .044.859m0 0c-6.352-3.464-10.026 5.857-12.246 4.477 3.122 5.084 6.581-4.412 11.938-4.122m2.311-2.45c-17.691-16.439-32.479-52.477-30.724-92.214m30.765 111.238c-.988.65-1.738.607-2.363.438-1.046-1.238.296-3.645 2.363-5.598-2.259 2.394-4.058 4.768-6.19 1.892m6.19 6.493c-.678-.842-.556-1.659-.128-2.564m.038-8.944c-2.831 1.961-4.561 5.721-6.07 4.957m6.12-44.812c-11.323-13.673-13.679-25.521-16.107-37.383m28.278-64.12c0 3.13-2.554 5.9-2.554 9.03s2.554 5.9 2.554 9.03-2.554 5.9-2.554 9.03 2.554 5.9 2.554 9.03c0 2.408-1.512 4.602-2.209 6.912m1.92 13.07c-.668 2.382-2.265 4.632-2.265 7.108 0 3.13 2.554 5.9 2.554 9.03s-2.554 5.9-2.554 9.03 2.554 5.9 2.554 9.03-2.554 5.9-2.554 9.03 2.554 5.9 2.554 9.03-2.554 5.9-2.554 9.03 2.554 5.9 2.554 9.03-2.554 5.9-2.554 9.03 2.554 5.9 2.554 9.03-2.554 5.9-2.554 9.03 2.554 5.9 2.554 9.03-2.554 5.9-2.554 9.03c0 2.321 1.404 4.443 2.13 6.662m.27-125.43q.087.404.127.813M162.169 25.8c0 3.13-2.554 5.9-2.554 9.03s2.554 5.9 2.554 9.03-2.554 5.9-2.554 9.03 2.554 5.9 2.554 9.03c0 2.35-1.438 4.495-2.156 6.742m1.754 13.618c-.719 2.243-2.152 4.385-2.152 6.73 0 3.13 2.554 5.9 2.554 9.03s-2.554 5.9-2.554 9.03 2.554 5.9 2.554 9.03-2.554 5.9-2.554 9.03 2.554 5.9 2.554 9.03-2.554 5.9-2.554 9.03 2.554 5.9 2.554 9.03-2.554 5.9-2.554 9.03 2.554 5.9 2.554 9.03-2.554 5.9-2.554 9.03 2.554 5.9 2.554 9.03-2.554 5.9-2.554 9.03c0 1.128.332 2.209.756 3.277M160.254 25.8c0 3.13-2.554 5.9-2.554 9.03s2.554 5.9 2.554 9.03-2.554 5.9-2.554 9.03 2.554 5.9 2.554 9.03c0 1.423-.528 2.77-1.103 4.112m.749 16.096c-.702 2.299-2.2 4.484-2.2 6.882 0 3.13 2.554 5.9 2.554 9.03s-2.554 5.9-2.554 9.03 2.554 5.9 2.554 9.03-2.554 5.9-2.554 9.03 2.554 5.9 2.554 9.03-2.554 5.9-2.554 9.03 2.554 5.9 2.554 9.03-2.554 5.9-2.554 9.03 2.554 5.9 2.554 9.03-2.554 5.9-2.554 9.03 2.554 5.9 2.554 9.03-2.554 5.9-2.554 9.03q0 .29.028.577M166 14.835h-8.177M166 12.9h-6.238M166 10.965h-4.508M166 9.03h-2.621m-15.256 65.79c3.825-.002 5.111-2.572 3.831-7.74 1.584.845 1.592-.794 1.915-1.935 0 0 1.11 1.449 2.387 3.384s4.636-.159 2.721-2.739-2.103-3.414-2.554-3.87c-.638-.645-3.192-.645-5.746 0s-7.023 6.45-7.023 6.45m0 0c.217 5.184.958 9.804 1.915 14.19m-1.915-14.19c-1.151-.864-1.839-.725-2.554-.645m4.469 14.835c2.117.717 4.219.828 6.305.374m-6.305-.374c-.001 1.287-.848 1.721-2.554 1.29m13.871-14.59c-.786.288-1.268.678-1.268 1.108 0 .89 2.075 1.612 4.636 1.612s4.636-.722 4.636-1.612-2.076-1.613-4.636-1.613c-.451 0-.887.022-1.299.064M141.1 67.725c-.843 6.956.662 11.406 1.915 16.125M141.1 67.725c-3.831-1.29-7.419-3.704-12.131-2.58.06.914.28 1.673.627 2.311.779 1.432 2.193 2.253 3.842 2.849-2.755.472-4.368 2.057-5.746 3.87 1.281 1.735 3.35 2.894 6.306 2.898-2.643.931-4.271 2.56-5.667 4.842 2.361.923 4.725 1.852 6.384 1.29-2.463 3.573-3.417 6.98-2.78 9.586 3.792-2.337 7.88-6.674 11.08-8.941m-11.312-18.98c2.55 3.057 5.433 5.523 9.146 6.518l-.04.26c-3.467.235-6.77.884-9.286 2.438 3.135 1.383 6.295 2.029 9.576 1.6l.02.355c-2.976 1.2-6.4 1.675-8.319 4.584 3.571.497 6.265-.283 9.061-.997l.163.633c-3.058 2.98-5.506 6.544-7.378 10.66m-20.957-27.364a339 339 0 0 0-5.354-.795m14.183 2.142a87 87 0 0 1-2.514-.365m9.117 1.422-6.095-2.565-.465.358a158.6 158.6 0 0 0 1.3 27.836l8.043-2.166m-6.9-25.216a76 76 0 0 0-.204 1.769c-.782 8.34-.01 17.781 1.368 25.02M83.791 17.052c-7.426 14.515-3.983 25.14-3.983 38.419 0 9.675-10.854 9.03-10.854.645 0-6.45 7.661-5.845 7.661-.645m0 0c0 3.87-5.746 3.87-5.746 1.29 0-1.29.639-1.935 1.277-2.58m4.47 1.29c.885-12.362-3.372-23.787 3.914-38.279m-3.3.233c-6.163 12.715-2.05 23.64-2.638 34.364m-.703-34.038c-5.766 12.45-.53 23.177-1.92 33.717m-1.45-33.312c-5.272 12.027.516 22.007-1.24 32.586m-2.107-32.224c-4.77 11.314.151 20.829-.888 30.768m-2.49-30.316c-4.228 10.553-.137 19.554-.59 28.83m-2.818-28.275c-3.653 9.736-.347 18.164-.338 26.742m-3.012-26.31c-3.186 8.96-.563 16.82-.217 24.734m-3.15-24.225c-2.728 8.194-.68 15.48-.131 22.75m18.327 18.658c-2.919.41-6.103-1.861-6.103-6.403 0-4.615 3.923-5.618 6.154-3.91m-3.14 9.713c-2.76.08-5.568-2.183-5.568-6.448 0-4.537 3.791-5.584 6.04-3.995m-4.06 9.073c-2.385-.438-4.534-2.637-4.534-6.368 0-5.013 4.627-5.764 6.69-3.41m-4.7 8.49c-2.39-.435-4.544-2.634-4.544-6.37 0-5.06 4.715-5.778 6.747-3.342m-4.81 8.412c-2.368-.458-4.49-2.652-4.49-6.36 0-5.031 4.66-5.77 6.711-3.384m-4.33 9.058c-2.289-.537-4.297-2.712-4.297-6.319 0-4.454 3.654-5.544 5.915-4.08M55.2 55.296c-2.216-.605-4.124-2.76-4.124-6.275 0-5.042 4.682-5.773 6.726-3.368m-5.143 8.356c-2.221-.599-4.137-2.756-4.137-6.278 0-5.02 4.64-5.766 6.698-3.4m60.534-25.53c.357 2.582 1.083 7.962 1.083 8.935 0 1.29-.638 3.87-.638 5.16m0 0v9.03c0 3.87-8.567 19.62-9.577 20.64-1.915 1.935-8.067 4.499-10.854 3.87-2.013-.454-12.287-3.894-16.301-8.142M116.2 32.895c-1.915-1.29-3.192-1.935-5.108-1.29s-5.746 2.58-5.746 2.58c2.554.645 5.108 1.935 7.023 1.935 1.806 0 3.831-2.58 3.831-2.58m.948-14.548c2.465 7.797 2.103 16.115 2.883 24.223.221 2.302 3.266 3.39 3.83 0m-7.661-.645c1.277 6.45 10.215 7.74 10.215 1.935 0-5.582-6.384-5.16-6.384-1.935m-2.764 2.739c1.916 3.225-1.534 10.737-.429 13.386 1.268 3.037 7.023 3.87 7.662 0 .332-2.012-1.915-2.58-1.915-2.58m0 0c1.276 1.29 1.275 3.157-.639 3.225-1.251.045-4.478.423-4.845-5.805m5.484 2.58c3.122 3.556-2.74 4.385-3.193 0-.482-4.67 7.662-2.58 7.023 3.225-.638 5.805-11.492 5.805-12.13-.645-.136-1.37-.595-7.18-.08-10.51m-9.497 7.285c-.639 1.29-2.554 2.58-5.108 1.29m7.023-3.225-1.915-.645c-.639 0-.639.645-1.916.645s-1.277-.645-2.554-.645-.638.645-1.915.645-1.915-.645-1.915-.645m9.577-25.155c-.163.198.178-.838 0-.645 3.016-4.31 8.77-.533 10.215 1.29-1.74-1.649-7.022-4.532-10.215-.645m0 0c-2.385 6.664 0 9.611 0 12.9 0 1.935.778 4.523.638 5.805-.204 1.867-1.915 1.935-2.554 3.225m-5.746-1.29c1.277-1.29 7.023-.645 2.554 0-4.47.645-4.47-1.023-4.47-1.935 0-.645.64-1.935 1.916-1.935M134.528 0l-15.774 19.35c-23.07-4.833-44.936-2.025-66.4 1.29L35.328 0M50.21 17.97l1.7-.263c13.447-2.077 27.19-3.986 41.38-3.917 8.515.042 17.191.797 26.06 2.655l1.562.327m8.817-10.878c8.593 1.146 6.635 13.093 13.925 18.616m0 0c-11.915 3.611-18.271-4.571-20.625-10.398m20.625 10.398c-7.66 1.19-12.058-10.255-17.207-14.562m-.032 6.822c-.462-2.002.075-4.022.855-6.046m6.168.241c-2.345-1.02-4.277-.633-6.193-.191m8.109 4.706c-1.745-1.2-3.496-1.46-5.251-1.416m-1.134 5.931c-.417-.578.434-4.647.985-6.008m7.315 6.008c-1.52-.972-2.933-1.508-4.284-1.791m-.185 4.371c-.088-1.126-.079-3.024.206-4.466m6.179 3.821a5.4 5.4 0 0 0-2.499.136m-.055 1.799c-.573-.807-.503-1.483-.23-2.119m-57.87 76.939c0-.684.269-1.34.748-1.824a2.54 2.54 0 0 1 1.806-.756 2.54 2.54 0 0 1 1.805.756c.48.483.748 1.14.748 1.824s-.269 1.341-.748 1.824a2.54 2.54 0 0 1-1.805.756 2.54 2.54 0 0 1-1.806-.756 2.6 2.6 0 0 1-.748-1.824m5.107-2.58c1.916-3.87-1.276-3.225-2.553-2.58-1.277-.645-4.47-1.29-2.554 2.58-3.831-1.935-3.193 1.29-2.554 2.58-.639 1.29-1.353 4.432 2.554 2.58-1.916 3.87 1.277 3.225 2.554 2.58 1.277.645 4.469 1.29 2.553-2.58 3.831 1.935 3.193-1.29 2.554-2.58.639-1.29 1.277-4.515-2.554-2.58m42.139 19.995c-1.267 6.322-9.246 3.504-9.577 5.805-.639-3.87 8.47-2.627 9.247-5.965-3.152 3.164-8.609 4.03-9.886 2.74-.514-2.706 8.096-4.285 10.216-2.58m-2.264-9.015c-1.614 6.239-9.38 2.964-9.838 5.243-.416-3.901 8.559-2.134 9.519-5.422-3.309 2.978-8.776 3.527-9.971 2.165-.359-2.731 8.281-3.81 10.29-1.986m-1.884-9.91c-1.676 6.198-9.019 2.742-9.506 5.01-.312-3.91 8.218-1.933 9.206-5.197-3.224 2.899-8.455 3.32-9.567 1.93-.283-2.74 7.989-3.615 9.867-1.744m-1.517-8.85c-2.088 6.023-8.856 1.91-9.499 4.124.004-3.924 8.025-1.175 9.225-4.337-3.314 2.594-8.36 2.535-9.317 1.05-.059-2.756 7.936-2.873 9.591-.837m-1.028-9.978c-2.06 6.023-8.739 1.91-9.373 4.124.004-3.924 7.919-1.175 9.103-4.337-3.27 2.594-8.249 2.535-9.194 1.05-.058-2.756 7.831-2.873 9.464-.837m-.033-8.48c-2.246 5.963-8.989 1.664-9.689 3.86.094-3.922 8.133-.953 9.418-4.08-3.407 2.5-8.503 2.303-9.436.791.003-2.756 8.082-2.652 9.707-.571m9.657 55.176c-.509 6.888-9.022 4.945-9.075 7.435-1.134-4.03 8.338-3.91 8.718-7.561-2.831 3.78-8.305 5.42-9.772 4.217-.863-2.81 7.749-5.624 10.129-4.091m3.845 9.034c-.446 6.875-8.913 5.018-8.943 7.503-1.161-4.009 8.241-3.98 8.587-7.626-2.778 3.798-8.196 5.486-9.662 4.3-.881-2.794 7.642-5.683 10.018-4.177m4.839 8.787c.533 6.989-8.355 6.458-8.029 8.962-1.757-3.85 7.821-5.307 7.649-9.03-2.283 4.26-7.558 6.815-9.221 5.854-1.298-2.673 6.965-6.927 9.601-5.786m6.201 8.864c1.263 6.866-7.837 7.31-7.247 9.756-2.186-3.624 7.412-6.111 6.854-9.781-1.885 4.469-6.99 7.576-8.782 6.805-1.597-2.506 6.375-7.622 9.175-6.78m6.627 7.459c1.752 7.267-7.674 8.361-6.904 10.94-2.503-3.731 7.309-7.049 6.493-10.941-1.671 4.915-6.776 8.59-8.687 7.886-1.819-2.575 6.135-8.597 9.098-7.885m6.203-85.334c0 .211.118.421.349.617.23.195.567.373.992.523s.93.268 1.486.35a12 12 0 0 0 1.752.122c1.214 0 2.379-.17 3.238-.472.858-.303 1.341-.713 1.341-1.14 0-.428-.483-.838-1.341-1.14-.859-.303-2.024-.473-3.238-.473-.601 0-1.197.042-1.752.123-.556.08-1.061.2-1.486.35s-.762.327-.992.523c-.231.195-.349.405-.349.617m.638 3.547c0 .212.109.421.319.617s.518.374.906.523.849.269 1.356.35 1.051.123 1.6.123 1.093-.042 1.6-.123.969-.2 1.357-.35.696-.327.906-.523c.21-.195.318-.405.318-.617s-.108-.421-.318-.617-.518-.373-.906-.523a6.8 6.8 0 0 0-1.357-.35 10 10 0 0 0-1.6-.123c-.549 0-1.092.042-1.6.123-.507.081-.968.2-1.356.35s-.696.327-.906.523-.319.405-.319.617m-.638 3.225c0 .428.471.838 1.309 1.14.838.303 1.975.472 3.16.472s2.322-.17 3.16-.472 1.309-.712 1.309-1.14-.47-.838-1.309-1.14c-.838-.303-1.974-.472-3.16-.472-1.185 0-2.322.17-3.16.472s-1.309.712-1.309 1.14M85.553 29.67c.695-.876 2.899-3.94 5.747-4.515 3.192-.645 5.108 0 7.543 1.987-.179-.193.18.827 0 .645-4.385-4.445-12.151-1.08-13.29 1.883m13.409 4.515s-1.916-2.58-4.47-2.58-5.746 3.225-10.215 3.225c3.83 0 6.386 1.203 8.938 1.29 2.618.09 4.47-1.935 5.746-1.935"/><path stroke="currentColor" stroke-linecap="round" stroke-linejoin="round" stroke-width=".5" d="m98.969 66.27-5.754 3.39-16.131-7.885m81.11 7.245c.888 1.1.783 1.701.199 2.633m.273.942c.887 1.1.783 1.7.199 2.633m.194.968c.888 1.1.783 1.7.199 2.633m-1.09.57c.887 1.1.783 1.701.199 2.634m3.164-12.373c.509.687.145.933 0 1.29m.105 2.311c.509.687.145.933 0 1.29m.34 2.337c.51.688.145.934 0 1.29m.026 1.888c.51.687.146.933 0 1.29m-3.664-16.211c-.638.645.639 3.225.639 3.225m-43.416-36.12c-1.915-2.58-3.192-2.58-5.107-2.58s-5.108 2.58-5.108 2.58m-7.662.645c-1.915-2.58-3.556-3.315-5.746-3.225-1.533.063-3.83 1.935-3.83 1.935m22.965.035c-.381.472-.619 1.148-.619 1.9 0 1.425.857 2.58 1.915 2.58s1.916-1.155 1.916-2.58c0-.799-.27-1.512-.693-1.986m-20.763.705a3.3 3.3 0 0 0-.252 1.281c0 1.425.857 2.58 1.915 2.58s2.027-.78 2.027-2.206c0-.822-.286-1.554-.73-2.026M88.108 65.79 78.03 61m9.438 3.5-8.915-4.238m26.154-.922c-1.285-.78-3.193 0-4.47.645"/></svg>
