<svg xmlns="http://www.w3.org/2000/svg" width="144" height="240" fill="none"><path stroke="currentColor" stroke-linecap="round" stroke-linejoin="round" d="m41.92 14.559 2.776-.46c11.687-1.935 23.738-3.74 36.249-3.673 7.506.04 15.179.756 23.038 2.522l2.457.552m-9.517 36.3c-.554 3-.554 9 3.323 10.2S108 58.2 108 58.2m23.815-.786V19.2M144 199.2 131.815 186V67.857m.006 102.998c-34.796-31.332-39.685-70.155-40.906-111.4m13.681 74.717c-26.922-10.048-37.21-54.224-78.452-50.24m80.438 54.387c-15.461-4.204-25.366-18.294-36.234-30.207-10.936-11.988-22.417-22.103-41.777-21m65.36-30.805c1.06 41.348 4.944 79.198 37.884 110.157M24.923 56.872v25.631m2.215-26.813v28.12m2.216-29.155v29.033m14.4-33.195V85.36m2.215-35.237v35.95m-.371-35.884c-18.314 2.976-25.702 9.09-33.42 17.079m77.69 57.107c2.728-2.234 5.471-4.449 8.594-6.145l-1.56-3.18c-1.341-2.426-4.139-.283-2.918 2.184m2.93-5.018c-4.321 2.453-7.85 5.245-11.182 8.12m10.453-11.379c-4.862 2.408-8.99 5.556-12.99 8.833m12.155-12.949c-5.031 2.244-9.366 5.184-13.33 8.494M91.3 70.33 79.755 77.4l-33.79-19.175M91.528 72.96 79.754 80.4 45.96 61.224m45.75 15.155L79.2 83.4 45.972 64.24M81.97 81.86v31.489m-2.215-30.305v30.88m-2.216-31.49v28.86m-14.4-37.155V96.42m-2.215-23.55v21.686m-2.215-22.93v21.206m32.313-29.52L80.86 69.6 45.505 50.193m29.684 58.353c-.007-.605-.213-1.3-.419-1.746.554-1.2 1.108-4.2-2.215-2.4 1.661-3.6-1.108-3-2.216-2.4-.435-.236-1.128-.472-1.707-.452m2.823-22.674a2.1 2.1 0 0 1-1.116.326c-1.145 0-2.088-.943-2.203-2.151m-2.612-1.565c.068.483.226.973.385 1.316-.554 1.2-1.174 4.123 2.215 2.4-1.662 3.6 1.108 3 2.215 2.4 1.05.569 3.595 1.138 2.439-1.875M99.417 121l-7.439 5.372M43.714 51.965 29.34 75.323m-.026-.088 5.277 8.576m9.072-7.764-5.06 8.223m-7.587-30.269 12.629 20.522m.048 6.452-2.361 3.837m-9.892-1.147-2.086-3.39m66.027 39.806-1.397-2.847m0 0c-1.34-2.426-4.383-.411-3.162 2.056m0 0 1.602 2.937m-1.602-2.937c-1.34-2.426-4.139-.283-2.918 2.183l1.342 2.46m47-65.485V24H144m-7.754 43.931v-1.428m0 7.709v-4.803M144 192l-7.754-8.4V75.764M144 19.2h-15.508L144 .3m0 15.3h-8.862L144 6m-34.892 101.4c0 .239.087.468.243.636a.8.8 0 0 0 .587.264.8.8 0 0 0 .588-.264.94.94 0 0 0 .243-.636.94.94 0 0 0-.243-.636.8.8 0 0 0-.588-.264.8.8 0 0 0-.587.264.94.94 0 0 0-.243.636m0 0c-3.323-4.8-8.862.6-9.97-1.2.554 4.8 5.998-.803 9.641 1.344m-1.604-8.529a.97.97 0 0 0 .208.65q.11.134.258.212a.77.77 0 0 0 .909-.139.93.93 0 0 0 .275-.62.97.97 0 0 0-.208-.65.8.8 0 0 0-.258-.212.77.77 0 0 0-.909.139.93.93 0 0 0-.275.62m0 0c-3.048-4.998-8.832.05-9.837-1.815.298 4.826 5.998-.43 9.503 1.939m-1.289-9.342a1 1 0 0 0 .035.348 1 1 0 0 0 .15.307q.103.136.242.218a.7.7 0 0 0 .296.096.73.73 0 0 0 .575-.212.95.95 0 0 0 .275-.613 1 1 0 0 0-.036-.349.9.9 0 0 0-.15-.306.8.8 0 0 0-.241-.218.7.7 0 0 0-.296-.096.73.73 0 0 0-.575.211.95.95 0 0 0-.275.614m0 0c-2.809-5.074-8.433-.172-9.355-2.063.186 4.833 5.735-.28 9.033 2.178m-.953-8.34a1.06 1.06 0 0 0 .13.67.8.8 0 0 0 .216.241.67.67 0 0 0 .843-.03.93.93 0 0 0 .308-.584 1.03 1.03 0 0 0-.13-.671.8.8 0 0 0-.216-.24.7.7 0 0 0-.277-.126.64.64 0 0 0-.296.011.7.7 0 0 0-.27.144.9.9 0 0 0-.203.256 1 1 0 0 0-.105.328m0 0c-2.324-5.33-8.068-.998-8.815-2.972-.171 4.833 5.516.283 8.499 3.055m-.577-9.366q-.024.177.009.351a1 1 0 0 0 .12.32.8.8 0 0 0 .213.241.654.654 0 0 0 .832-.03.94.94 0 0 0 .304-.584 1.1 1.1 0 0 0-.009-.35 1 1 0 0 0-.12-.32.8.8 0 0 0-.213-.242.654.654 0 0 0-.832.03.94.94 0 0 0-.304.584m0 0c-2.293-5.33-7.961-.997-8.698-2.97-.17 4.832 5.443.282 8.386 3.054m.298-7.97a1.03 1.03 0 0 0 .118.675.8.8 0 0 0 .212.247q.127.098.277.133c.2.045.407-.004.575-.138a.92.92 0 0 0 .324-.575 1.03 1.03 0 0 0-.117-.675.9.9 0 0 0-.213-.247.7.7 0 0 0-.277-.132.65.65 0 0 0-.299.002.7.7 0 0 0-.276.136.9.9 0 0 0-.211.25q-.084.148-.113.324m0 0c-2.234-5.397-8.129-1.235-8.841-3.23-.276 4.826 5.566.445 8.52 3.304m8.532 51.205c.014.125.049.247.105.357q.084.166.218.285t.298.169a.77.77 0 0 0 .65-.09.9.9 0 0 0 .253-.246 1 1 0 0 0 .151-.335 1.07 1.07 0 0 0-.08-.733 1 1 0 0 0-.218-.285.8.8 0 0 0-.298-.169.77.77 0 0 0-.651.09.9.9 0 0 0-.253.246q-.104.15-.15.335a1.1 1.1 0 0 0-.025.376m0 0c-3.956-4.633-8.995 1.891-10.337.134 1.123 5.025 6.042-1.703 10.017.066m3.65 8.206c.03.252.147.482.326.637a.78.78 0 0 0 .628.19.8.8 0 0 0 .314-.121.9.9 0 0 0 .249-.247q.103-.153.147-.337a1.07 1.07 0 0 0-.085-.73 1 1 0 0 0-.219-.282.8.8 0 0 0-.298-.165.76.76 0 0 0-.644.096.9.9 0 0 0-.25.248q-.102.151-.146.336a1.1 1.1 0 0 0-.022.375m0 0c-3.964-4.581-8.913 1.979-10.259.24 1.156 5 5.984-1.76 9.944-.038m4.426 7.98q.049.186.157.339.108.151.26.247a.8.8 0 0 0 .325.116q.173.022.341-.032a.8.8 0 0 0 .303-.174 1 1 0 0 0 .221-.292 1.07 1.07 0 0 0 .076-.743.97.97 0 0 0-.417-.587.8.8 0 0 0-.665-.084.9.9 0 0 0-.525.466 1.1 1.1 0 0 0-.076.744m0 0c-4.649-3.938-8.81 3.501-10.413 1.979 1.846 4.836 5.856-2.785 10.119-1.722m5.611 8.013a1 1 0 0 0 .192.318q.124.138.289.214a.83.83 0 0 0 .685.006.9.9 0 0 0 .292-.208 1 1 0 0 0 .197-.315 1.07 1.07 0 0 0 .005-.746.94.94 0 0 0-.48-.532.83.83 0 0 0-.686-.006.9.9 0 0 0-.292.209 1 1 0 0 0-.196.314 1.05 1.05 0 0 0-.006.746m0 0c-5.111-3.357-8.631 4.5-10.409 3.18 2.344 4.575 5.693-3.444 10.135-2.89m5.978 6.622q.08.188.218.326a.9.9 0 0 0 .313.208.85.85 0 0 0 .712-.043.9.9 0 0 0 .291-.245q.124-.154.185-.351a1.14 1.14 0 0 0-.038-.799.98.98 0 0 0-.531-.534.84.84 0 0 0-.712.043.9.9 0 0 0-.291.245 1.1 1.1 0 0 0-.186.351 1.1 1.1 0 0 0-.051.404q.01.207.09.395m0 0c-5.511-3.222-8.698 5.449-10.624 4.165 2.708 4.729 5.709-4.104 10.356-3.835m2.005-2.278c-15.346-15.293-28.175-48.817-26.652-85.781M131.815 163.2c-.857.605-1.507.565-2.049.407-.908-1.151.256-3.391 2.049-5.207-1.959 2.227-3.52 4.436-5.369 1.76m5.369 6.04c-.587-.783-.482-1.543-.111-2.385m.033-8.32c-2.455 1.824-3.956 5.322-5.265 4.611m5.309-41.686c-9.822-12.718-11.866-23.74-13.973-34.775M142.338 24c0 2.912-2.215 5.488-2.215 8.4s2.215 5.488 2.215 8.4-2.215 5.488-2.215 8.4 2.215 5.488 2.215 8.4c0 2.24-1.31 4.281-1.915 6.43m1.665 12.159c-.579 2.215-1.965 4.308-1.965 6.611 0 2.912 2.215 5.488 2.215 8.4s-2.215 5.488-2.215 8.4 2.215 5.488 2.215 8.4-2.215 5.488-2.215 8.4 2.215 5.488 2.215 8.4-2.215 5.488-2.215 8.4 2.215 5.488 2.215 8.4-2.215 5.488-2.215 8.4 2.215 5.488 2.215 8.4-2.215 5.488-2.215 8.4 2.215 5.488 2.215 8.4-2.215 5.488-2.215 8.4c0 2.159 1.218 4.133 1.848 6.197m.235-116.678q.075.375.109.755M140.677 24c0 2.912-2.216 5.488-2.216 8.4s2.216 5.488 2.216 8.4-2.216 5.488-2.216 8.4 2.216 5.488 2.216 8.4c0 2.185-1.248 4.181-1.87 6.272m1.521 12.668c-.624 2.086-1.867 4.079-1.867 6.26 0 2.912 2.216 5.488 2.216 8.4s-2.216 5.488-2.216 8.4 2.216 5.488 2.216 8.4-2.216 5.488-2.216 8.4 2.216 5.488 2.216 8.4-2.216 5.488-2.216 8.4 2.216 5.488 2.216 8.4-2.216 5.488-2.216 8.4 2.216 5.488 2.216 8.4-2.216 5.488-2.216 8.4 2.216 5.488 2.216 8.4-2.216 5.488-2.216 8.4c0 1.049.288 2.055.656 3.048M139.015 24c0 2.912-2.215 5.488-2.215 8.4s2.215 5.488 2.215 8.4-2.215 5.488-2.215 8.4 2.215 5.488 2.215 8.4c0 1.323-.457 2.577-.956 3.825m.649 14.973c-.608 2.138-1.908 4.172-1.908 6.402 0 2.912 2.215 5.488 2.215 8.4s-2.215 5.488-2.215 8.4 2.215 5.488 2.215 8.4-2.215 5.488-2.215 8.4 2.215 5.488 2.215 8.4-2.215 5.488-2.215 8.4 2.215 5.488 2.215 8.4-2.215 5.488-2.215 8.4 2.215 5.488 2.215 8.4-2.215 5.488-2.215 8.4 2.215 5.488 2.215 8.4-2.215 5.488-2.215 8.4q0 .27.024.537M144 13.8h-7.094M144 12h-5.411M144 10.2h-3.911M144 8.4h-2.274m-13.234 61.2c3.318-.002 4.434-2.393 3.323-7.2 1.375.786 1.381-.739 1.662-1.8 0 0 .963 1.348 2.071 3.148 1.107 1.8 4.021-.148 2.36-2.548s-1.824-3.176-2.216-3.6c-.554-.6-2.769-.6-4.984 0-2.216.6-6.093 6-6.093 6m0 0c.189 4.822.831 9.12 1.662 13.2m-1.662-13.2c-.998-.804-1.594-.674-2.215-.6m3.877 13.8c1.836.667 3.659.77 5.469.348m-5.469-.348c-.001 1.198-.736 1.601-2.216 1.2m12.033-13.573c-.682.269-1.1.632-1.1 1.031 0 .829 1.8 1.5 4.021 1.5s4.022-.671 4.022-1.5c0-.828-1.801-1.5-4.022-1.5-.391 0-.769.021-1.126.06M122.4 63c-.731 6.471.574 10.61 1.661 15M122.4 63c-3.323-1.2-6.436-3.445-10.523-2.4.051.85.243 1.556.544 2.15.676 1.332 1.902 2.096 3.333 2.65-2.391.44-3.79 1.913-4.985 3.6 1.112 1.614 2.906 2.692 5.47 2.696-2.292.866-3.704 2.381-4.916 4.504 2.048.858 4.099 1.722 5.538 1.2-2.136 3.324-2.964 6.493-2.411 8.917 3.289-2.173 6.835-6.208 9.611-8.317m-9.813-17.656c2.212 2.844 4.713 5.138 7.934 6.064l-.034.242c-3.008.218-5.874.822-8.056 2.267 2.719 1.286 5.461 1.888 8.307 1.489l.017.33c-2.581 1.116-5.551 1.558-7.216 4.264 3.098.462 5.435-.264 7.86-.927l.142.589c-2.653 2.772-4.777 6.087-6.4 9.916m-18.18-25.455c-1.76-.291-3.457-.566-4.644-.74m12.303 1.993a71 71 0 0 1-2.181-.34m7.909 1.323-5.288-2.386-.403.333a158 158 0 0 0 1.128 25.894l6.976-2.015m-5.985-23.457a70 70 0 0 0-.176 1.646c-.679 7.757-.009 16.54 1.186 23.275m-36.76-68.788C66.243 29.364 69.23 39.247 69.23 51.6c0 9-9.416 8.4-9.416.6 0-6 6.647-5.437 6.647-.6m0 0c0 3.6-4.985 3.6-4.985 1.2 0-1.2.554-1.8 1.108-2.4m3.877 1.2c.767-11.5-2.925-22.128 3.396-35.608m-2.864.217c-5.345 11.828-1.778 21.99-2.288 31.966m-.61-31.664c-5.001 11.582-.459 21.56-1.664 31.365m-1.258-30.988c-4.574 11.188.447 20.472-1.076 30.313M58.27 17.225c-4.138 10.525.13 19.375-.771 28.621m-2.16-28.2c-3.667 9.817-.118 18.19-.511 26.818m-2.445-26.302c-3.168 9.057-.301 16.896-.294 24.876m-2.612-24.474c-2.764 8.334-.488 15.647-.188 23.008m-2.733-22.535c-2.366 7.622-.59 14.4-.114 21.162m15.9 17.357c-2.533.382-5.296-1.73-5.296-5.956 0-4.294 3.403-5.227 5.34-3.637m-2.725 9.035c-2.394.074-4.83-2.03-4.83-5.998 0-4.22 3.289-5.194 5.24-3.716m-3.522 8.44c-2.07-.408-3.934-2.453-3.934-5.924 0-4.663 4.015-5.362 5.804-3.172m-4.078 7.898C52.27 54.12 50.4 52.076 50.4 48.6c0-4.707 4.09-5.375 5.853-3.11m-4.173 7.826c-2.054-.425-3.895-2.467-3.895-5.916 0-4.68 4.043-5.367 5.822-3.148m-3.756 8.426c-1.986-.5-3.728-2.523-3.728-5.878 0-4.143 3.17-5.157 5.131-3.795m-3.77 8.432c-1.921-.562-3.576-2.567-3.576-5.837 0-4.69 4.061-5.37 5.834-3.133m-4.46 7.773c-1.928-.557-3.59-2.563-3.59-5.84 0-4.67 4.025-5.364 5.81-3.163m52.512-23.749c.309 2.403.94 7.407.94 8.312 0 1.2-.554 3.6-.554 4.8m0 0V39c0 3.6-7.432 18.251-8.308 19.2-1.661 1.8-6.998 4.185-9.415 3.6-1.747-.423-10.659-3.622-14.141-7.574M100.8 30.6c-1.662-1.2-2.77-1.8-4.43-1.2-1.662.6-4.985 2.4-4.985 2.4 2.215.6 4.43 1.8 6.092 1.8 1.566 0 3.323-2.4 3.323-2.4m.822-13.533c2.139 7.253 1.825 14.99 2.501 22.533.192 2.141 2.834 3.154 3.323 0m-6.646-.6c1.108 6 8.861 7.2 8.861 1.8 0-5.192-5.538-4.8-5.538-1.8m-2.397 2.548c1.661 3-1.331 9.988-.372 12.452 1.099 2.825 6.092 3.6 6.646 0 .288-1.872-1.662-2.4-1.662-2.4m0 0c1.108 1.2 1.107 2.936-.553 3-1.086.042-3.885.394-4.204-5.4m4.757 2.4c2.709 3.308-2.376 4.08-2.769 0-.418-4.345 6.646-2.4 6.092 3-.553 5.4-9.969 5.4-10.523-.6-.117-1.275-.515-6.68-.069-9.777M90.831 51.6c-.554 1.2-2.216 2.4-4.431 1.2m6.092-3-1.661-.6c-.554 0-.554.6-1.662.6s-1.108-.6-2.215-.6c-1.108 0-.554.6-1.662.6s-1.661-.6-1.661-.6m8.307-23.4c-.141.185.155-.78 0-.6 2.617-4.01 7.608-.496 8.862 1.2-1.51-1.534-6.091-4.216-8.862-.6m0 0c-2.068 6.199 0 8.94 0 12 0 1.8.676 4.207.554 5.4-.176 1.737-1.661 1.8-2.215 3M85.292 45c1.108-1.2 6.093-.6 2.216 0s-3.877-.952-3.877-1.8c0-.6.554-1.8 1.661-1.8M116.7 0l-13.684 18c-20.011-4.496-38.98-1.884-57.6 1.2L30.646 0m12.91 16.716 1.474-.244c11.664-1.932 23.586-3.709 35.897-3.644 7.386.04 14.912.74 22.606 2.47l1.354.304m7.649-10.12c7.455 1.066 5.755 12.18 12.079 17.318m0 0c-10.336 3.36-15.849-4.252-17.891-9.673m17.891 9.673c-6.645 1.107-10.459-9.54-14.926-13.546m-.028 6.346c-.401-1.863.065-3.741.742-5.624m5.351.224c-2.034-.948-3.711-.59-5.373-.178m7.034 4.378c-1.513-1.116-3.032-1.359-4.555-1.317m-.983 5.517c-.362-.538.376-4.323.854-5.589m6.346 5.589c-1.319-.904-2.545-1.403-3.717-1.666M115.2 21c-.077-1.048-.068-2.813.179-4.154m5.359 3.554a4.4 4.4 0 0 0-2.167.127m-.048 1.673c-.497-.75-.436-1.38-.199-1.971M68.123 91.8c0-.636.233-1.247.649-1.697.415-.45.979-.703 1.566-.703s1.152.253 1.567.703.649 1.06.649 1.697c0 .636-.234 1.247-.65 1.697-.414.45-.978.703-1.566.703a2.13 2.13 0 0 1-1.566-.703 2.5 2.5 0 0 1-.649-1.697m4.43-2.4c1.662-3.6-1.107-3-2.215-2.4-1.107-.6-3.876-1.2-2.215 2.4-3.323-1.8-2.77 1.2-2.215 2.4-.554 1.2-1.174 4.123 2.215 2.4-1.662 3.6 1.108 3 2.215 2.4 1.108.6 3.877 1.2 2.216-2.4 3.323 1.8 2.769-1.2 2.215-2.4.554-1.2 1.108-4.2-2.215-2.4m36.555 18.6c-1.099 5.881-8.021 3.259-8.308 5.4-.554-3.6 7.347-2.444 8.022-5.549-2.735 2.944-7.468 3.749-8.576 2.549-.446-2.518 7.023-3.986 8.862-2.4m-1.965-8.386c-1.399 5.803-8.136 2.757-8.533 4.877-.361-3.628 7.425-1.985 8.257-5.043-2.87 2.769-7.613 3.28-8.65 2.014-.311-2.541 7.184-3.545 8.926-1.848m-1.633-9.22c-1.454 5.767-7.824 2.552-8.246 4.661-.272-3.636 7.128-1.797 7.985-4.834-2.796 2.697-7.334 3.088-8.299 1.796-.246-2.548 6.93-3.363 8.56-1.622m-1.317-8.231c-1.811 5.602-7.682 1.776-8.24 3.836.004-3.65 6.962-1.093 8.003-4.034-2.875 2.412-7.252 2.358-8.082.976-.051-2.563 6.884-2.672 8.319-.778m-.891-9.282c-1.787 5.603-7.58 1.776-8.13 3.836.003-3.65 6.869-1.093 7.896-4.034-2.837 2.413-7.156 2.358-7.976.976-.05-2.563 6.793-2.672 8.21-.778m-.029-7.889c-1.949 5.548-7.798 1.548-8.405 3.591.082-3.648 7.056-.886 8.17-3.796-2.956 2.327-7.376 2.143-8.186.737.003-2.564 7.011-2.467 8.421-.532m8.377 51.327c-.442 6.407-7.826 4.6-7.872 6.916-.984-3.749 7.233-3.637 7.563-7.034-2.457 3.517-7.205 5.042-8.477 3.923-.749-2.613 6.722-5.231 8.786-3.805m3.335 8.404c-.387 6.395-7.731 4.668-7.757 6.979-1.007-3.729 7.149-3.702 7.449-7.093-2.41 3.532-7.11 5.103-8.382 4-.764-2.599 6.63-5.287 8.69-3.886m4.198 8.173c.462 6.502-7.247 6.008-6.964 8.338-1.525-3.582 6.784-4.937 6.635-8.4-1.981 3.963-6.557 6.339-7.999 5.445-1.127-2.486 6.042-6.443 8.328-5.383m5.38 8.246c1.095 6.387-6.799 6.8-6.287 9.075-1.896-3.37 6.43-5.684 5.945-9.098-1.634 4.158-6.063 7.048-7.618 6.33-1.385-2.331 5.531-7.09 7.96-6.307m5.748 6.939c1.52 6.76-6.657 7.778-5.989 10.177-2.171-3.471 6.341-6.557 5.633-10.178-1.45 4.572-5.878 7.991-7.536 7.336-1.578-2.396 5.322-7.997 7.892-7.335m5.381-79.381c0 .197.103.392.303.574.199.182.492.347.861.487.368.139.806.25 1.288.325s.999.114 1.52.114c1.054 0 2.064-.158 2.809-.44.745-.28 1.163-.662 1.163-1.06s-.418-.78-1.163-1.06c-.745-.282-1.755-.44-2.809-.44-.521 0-1.038.039-1.52.114s-.92.186-1.288.325c-.369.14-.662.305-.861.487-.2.182-.303.377-.303.574m.554 3.3c0 .197.094.392.276.574s.45.347.786.487c.337.139.737.25 1.177.325s.912.114 1.388.114.948-.039 1.388-.114.84-.186 1.176-.325c.337-.14.604-.305.787-.487.182-.182.276-.377.276-.574s-.094-.392-.276-.574-.45-.347-.787-.487a5.6 5.6 0 0 0-1.176-.325 8.3 8.3 0 0 0-1.388-.114c-.476 0-.948.039-1.388.114s-.84.186-1.177.325c-.336.14-.604.305-.786.487s-.276.377-.276.574m-.554 3c0 .398.409.78 1.136 1.06.727.282 1.713.44 2.741.44s2.015-.158 2.742-.44c.727-.28 1.135-.662 1.135-1.06s-.408-.78-1.135-1.06c-.727-.282-1.714-.44-2.742-.44s-2.014.158-2.741.44c-.727.28-1.136.662-1.136 1.06M74.215 27.6c.603-.815 2.514-3.665 4.985-4.2 2.77-.6 4.43 0 6.543 1.848-.155-.18.157.77 0 .6-3.804-4.134-10.54-1.004-11.528 1.752m11.631 4.2s-1.661-2.4-3.877-2.4-4.984 3-8.861 3c3.323 0 5.54 1.119 7.754 1.2 2.27.083 3.876-1.8 4.984-1.8"/><path fill="currentColor" d="m79.2 83.4 12.5-7.102a104 104 0 0 1-.19-3.312L79.754 80.4l-33.79-19.239.007 3.006zm16.111 21.409c.244 1.384.544 2.793.869 4.172-4.857 2.384-8.986 5.532-12.95 8.815-1.149-1.291-2.327-2.617-3.492-3.915l.013-30.813 2.244-1.23v31.503c3.99-3.316 8.323-6.256 13.316-8.532M60.894 94.532l.067-21.645-2.226-1.266-.045 21.213a95 95 0 0 1 2.204 1.698M24.903 56.87q1.05-.62 2.228-1.187l.02 28.143c-.324.043-.664.073-1.037.121-.408-.465-.79-.945-1.185-1.433zm82.543 28.33a158 158 0 0 1-1.108-26.4l2.099.938a64 64 0 0 0-.176 1.636c-.679 7.757-.009 16.54 1.177 23.264zm24.322 30.72h-1.796l-1-1.44h2.773zm.023-3.6h-4.275l-.685-1.44h5.051zm-.009-7.2h-8.04l-.545-1.44h8.649zm-.014 3.6h-6.275l-.682-1.44h6.98zm.014-7.2h-9.495l-.5-1.44h9.995zm-.065-3.6H122.4c-.371.006-.674-.318-.674-.72s.303-.726.674-.72h9.382zm.097-3.96h-7.199c-.449.007-.449-.727 0-.72h7.199zm0-3.6h-4.983c-.45.007-.45-.727 0-.72h5.047zm-16.13-4.808.144.744c1.967 10.16 4.452 20.963 13.402 32.92l.148.199v19.616l-1.183-1.598c-8.463-11.435-15.723-29.022-18.958-49.34l-.104-.648zm-1.007 1.782-4.019 1.16c3.094 18.861 9.703 35.289 17.391 46.37v-14.947c-8.78-11.814-11.425-22.643-13.372-32.583m-54.234-20.99 2.775-6.443 6.63 3.639-2.852 6.62m-1.92-6.56c-.764 0-1.384.672-1.384 1.5s.62 1.5 1.385 1.5 1.385-.672 1.385-1.5-.62-1.5-1.385-1.5M58.7 57.403l-2.787 6.47-6.578-3.758 2.706-6.28zM54 57.3c-.765 0-1.385.672-1.385 1.5s.62 1.5 1.385 1.5 1.385-.672 1.385-1.5-.62-1.5-1.385-1.5m25.674 11.672-2.884 6.693-6.615-3.67 2.881-6.69zm-4.628-.272c-.765 0-1.385.672-1.385 1.5s.62 1.5 1.385 1.5 1.385-.672 1.385-1.5-.62-1.5-1.385-1.5m12.359-3.12 2.873 5.428-6.471 3.95-2.87-5.42zm-2.968 3.757c-.44.677-.29 1.613.335 2.09s1.49.314 1.93-.364.29-1.613-.336-2.09c-.625-.476-1.489-.314-1.929.364M43.555 16.716l1.475-.244c11.664-1.932 23.586-3.709 35.897-3.644 7.386.04 14.912.74 22.606 2.47l1.342.288-1.86 2.414c-20.011-4.496-38.98-1.884-57.6 1.2l-1.876-2.439L28.8-2.4"/><path fill="currentColor" d="M77.566 83.4H63.128l.023 1.8h14.37zm0 15.6H66.06l1.683 1.8h9.73zM43.743 56.892l.011 4.958-.892 1.45.899 1.46.01 4.993-3.97-6.453zm-14.347-.547 4.28 6.955-4.322 7.025.015-5 1.246-2.025-1.234-2.004zm11.87-5.379-4.528 7.358-3.227-5.245 2.622-.714.605.984.85-1.38zm-4.528 17.31 4.323 7.024-4.323 7.025-2.16-3.513-2.162-3.512 2.161-3.512zm0 4.975-.041.068-1.22 1.981 1.22 1.981.041.068L38 75.3zm7.017 12.12c-.766-.21-1.547-.41-2.382-.575l2.35-3.791zm-12.328-1.699-2.073-3.399-.015 3.429q1.037-.021 2.088-.03m73.146 50.466c-1.994-4.324-3.676-8.695-5.135-13.138l-7.467 5.384c3.873 3.333 8.004 6.063 12.602 7.754M33.36 93.875c1.336.03 2.716.074 3.96.25l.694.1-.574 4.368-.656-.066q-.352-.035-.707-.068l-.868-1.568q.524.045 1.044.093l.19-1.443a36 36 0 0 0-2.152-.194l-2.857-4.579.692.004c3.918.02 7.471.536 10.767 1.432l.714.194-1.662 5.684a33 33 0 0 1 6.904 2.93l.718-1.207c-1.109-.63-2.237-1.216-3.405-1.702l-.714-.298 1.874-4.015.592.264c3.322 1.479 6.36 3.402 9.218 5.655l.579.457-3.355 4.652c2.134 1.726 4.206 3.685 6.29 5.841l.951-1.091a96 96 0 0 0-3.076-3.023l-.53-.496 2.714-3.326.517.472c2.633 2.403 5.165 5.062 7.716 7.857l.67.633-3.992 4.308c2.174 2.391 4.365 4.962 6.667 7.585l1.013-1.039c-.6-.67-1.19-1.339-1.757-1.996l-.473-.548 1.012-1.024.473.548c.724.84 1.45 1.68 2.216 2.519l.499.545-3.034 3.115-.477-.54c-2.667-3.021-5.148-5.982-7.6-8.647l-.489-.532 3.936-4.246c-2.25-2.455-4.48-4.787-6.763-6.91l-.89 1.09a101 101 0 0 1 3.108 3.08l.497.515-2.857 3.278-.504-.528c-2.415-2.53-4.78-4.782-7.22-6.696l-.582-.456 3.335-4.625c-2.437-1.865-5-3.47-7.756-4.756l-.609 1.304a35 35 0 0 1 3.536 1.829l.65.387-2.22 3.733-.565-.333a31.6 31.6 0 0 0-7.86-3.326l-.715-.194 1.649-5.637c-2.79-.702-5.772-1.122-9.025-1.19l-.003.603m112.3 107.499L131.815 186Zm-38.77-141.6a158 158 0 0 0 1.108 26.4l6.979-2.016c-.196 1.134-.19 2.19.025 3.133 1.126-.744 2.282-1.706 3.393-2.703 2.072 11.066 4.116 22.088 13.955 34.743l-.001 27.057c-15.361-15.202-28.188-48.717-26.67-85.675M96.562 31.2c0 .637.117 1.247.325 1.697.207.45.489.703.783.703s.575-.253.783-.703.325-1.06.325-1.697c0-.315-.03-.627-.085-.918a3.4 3.4 0 0 0-.24-.78 1.6 1.6 0 0 0-.36-.52.64.64 0 0 0-.423-.182.64.64 0 0 0-.424.183 1.6 1.6 0 0 0-.36.52 3.4 3.4 0 0 0-.24.779 5 5 0 0 0-.084.918m-15.604.244c0 .636.117 1.247.324 1.697s.49.703.784.703c.293 0 .575-.253.783-.703s.324-1.06.324-1.697c0-.315-.028-.627-.084-.919a3.4 3.4 0 0 0-.24-.778 1.6 1.6 0 0 0-.36-.52.64.64 0 0 0-.423-.183.64.64 0 0 0-.424.183c-.135.12-.257.297-.36.52a3.4 3.4 0 0 0-.24.778 5 5 0 0 0-.084.919"/><path stroke="currentColor" stroke-linecap="round" stroke-linejoin="round" stroke-width=".5" d="M85.853 61.646 80.862 64.8l-13.994-7.335m70.361 6.74c.77 1.023.679 1.582.172 2.45m.237.875c.77 1.023.679 1.582.172 2.45m.169.9c.77 1.023.679 1.582.172 2.45m-.945.53c.77 1.023.679 1.582.172 2.45m2.745-11.51c.442.64.126.868 0 1.2m.091 2.15c.442.64.126.868 0 1.2m.296 2.174c.441.64.125.868 0 1.2m.022 1.756c.442.64.126.868 0 1.2m-3.178-15.08c-.554.6.554 3 .554 3M100.246 30c-1.661-2.4-2.77-2.4-4.43-2.4-1.662 0-4.431 2.4-4.431 2.4m-6.647.6c-1.661-2.4-3.085-3.083-4.984-3-1.33.058-3.323 1.8-3.323 1.8m19.922.033c-.33.438-.538 1.068-.538 1.767 0 1.326.744 2.4 1.662 2.4s1.661-1.075 1.661-2.4c0-.743-.233-1.407-.6-1.847m-18.011.655c-.14.351-.22.758-.22 1.192 0 1.326.745 2.4 1.662 2.4.918 0 1.758-.726 1.758-2.052 0-.764-.247-1.445-.633-1.885M76.431 61.2l-8.741-4.456M75.877 60l-7.734-3.943m22.688-.857c-1.114-.726-2.77 0-3.877.6"/></svg>
