<svg xmlns="http://www.w3.org/2000/svg" fill="none" viewBox="0 0 166 258"><path fill="currentColor" d="M153.231 17.415c-.005 1.976.219 4.356.219 6.291s-1.915 8.005-1.915 9.94 1.338 5.858 1.338 8.438-2.082 8.27-2.082 10.85 1.987 7.263 1.987 9.843-1.348 5.805-1.348 8.385 1.767 6.272 1.767 9.497-2.406 7.21-2.406 9.79 1.253 3.764 1.253 6.99c0 3-1.299 10.431-1.372 13.527l2.611-1.881c.244-3.587 1-9.217.932-11.725-.087-3.224-1.371-4.373-1.441-6.952s2.228-6.63 2.141-9.853c-.087-3.224-1.954-6.866-2.024-9.445-.069-2.579 1.191-5.84 1.122-8.419-.07-2.579-2.182-7.206-2.252-9.785s1.858-8.324 1.788-10.903c-.069-2.579-1.514-6.463-1.566-8.398s1.699-8.054 1.646-9.989c-.052-1.934-.341-4.307-.398-6.201M83.289 37.93c-.34 0-.664.238-.903.661-.24.423-.374.998-.374 1.596s.134 1.173.374 1.597.564.66.903.66c.338 0 .663-.237.903-.66.239-.424.374-.998.374-1.597 0-.598-.135-1.173-.374-1.596-.24-.423-.565-.661-.903-.661m-19.16.667c-.339 0-.663.238-.903.661s-.374.998-.374 1.597.135 1.173.374 1.596c.24.423.564.661.903.661s.663-.238.903-.661.374-.998.374-1.596-.135-1.173-.374-1.596c-.24-.424-.564-.662-.903-.662m6.102 15.583c-3.831 1.29-3.192 3.225-5.746 3.87l-.069.127c1.865-.003 3.9-2.436 5.815-2.707zm6.384 0v1.29c4.127 0 5.839 2.772 8.594 2.707l-.101-.127c-3.775-.645-1.84-3.225-8.493-3.87m67.167 23.099c-14.07 14.505-17.055 28.788-16.233 45.48 6.356.741 11.59 5.291 13.375 11.372l4.27.02c-2.207-1.863-4.094-4.71-4.094-9.021 0-8.385 5.746-9.675 7.023-9.675 1.368 0 2.52.986 3.305 2.339.454-.67 1.841-1.418 4.149-1.917 8.518-1.844 7.741 2.903 2.621 3.747 4.721-.452 4.962 1.977 2.493 3.364 2.722.718 1.708 3.039-1.37 3.797 3.989.528 2.187 4.004-2.179 4.254 2.216.486 3.75 1.405 3.75 2.476 0 .237-.074.466-.207.664l5.315-.015v-48.68l-7.023-2.601-.013 29.788c2.049.88 3.858 1.022 3.844-1.086-.009-1.306-1.277-1.29-1.277-.645 0 .972-1.277.961-1.277 0 0-4.219 5.108-2.58 5.108 0 0 6.45-10.854 3.56-12.131 1.935-.537.684-2.769 1.59-5.174 1.932l-.103.014q-.217.03-.435.053c-3.158.331-6.419-.398-6.419-3.934 0-2.58 5.108-4.219 5.108 0 0 .961-1.277.972-1.277 0 0-.645-1.268-.661-1.277.645-.015 2.081 1.747 1.97 3.803 1.103l.028-34.1zm14.416 42.345a15 15 0 0 0-.789.095 9 9 0 0 0 .789-.095M58.761 92.698l-.036 31.142 11.589.009 3.15-3.976c-2.891-12.016-7.948-20.88-14.703-27.175m46.251.687a1.27 1.27 0 0 0-.903.378c-.24.242-.374.57-.374.912s.134.67.374.912a1.27 1.27 0 0 0 1.806 0 1.3 1.3 0 0 0 0-1.824 1.27 1.27 0 0 0-.903-.378m-25.843 1.43a1.27 1.27 0 0 0-.903.378 1.296 1.296 0 0 0 0 1.824 1.27 1.27 0 0 0 1.806 0 1.297 1.297 0 0 0 0-1.824 1.27 1.27 0 0 0-.903-.378m6.133.424a1.27 1.27 0 0 0-.903.377 1.297 1.297 0 0 0 0 1.825 1.27 1.27 0 0 0 1.806 0 1.297 1.297 0 0 0 0-1.825 1.27 1.27 0 0 0-.903-.377m13.996.159a1.27 1.27 0 0 0-.903.377 1.297 1.297 0 0 0 0 1.825 1.27 1.27 0 0 0 1.806 0 1.3 1.3 0 0 0 0-1.825 1.27 1.27 0 0 0-.903-.377m-9.802 1.959a1.27 1.27 0 0 0-.903.378 1.297 1.297 0 0 0 0 1.824 1.27 1.27 0 0 0 1.806 0 1.297 1.297 0 0 0 0-1.824 1.27 1.27 0 0 0-.903-.378m5.766.265a1.27 1.27 0 0 0-.903.378 1.297 1.297 0 0 0 0 1.824 1.27 1.27 0 0 0 1.806 0 1.297 1.297 0 0 0 0-1.824 1.27 1.27 0 0 0-.903-.378m-88.558 2.03a.95.95 0 0 0-.677.284.971.971 0 0 0 .677 1.652.95.95 0 0 0 .677-.284.97.97 0 0 0-.677-1.651m54.908 1.291c.881 0 1.596.721 1.596 1.612s-.715 1.613-1.596 1.613a1.605 1.605 0 0 1-1.597-1.613c0-.891.715-1.612 1.597-1.612m18.5.438a1.27 1.27 0 0 0-.902.378 1.297 1.297 0 0 0 0 1.825 1.27 1.27 0 0 0 1.806 0 1.3 1.3 0 0 0 0-1.825 1.27 1.27 0 0 0-.903-.378m19.763.371a1.27 1.27 0 0 0-.903.378 1.297 1.297 0 0 0 0 1.824 1.27 1.27 0 0 0 1.806 0 1.297 1.297 0 0 0 0-1.824 1.27 1.27 0 0 0-.903-.378m-14.258.106a1.27 1.27 0 0 0-.903.378 1.297 1.297 0 0 0 0 1.824 1.27 1.27 0 0 0 1.806 0 1.297 1.297 0 0 0 0-1.824 1.27 1.27 0 0 0-.903-.378m-80.828.052a.95.95 0 0 0-.678.283.975.975 0 0 0 0 1.369.954.954 0 0 0 1.635-.684c0-.257-.1-.503-.28-.685a.95.95 0 0 0-.678-.283m4.469.323a.95.95 0 0 0-.677.283.97.97 0 0 0 .677 1.652.95.95 0 0 0 .677-.284.97.97 0 0 0-.677-1.651m-2.235 1.612-3.192 9.675 1.915-1.935 1.277 3.87.639-3.87 1.276 1.935zm82.787.131a1.27 1.27 0 0 0-.903.378 1.297 1.297 0 0 0 0 1.824 1.27 1.27 0 0 0 1.806 0 1.295 1.295 0 0 0 0-1.824 1.27 1.27 0 0 0-.903-.378m6.028 0a1.27 1.27 0 0 0-.903.378 1.297 1.297 0 0 0 0 1.824 1.27 1.27 0 0 0 1.806 0 1.295 1.295 0 0 0 0-1.824 1.27 1.27 0 0 0-.903-.378m-47.743 1.162q.191 3.039.348 6.091c2.036.211 4.113.522 6.223.908a16.1 16.1 0 0 0-6.571-6.999m-15.593.053c-3.117 1.769-5.572 4.561-6.955 7.97a74 74 0 0 1 6.94-1.489q-.006-3.223.014-6.481m34.217 1.557c.882 0 1.596.721 1.596 1.612s-.714 1.613-1.596 1.613a1.605 1.605 0 0 1-1.596-1.613c0-.891.715-1.612 1.596-1.612m14.075 1.677a1.27 1.27 0 0 0-.903.377 1.3 1.3 0 0 0 0 1.825 1.27 1.27 0 0 0 1.806 0 1.297 1.297 0 0 0 0-1.825 1.27 1.27 0 0 0-.903-.377m5.504.423a1.27 1.27 0 0 0-.903.378 1.297 1.297 0 0 0 0 1.824 1.27 1.27 0 0 0 1.806 0 1.295 1.295 0 0 0 0-1.824 1.27 1.27 0 0 0-.903-.378m13.891.318a1.27 1.27 0 0 0-.903.378 1.297 1.297 0 0 0 0 1.824 1.27 1.27 0 0 0 1.806 0c.24-.242.374-.57.374-.912s-.134-.67-.374-.912a1.27 1.27 0 0 0-.903-.378m-9.697 1.801a1.27 1.27 0 0 0-.903.377 1.3 1.3 0 0 0 0 1.825 1.27 1.27 0 0 0 1.806 0 1.297 1.297 0 0 0 0-1.825 1.27 1.27 0 0 0-.903-.377m5.661.423a1.27 1.27 0 0 0-.903.378 1.297 1.297 0 0 0 0 1.824 1.27 1.27 0 0 0 1.806 0 1.295 1.295 0 0 0 0-1.824 1.27 1.27 0 0 0-.903-.378m-55.93.195c-.508 0-.995.204-1.354.567a1.945 1.945 0 0 0 0 2.736 1.904 1.904 0 0 0 2.709 0 1.945 1.945 0 0 0 0-2.736 1.9 1.9 0 0 0-1.355-.567m21.389.323c.881 0 1.596.721 1.596 1.612s-.715 1.613-1.596 1.613a1.605 1.605 0 0 1-1.597-1.613c0-.891.715-1.612 1.597-1.612m-21.767.314a.765.765 0 0 1 .711.484.8.8 0 0 1-.166.854.76.76 0 0 1-1.089 0 .79.79 0 0 1 0-1.108.77.77 0 0 1 .544-.23m61.026 2.928a1.27 1.27 0 0 0-.903.378 1.297 1.297 0 0 0 0 1.824 1.27 1.27 0 0 0 1.806 0 1.3 1.3 0 0 0 0-1.824 1.27 1.27 0 0 0-.903-.378m-14.258.847a1.28 1.28 0 0 0-1.163.757l2.437.617.003-.084c0-.342-.135-.67-.374-.912a1.27 1.27 0 0 0-.903-.378m-17.978.748c.881 0 1.596.722 1.596 1.613 0 .89-.715 1.612-1.596 1.612a1.604 1.604 0 0 1-1.597-1.612c0-.891.715-1.613 1.597-1.613m28.2.629a1.27 1.27 0 0 0-.903.378 1.297 1.297 0 0 0 0 1.824 1.27 1.27 0 0 0 1.805 0 1.297 1.297 0 0 0 0-1.824 1.27 1.27 0 0 0-.902-.378m-62.996.016c-.508 0-.996.204-1.355.567a1.945 1.945 0 0 0 0 2.736 1.905 1.905 0 0 0 2.709 0 1.945 1.945 0 0 0 0-2.736 1.9 1.9 0 0 0-1.354-.567m12.769 0c-.508 0-.995.204-1.355.567a1.945 1.945 0 0 0 0 2.736 1.905 1.905 0 0 0 2.71 0 1.945 1.945 0 0 0 0-2.736 1.9 1.9 0 0 0-1.355-.567m-.433.637c.204.001.4.083.544.23a.79.79 0 0 1 0 1.108.763.763 0 0 1-1.255-.254.8.8 0 0 1 .166-.854.76.76 0 0 1 .544-.23m-12.844.008q.153 0 .294.06a.77.77 0 0 1 .476.724.8.8 0 0 1-.226.554.764.764 0 0 1-1.088 0 .79.79 0 0 1 0-1.108.76.76 0 0 1 .544-.23m57.475.08c-.256 0-.506.078-.718.224l1.975 1.295a1.3 1.3 0 0 0-.354-1.141 1.27 1.27 0 0 0-.903-.378m-49.23 8.998c-4.327.032-8.693.652-13.87 1.923a15.74 15.74 0 0 0 12.63 6.32c5.459 0 10.278-2.768 13.131-6.996-4.288-.845-8.074-1.275-11.892-1.247"/><path fill="currentColor" d="M85.928 23.872c-9.027-.015-18.546.547-28.935 1.818l1.369 3.39c21.174-2.513 38.593-2.03 55.787.277l1.127-3.41c-9.518-1.303-19.117-2.06-29.348-2.075M51.252 70.02c-6.624 1.517-12.98 3.827-19.108 6.786 9.439 1.34 18.095 4.415 25.386 9.85 7.572 5.643 13.507 13.782 17.365 24.58-2.629-14.648-5.942-27.783-11.218-38.625l-9.408-1.017zm68.596 2.834L91.938 86.43l-22.45-10.207 2.79 7.635 19.742 8.975 20.941-10.186zm20.68 3.223c-13.77 14.744-16.859 29.79-16.115 46.612l3.163.077c-.849-16.7 2.136-30.983 16.223-45.477zm18.449 6.779v24.216l7.023-2.368V85.477zM17.866 85.064c-1.741 1.179-5.107 3.656-5.107 3.656l.01 27.38c1.763 0 3.193 1.444 3.193 3.225 0 .637-.183 1.231-.535 1.684.647.166 1.533.49 2.49.967l-.04-.716zm116.211 16.459c-.518-.007-.518.781 0 .774h9.577c.518.007.518-.781 0-.774zm-3.506 3.225-.146.774h15.144v-.774zm-.533 3.032-.159 1.161h9.867l.924-1.161zm-.383 3.225-.104 1.161h9.77l-.132-1.161zm-.22 3.289-.063 2.322h12.594l-1.751-2.322zm-.077 3.999.017.774h11.033l.391-.774zm.057 2.58 1.89.774h8.252l.178-.774zm5.69 2.58 1.132.774h2.986l.045-.774zm3.214 2.58.705.774h.26l-.07-.774zm-92.596.858a.4.4 0 0 0-.205.068c-1.463.988-3.238 1.56-5.182 1.56a9.24 9.24 0 0 1-4.741-1.28.38.38 0 0 0-.293-.046.387.387 0 0 0-.21.613q.048.062.115.1a10 10 0 0 0 5.13 1.387c2.092 0 4.02-.618 5.607-1.691a.388.388 0 0 0-.22-.711m4.23.473a.4.4 0 0 0-.293.136 12.28 12.28 0 0 1-9.324 4.244 12.28 12.28 0 0 1-8.878-3.758.4.4 0 0 0-.27-.122.4.4 0 0 0-.15.027.393.393 0 0 0-.213.508q.03.072.085.127a13.05 13.05 0 0 0 9.426 3.992c3.957 0 7.494-1.738 9.899-4.507a.39.39 0 0 0-.283-.647"/><path stroke="currentColor" stroke-linecap="round" stroke-linejoin="round" d="M69.917 14.951c.137 1.76 2.64 1.55 2.502-.21-.275-3.52-4.282-3.233-4.004.336.412 5.281 7.446 4.691 7.007-.587-.488-5.858-7.465-5.281-8.652-14.041.186 8.844-6.79 9.436-6.363 15.299.385 5.283 7.42 4.694 7.007-.587-.278-3.57-4.278-3.186-4.004.335.138 1.76 2.64 1.55 2.503-.21M102.603.002c-.206 8.828 7.665 9.594 7.177 15.448-.44 5.279-8.39 4.516-7.919-.76.319-3.565 4.839-3.083 4.525.435-.157 1.758-2.985 1.487-2.828-.272m-.957-14.85c-1.36 8.716-9.233 7.973-9.79 13.82-.502 5.273 7.448 6.035 7.919.76.318-3.567-4.21-3.952-4.525-.435-.157 1.759 2.671 2.03 2.828.271m13.561 5.882q.222-.231.435-.477c1.725-2.01 2.687-4.67 2.934-7.763 3.374-.723 5.903-1.7 7.899-2.797m-16.503 10.423c3.552-1.49 5.606-4.665 5.217-10.588 11.29-1.681 12.289-5.48 17.174-8.478M49.115 10.73c1.45 1.052 2.995 1.897 4.705 2.297.417 1.37.882 2.974 1.842 4.743a11.3 11.3 0 0 0 1.893 2.53m5.098-.558c-4.838-2.275-4.747-6.263-6.354-9.993-4.08.227-8.994-4.93-13.348-9.776m35.116 18.754c1.395-1.872 2.432-4.157 2.935-6.805a10.2 10.2 0 0 0 3.145-2.268 10.3 10.3 0 0 0 3.011 2.454c.326 2.47 1.125 4.658 2.26 6.518m-16.402.32c2.776-1.986 4.622-4.993 4.892-9.72 4.583-.695 5.716-4.764 6.51-9.227.543 4.503 1.444 8.634 5.981 9.604.002 4.146 1.284 7.047 3.387 9.15M130.172.027c-11.378 15.887-13.74 21.992-16.031 29.35M42.308.078c8.712 13.13 12.776 20.457 16.072 29.015m-1.387-3.403c22.163-2.711 40.367-2.196 58.283.258M58.362 29.08c21.174-2.514 38.593-2.031 55.787.276m-59.48-8.712c23.91-3.073 43.474-2.488 62.647.242M-.008 99.493c14.454-13.59 31.69-24.988 51.26-29.472m96.233 8.622-24.978-9.232M166 85.486l-7.023-2.596m-40.942-13.449-26.151 12.72L70.52 72.45m-1.034 3.773L91.94 86.43l27.909-13.576m-47.57 11.004 19.742 8.975 20.941-10.186M73.793 88.79l18.282 8.311m0 0 17.895-8.704m-17.895 8.704 2.185 24.755m7.969-29.693.987 24.424M79.931 91.581l-4.706 2.593m1.574 6.893 5.825-3.361 10.055 6.241 9.777-6.177 3.678 1.054m-28.052 8.59 4.799-3.096 10.403 6.475 9.45-6.13 1.87.776m-25.312 8.71 3.899-1.841 10.697 5.331 9.134-5.854.593.286M77.354 123.84h-.83m12.952 0h-.83m-29.907 0V92.681m64.038-23.167c-18.584 19.986-20.75 42.099-19.578 64.645m2.237-.001c-1.2-22.609.896-44.128 19.629-63.799m-3.786 52.904c-.752-17.2 2.343-33.16 16.003-48.38m-9.706 47.884c-.849-16.7 2.136-30.983 16.223-45.477m-19.386 45.4c-.744-16.822 2.345-31.868 16.115-46.612m-76.851-3.466c5.276 10.841 8.589 23.977 11.218 38.625-3.858-10.798-9.793-18.937-17.365-24.581-7.291-5.434-15.947-8.51-25.443-9.809m-7.034 46.993H20.77m-2.893-38.782v36.202m-5.108-32.536V116.1m142.367 19.987a3.24 3.24 0 0 1 1.287 2.588c0 .855-.336 1.676-.935 2.28a3.18 3.18 0 0 1-2.257.945c-.847 0-1.659-.34-2.258-.945a3.24 3.24 0 0 1-.44-4.004 3.2 3.2 0 0 1 1.329-1.189m-1.303 1.26c-2.931-.921-9.459-3.873-9.459-11.892 0-8.385 5.746-9.675 7.023-9.675 2.554 0 4.355 3.437 4.355 6.017 0 5.16-4.993 4.356-4.993.433 0-2.58 1.277-3.87 1.277-3.87l-3.831 2.58m7.514.573c.716-.459 1.831-.891 3.34-1.218 8.938-1.935 7.641 3.388 1.915 3.87-2.769.233-4.602-.031-5.519-.528m8.477-.312c3.23.828 1.28 3.874-3.07 4.019-6.44.214-7.72-1.988-4.256-3.315m5.969 3.082c4.009.527 2.207 4.003-2.19 4.158-7.237.254-7.579-2.909-1.683-3.953m-3.99-9.157c.444-.71 1.831-1.458 4.139-1.957 8.938-1.935 7.641 3.388 1.915 3.87-2.676.225-4.478-.014-5.424-.479m-4.316 4.227c.639 2.58-1.544 8.73-1.544 8.73m1.277-19.553V23.22l5.746-5.805m0 0 5.746 5.805v89.452m-5.746-95.257c.057 1.894.346 4.267.398 6.201.052 1.935-1.698 8.055-1.646 9.99.052 1.934 1.497 5.818 1.566 8.397.07 2.58-1.858 8.324-1.788 10.903s2.182 7.206 2.252 9.785c.069 2.58-1.191 5.84-1.122 8.42.07 2.578 1.937 6.22 2.024 9.444s-2.211 7.274-2.141 9.853c.07 2.58 1.354 3.728 1.441 6.952.068 2.508-.689 8.138-.932 11.725m-.052-91.67c-.005 1.976.219 4.356.219 6.291s-1.915 8.005-1.915 9.94 1.338 5.858 1.338 8.438-2.082 8.27-2.082 10.85 1.987 7.263 1.987 9.843-1.348 5.805-1.348 8.385 1.767 6.272 1.767 9.497-2.406 7.21-2.406 9.79 1.253 3.764 1.253 6.99c0 3-1.299 10.431-1.372 13.527M25.973 126.141c10.93-2.784 18.809-2.868 29.066-.751m-19.31-21.582a402 402 0 0 0-.046 10.667 57.3 57.3 0 0 0-11.127 2.39m20.23-13.111q.391 5.217.614 10.459c3.36.194 6.854.685 10.491 1.512m-28.153 13.296c9.714-2.378 16.582-2.464 25.704-.666m-20.926-23.16a437 437 0 0 0-.03 6.477c-2.376.384-4.695.9-6.955 1.538m29.143-1.039a68 68 0 0 0-6.231-.942c-.104-2.034-.22-4.066-.36-6.096m-11.66-1.52-.001-.09c0-.466.101-.928.298-1.358s.485-.822.848-1.151a4 4 0 0 1 1.27-.769 4.27 4.27 0 0 1 2.996 0c.475.178.906.44 1.27.769.363.329.652.721.848 1.151a3.26 3.26 0 0 1 .297 1.453m-5.515-3.261c-.405-1.838-1.78-6.712-4.895-6.187-3.057.515-5.318 7.613-2.554 9.03 2.163 1.11 2.054-6.047 4.469-5.805 1.194.12 1.734 2.773 1.876 3.616m1.2-.756v-.003c-.188-3.4-.72-6.73-1.8-9.952l3.193-3.87 3.192 3.87c-1.07 3.197-1.603 6.502-1.795 9.876v.002m1.229.647c.182-.99.726-3.318 1.843-3.43 2.415-.242 2.306 6.915 4.47 5.805 2.763-1.417.502-8.515-2.554-9.03-3.065-.516-4.445 4.192-4.875 6.095m-19.055 21.64h-4.922m4.74-1.935h-4.62m4.624-1.935h-4.623m4.857-1.935h-4.857m5.31-1.935h-5.31m6.017-1.935h-6.017m6.973-1.935h-6.973m8.25-1.935h-8.25m9.932-1.935h-9.932m11.909-1.935h-11.91m10.582-1.935H17.877m10.243-1.935H17.877m10.44-1.935h-10.44m11.039-1.935h-11.04m40.863 25.155h-.744m.744-1.935h-.563m.563-1.935h-.567m.567-1.935h-.801m.8-1.935h-1.252m1.253-1.935h-1.96m1.96-1.935h-2.913m2.913-1.935h-4.19m4.19-1.935h-5.875m5.875-1.935h-8.067m8.067-1.935h-6.753m6.753-1.935h-6.413m6.413-1.935h-6.61m6.61-1.935H51.53M166 134.16h-5.308m-1.715-27.09 7.023-2.365m-55.477-35.454c3.267.485 6.291-.908 6.27-4.293-.019-3.085-2.971-4.276-4.839-3.487m1.168 7.932c3.267.485 6.291-.908 6.27-4.293a3.592 3.592 0 0 0-4.658-3.556m.942 7.85c3.267.484 6.291-.909 6.27-4.294-.019-3.085-2.971-4.276-4.839-3.486m.484 7.78c3.268.484 6.292-.909 6.27-4.294a3.594 3.594 0 0 0-4.582-3.58m.866 7.873c3.268.485 6.291-.908 6.27-4.293-.019-3.085-2.971-4.276-4.839-3.486m1.123 7.78c3.267.484 6.291-.909 6.27-4.294-.019-3.085-2.971-4.276-4.839-3.486m1.123 7.78c3.267.484 6.291-.909 6.27-4.294-.019-3.085-2.971-4.276-4.839-3.486M96.4 27.713c7.45 15.514 3.462 27.545 3.587 32.568.251 10.024 14.298 11.959 14.252 4.677-.028-4.515-6.339-4.973-6.339-1.103-.075 2.142 4.001 2.653 3.192 0M98.704 27.85c7.436 15.452 4.75 27.498 4.875 32.506.105 4.178 2.992 5.591 6.321 5.291m-8.895-37.66c7.373 15.386 5.003 27.376 5.128 32.369.053 2.11.816 3.516 1.988 4.351m-4.558-36.505c6.058 10.57 4.388 22.717 5.295 33.623m-2.864-33.4c6.089 10.237 4.804 21.978 6.376 32.85m-4.042-32.621c5.863 10.331 5.011 22.998 7.553 32.608m-5.155-32.324c5.732 10.352 5.02 23.4 8.667 32.393m-6.248-32.107c5.698 10.464 5.027 24.387 9.759 32.265m-8.283-33.56c6.586 10.789 6.917 27.803 11.794 33.346M98.901 72.389c3.791.524 8.265-1.626 8.999-3.11M96.408 27.736c11.667 28.188-4.343 29.386-3.95 38.815.107 2.598 1.396 3.755 3.092 4.345m4.044-.154c2.753.678 6.201-.335 8.437-1.458m-7.097-20.047c-1.188 6.187-6.612 9.44-6.242 15.898.084 1.455.974 2.08 1.455 2.981m4.691-16.969c-1.34 4.013-4.273 6.5-3.959 11.981.396 6.9 5.789 6.958 9.914 5.826m-6.14-15.861c-1.123 2.522-2.558 4.533-2.311 8.828.331 5.778 4.036 7.152 7.653 6.782m-16.61-3.557C88.8 74.333 99.6 75.465 99.6 70.305c0-3.87-6.385-2.58-3.83.645m-8.556-5.031c0 3.87 3.17 10.04 6.529 7.04m-8.7-6.266c0 4.515 2.883 9.145 6.302 7.183m-8.473-6.409c0 3.87 2.043 7.998 5.928 6.866m-8.1-6.092c.639 3.87 1.66 7.224 5.805 6.325m-2.917.121c-3.143-.512-3.781-1.802-5.058-5.672 0 3.225-3.831 5.805-6.385 2.58m1.277-2.58c-1.277 3.07-1.964 3.464-5.108 3.87m2.937-4.484c-.638 3.07-1.985 4.552-6.129 3.839m3.959-4.453c0 3.07-3.905 5.35-7.79 4.453m3.448-5.68c0 3.069-3.59 7.593-6.948 5.214m4.777-5.829c1.277 7.163-12.13 7.585-12.269 1.808-.124-5.188 7.162-4.543 7.162-.673 0 3.05-5.213 3.899-5.108.645.034-1.06 1.277-1.935 2.554-1.29m12.003.738c0 2.602-2.622 4.887-5.787 4.976m-1.943-43.14c-1.533 5.233.834 6.085.834 12.916m0 0c0 7.095-8.3 5.805-8.3.645 0-3.87 5.108-3.225 5.108 0 0 2.374-3.83 2.58-3.83.645s1.915-1.29 1.915-1.29m5.107 0c1.277.645 2.554 1.29 4.47 1.29s2.553-1.29 5.746-1.29c-1.916 0-3.635-3.013-5.651-3.12-2.01-.105-3.288.54-4.565 1.185m-1.722-10.987c-1.864 5.754-.875 9.37-1.486 13.83m-1.94 10.146s-1.915-.645-1.915 1.29 3.83 1.73 3.83-.645c0-3.225-5.631-3.923-5.631-.053 0 5.16 8.226 5.769 8.3-.645.038-3.31-.712-3.906.148-8.726-2.137 3.53.02 8.18-2.89 10.033m2.668-1.988c2.415 11.54.361 16.138-3.83 17.415m15.322-36.12v-1.29c-.638.645-1.524 1.493-2.23 1.458-.637-.031-1.6-.813-4.154-.813s-5.108 2.58-5.108 2.58c.835-1.11 4.443-2.178 4.95-2.147 1.04.064 3.726.814 4.365.814.638 0 2.177-.602 2.177-.602m0 0s1.916 1.935 1.916 2.58c0 2.58-1.496 3.923-1.496 6.503s-1.697 7.687-1.644 8.809c.03.644 1.863 1.458 2.501 1.458.639 0 .639 2.58.639 2.58m4.469-7.095c3.192.645 3.7 4.686 1.277 3.87-5.746-1.935-5.746 1.29-1.601-.318m-8.615 8.058-.638.645v-1.29zm0 0c1.277 0 1.916-1.29 3.193-1.29s1.915.645 2.553.645c.639 0 2.116-.92 2.755-.92s2.992 1.565 4.907 1.565m0 0 .639.645v-1.29zm-9.577 2.58c.749 1.594 3.83 1.935 4.47 0M63.207 55.47c.743.186 1.915-1.633 0-1.605-2.893.04-1.826 4.317 1.208 4.312 1.865-.003 3.9-2.436 5.815-2.707v-1.29c-3.831 1.29-3.192 3.225-5.746 3.87m23.623-1.935c-1.581-.645-2.512-2.77.31-2.995 2.882-.23 2.243 4.93-3.21 5.057-2.754.065-4.466-2.707-8.593-2.707v-1.29c6.653.645 4.718 3.225 8.493 3.87M68.079 72.947c5.72 12.561 8.997 27.534 11.675 43.958m2.676-24.188.926 23.845M70.48 123.84H55.625m47.328 0h-7.438m0-.001 7.56-4.773M25.792 80.123c23.317 1.374 41.141 12.424 47.701 39.871m22.816 5.781h6.54m-39.96 0h6.684m-13.275-6.544a16.3 16.3 0 0 1-1.215 6.171 16.1 16.1 0 0 1-3.46 5.232 16 16 0 0 1-5.179 3.495 15.83 15.83 0 0 1-12.216 0 16 16 0 0 1-5.178-3.495 16.1 16.1 0 0 1-3.46-5.232 16.3 16.3 0 0 1-1.215-6.171 16.2 16.2 0 0 1 4.675-11.402 15.88 15.88 0 0 1 11.286-4.723 15.88 15.88 0 0 1 11.287 4.723 16.2 16.2 0 0 1 4.675 11.402M86.51 129c0 .941-.37 1.843-1.028 2.508a3.5 3.5 0 0 1-2.483 1.04 3.5 3.5 0 0 1-2.483-1.04A3.56 3.56 0 0 1 79.489 129c0-.941.37-1.843 1.028-2.508a3.49 3.49 0 0 1 4.966 0A3.56 3.56 0 0 1 86.511 129m1.859-4.394c2.164-5.172-1.511-7.754-5.37-7.83-3.859.076-7.534 2.658-5.37 7.83-5.746-4.457-8.348.288-8.381 4.394.033 4.106 2.635 8.851 8.381 4.394-2.164 5.172 1.511 7.755 5.37 7.83 3.859-.075 7.534-2.658 5.37-7.83 5.746 4.457 8.348-.288 8.381-4.394-.033-4.106-2.635-8.851-8.381-4.394m72.522 8.909c0 .684-.639 1.341-1.776 1.824s-2.68.756-4.289.756-3.151-.272-4.289-.756c-1.137-.483-1.776-1.14-1.776-1.824s.639-1.34 1.776-1.824 2.68-.756 4.289-.756 3.151.272 4.289.756 1.776 1.14 1.776 1.824M141.1 110.94c0-2.58 5.108-4.219 5.108 0 0 .961-1.277.972-1.277 0 0-.645-1.268-.661-1.277.645-.032 4.515 8.3-1.29 9.577-2.58 1.277 1.29 9.608 7.095 9.577 2.58-.009-1.306-1.277-1.29-1.277-.645 0 .972-1.277.961-1.277 0 0-4.219 5.108-2.58 5.108 0 0 6.45-10.854 3.56-12.131 1.935-1.277 1.625-12.131 4.515-12.131-1.935m-98.961 2.58c0 .513-.202 1.005-.562 1.368a1.904 1.904 0 0 1-2.708 0 1.945 1.945 0 0 1 0-2.736 1.904 1.904 0 0 1 2.709 0c.359.363.56.855.56 1.368m0-5.805c0 .513-.202 1.005-.562 1.368a1.904 1.904 0 0 1-2.708 0 1.945 1.945 0 0 1 0-2.736 1.904 1.904 0 0 1 2.709 0c.359.363.56.855.56 1.368m0 11.61c0 .513-.202 1.005-.562 1.368a1.904 1.904 0 0 1-2.708 0 1.945 1.945 0 0 1 0-2.736 1.904 1.904 0 0 1 2.709 0c.359.363.56.855.56 1.368m-6.385 0c0 .513-.202 1.005-.561 1.368a1.904 1.904 0 0 1-2.709 0 1.945 1.945 0 0 1 0-2.736 1.905 1.905 0 0 1 2.709 0c.36.363.56.855.56 1.368m-5.746 1.29c0 .513-.202 1.005-.561 1.368s-.847.567-1.355.567-.995-.204-1.354-.567a1.945 1.945 0 0 1 0-2.736c.36-.363.846-.567 1.354-.567s.995.204 1.355.567c.359.363.56.855.56 1.368m18.515-1.29a1.95 1.95 0 0 1-.56 1.368 1.905 1.905 0 0 1-2.709 0 1.945 1.945 0 0 1 0-2.736 1.9 1.9 0 0 1 2.708 0c.359.363.561.855.561 1.368m5.746.645a1.95 1.95 0 0 1-.56 1.368 1.905 1.905 0 0 1-2.71 0 1.945 1.945 0 0 1 0-2.736 1.905 1.905 0 0 1 2.709 0c.36.363.561.855.561 1.368m40.223-83.205s-4.202-4.294-6.755-4.294-6.296 1.1-6.933 1.132c-.706.034-2.273-.063-2.912-1.353v1.29s2.22.496 2.86.496c.638 0 6.405-1.192 7.142-1.131 2.028.165 5.763 2.75 6.598 3.86m-15.323 3.87s2.554-2.58 4.47-2.58 6.384 2.58 7.661 2.58c-2.853-.006-5.716 1.935-7.662 1.935-2.553 0-4.469-1.935-4.469-1.935M96.771 129c0 3.303-1.45 6.471-4.033 8.807s-6.086 3.648-9.738 3.648-7.155-1.312-9.738-3.648-4.033-5.504-4.033-8.807 1.45-6.471 4.033-8.807c2.583-2.335 6.086-3.648 9.738-3.648s7.155 1.313 9.738 3.648 4.033 5.504 4.033 8.807"/><path stroke="currentColor" stroke-linecap="round" stroke-linejoin="round" stroke-width=".5" d="M153.869 64.63v30.323m0-33.455V18.06m3.831 93.981v-90.11m-1.277 89.389V20.64m-1.277 89.857V19.35m-1.277 90.201v-6.773m-1.277-74.538v8.617m0 7.4v12.512m.71 59.861c.496.627.588 1.234.318 3.073m.249.912c.497.627.857 1.81.324 3.146m-.527-.155c.497.627.595 1.969.115 3.066m-.57 1.016c.497.627.464 1.863.01 2.907m5.118-13.559c.162.496.186.936 0 1.29m.078 2.833c.163.496.186.935 0 1.29m-.314 2.359c.163.496.186.935 0 1.29m-.193 2.151c.163.496.186.935 0 1.29m-5.465-8.351c-2.134.072-1.768 3.942-1.768 3.942M61.292 39.345c.639-1.29 2.45-2.58 4.47-2.58 1.915 0 3.83 2.58 3.83 2.58m10.854.272s1.991-3.032 4.161-3.057c2.154-.025 3.925 1.241 4.393 1.96m-9.83 2.115c.638 1.935 1.89 4.11 5.107 3.87m-24.261-2.58c-.417 2.275 4.469 3.225 4.469 3.225m1.775-5.698c.09.31.14.648.14 1.001 0 1.526-.928 2.762-2.072 2.762s-2.072-1.236-2.072-2.762c0-.536.115-1.037.313-1.46m22.763-.597c.193.42.304.913.304 1.441 0 1.525-.928 2.762-2.072 2.762s-2.072-1.236-2.072-2.762c0-.474.09-.92.248-1.311m-10.232 27.91c1.915-1.29 4.469-.646 5.108 0"/></svg>
