<svg xmlns="http://www.w3.org/2000/svg" width="144" height="240" fill="none"><path stroke="currentColor" stroke-linecap="round" stroke-linejoin="round" d="M60.65 13.908c.12 1.637 2.29 1.442 2.171-.195-.238-3.275-3.715-3.008-3.473.312.357 4.913 6.46 4.364 6.078-.546-.423-5.45-6.475-4.913-7.505-13.061.162 8.226-5.89 8.777-5.52 14.231.334 4.915 6.436 4.367 6.079-.546-.242-3.32-3.712-2.963-3.474.312.12 1.638 2.29 1.443 2.171-.195M89.005.001c-.179 8.212 6.649 8.925 6.226 14.37-.382 4.91-7.278 4.202-6.87-.706.276-3.317 4.198-2.868 3.926.403-.137 1.636-2.59 1.384-2.454-.252M89.003.001c-1.18 8.109-8.01 7.418-8.492 12.857-.435 4.904 6.46 5.614 6.87.706.275-3.317-3.654-3.676-3.926-.404-.136 1.636 2.317 1.888 2.453.252m11.764 5.472q.193-.215.377-.444c1.496-1.87 2.331-4.344 2.545-7.221 2.927-.673 5.121-1.582 6.852-2.602m-14.315 9.696c3.08-1.386 4.863-4.34 4.525-9.85 9.794-1.564 10.66-5.097 14.898-7.887M42.606 9.982c1.258.978 2.598 1.765 4.081 2.137.362 1.274.766 2.767 1.598 4.412.413.816.96 1.613 1.642 2.354m4.423-.52c-4.197-2.116-4.118-5.825-5.513-9.295-3.539.21-7.802-4.586-11.579-9.094M67.72 17.422c1.21-1.742 2.11-3.867 2.546-6.331a8.9 8.9 0 0 0 2.728-2.11 9.1 9.1 0 0 0 2.613 2.283c.282 2.298.975 4.333 1.96 6.063m-14.228.298c2.408-1.848 4.01-4.644 4.243-9.042 3.977-.646 4.96-4.431 5.649-8.583.47 4.19 1.252 8.032 5.187 8.934.002 3.856 1.114 6.555 2.938 8.51M112.92.027c-9.87 14.778-11.919 20.458-13.906 27.303M36.701.072c7.557 12.215 11.082 19.03 13.942 26.991m-1.203-3.165c19.225-2.522 35.017-2.043 50.558.24m-49.37 2.914c18.367-2.339 33.477-1.89 48.393.257m-51.598-8.105c20.742-2.858 37.713-2.314 54.345.225M-.007 92.551C12.53 79.91 27.483 69.307 44.459 65.135m83.479 8.021-21.667-8.587M144 79.522l-6.092-2.415m-35.516-12.51L79.706 76.429l-18.531-9.034m-.897 3.51L79.754 80.4l24.21-12.628M62.699 78.007l17.126 8.35L97.99 76.88m-33.977 5.715 15.86 7.73m0 0 15.523-8.096m-15.524 8.097 1.896 23.028m6.912-27.623.857 22.721m-20.2-23.262-4.082 2.413m1.365 6.412 5.054-3.127 8.722 5.806 8.481-5.746 3.19.98m-24.333 7.99 4.162-2.88 9.025 6.024 8.198-5.702 1.622.721m-21.958 8.103 3.382-1.713 9.28 4.96 7.923-5.446.515.266M67.102 115.2h-.72m11.236 0h-.72m-25.944 0V86.215m55.551-21.55c-16.12 18.59-18 39.161-16.983 60.134m1.94-.001c-1.04-21.032.778-41.05 17.028-59.348m-3.284 49.214c-.652-16.001 2.032-30.847 13.882-45.005m-8.42 44.543c-.736-15.535 1.853-28.821 14.073-42.304m-16.816 42.232c-.646-15.648 2.034-29.644 13.979-43.36m-66.666-3.224c4.577 10.085 7.45 22.304 9.731 35.93-3.346-10.045-8.495-17.616-15.064-22.866-6.324-5.054-13.833-7.916-22.071-9.124M21.733 115.2h-3.716m-2.51-36.076V112.8m-4.43-30.266V108m123.498 18.593c.347.279.628.642.822 1.06s.295.879.295 1.347a3.13 3.13 0 0 1-.811 2.121 2.66 2.66 0 0 1-1.958.879 2.66 2.66 0 0 1-1.958-.879 3.13 3.13 0 0 1-.811-2.121c0-.568.148-1.124.428-1.603.28-.48.68-.864 1.154-1.107m-1.131 1.172c-2.542-.857-8.205-3.602-8.205-11.062 0-7.8 4.984-9 6.092-9 2.216 0 3.778 3.197 3.778 5.597 0 4.8-4.332 4.053-4.332.403 0-2.4 1.108-3.6 1.108-3.6l-3.323 2.4m6.519.533c.62-.427 1.588-.829 2.896-1.133 7.754-1.8 6.629 3.152 1.662 3.6-2.402.217-3.992-.029-4.788-.491m7.354-.29c2.802.769 1.11 3.604-2.663 3.738-5.586.199-6.697-1.85-3.692-3.084m5.177 2.867c3.478.491 1.915 3.724-1.899 3.868-6.278.237-6.574-2.706-1.46-3.677m-3.461-8.518c.385-.661 1.588-1.356 3.59-1.821 7.754-1.8 6.629 3.152 1.661 3.6-2.321.21-3.884-.013-4.704-.445m-3.744 3.932c.554 2.4-1.34 8.121-1.34 8.121m1.107-18.189V21.6l4.985-5.4m0 0 4.985 5.4v83.211M132.923 16.2c.049 1.762.3 3.97.346 5.769.045 1.8-1.474 7.492-1.428 9.292.045 1.799 1.298 5.413 1.358 7.812s-1.612 7.743-1.551 10.142c.06 2.4 1.893 6.703 1.953 9.102s-1.033 5.433-.972 7.832 1.679 5.787 1.755 8.786-1.918 6.766-1.857 9.165c.06 2.4 1.174 3.469 1.25 6.467.059 2.333-.598 7.57-.809 10.908m-.045-85.275c-.004 1.838.19 4.052.19 5.852s-1.662 7.447-1.662 9.247 1.162 5.449 1.162 7.849-1.806 7.692-1.806 10.092 1.723 6.757 1.723 9.157-1.169 5.4-1.169 7.8 1.533 5.834 1.533 8.834-2.087 6.708-2.087 9.108 1.086 3.501 1.086 6.501c0 2.791-1.126 9.704-1.19 12.584M22.531 117.34c9.48-2.59 16.316-2.668 25.213-.698m-16.75-20.076a401 401 0 0 0-.04 9.922 46.8 46.8 0 0 0-9.652 2.224M38.85 96.515c.228 3.235.403 6.479.533 9.729 2.915.181 5.945.638 9.1 1.407m-24.42 12.369c8.426-2.212 14.384-2.293 22.297-.62M28.207 97.856c-.024 2.017-.03 4.024-.026 6.025a51 51 0 0 0-6.034 1.431m25.281-.967a55 55 0 0 0-5.405-.876q-.134-2.839-.312-5.67m-10.115-1.415-.001-.084a3.24 3.24 0 0 1 .994-2.333c.316-.307.69-.55 1.102-.716a3.48 3.48 0 0 1 2.599 0c.412.166.786.41 1.101.715.315.307.566.67.736 1.071a3.2 3.2 0 0 1 .257 1.352M33.6 93.356c-.35-1.71-1.544-6.244-4.246-5.756-2.652.479-4.613 7.082-2.216 8.4 1.877 1.032 1.783-5.625 3.877-5.4 1.036.111 1.505 2.58 1.628 3.363m1.041-.703v-.003c-.163-3.162-.625-6.26-1.561-9.257l2.77-3.6L37.66 84c-.928 2.974-1.39 6.049-1.557 9.186v.002m1.066.603c.158-.922.63-3.087 1.6-3.191 2.094-.225 1.999 6.432 3.876 5.4 2.397-1.318.436-7.921-2.215-8.4-2.659-.48-3.856 3.9-4.229 5.67m-16.53 20.13h-4.27m4.113-1.8h-4.007m4.01-1.8h-4.01m4.213-1.8h-4.213m4.606-1.8h-4.606m5.22-1.8h-5.22m6.048-1.8h-6.048m7.156-1.8h-7.156m8.615-1.8h-8.615m10.33-1.8h-10.33m9.179-1.8h-9.18m8.886-1.8h-8.885m9.056-1.8h-9.056m9.575-1.8h-9.575m35.446 23.4h-.646m.646-1.8h-.488m.488-1.8h-.492m.492-1.8h-.695m.695-1.8h-1.087m1.087-1.8h-1.7m1.7-1.8h-2.527m2.527-1.8h-3.635m3.635-1.8h-5.096m5.096-1.8h-6.998m6.998-1.8h-5.858m5.858-1.8H45.39m5.563-1.8H45.22m5.734-1.8H44.7m99.3 34.8h-4.605m-1.487-25.2L144 97.4M95.875 64.42c2.835.451 5.458-.845 5.439-3.994-.016-2.87-2.577-3.977-4.198-3.243m1.014 7.378c2.834.451 5.457-.845 5.439-3.994-.016-2.778-2.417-3.905-4.04-3.307m.816 7.301c2.835.451 5.458-.845 5.439-3.994-.016-2.87-2.577-3.977-4.198-3.243m.421 7.237c2.834.451 5.457-.845 5.439-3.994-.016-2.74-2.353-3.874-3.975-3.33m.751 7.324c2.835.451 5.458-.845 5.439-3.994-.016-2.87-2.577-3.977-4.198-3.243m.974 7.237c2.835.451 5.458-.845 5.44-3.994-.017-2.87-2.578-3.977-4.198-3.243m.974 7.237c2.834.451 5.457-.845 5.439-3.994-.017-2.87-2.577-3.977-4.198-3.243M83.624 25.78c6.463 14.432 3.003 25.624 3.112 30.296.218 9.325 12.402 11.125 12.363 4.35-.025-4.2-5.5-4.625-5.5-1.025-.064 1.992 3.472 2.468 2.77 0M85.622 25.907c6.45 14.374 4.12 25.58 4.23 30.238.09 3.886 2.595 5.201 5.483 4.922m-7.716-35.033c6.396 14.313 4.34 25.466 4.448 30.11.046 1.965.708 3.272 1.725 4.049m-3.954-33.959c5.255 9.832 3.806 21.133 4.593 31.277m-2.484-31.069c5.281 9.523 4.167 20.444 5.53 30.558m-3.506-30.345c5.086 9.61 4.347 21.393 6.552 30.333m-4.472-30.07c4.972 9.631 4.355 21.77 7.518 30.134m-5.42-29.867c4.943 9.734 4.361 22.686 8.466 30.014M99.43 25.98c5.713 10.037 6 25.863 10.231 31.02M85.793 67.338c3.289.488 7.17-1.512 7.807-2.892M83.63 25.8c10.121 26.221-3.766 27.336-3.426 36.107.093 2.416 1.211 3.493 2.683 4.042m3.508-.143c2.387.63 5.379-.312 7.318-1.356M87.557 45.8c-1.03 5.756-5.736 8.782-5.414 14.79.072 1.353.844 1.934 1.262 2.773m4.069-15.785c-1.163 3.733-3.707 6.046-3.434 11.145.343 6.42 5.021 6.472 8.6 5.42m-5.326-14.756c-.975 2.347-2.22 4.217-2.006 8.213.288 5.375 3.501 6.653 6.64 6.309M77.538 60.6c-.507 8.547 8.862 9.6 8.862 4.8 0-3.6-5.539-2.4-3.323.6m-7.422-4.68c0 3.6 2.751 9.34 5.664 6.55m-7.547-5.83c0 4.2 2.5 8.508 5.467 6.681m-7.35-5.961c0 3.6 1.772 7.44 5.142 6.387m-7.025-5.667c.554 3.6 1.44 6.72 5.035 5.884m-2.53.112C69.784 69 69.231 67.8 68.123 64.2c0 3-3.323 5.4-5.539 2.4m1.108-2.4c-1.108 2.856-1.704 3.222-4.43 3.6m2.547-4.171c-.554 2.855-1.722 4.234-5.317 3.571m3.434-4.142c0 2.855-3.387 4.977-6.757 4.142m2.99-5.285c0 2.856-3.114 7.065-6.026 4.851m4.144-5.422c1.108 6.663-10.523 7.056-10.643 1.681-.108-4.825 6.212-4.225 6.212-.625 0 2.837-4.521 3.627-4.43.6a1.465 1.465 0 0 1 2.215-1.2m10.412.687c0 2.42-2.275 4.545-5.02 4.628m-1.685-40.13c-1.33 4.868.723 5.661.723 12.015m0 0c0 6.6-7.2 5.4-7.2.6 0-3.6 4.431-3 4.431 0 0 2.209-3.323 2.4-3.323.6s1.662-1.2 1.662-1.2m4.43 0c1.108.6 2.216 1.2 3.877 1.2 1.662 0 2.216-1.2 4.985-1.2-1.662 0-3.153-2.803-4.902-2.901-1.744-.099-2.852.501-3.96 1.101m-1.493-10.22c-1.618 5.352-.76 8.717-1.29 12.865m-1.682 9.438s-1.662-.6-1.662 1.2 3.323 1.609 3.323-.6c0-3-4.885-3.65-4.885-.05 0 4.8 7.136 5.367 7.2-.6.033-3.079-.618-3.633.128-8.116-1.854 3.283.018 7.609-2.507 9.332m2.315-1.849c2.095 10.735.313 15.012-3.324 16.2m13.293-33.6V30c-.554.6-1.323 1.39-1.935 1.357-.553-.03-1.388-.757-3.604-.757-2.215 0-4.43 2.4-4.43 2.4.724-1.033 3.854-2.026 4.294-1.997.901.06 3.232.757 3.786.757s1.889-.56 1.889-.56m0 0s1.661 1.8 1.661 2.4c0 2.4-1.297 3.65-1.297 6.05s-1.472 7.15-1.426 8.193c.026.6 1.616 1.357 2.17 1.357s.553 2.4.553 2.4m3.877-6.6c2.77.6 3.21 4.359 1.108 3.6-4.985-1.8-4.985 1.2-1.389-.296M59.261 55.8l-.553.6v-1.2zm0 0c1.108 0 1.662-1.2 2.77-1.2 1.107 0 1.661.6 2.215.6s1.835-.855 2.39-.855c.553 0 2.595 1.455 4.256 1.455m0 0 .554.6v-1.2zm-8.307 2.4c.649 1.483 3.323 1.8 3.876 0m-11.63-6.6c.644.173 1.661-1.519 0-1.494-2.51.039-1.584 4.017 1.048 4.012 1.618-.002 3.382-2.266 5.044-2.518v-1.2c-3.323 1.2-2.77 3-4.985 3.6m20.493-1.8c-1.372-.6-2.18-2.577.269-2.786 2.5-.214 1.946 4.586-2.784 4.704-2.39.06-3.875-2.518-7.455-2.518v-1.2c5.771.6 4.093 3 7.367 3.6M59.056 67.858c4.963 11.685 7.805 25.612 10.128 40.891m2.322-22.5.803 22.18M61.14 115.2H48.252m41.057 0h-6.453m0-.001 6.559-4.44M22.374 74.533C42.6 75.812 58.063 86.09 63.753 111.622M83.545 117h5.674m-34.665 0h5.798m-11.516-6.087c0 1.97-.358 3.92-1.054 5.74a15.1 15.1 0 0 1-3.001 4.867 13.8 13.8 0 0 1-4.492 3.251 12.9 12.9 0 0 1-5.299 1.142 12.9 12.9 0 0 1-5.298-1.142 13.8 13.8 0 0 1-4.492-3.251 15.1 15.1 0 0 1-3.002-4.867 16.1 16.1 0 0 1-1.054-5.74c0-3.978 1.459-7.794 4.056-10.607s6.118-4.393 9.79-4.393 7.194 1.58 9.791 4.393 4.055 6.629 4.055 10.607M75.046 120c0 .875-.32 1.715-.892 2.333A2.93 2.93 0 0 1 72 123.3a2.93 2.93 0 0 1-2.154-.967 3.44 3.44 0 0 1-.892-2.333c0-.875.32-1.715.892-2.333A2.93 2.93 0 0 1 72 116.7c.808 0 1.583.348 2.154.967.571.618.892 1.458.892 2.333m1.612-4.087c1.878-4.811-1.31-7.214-4.658-7.284-3.348.07-6.536 2.473-4.659 7.284-4.984-4.146-7.241.268-7.27 4.087.029 3.819 2.286 8.233 7.27 4.087-1.877 4.811 1.311 7.214 4.659 7.284 3.347-.07 6.536-2.473 4.658-7.284 4.985 4.146 7.242-.268 7.27-4.087-.028-3.819-2.285-8.233-7.27-4.087m62.911 8.287c0 .637-.554 1.247-1.541 1.697s-2.325.703-3.72.703-2.734-.253-3.721-.703-1.541-1.06-1.541-1.697.554-1.247 1.541-1.697 2.325-.703 3.721-.703 2.733.253 3.72.703 1.541 1.06 1.541 1.697m-17.169-21c0-2.4 4.431-3.925 4.431 0 0 .894-1.108.904-1.108 0 0-.6-1.1-.615-1.108.6-.027 4.2 7.2-1.2 8.308-2.4 1.108 1.2 8.335 6.6 8.308 2.4-.008-1.215-1.108-1.2-1.108-.6 0 .904-1.108.894-1.108 0 0-3.925 4.431-2.4 4.431 0 0 6-9.415 3.312-10.523 1.8-1.108 1.512-10.523 4.2-10.523-1.8m-85.846 2.4c0 .477-.175.935-.487 1.273a1.6 1.6 0 0 1-1.175.527c-.44 0-.863-.19-1.175-.527a1.88 1.88 0 0 1-.486-1.273c0-.477.175-.935.486-1.273a1.6 1.6 0 0 1 1.175-.527c.44 0 .863.19 1.175.527.312.338.487.796.487 1.273m0-5.4c0 .477-.175.935-.487 1.273a1.6 1.6 0 0 1-1.175.527c-.44 0-.863-.19-1.175-.527a1.88 1.88 0 0 1-.486-1.273c0-.477.175-.935.486-1.273a1.6 1.6 0 0 1 1.175-.527c.44 0 .863.19 1.175.527.312.338.487.796.487 1.273m0 10.8c0 .477-.175.935-.487 1.273a1.6 1.6 0 0 1-1.175.527c-.44 0-.863-.19-1.175-.527a1.88 1.88 0 0 1-.486-1.273c0-.477.175-.935.486-1.273a1.6 1.6 0 0 1 1.175-.527c.44 0 .863.19 1.175.527.312.338.487.796.487 1.273m-5.539 0c0 .477-.175.935-.486 1.273a1.6 1.6 0 0 1-1.175.527c-.44 0-.864-.19-1.175-.527a1.88 1.88 0 0 1-.487-1.273c0-.477.175-.935.487-1.273a1.6 1.6 0 0 1 1.175-.527c.44 0 .863.19 1.175.527.311.338.486.796.486 1.273m-4.984 1.2c0 .477-.175.935-.487 1.273a1.6 1.6 0 0 1-1.175.527c-.44 0-.863-.19-1.175-.527a1.88 1.88 0 0 1-.486-1.273c0-.477.175-.935.486-1.273a1.6 1.6 0 0 1 1.175-.527c.44 0 .863.19 1.175.527.312.338.487.796.487 1.273m16.061-1.2c0 .477-.175.935-.486 1.273a1.6 1.6 0 0 1-1.175.527 1.6 1.6 0 0 1-1.175-.527 1.88 1.88 0 0 1-.487-1.273c0-.477.175-.935.487-1.273a1.6 1.6 0 0 1 1.175-.527c.44 0 .863.19 1.175.527.311.338.486.796.486 1.273m4.985.6c0 .477-.175.935-.487 1.273a1.6 1.6 0 0 1-1.175.527c-.44 0-.863-.19-1.175-.527a1.88 1.88 0 0 1-.486-1.273c0-.477.175-.935.486-1.273a1.6 1.6 0 0 1 1.175-.527c.44 0 .864.19 1.175.527.312.338.487.796.487 1.273m34.892-77.4s-3.645-3.994-5.86-3.994-5.461 1.023-6.014 1.052c-.612.033-1.972-.058-2.526-1.258v1.2s1.926.461 2.48.461 5.557-1.108 6.196-1.052c1.76.154 5 2.558 5.724 3.591m-13.292 3.6s2.215-2.4 3.877-2.4 5.538 2.4 6.646 2.4c-2.475-.006-4.959 1.8-6.646 1.8-2.216 0-3.877-1.8-3.877-1.8M83.946 120c0 3.073-1.259 6.02-3.499 8.192s-5.279 3.394-8.447 3.394-6.207-1.221-8.447-3.394-3.5-5.119-3.5-8.192 1.26-6.02 3.5-8.192 5.279-3.394 8.447-3.394 6.207 1.221 8.447 3.394 3.499 5.119 3.499 8.192"/><path fill="currentColor" d="M74.54 22.206c-7.83-.013-16.088.51-25.1 1.692l1.187 3.154c18.368-2.339 33.479-1.89 48.394.257l.977-3.172c-8.256-1.212-16.583-1.916-25.458-1.93m-30.08 42.93c-5.746 1.411-11.26 3.56-16.576 6.312 8.188 1.246 15.697 4.108 22.021 9.162 6.57 5.25 11.718 12.821 15.064 22.866-2.28-13.625-5.154-25.845-9.731-35.93l-8.161-.946zm59.505 2.636L79.754 80.4l-19.476-9.495 2.42 7.102 17.127 8.35L97.99 76.88zm17.939 2.998c-11.945 13.716-14.625 27.712-13.979 43.36l2.743.072c-.736-15.535 1.853-28.821 14.074-42.304zm16.004 6.306v22.527L144 97.4V79.514zM15.498 79.13c-1.51 1.097-4.43 3.401-4.43 3.401l.009 25.47c1.53 0 2.77 1.343 2.77 3 0 .593-.16 1.145-.464 1.567.56.154 1.33.455 2.16.899l-.035-.666zm100.81 15.311c-.45-.007-.45.727 0 .72h8.308c.449.007.449-.727 0-.72zm-3.042 3-.126.72h13.137v-.72zm-.462 2.82-.138 1.08h8.559l.802-1.08zm-.332 3-.09 1.08h8.475l-.115-1.08zm-.191 3.06-.055 2.16h10.926l-1.52-2.16zm-.067 3.72.015.72h9.571l.339-.72zm.05 2.4 1.64.72h7.158l.154-.72zm4.936 2.4.982.72h2.59l.039-.72zm2.788 2.4.611.72h.225l-.06-.72zm-80.324.798a.3.3 0 0 0-.178.063 7.6 7.6 0 0 1-4.496 1.452 7.6 7.6 0 0 1-4.112-1.191.31.31 0 0 0-.373.018.36.36 0 0 0-.13.24.4.4 0 0 0 .067.269q.04.058.099.093a8.24 8.24 0 0 0 4.45 1.291 8.24 8.24 0 0 0 4.864-1.573.36.36 0 0 0 .132-.18.4.4 0 0 0 .005-.23.36.36 0 0 0-.125-.186.3.3 0 0 0-.203-.066m3.668.44a.3.3 0 0 0-.14.033.34.34 0 0 0-.114.094c-1.964 2.425-4.848 3.948-8.088 3.948-3.033 0-5.754-1.335-7.701-3.497a.316.316 0 0 0-.474-.01.384.384 0 0 0-.002.513c2.068 2.295 4.963 3.714 8.177 3.714 3.433 0 6.501-1.618 8.587-4.193a.39.39 0 0 0 .057-.387.35.35 0 0 0-.121-.156.32.32 0 0 0-.18-.059"/><path fill="currentColor" d="M132.923 16.2c-.004 1.838.19 4.052.19 5.852s-1.661 7.447-1.661 9.247 1.161 5.449 1.161 7.849-1.806 7.692-1.806 10.092 1.723 6.757 1.723 9.157-1.169 5.4-1.169 7.8 1.533 5.835 1.533 8.835-2.087 6.707-2.087 9.107 1.087 3.501 1.087 6.501c0 2.791-1.127 9.704-1.191 12.584l2.265-1.749c.212-3.338.868-8.575.809-10.908-.076-2.998-1.19-4.067-1.25-6.466s1.933-6.167 1.857-9.166-1.695-6.387-1.755-8.786c-.061-2.4 1.033-5.433.972-7.832s-1.893-6.703-1.953-9.102 1.612-7.743 1.551-10.142c-.06-2.4-1.313-6.013-1.358-7.812s1.473-7.493 1.428-9.292c-.046-1.8-.297-4.008-.346-5.769M72.25 35.283c-.293 0-.575.222-.783.616-.208.393-.325.928-.325 1.484 0 .557.117 1.092.325 1.485.208.394.49.615.783.615s.576-.22.784-.614c.207-.394.324-.928.324-1.486 0-.556-.117-1.09-.325-1.484-.207-.394-.489-.616-.783-.616m-16.62.621c-.294 0-.576.222-.783.615-.208.394-.325.928-.325 1.485s.117 1.092.325 1.485c.207.394.49.615.783.615s.575-.22.783-.615c.208-.393.325-.928.325-1.485s-.117-1.09-.325-1.484-.49-.616-.783-.616M60.923 50.4c-3.323 1.2-2.77 3-4.985 3.6l-.059.118c1.618-.002 3.383-2.266 5.044-2.518zm5.538 0v1.2c3.58 0 5.065 2.578 7.455 2.518L73.828 54c-3.274-.6-1.596-3-7.367-3.6m58.265 21.487c-12.205 13.494-14.794 26.78-14.081 42.308 5.513.688 10.054 4.921 11.603 10.578l3.703.019c-1.914-1.733-3.551-4.381-3.551-8.392 0-7.8 4.985-9 6.092-9 1.187 0 2.186.918 2.867 2.176.394-.624 1.597-1.319 3.599-1.784 7.389-1.715 6.715 2.701 2.274 3.486 4.095-.421 4.304 1.839 2.162 3.13 2.362.667 1.482 2.826-1.188 3.531 3.46.492 1.897 3.725-1.89 3.958 1.922.452 3.253 1.307 3.253 2.303 0 .22-.065.433-.18.618l4.611-.014V79.52l-6.092-2.42-.012 27.71c1.778.819 3.347.951 3.335-1.01-.008-1.215-1.108-1.2-1.108-.6 0 .904-1.108.894-1.108 0 0-3.925 4.431-2.4 4.431 0 0 6-9.415 3.312-10.523 1.8-.466.636-2.401 1.479-4.488 1.797l-.089.014a12 12 0 0 1-.378.049c-2.739.307-5.568-.371-5.568-3.66 0-2.4 4.431-3.925 4.431 0 0 .894-1.108.904-1.108 0 0-.6-1.1-.615-1.108.6-.012 1.935 1.516 1.832 3.299 1.026l.024-31.72zm12.506 39.391q-.325.033-.685.089.356-.03.685-.089M50.973 86.231l-.03 28.969 10.052.009 2.733-3.699c-2.508-11.178-6.895-19.424-12.755-25.28m40.121.639c-.293 0-.575.126-.783.351s-.324.53-.324.849.116.623.324.849.49.35.783.35.576-.126.784-.35c.207-.226.324-.53.324-.85 0-.317-.117-.623-.324-.848a1.07 1.07 0 0 0-.784-.351M68.677 88.2c-.294 0-.576.126-.783.352-.208.224-.325.53-.325.848s.117.623.325.849c.207.225.49.351.783.351s.575-.126.783-.351.325-.53.325-.849-.117-.624-.325-.849a1.07 1.07 0 0 0-.783-.351m5.32.394c-.294 0-.576.126-.783.352s-.325.53-.325.848.117.624.325.849c.207.225.49.351.783.351s.576-.126.783-.352c.208-.224.325-.53.325-.848s-.117-.623-.325-.849a1.07 1.07 0 0 0-.783-.351m12.14.148c-.293 0-.575.126-.782.351s-.325.53-.325.849.117.623.325.848c.207.225.49.352.783.352s.575-.126.783-.352.325-.53.325-.848-.117-.624-.325-.849a1.07 1.07 0 0 0-.783-.351m-8.502 1.823c-.294 0-.576.126-.783.351s-.325.53-.325.849.117.623.325.848c.207.225.49.352.783.352s.575-.127.783-.352.325-.53.325-.848c0-.319-.117-.624-.325-.849a1.07 1.07 0 0 0-.783-.351m5.002.246c-.294 0-.576.126-.784.351-.207.225-.324.53-.324.849s.117.623.324.849.49.351.784.351c.293 0 .575-.126.783-.352s.324-.53.324-.848-.116-.623-.324-.849a1.07 1.07 0 0 0-.783-.351M5.815 92.7a.8.8 0 0 0-.587.264.94.94 0 0 0-.243.636.94.94 0 0 0 .243.636.8.8 0 0 0 .587.264.8.8 0 0 0 .588-.264.94.94 0 0 0 .243-.636.94.94 0 0 0-.243-.636.8.8 0 0 0-.588-.264m47.631 1.2c.765 0 1.385.672 1.385 1.5s-.62 1.5-1.385 1.5-1.384-.672-1.384-1.5.62-1.5 1.384-1.5m16.05.408c-.294 0-.576.127-.784.352s-.324.53-.324.848c0 .319.116.624.324.849s.49.351.783.351.576-.126.783-.351.325-.53.325-.849-.117-.623-.325-.848a1.07 1.07 0 0 0-.783-.352m17.142.345c-.294 0-.575.127-.783.352s-.325.53-.325.848c0 .319.117.624.325.849s.49.351.783.351.576-.126.783-.351.325-.53.325-.849-.117-.623-.325-.848a1.07 1.07 0 0 0-.783-.352m-12.368.099c-.294 0-.576.126-.783.351s-.325.53-.325.849.117.623.325.848c.207.225.489.352.783.352s.575-.127.783-.352.325-.53.325-.848c0-.319-.117-.624-.325-.849a1.07 1.07 0 0 0-.783-.351M4.154 94.8a.8.8 0 0 0-.588.264.94.94 0 0 0-.243.636.94.94 0 0 0 .243.636.8.8 0 0 0 .588.264.8.8 0 0 0 .587-.264.94.94 0 0 0 .244-.636.94.94 0 0 0-.244-.636.8.8 0 0 0-.587-.264m3.877.3a.8.8 0 0 0-.588.264A.94.94 0 0 0 7.2 96a.94.94 0 0 0 .243.636.8.8 0 0 0 .588.264.8.8 0 0 0 .587-.264.94.94 0 0 0 .243-.636.94.94 0 0 0-.243-.636.8.8 0 0 0-.587-.264m-1.939 1.5-2.769 9 1.662-1.8 1.107 3.6.554-3.6 1.108 1.8zm71.816.122c-.294 0-.576.127-.784.352-.207.225-.324.53-.324.848s.117.624.324.849.49.351.784.351c.293 0 .575-.126.783-.351s.324-.53.324-.849-.116-.623-.324-.848a1.07 1.07 0 0 0-.783-.352m5.229 0c-.294 0-.576.127-.784.352-.207.225-.324.53-.324.848s.117.624.325.849c.207.225.489.351.783.351s.575-.126.783-.351.325-.53.325-.849-.117-.623-.325-.848a1.07 1.07 0 0 0-.783-.352m-41.416 1.08q.165 2.828.302 5.667c1.766.196 3.567.485 5.398.844-1.253-2.764-3.243-5.025-5.7-6.51m-13.527.05c-2.703 1.646-4.833 4.243-6.032 7.414a60 60 0 0 1 6.02-1.385q-.007-3 .012-6.028M57.877 99.3c.764 0 1.384.672 1.384 1.5s-.62 1.5-1.384 1.5c-.765 0-1.385-.672-1.385-1.5s.62-1.5 1.385-1.5m12.21 1.56c-.294 0-.576.126-.784.351a1.26 1.26 0 0 0-.324.849c0 .318.117.623.324.849s.49.351.784.351c.293 0 .575-.126.783-.351.207-.226.324-.531.324-.849s-.117-.623-.324-.849a1.07 1.07 0 0 0-.783-.351m4.774.394c-.294 0-.575.127-.783.352s-.325.53-.325.848.117.624.325.849.49.351.783.351.576-.126.783-.351.325-.531.325-.849-.117-.623-.325-.848a1.07 1.07 0 0 0-.783-.352m12.05.296c-.294 0-.576.126-.783.351a1.25 1.25 0 0 0-.325.849c0 .318.117.623.325.848.207.225.49.352.783.352s.576-.127.783-.352.325-.53.325-.848-.117-.624-.325-.849a1.07 1.07 0 0 0-.783-.351m-8.412 1.675c-.294 0-.576.126-.783.351s-.325.53-.325.849.117.623.325.848c.207.225.489.352.783.352s.575-.127.783-.352.324-.53.324-.848a1.25 1.25 0 0 0-.324-.849 1.07 1.07 0 0 0-.783-.351m4.91.394c-.293 0-.575.126-.783.351a1.25 1.25 0 0 0-.324.849c0 .318.117.623.324.848s.49.352.784.352.575-.127.783-.352.325-.53.325-.848-.117-.624-.325-.849a1.07 1.07 0 0 0-.783-.351m-48.517.181c-.44 0-.863.19-1.175.527a1.88 1.88 0 0 0-.486 1.273c0 .477.175.935.486 1.273.312.337.735.527 1.175.527s.863-.19 1.175-.527c.312-.338.487-.796.487-1.273s-.175-.935-.487-1.273a1.6 1.6 0 0 0-1.175-.527m18.554.3c.765 0 1.385.672 1.385 1.5s-.62 1.5-1.385 1.5-1.384-.672-1.384-1.5.62-1.5 1.384-1.5m-18.881.293a.63.63 0 0 1 .472.213.786.786 0 0 1 0 1.031.65.65 0 0 1-.472.214.64.64 0 0 1-.472-.214.76.76 0 0 1-.196-.515c0-.193.07-.379.196-.515a.64.64 0 0 1 .471-.214m52.937 2.723c-.294 0-.575.127-.783.352s-.325.53-.325.848.117.624.325.849.49.351.783.351.576-.126.784-.351c.207-.225.324-.531.324-.849s-.117-.623-.325-.848a1.07 1.07 0 0 0-.783-.352m-12.368.788c-.213 0-.421.067-.6.192s-.32.303-.409.512l2.114.574a1.27 1.27 0 0 0-.322-.926 1.07 1.07 0 0 0-.783-.352m-15.596.696c.765 0 1.385.672 1.385 1.5s-.62 1.5-1.385 1.5c-.764 0-1.384-.672-1.384-1.5s.62-1.5 1.384-1.5m24.463.585c-.294 0-.576.127-.783.352s-.325.53-.325.848c0 .319.117.624.325.849.207.225.49.351.783.351s.575-.126.783-.351.325-.53.325-.849-.117-.623-.325-.848a1.07 1.07 0 0 0-.783-.352m-54.647.015c-.44 0-.863.19-1.175.527a1.88 1.88 0 0 0-.487 1.273c0 .477.175.935.487 1.273s.734.527 1.175.527c.44 0 .863-.19 1.175-.527a1.88 1.88 0 0 0 .486-1.273 1.88 1.88 0 0 0-.486-1.273 1.6 1.6 0 0 0-1.175-.527m11.077 0a1.6 1.6 0 0 0-1.175.527 1.88 1.88 0 0 0-.487 1.273c0 .477.175.935.487 1.273a1.6 1.6 0 0 0 1.175.527c.44 0 .863-.19 1.175-.527a1.88 1.88 0 0 0 .486-1.273 1.88 1.88 0 0 0-.486-1.273 1.6 1.6 0 0 0-1.175-.527m-.376.593a.64.64 0 0 1 .472.214.76.76 0 0 1 .195.515c0 .193-.07.379-.195.515a.64.64 0 0 1-.472.214.65.65 0 0 1-.472-.214.7.7 0 0 1-.145-.236.79.79 0 0 1 .145-.795.63.63 0 0 1 .472-.213m-11.141.007a.63.63 0 0 1 .472.213.784.784 0 0 1 0 1.031.65.65 0 0 1-.473.214.64.64 0 0 1-.471-.214.76.76 0 0 1-.196-.515c0-.193.07-.379.196-.515a.64.64 0 0 1 .471-.214m49.858.075c-.223 0-.44.072-.623.208l1.713 1.205q.017-.106.017-.213c0-.318-.117-.624-.324-.849a1.07 1.07 0 0 0-.783-.351m-42.707 8.37c-3.753.029-7.54.606-12.031 1.788 2.503 3.581 6.482 5.88 10.956 5.88 4.736 0 8.916-2.575 11.391-6.508-3.72-.787-7.004-1.187-10.316-1.16"/><path stroke="currentColor" stroke-linecap="round" stroke-linejoin="round" stroke-width=".5" d="M133.477 60.12v28.208m0-31.12V16.8m3.323 87.424V20.4m-1.108 83.153V19.2m-1.107 83.588V18m-1.108 83.908v-6.301m-1.108-69.338v8.016m0 6.884v11.639m.616 55.685c.43.583.51 1.148.275 2.858m.217.849c.43.583.743 1.684.281 2.926m-.457-.144c.43.584.515 1.832.099 2.852m-.494.945c.431.584.402 1.733.008 2.705m4.44-12.613c.141.461.161.87 0 1.2m.068 2.635c.141.461.162.87 0 1.2m-.273 2.194c.142.462.162.87 0 1.2m-.167 2.001c.141.462.161.87 0 1.2m-4.74-7.768c-1.852.067-1.534 3.667-1.534 3.667M53.169 36.6c.554-1.2 2.126-2.4 3.877-2.4 1.662 0 3.323 2.4 3.323 2.4m9.416.253s1.727-2.82 3.61-2.844c1.868-.023 3.404 1.155 3.81 1.824M68.677 37.8c.554 1.8 1.64 3.824 4.43 3.6M52.063 39c-.362 2.117 3.877 3 3.877 3m1.54-5.301c.078.289.121.603.121.932 0 1.419-.805 2.569-1.797 2.569-.993 0-1.797-1.15-1.797-2.569 0-.499.099-.965.271-1.359m19.746-.555c.167.39.264.85.264 1.34 0 1.42-.805 2.57-1.798 2.57-.992 0-1.797-1.15-1.797-2.57 0-.44.078-.856.215-1.219M62.031 61.8c1.661-1.2 3.877-.6 4.43 0"/></svg>
