<svg xmlns="http://www.w3.org/2000/svg" fill="none" viewBox="0 0 166 258"><path fill="currentColor" d="M84.715 24.36c.225 0 .448.07.656.208s.398.338.557.592.286.554.372.885.13.686.13 1.045-.044.713-.13 1.045a3.2 3.2 0 0 1-.372.885c-.16.254-.348.455-.556.592a1.2 1.2 0 0 1-.657.208c-.455 0-.891-.288-1.213-.8-.321-.512-.502-1.206-.502-1.93s.18-1.418.502-1.93.758-.8 1.213-.8m17.877.156c.225 0 .448.07.656.208s.398.338.557.592.286.554.372.885.13.686.13 1.045-.044.713-.13 1.045a3.2 3.2 0 0 1-.372.885 1.9 1.9 0 0 1-.557.592 1.2 1.2 0 0 1-.656.208c-.455 0-.891-.288-1.213-.8-.321-.512-.502-1.206-.502-1.93s.181-1.418.502-1.93c.322-.512.758-.8 1.213-.8m29.794 41.253q.637.839 1.306 1.645l-.495-.543q-.39-.014-.781-.011-.37.002-.741.014l-.281.011-.435.019q-.735.037-1.472.084l-.266.015-.504.027-.294.015q-.24.01-.481.018l-.296.01-.078.001q-.319.007-.637.006.025.056.055.11.029.056.06.11l.02.03q.055.09.122.18v.001l.081.102.001.001q.042.05.089.1l.001.002.096.099.002.001q.05.049.105.098.11.098.241.196.131.097.283.195.152.096.326.194h.002q.175.099.376.198.2.099.427.201l.003.002c.761.34 1.76.707 3.075 1.136q.786.258 1.735.55c-.837.462-1.266.904-1.512 1.434.463-.003.927.01 1.391.03 1.393.06 2.79.189 4.18.19l-1.506-1.651a43 43 0 0 0 3.21 2.895l-81.16.042c.21-.397.412-.787.617-1.179l.057-.001q.177 0 .354-.004h.003l.032-.001q.189-.004.379-.013h.002l.07-.004q.162-.007.324-.018c1.794-.125 3.57-.565 5.303-1.751l-.091.024.12-.08c.283.027.55.108.826.193-.837.463-1.265.905-1.51 1.435 4.068-.023 8.204 1.11 12.12-1.555q.414.13.866.269c-.837.463-1.266.905-1.512 1.435 4.07-.023 8.206 1.11 12.122-1.555.235.074.475.15.728.227-.837.463-1.265.905-1.511 1.435 3.671-.02 7.397.898 10.966-.879-.184.2-.319.407-.422.63 4.069-.024 8.205 1.109 12.121-1.556.236.075.475.15.729.227-.838.463-1.266.905-1.512 1.435 4.079-.023 8.224 1.115 12.148-1.572l-2.581-.999c.91.335 2.032.704 3.437 1.136-.837.463-1.265.905-1.511 1.435 4.078-.023 8.224 1.115 12.148-1.572l-5.02-1.942q-.514.158-.981.306l.412-.16c-3.924-2.687-8.069-1.549-12.148-1.572.345.742 1.047 1.312 2.732 2.009l-1.507-.583q-.514.158-.981.306l.412-.16c-3.924-2.687-8.07-1.549-12.148-1.572.228.49.616.906 1.336 1.332q-.491.152-.939.293l.412-.16c-2.084-1.427-4.231-1.775-6.398-1.791-1.911-.014-3.838.23-5.75.22.295.633.854 1.142 2.058 1.71q-.454.14-.87.272l.416-.161c-3.924-2.687-8.07-1.55-12.147-1.572.227.49.616.905 1.335 1.332q-.491.15-.94.293l.414-.16c-3.924-2.687-8.07-1.55-12.148-1.572.218.47.583.87 1.245 1.278l-.004-.001q-.516.159-.984.307l.415-.161a10 10 0 0 0-.747-.464l-.104-.058a10 10 0 0 0-.358-.187l-.085-.04a9 9 0 0 0-.693-.3l-.088-.035a10 10 0 0 0-.363-.128l-.103-.034a10 10 0 0 0-.28-.085l-.11-.03q-.18-.052-.362-.094l-.02-.005a11 11 0 0 0-.363-.079l-.11-.02-.294-.053-.089-.014q-.187-.03-.374-.052l-.074-.009a14 14 0 0 0-.724-.066L66.255 67l-.068-.003a18 18 0 0 0-.648-.025 22 22 0 0 0-1.249.01l-.22.007a44 44 0 0 0-.727.033q-.711.04-1.423.083c.219-.44.439-.882.652-1.316zm-33.423 4.61 1.025.32-.08.045zM31.285 73.53c0 1.443-.356 3.245-.801 4.335-.891-.083-1.903-.063-3.034.086l2.829-2.857c.246-.242.077-.665-.267-.665a.38.38 0 0 0-.275.117l-2.829 2.858c.148-1.143.168-2.165.085-3.065 1.08-.45 2.863-.809 4.292-.809m-15.962 0c1.428 0 3.212.359 4.291.809-.082.9-.062 1.923.085 3.066l-2.83-2.859a.38.38 0 0 0-.274-.117c-.344 0-.514.422-.267.665l2.828 2.857c-1.13-.149-2.142-.169-3.032-.086-.446-1.09-.8-2.892-.8-4.335m135.18 6.31c4.869 4.228 10.045 6.49 15.497 5.822v14.03l-.153.872c-5.829-5.283-13.252-8.858-21.495-9.882zM27.449 85.233c1.131.15 2.144.169 3.035.086.445 1.09.8 2.892.8 4.335-1.428 0-3.211-.359-4.29-.809.082-.9.062-1.92-.085-3.063l2.826 2.856c.361.38.918-.183.542-.548zm-8.291 0-2.829 2.857c-.376.365.18.928.542.548l2.828-2.858c-.147 1.143-.167 2.165-.085 3.065-1.08.45-2.863.809-4.29.809 0-1.443.354-3.245.8-4.335.89.083 1.902.063 3.034-.086M37.8 102.677l10.219 14.794L0 153.544v-22.489z"/><path fill="currentColor" d="M115.736 0 166 79.796v5.868C140.814 88.742 121.634 29.216 113.985 0zM83.483 40.827c.802 3.968 1.772 7.492 2.71 8.193 2.285 1.71 7.754 10.935 8.938 11.61.694.396 1.484.54 2.306.517l-.158.773-22.18-.013c3.53-7.898 6.242-14.84 8.384-21.08m62.214 36.562a36 36 0 0 0 4.254 1.91l.512.576-6.079 10.811c-1.661-.269-3.416-.386-5.199-.386-.377 0-.752.005-1.123.03l5.08-9.054-83.879-.034c-.817-1.368-1.742-2.614-2.714-3.801zm-91.266 2.58a25.3 25.3 0 0 1 2.605 3.738c6.24 10.918 3.415 24.429-6.087 31.574l-1.934-2.546c8.198-6.165 10.69-17.818 5.229-27.374a22 22 0 0 0-2.005-2.937zm46.067 41.272a39.7 39.7 0 0 0-.898 8.404c0 1.282.062 2.549.182 3.835l-8.48.035.026-9.03-25.114-.01a85 85 0 0 0-.409-3.205z"/><path stroke="currentColor" stroke-linecap="round" stroke-linejoin="round" d="m0 127.036 38.783-29.125m127.064 2.652A39.58 39.58 0 0 0 139.185 90.3c-21.862 0-39.585 17.615-39.585 39.345 0 7.39 2.05 14.305 5.616 20.213m60.537-49.236-52.46 39.397m-12.806-18.759H65.848M0 153.544l48.02-36.062m-9.181-19.64 13.868 20.139m-14.878-15.316 10.188 14.794m8.525-39.948-17.7 20.336m13.927 20.085c10.849-8.098 14.075-23.513 7.032-35.837a28.3 28.3 0 0 0-3.285-4.614m-5.567 37.8c9.502-7.145 12.327-20.656 6.087-31.574a25.3 25.3 0 0 0-2.605-3.738C39.729 59.54 70.89 44.16 83.899.019m-46.128 102.67L0 131.055m49.015-18.32c8.198-6.164 10.69-17.818 5.229-27.374a22 22 0 0 0-2.005-2.937m-13.3 15.616h18.125m-12.232-7.095h11.676m-12.714 14.19h11.38M56.581 77.4h89.132M58.62 73.53h81.222m-77.274-7.74h69.848m-67.94-3.87h65.197M83.958.02c-4.383 18.243-5.918 33.276-19.513 61.9-2.28 4.802-4.9 9.986-7.93 15.632m2.736 3.718h83.842m-65.212.037c-.297 16.557-6.104 20.924-6.364 39.912m10.192-39.912c-.356 16.557-7.324 20.924-7.637 39.912m17.853-39.934c-.434 21.422-11.542 23.458-12.096 39.968m17.201-39.97c-.516 20.821-13.364 23.439-14.005 39.97m26.768-39.97c-.725 20.83-18.763 24.629-19.73 39.972m23.562-40.021c-.72 20.874-19.342 25.257-20.952 40.023m7.227 3.228H66.219m34.766-5.16h-7.982m8.566-1.935h-8.034m8.73-1.935h-7.937m7.846-1.935h-6.808m6.685-1.935h-5.432m5.308-1.935H98.09m3.714-1.935H99.73m-28.151 11.61H65.33m6.328-1.935h-6.827m6.968-1.935h-7.586m7.777-1.935h-7.479m7.713-1.935h-6.88m7.18-1.935h-6.347m6.71-1.935H67.01m6.29-1.935h-5.457m33.836 0h-.216M2.747 155.448c6.413 5.617 14.82 9.027 24.068 9.027 20.165 0 36.393-16.162 36.393-36.12a35.7 35.7 0 0 0-4.24-16.936m-48.234 38.102c4.463 3.315 9.97 5.279 16.081 5.279 15.1 0 26.816-11.785 26.816-26.445 0-3.448-.648-6.679-1.84-9.66m-26.515 19.887q.74.092 1.54.093c6.286 0 10.378-4.004 10.814-9.359m-15.69 11.772c1.48.525 3.104.812 4.875.812 8.346 0 14.046-5.949 14.046-13.545q0-.73-.07-1.417m-27.395 20.535c3.785 2.587 8.345 4.102 13.42 4.102 13.41 0 23.622-10.326 23.622-23.22a22.6 22.6 0 0 0-1.309-7.668m42.171 3.798v9.03m46.765-43.17 5.126-9.062m1.133 9.445 6.139-10.853M115.736 0 166 79.796m-23.276-36.909c6.367-2.38 12.879-1.893 19.445-.317-10.302-11.186-9.717-27.643-12.288-42.572M123.397 0l26.01 41.29M113.965-.064c7.642 29.201 26.837 88.808 52.035 85.729M110.081-.05c6.152 28.908 12.601 69.181 39.87 79.348m-1.875-40.121-6.243 2.252m5.131-4.017-6.242 2.253m5.013-4.205-6.243 2.253m5.013-4.205-6.243 2.253m3.285-3.581-4.514 1.629m1.194-2.827-2.424.874m24.849 10.298c-2.018-1.395-4.025-2.802-5.506-4.745-2.776 1.108-5.421.543-8.084.196m9.618-3.237c-3.541.718-7.405.618-11.278.496m7.145-15.03c-3.305 2.893.391 9.338-4.424 11.77-4.604 2.326-7.544-4.897-4.469-6.45 2.554-1.29 5.746 3.225 2.554 4.515-1.805.73-2.571-3.695-1.277-2.58m7.642-7.308c-4.268 1.482-7.682-5.343-12.363-2.517-4.418 2.668.024 9.06 2.975 7.278 2.451-1.48.403-6.629-2.391-4.605-1.58 1.143 1.698 4.177 1.464 2.476m-6.004-1.978c.482-2.679 1.131-5.218 3.569-6.246-.534-3.598-.182-6.752 1.915-9.03-2.216-.209-4.401-.254-7.023-2.58-3.571 1.281-6.707.413-9.886-.247m9.149 14.456c.646-1.457 1.404-2.838 2.653-3.89-.192-1.85-.037-3.404.638-4.514-1.085.155-2.78.077-4.469-1.29-1.148.894-2.63 1.113-4.172 1.21m-13.002-2.257c-1.779-.588-3.347-1.689-4.878-2.877m5.763 6.019c-1.88-.565-3.52-1.71-5.12-2.951m5.972 5.876c-1.997-.704-3.731-2.045-5.455-3.409m6.473 6.768c-2.125-.484-3.935-1.73-5.695-3.094m6.589 6.062c-2.258-.62-4.166-2.087-6.062-3.586m7.133 6.873c-2.398-.343-4.386-1.679-6.312-3.166m7.358 6.361c-2.473-.69-4.842-2.61-6.902-4.258m7.991 7.433c-2.594-.56-5.088-2.556-7.249-4.287m8.311 7.301c-2.778-.684-5.434-2.97-7.678-4.751m8.71 7.632c-2.805-1.117-6.039-3.332-8.047-4.875m9.278 8.16c-2.831-.985-6.251-3.283-8.419-4.929m9.698 8.196c-2.821-.798-6.419-3.157-8.768-4.912m10.012 7.966c-2.986-.855-6.829-3.442-9.143-5.21m10.519 8.453c-2.891-.558-6.894-3.158-9.445-5.06m10.806 8.139c-2.992-.54-7.219-3.328-9.776-5.262m10.897 7.698c-3.072-.814-7.218-2.707-9.557-4.293m11.067 7.417c-3.085-.775-7.372-2.717-9.773-4.342m11.456 7.63c-2.689-.465-6.874-2.21-9.683-3.855m11.317 6.867c-2.845-.563-7.143-2.408-9.846-4.07m11.713 7.285c-2.864-.578-7.167-2.432-9.851-4.093m11.543 6.795c-3.338-.868-7.995-3.043-10.196-4.71m12.311 7.825c-3.07-.762-7.359-2.698-9.782-4.326m12.177 7.5c-2.446-.527-5.855-1.927-8.435-3.338M81.483 25.096c-2.62 10.134-6.37 21.594-13.477 36.77m12.676-47.252c.369 4.73 1.041 13.475 1.041 14.41 0 1.936 2.32 18.388 4.47 19.996 2.285 1.71 7.754 10.935 8.938 11.61 3.295 1.88 8.762-1.893 9.577-2.58 5.174 1.469 16.797-12.523 12.769-14.835l2.967-1.285m-38.193-7.769C79.817 42.135 76.498 51.122 71.5 61.94m11.977-21.17c-2.137 6.297-4.848 13.239-8.438 21.124m-2.947-1.264h3.504m-2.628-1.935h3.482m-2.63-1.935h3.484m-2.647-1.935h3.462m-2.65-1.935h3.447m-2.648-1.935h3.445m-2.676-1.935h3.423m-2.663-1.935h3.404m-2.698-1.935h3.424m-2.722-1.935h3.407m-2.705-1.935h3.39m-2.726-1.935h2.555M81.23 37.41h1.633m31.666 14.65a57 57 0 0 0 6.624-7.953m-18.955 17.824c2.406-1.6 4.769-3.287 7.054-5.134m-3.877 5.135c6.04-4.189 11.739-9.066 16.529-15.784m-13.431 15.78c5.158-3.752 10.019-8.106 14.213-13.807m-11.221 13.818c4.328-3.315 8.411-7.126 12.023-11.891m-9.085 11.874c3.533-2.861 6.878-6.104 9.905-9.99m-7.106 10.012c2.811-2.407 5.487-5.089 7.958-8.183m-5.194 8.161a59.4 59.4 0 0 0 6.076-6.382m-3.448 6.408a59 59 0 0 0 4.351-4.666m-1.749 4.64a58 58 0 0 0 2.69-2.95m-.193 2.951q.592-.643 1.171-1.312m-10.549-15.638a57 57 0 0 0 2.074-2.913M98.962 61.92a127 127 0 0 0 4.175-2.787m11.786 11.817c1.469.01 2.906-.409 4.316-1.183m2.724.9c-3.924 2.688-8.069 1.55-12.148 1.573.558-1.2 2.043-1.95 7.129-3.514m-7.609-.136c1.469-.01 2.906.409 4.315 1.183m2.725-.9c-3.924-2.688-8.07-1.55-12.148-1.573.557 1.2 2.043 1.95 7.128 3.514m-7.771.029c1.47.01 2.906-.409 4.316-1.183m2.725.9c-3.924 2.688-8.07 1.55-12.148 1.573.557-1.2 2.043-1.95 7.128-3.514m-7.61-.136c1.47-.01 2.907.41 4.316 1.183m2.725-.9c-3.924-2.688-8.07-1.55-12.148-1.573.557 1.2 2.043 1.95 7.129 3.514m-6.976.386c1.469.01 2.906-.41 4.315-1.184m2.725.901c-3.924 2.688-8.07 1.55-12.148 1.573.557-1.2 2.043-1.95 7.128-3.515m-7.609-.135c1.47-.011 2.906.409 4.316 1.183m2.724-.901c-3.924-2.687-8.07-1.55-12.148-1.572.558 1.2 2.043 1.95 7.129 3.514m-7.771.029c1.47.01 2.906-.41 4.316-1.183m2.724.9c-3.924 2.688-8.07 1.55-12.148 1.573.558-1.2 2.043-1.95 7.129-3.514m-7.61-.136c1.47-.011 2.906.409 4.316 1.183m2.725-.901c-3.924-2.687-8.07-1.55-12.148-1.572.557 1.2 2.043 1.95 7.128 3.514m-7.907-.013c1.47.01 2.906-.41 4.315-1.183m2.725.9c-3.924 2.688-8.07 1.55-12.148 1.573.557-1.2 2.043-1.95 7.128-3.514m-7.609-.136c1.47-.011 2.906.409 4.316 1.183m2.724-.9c-3.16-2.165-6.462-1.849-9.758-1.655m-.823 1.547c1.064.577 2.77 1.19 5.562 2.049m59.756.249c1.47.01 2.906-.409 4.316-1.183m2.724.9c-3.923 2.688-8.069 1.55-12.147 1.573.557-1.2 2.043-1.95 7.128-3.514m-7.609-.136c1.469-.01 2.906.409 4.315 1.183m2.725-.9c-3.924-2.688-8.069-1.55-12.148-1.573.557 1.2 2.043 1.95 7.129 3.514m10.349-3.943c-2.081-.071-4.182.22-6.266.209.557 1.2 2.042 1.95 7.128 3.514m-2.021-2.224a8.1 8.1 0 0 1 2.95.55m3.101 3.32c-1.852-.002-3.718-.23-5.57-.22.377-.813 1.18-1.42 3.238-2.212m-75.686.92c1.007-.17 2-.536 2.979-1.074m2.725.9c-2.137 1.464-4.34 1.793-6.561 1.793m-18.535 58.221 6.567 1.012c.28 1.617-.244 2.349-.638 3.225l-6.43-2.091m-.6 1.52 5.92 2.784c-.144 1.635-.839 2.204-1.444 2.947l-5.533-3.856m-1.057 1.324 4.915 4.518c-.738 1.463-1.593 1.729-2.43 2.19l-4.044-5.232m-1.975 1.287 2.938 5.661c-1.194 1.114-2.087 1.064-3.03 1.203l-1.97-5.983m-1.876.511 1.293 6.762c-1.464.714-2.304.404-3.246.261l-.335-6.751m-2.508-.053-.72 7.107c-1.6.285-2.326-.245-3.193-.643l1.57-6.903m18.24-14.678 6.466-.962c.738 1.463.448 2.318.326 3.272H40.83m-20.55 13.362-2.404 4.698c-1.175-.242-1.746-.72-2.231-1.231m14.836-67.96c.447-1.09.803-2.894.803-4.34-1.43 0-3.217.36-4.296.811m-7.37 0c-1.08-.45-2.866-.81-4.296-.81 0 1.445.356 3.25.802 4.34m14.357 7.445c.447 1.09.803 2.895.803 4.34-1.43 0-3.217-.36-4.296-.81m-7.37 0c-1.08.45-2.866.81-4.296.81 0-1.445.356-3.25.802-4.34M28 106.01c-.128-.863-.439-2.056-1.185-2.81-1.277-1.29-8.938-5.16-10.215-5.16s-2.554 1.935-3.83 1.935c-1.278 0-1.916 3.225.638 3.225s4.469-1.29 4.469-1.29c-.223 2.789 1.64 3.496 3.192 4.515m-2.313-1.648c-.598 2.985-.168 5.385.76 7.503m-6.734-12.276c-.423-.463-.992-.925-1.711-1.347-5.75-3.378-6.658 1.841-.97 4.085 1.168.46 2.061.546 2.668.38m1.916-4.437c2.324-5.07-4.47-10.32-6.385-16.125-1.078 6.943-1.734 13.68 6.385 16.125m0 0c-2.276-3.404-3.861-7.289-5.747-10.965m5.747 10.965c.795-3.08 1.318-6.246 2.2-9.177m5.351 4.151c-1.694.442-3.346 1.67-4.998 4.38m0 0c7.985.831 14.376.423 16.6-3.224-3.291.332-6.243-1.05-9.031-1.317m-7.569 4.542c3.068-1.323 6.59-2.164 10.854-2.217m52.799-78.496c2.41-.847 4.57-2.085 6.396-4.063 2.45-2.653 4.368-6.72 5.277-13.256M80.793 15.995c2.126-.786 3.977-1.897 5.56-3.611 2.21-2.393 4.026-6.12 4.92-12.369M80.69 14.657c1.83-.718 3.384-1.697 4.728-3.153C87.39 9.368 89.103 5.974 89.98.023M81.4 11.477a9.2 9.2 0 0 0 2.15-1.733c1.51-1.632 3.01-4.372 3.847-9.711m-6.351 13.076c1.322-.615 2.444-1.405 3.44-2.485C86.223 8.742 87.831 5.677 88.69.028m-6.896 9.617c.29-.237.562-.497.825-.78 1.281-1.388 2.672-3.809 3.484-8.83M100.638.02c1.163 6.83 3.521 12.102 7.019 15.89 2.083 2.256 4.468 3.861 6.906 5.02M101.934.019c1.144 6.544 3.397 11.482 6.657 15.011 1.703 1.845 3.619 3.23 5.608 4.281M103.23.016c1.123 6.253 3.272 10.86 6.294 14.134a19.3 19.3 0 0 0 4.297 3.476M104.527.01c1.1 5.96 3.142 10.24 5.931 13.26a17.8 17.8 0 0 0 2.958 2.569m-1.452-6.824c-1.508-2.162-2.734-5.053-3.533-8.997m-2.606-.016c1.074 5.66 3.009 9.618 5.567 12.389a17 17 0 0 0 1.613 1.528M107.126.006c1.08 5.513 2.985 9.207 5.419 11.737m-30.214-4.56c.905-1.28 1.85-3.372 2.48-7.165m29.893 2.767c-1.67-.607-3.158-1.657-4.613-2.785m-19.43 21.93v.706c-2.553-2.641-5.79-2.166-8.938-1.351 4.746-2.439 6.955-1.066 8.939.645m0 0s.639 1.935.639 5.805m0 0c0 3.225-2.554 10.965-2.554 12.255 0 1.681 1.568 2.854 2.554 2.58.616-.171 2.554 2.58 2.554 2.58M91.3 27.735c-2.554.645-5.108-5.805-9.577-1.935m9.577 1.935c-3.734.85-6.385 3.87-9.577-.645m15.962 10.965c1.276 0 3.83 4.515.638 4.515m0 0c-5.108-1.935-7.661-.645 0 0m2.554 5.16 1.277.645-.639-1.29zm0 0c-1.277 0-2.554-.645-3.83-.645-1.278 0-1.916.645-2.555.645-.638 0-1.277-.645-1.915-.645s-1.277.645-1.915.645m0 0-.639.645-.638-1.29zm7.661 3.225c-1.725.484-2.792 2.645-5.746 0m5.746-25.8c6.665-2.333 9.495 3.68 12.769 3.87-5.107 0-4.476 1.126-6.384 1.29-4.891.42-6.5-3.41-5.449-5.462M17.536 97.468c.631-2.823 1.179-5.646 2.117-8.226m-7.63 25.175c.784.573 2.292.83 3.485.945m76.13-29.577h-7.211m6.511 4.515h-7.145m5.932 4.515h-6.978m5.138 4.515h-6.523m4.157 4.515h-5.6m3.186 4.515H78.64m2.612 4.515H77.75m2.456 4.515h-2.954m14.105-29.348h-6.93c-1.247.018-2.267-.998-2.267-2.257s1.02-2.275 2.267-2.258h7.21m-1.234 9.03h-6.61c-1.247.018-2.267-.998-2.267-2.257s1.02-2.275 2.267-2.258h7.145m-2.051 9.03h-6.14c-1.246.018-2.266-.998-2.266-2.257s1.02-2.275 2.266-2.258h6.978m-2.981 9.03h-5.382c-1.247.018-2.267-.998-2.267-2.257s1.02-2.275 2.267-2.258h6.523m-3.606 9.03h-4.36c-1.246.018-2.266-.998-2.266-2.257a2.247 2.247 0 0 1 2.266-2.258h5.6m-3.437 9.03H78.64c-1.246.018-2.266-.998-2.266-2.257a2.247 2.247 0 0 1 2.266-2.258h4.464m-2.473 9.03H77.75a2.246 2.246 0 0 1-2.267-2.257 2.247 2.247 0 0 1 2.267-2.258h3.502m-1.33 9.03h-2.67c-1.246.018-2.266-.998-2.266-2.257a2.247 2.247 0 0 1 2.266-2.258h2.954m26.085-29.347h-9.597m8.328 4.515h-9.165m6.88 4.515h-8.37m5.085 4.515h-7.259m3.394 4.515H89.47m2.488 4.515h-5.224m2.492 4.515h-4.58m2.978 4.515h-4.19m13.484-33.863h9.374a2.246 2.246 0 0 1 2.267 2.258c0 1.26-1.02 2.275-2.267 2.257h-9.597m-.344 0h8.672c1.246-.017 2.266.998 2.266 2.258s-1.02 2.275-2.266 2.257h-9.165m-.673 0h7.553c1.246-.017 2.266.998 2.266 2.258s-1.02 2.275-2.266 2.257h-8.37m-.998 0h6.083a2.246 2.246 0 0 1 2.266 2.258c0 1.259-1.02 2.275-2.266 2.257h-7.259m-1.323 0h4.717a2.247 2.247 0 0 1 2.267 2.258 2.246 2.246 0 0 1-2.267 2.257H89.47m-1.411 0h3.899a2.247 2.247 0 0 1 2.266 2.258c0 1.259-1.02 2.275-2.266 2.257h-5.224m-1.152 0h3.644a2.247 2.247 0 0 1 2.266 2.258c0 1.259-1.02 2.275-2.266 2.257h-4.58m-.704 0h3.682a2.247 2.247 0 0 1 2.266 2.258c0 1.259-1.02 2.275-2.266 2.257h-4.19m-1.39 7.017c-.452-3.192-4.515.912-1.355 1.368-2.554-1.935-2.554 3.87 0 1.935-3.16.457.903 4.561 1.354 1.369-1.915 2.58 3.831 2.58 1.916 0 .451 3.192 4.514-.912 1.354-1.369 2.554 1.935 2.554-3.87 0-1.935 3.16-.456-.903-4.56-1.354-1.368 1.915-2.58-3.831-2.58-1.916 0m-.64 2.336c0 .428.169.838.468 1.14a1.585 1.585 0 0 0 2.258 0 1.62 1.62 0 0 0 .467-1.14 1.62 1.62 0 0 0-.467-1.14 1.586 1.586 0 0 0-2.258 0 1.62 1.62 0 0 0-.467 1.14m-24.837-4.365c.033.426.232.822.554 1.1a1.58 1.58 0 0 0 2.25-.179 1.62 1.62 0 0 0-.176-2.273 1.587 1.587 0 0 0-2.25.178 1.63 1.63 0 0 0-.378 1.174m3.307 1.355c3.333 1.677 2.783-5.396-.25-3.215 1.66-3.366-5.341-2.811-3.182.252-3.332-1.676-2.783 5.397.25 3.215-1.66 3.367 5.341 2.812 3.182-.252m-3.84 9.345a1.63 1.63 0 0 0 .26 1.206q.182.263.449.437a1.592 1.592 0 0 0 2.433-1.072 1.63 1.63 0 0 0-.261-1.206 1.6 1.6 0 0 0-1.028-.667 1.59 1.59 0 0 0-1.854 1.302m2.86 2.158c2.803 2.474 4.044-4.509.563-3.175 2.45-2.832-4.463-4.086-3.142-.57-2.803-2.474-4.044 4.509-.564 3.175-2.45 2.832 4.463 4.086 3.142.57m-7.188 7.579a1.63 1.63 0 0 0-.014 1.234 1.6 1.6 0 0 0 1.463 1.013 1.6 1.6 0 0 0 1.134-.459 1.63 1.63 0 0 0 .366-1.753 1.6 1.6 0 0 0-1.463-1.013 1.6 1.6 0 0 0-1.134.459 1.6 1.6 0 0 0-.352.519m2.307 2.751c2.18 3.048 4.944-3.474 1.256-2.964 3.017-2.204-3.44-4.996-2.935-1.269-2.181-3.048-4.944 3.474-1.256 2.964-3.017 2.204 3.44 4.996 2.935 1.269m-9.381 4.448a1.623 1.623 0 0 0 .426 2.647 1.59 1.59 0 0 0 1.75-.288 1.62 1.62 0 0 0-.426-2.647 1.57 1.57 0 0 0-1.22-.043 1.6 1.6 0 0 0-.53.331m1.009 3.458c.775 3.679 5.913-1.159 2.335-2.199 3.641-.783-1.148-5.973-2.177-2.359-.775-3.678-5.913 1.16-2.335 2.199-3.641.784 1.148 5.974 2.177 2.359m-9.886.967a1.6 1.6 0 0 0-.948.778 1.63 1.63 0 0 0 .164 1.784 1.59 1.59 0 0 0 1.695.529 1.6 1.6 0 0 0 .948-.778 1.63 1.63 0 0 0-.165-1.784 1.6 1.6 0 0 0-1.074-.588 1.6 1.6 0 0 0-.62.059m-.62 3.551c-.924 3.643 5.807 1.618 3.06-.92 3.607.934 1.603-5.866-.91-3.091.924-3.643-5.807-1.619-3.06.92-3.606-.935-1.602 5.866.91 3.091m-10.564-2.259a1.6 1.6 0 0 0-1.143.435 1.62 1.62 0 0 0-.404 1.744 1.6 1.6 0 0 0 1.441 1.045c.423.014.835-.142 1.144-.435a1.62 1.62 0 0 0 .403-1.744 1.6 1.6 0 0 0-1.441-1.045m-1.701 3.17c-2.02 3.159 4.999 3.395 3.19.107 3.127 2.041 3.36-5.05.107-3.223 2.02-3.159-5-3.395-3.191-.107-3.127-2.041-3.36 5.05-.106 3.223m-8.697-5.85a1.58 1.58 0 0 0-1.221-.007 1.621 1.621 0 0 0-.015 2.98c.39.166.83.168 1.221.006.392-.161.704-.474.868-.868a1.63 1.63 0 0 0-.337-1.759 1.6 1.6 0 0 0-.516-.352m-2.708 2.348c-3.003 2.224 3.472 4.972 2.943 1.25 2.201 3.033 4.922-3.508 1.237-2.974 3.002-2.223-3.472-4.972-2.943-1.249-2.201-3.033-4.922 3.508-1.237 2.973m15.351-79.611c1.916-11.61-8.938-11.61-7.023 0-11.492-1.935-11.492 9.03 0 7.095-1.915 11.61 8.939 11.61 7.023 0 11.493 1.935 11.493-9.03 0-7.095m-3.511-4.838c0 7.74-.639 8.385-8.3 8.385 7.661 0 8.3.645 8.3 8.385 0-7.74.638-8.385 8.3-8.385-7.662 0-8.3-.645-8.3-8.385m-1.596 8.385c0 .428.168.838.467 1.14a1.59 1.59 0 0 0 2.257 0 1.62 1.62 0 0 0 0-2.28 1.59 1.59 0 0 0-2.257 0 1.62 1.62 0 0 0-.467 1.14m-8.939 22.253c-9.577-3.225-10.451 1.539-1.277 3.225 7.023 1.291 7.6-1.096 1.277-3.225m.23 3.446c-9.02-2.442-9.903 1.973-1.092 3.276 6.745.997 7.253-1.607 1.092-3.276m-.14 3.689c-9.179-1.249-9.54 3.247-.7 3.393 6.77.111 6.97-2.54.7-3.393m99.51-87.76c-4.836-2.941-9.634-6.198-15.323-1.935v.645c7.662-4.515 8.939-1.29 15.323 1.29"/><path stroke="currentColor" stroke-linecap="round" stroke-linejoin="round" stroke-width=".5" d="M14.752 98.97c-.045 1.988-1.538 2.122-3.053 2.227m3.439 3.518c-.463 1.202-.798 2.219-.261 2.72m.344.524c-.463 1.202-.797 2.219-.261 2.72m.261.858c-.463 1.202-.797 2.22-.261 2.72m-3.942-9.731c-.24.38-.362.792-.332 1.245m-.47 2.254c-.187.41-.253.835-.161 1.28m.353 2.691a2.03 2.03 0 0 0-.17 1.278m-.023-13.299a2.03 2.03 0 0 0-.33 1.246m100.569-74.776c-3.812-3.839-11.482-2.608-11.207-1.567m5.461 7.372c-2.755 1.727-5.108-3.225-5.746-5.16m-8.3.645c-2.243-6.615-7.024-5.16-7.662-3.225m18.21.048c-.592.59-.972 1.505-.972 2.532 0 1.781 1.144 3.225 2.554 3.225 1.411 0 2.554-1.444 2.554-3.225a3.9 3.9 0 0 0-.31-1.542m-22.481-.336a4 4 0 0 0-.194 1.233c0 1.781 1.144 3.225 2.554 3.225s2.554-1.444 2.554-3.225q0-.436-.087-.838"/></svg>
