<svg xmlns="http://www.w3.org/2000/svg" width="144" height="240" fill="none"><path stroke="currentColor" stroke-linecap="round" stroke-linejoin="round" d="M132.923 85.194V193.2l11.077 12M132.923 81.373v1.67m0-5.64v2.078m0-6.306v1.78m0-27.266v23.668M144 0l-11.077 12v23.596m-.017 109.277c-11.963 9.522-19.023 22.886-22.097 37.91m10.229-117.352c-26.372 36.19-21.754 74.448-5.913 103.242m-10.8-28.679L71.59 103.977m31.95-38.99-45.371 55.367M72 104.428V120.6m1.662-14.344v28.241m1.661-26.413v24.385m1.662-22.556v20.528m1.661-18.7v16.673m1.662-14.845v12.817m1.661-10.989v8.962m1.662-7.134v5.106m1.661-3.278v1.251m13.513-54.946L55.84 117.791m38.933-52.917L53.51 115.227m49.639 18.063-29.227-32.158 11.076-13.2c3.324-2.4 6.647 1.2 4.431 4.8l-11.077 13.2m26.378-5.993-15.687-17.26m16.803 13.078L91.373 79.835M128 70.445l-13.03-9.412m-75.103-5.779L11.1 63.705m35.196-.76c4.578 4.154 9.839 6.703 15.622 7.643 8.551 1.39 18.304-.772 28.656-6.774m3.244.79c-11.466 7.178-22.475 9.942-32.229 8.358-9.588-1.559-17.898-7.357-24.06-17.019M49.8 62.86c3.75 2.852 7.916 4.62 12.446 5.356 7.567 1.23 16.309-.506 25.754-5.657m-5.742 17.584c-15.68 4.053-31.032 1.445-41.771-8.246m.4-7.812L38.985 97.04m-.302-35.568-1.646 28.534m40.379-3.99c-13.701 2.165-27.057-.474-37.326-8.4m19.71 8.416C58.933 89 57.188 94.465 55.385 97.2c-2.178 3.303-6.754 8.462-8.61 10.514m10.066-22.24c-.916 3.06-2.546 7.978-4.226 10.526-1.38 2.094-3.725 4.934-5.729 7.255m7.053-18.54c-.936 3.075-2.492 7.656-4.093 10.085-1.2 1.822-3.131 4.208-4.932 6.326m6.19-17.398c-.942 3.07-2.462 7.499-4.027 9.872-1.486 2.254-4.088 5.37-6.18 7.776m86.048-21.896c-17.28 27.319-14.834 53.539-4.322 75.984M11.085 85.861c5.896-5.766 10.128-12.717 12.944-20.567a68 68 0 0 0 1.829-5.972m-14.65 31.162c9.539-8.4 15.42-19.519 18.33-32.162m-12.324 3.594c-.39 3.243-3.368 9.304-6.086 12.74M135.138 28.8 144 19.2m0-4.8-8.862 9.6m0 9.6L144 24m-8.862 42.6L144 57m0-4.8-8.862 9.6m0 42.6L144 94.8m0-4.8-8.862 9.6m0 9.6L144 99.6m-8.862 42.6 8.862-9.6m0-4.8-8.862 9.6m0 9.6 8.862-9.6m-8.862 42.6 8.862-9.6m0-4.8-8.862 9.6m0 9.6 8.862-9.6m-8.862-89.3v103.7l8.862 9.6m-8.862-150.695V70.43M144 6l-8.862 9.6v20.515m-50.79 76.49L95.262 99.6c2.215-3.6-1.108-7.2-4.431-4.8l-10.877 12.961m9.893 10.892L100.8 105.6c2.215-3.6-1.108-7.2-4.43-4.8l-10.923 13.016m18.005-7.726c-.5.104-1.022.333-1.544.71l-10.954 13.053m4.39 4.849 6.969-8.305m-.057 2.588-5.801 6.913m4.419 4.814 1.727-2.058M86.735 85.413a5 5 0 0 1 .785-.006 4.43 4.43 0 0 1 2.945 1.403c1.278 1.385 1.682 3.633.925 5.722a4.95 4.95 0 0 1 1.963-.257 4.43 4.43 0 0 1 2.945 1.402c1.071 1.16 1.528 2.926 1.203 4.697.468-.1.936-.133 1.39-.1a4.44 4.44 0 0 1 2.946 1.403c1.065 1.154 1.522 2.907 1.208 4.668l.094-.023a1.5 1.5 0 0 1 .613-.012m-60.718-5.417 5.682 6.596m1.249-18.321a125 125 0 0 1-10.08-5.7m8.828 8.907a126 126 0 0 1-9.053-5.017m7.52 8.081a127 127 0 0 1-7.743-4.217m5.71 7.03q-2.972-1.498-5.931-3.191m3.717 5.91a129 129 0 0 1-3.937-2.097m3.1 5.792q-1.041-.517-2.082-1.057M50.06 86.89l-4.645-4.09 5.578 1.275m-2.22 6.145-5.02-4.42 5.837 1.335m-2.353 6.196L42.092 88.8l5.837 1.335m-2.651 5.934L40.43 91.8l5.836 1.335m-7.156 1.743 5.495 1.257m-1.437 2.54-4.07-3.585m.271 3.354 3.02.69m-.506 3.361-2.022-1.782m15.883-3.414 6.84-.699-5.539-2.4m-3.516 6.099 6.84-.699-5.096-2.208m-3.96 5.907 6.84-.699-5.128-2.222m-3.927 5.921 6.84-.699-5.326-2.308m-2.482 5.936 6.146-.628-5.538-2.4M58.5 90.139c5.06.773 9.695 1.359 14.204 1.595m-14.19-1.635 6.84-.699-5.539-2.4m-2.71 6.803a118 118 0 0 0 12.821 1.475m-12.761-1.61L63.692 93l-5.39-2.336m-2.977 6.623a120 120 0 0 0 11.681 1.47m-13.9 1.53c3.73.651 7.541 1.151 11.457 1.452m-13.882 1.511c3.725.656 7.53 1.162 11.44 1.472M48.185 106.2c3.742.668 7.564 1.185 11.493 1.503m-11.402 1.798c2.943.484 5.938.871 8.996 1.14m-5.492 2.665q1.515.177 3.05.314m-4.5-1.843 1.732-.177L49 110.273m79.741-25.602c-14.293 24.277-12.238 46.931-3.221 67.029m2.456-81.254c-23.421 31.662-20.758 63.225-8.065 88.975m-2.573 4.438c-14.13-27.382-17.647-62.118 7.198-95.906m3.427 2.503c-23.408 31.652-20.745 63.215-8.094 89.008m4.633-91.525c-24.811 33.802-21.294 68.538-7.179 95.859m15.6-78.598s-1.029 1.8-2.695 1.213c-1.699-.598-3.561-6.606-3.397-9.613.162-2.995 1.661-7.8 1.661-8.4s-.211-1.763-.211-4.163c0-3.6 3.534-5.437 3.774-.303.07 1.487-.24 2.066-.793 3.866.074.546 1.107 1.8 1.107 2.4 0 2.4-.918 2.737-.918 2.737m8.815 1.326c2.194.318 3.734 1.065 3.734 1.937 0 1.16-2.728 2.1-6.092 2.1-3.365 0-6.093-.94-6.093-2.1 0-.907 1.669-1.68 4.006-1.974m-.814 7.953c-1.577.363-2.638 1.043-2.638 1.821 0 1.16 2.356 2.1 5.262 2.1s5.261-.94 5.261-2.1c0-.704-.869-1.328-2.202-1.709m-4.594-11.928L144 61.8m-.002-24.617c-10.804-.39-20.717-3.754-29.352-11.383 2.483 11.276 8.69 21.065 29.333 25.09m.018-11.306c-8.918-.313-17.376-2.621-25.02-7.574 1.203 2.681 2.823 5.155 5.126 7.385 3.998 3.873 10.142 7.103 19.863 9.053M99.273 23.715c7.479 17.044 6.249 27.98 9.281 32.085 2.215 3 6.092 3.6 6.092 0m0 0c0-4.2-3.866-1.755-3.877-1.2m3.877 1.2c0 3.6-4.984 4.2-7.754 0-2.84-4.307-1.766-15.204-9.432-32.432m-1.802-.315c7.826 17.406 6.797 28.352 9.573 32.747 7.2 11.4 12.184 4.2 12.184 0 0-9-9.969-6-9.415-1.2M93.858 22.741c8.013 17.564 7.5 28.268 9.711 33.059 2.216 4.8 8.596 7.873 10.476 5.85m-21.97-39.173c8.14 17.72 7.61 28.508 9.833 33.323 2.215 4.8 7.144 8.176 9.415 6.6m-21.03-40.188c8.272 17.868 7.86 28.522 9.614 33.588 1.662 4.8 7.089 9.667 9.755 7.2M88.506 21.944c8.387 18.038 7.55 29.011 9.4 34.066 2.34 6.39 6.045 10.308 9.111 7.922M86.723 21.684c8.52 18.193 7.755 29.275 9.28 34.483 1.474 5.033 5.345 10.495 8.58 8.35M84.965 21.479c8.62 18.315 7.732 29.443 8.844 34.793.899 4.328 4.269 11.05 8.253 8.58m-18.856-43.58c8.714 18.444 6.854 30.196 8.457 35.42 1.383 4.508 4.354 9.719 7.566 8.553M81.447 21.067c8.825 18.56 6.694 29.914 7.537 35.363.74 4.77 3.999 9.176 7.554 8.355M79.754 21c8.861 18.6 5.816 30.098 6.988 35.482.766 3.518 3.11 8.2 6.374 7.878M78.092 21c8.862 18.6 4.454 31.032 6.359 36.164 1.657 4.465 3.817 6.046 5.747 6.236M47.307 19.844c-.615 2.385-1.892 7.445-1.892 8.356 0 1.2 1.108 4.8 1.108 6.6m0 0c0 1.8 1.108 8.4 2.215 11.4 1.108 3 4.985 10.8 5.539 12s1.087 4.747 2.748 5.347S62.585 66 64.246 64.8 66.462 63 67.57 63s3.323.6 4.985 0c1.661-.6 9.415-1.8 9.97-3.6.484-1.585 1.107-2.4 1.37-4.538M46.524 34.8s1.94 1.8 4.123 1.8c2.182 0 3.63-1.2 5.845-2.4m0-4.8c-5.538-4.2-6.646-2.4-10.523-.6 3.134-2.47 7.2-1.2 10.523.6m0 0c.622.335.804 2.535.554 3.6-.273 1.163-1.661 6-1.661 7.2s-.99 6.262-.99 6.862c0 1.2 2.097 2.138 3.759 2.138m3.877-4.8c2.305.205 4.196 4.69-1.032 3.764-3.325-.59-1.184-1.364 2.14-.164m-6.647 4.8-1.107.6-.554-1.2zm0 0c.554 0 1.108-.6 1.662-.6s1.661 1.2 2.215 1.2 1.662-1.2 2.216-1.2c.553 0 2.215 1.2 3.877 1.2m-3.877 3c-1.11 1.3-4.431 1.8-4.431-1.2m19.938-21c-3.877.6-8.861-3.6-13.292-3.6m8.862 3c.553 1.8-6.093 3-7.754 1.8-1.662-1.2-2.216-.6-2.216-.6m-7.302-.568c-2.215 0-5.797-2.736-7.754-3s-2.215 1.2-2.215 1.2m-.201-12.486C42.446 26.58 44.387 34.25 44.308 41.4m0 0c-.097 1.953-1.662 1.2-2.216.6m2.216-.6c0-2.4-4.431-4.2-4.431.6 0 5.045 8.565 6.21 7.103-3.252M44.863 45.6c0 5.4-2.216 8.4-3.877 5.4m7.392-5.679c.013 10.582-10.5 12.819-9.608 5.079.554-4.8 5.539-2.4 5.467-.399m5.642-.87c-.44 5.967-4.843 8.743-8.34 7.269-2.067-.872-2.372-2.156-2.34-2.932m12.157-1.24c-.906 5.126-7.36 8.273-10.37 4.172M52.4 54.358c-1.023 4.883-4.947 7.051-8.123 5.712-1.04-.455-1.992-1.37-2.16-2.596m11.221-1.225c-1.232 4.394-4.931 6.295-7.954 5.02-1.116-.47-1.719-1.061-2.032-1.628m10.99-1.243c-.682 4.457-8.87 6.83-10.085 2.27m-2.181-45.574L45.87 15q3.418-.084 6.85-.1c16.02-.076 32.283 1.021 48.893 4.38l2.838.575M121.899 0 100.8 24c-18.593-3.76-36.8-4.639-54.83-4.2L28.68 0m63 68.607c-10.647 5.958-21.005 8.258-30.42 6.728-10.2-1.657-19.098-7.905-25.554-18.028l-.403-.63M144 72.3c0-.557-.613-1.091-1.703-1.485s-2.57-.615-4.112-.615-3.022.221-4.112.615-1.704.928-1.704 1.485.613 1.091 1.704 1.485 2.569.615 4.112.615c1.542 0 3.021-.221 4.112-.615 1.09-.394 1.703-.928 1.703-1.485m0 8.1c0-.557-.613-1.091-1.703-1.485s-2.57-.615-4.112-.615-3.022.221-4.112.615-1.704.928-1.704 1.485.613 1.091 1.704 1.485 2.569.615 4.112.615c1.542 0 3.021-.221 4.112-.615 1.09-.394 1.703-.928 1.703-1.485M77.539 30c-4.247-1.965-7.332-6.39-14.954-1.2l.553.6c4.001-4.237 9.134-2.187 14.4.6M67.015 52.8v1.8l-1.107-1.2z"/><path fill="currentColor" d="M129.6 126.84c.449-.007.449.727 0 .72h-6.646c-.45.007-.45-.727 0-.72zm1.108 3c.449-.007.449.727 0 .72h-9.416c-.449.007-.449-.727 0-.72zm2.215 3.24v1.44h-13.07l-.257-1.44zm0 3v1.44h-12.427l-.289-1.44zm0 3v1.44h-11.559l-.418-1.44zm0 3v1.44H122.2l-.386-1.44zm-1.945 4.44h-7.588l-.547-1.44h9.678zm-3.312 3h-3.087l-.546-1.44h5.144zM45.87 15.001q3.418-.084 6.85-.1c16.02-.076 32.283 1.021 48.893 4.38l2.868.536L100.8 24c-18.593-3.76-36.8-4.639-54.83-4.2l-3.918-4.609zm-5.382 56.895c10.74 9.691 26.09 12.3 41.771 8.246l-4.842 5.873c-13.701 2.165-27.057-.474-37.326-8.4zm13.02 43.331 41.264-50.353 4.033.484-42.966 52.433zm35.534-32.548 15.687 17.26 1.116-4.182-14.472-15.922zm-42.266 25.035c.49-.542 1.17-1.302 1.944-2.206l-5.676-6.64c-.725.86-1.463 1.722-2.147 2.508m81.726 54.088c-10.512-22.445-12.958-48.665 4.322-75.984.551 1.872 1.052 3.895 1.796 5.191-14.293 24.277-12.238 46.931-3.221 67.029z"/><path fill="currentColor" d="M87.618 90.96c-.996 0-3.136-.148-3.544.48-2.105 3.24-3.772 6.497-6.868 7.92-.653.3-1.136 2.628-.221 3.12 4.255 2.288 6-5.291 7.089-8.52.808-2.396 2.997-1.961 3.434-2.04.664-.12.408-.96.11-.96m5.834 6.868c-.997 0-3.137-.149-3.545.48-2.105 3.24-3.771 6.497-6.868 7.92-.653.3-1.136 2.628-.221 3.12 4.255 2.288 6-5.292 7.09-8.52.807-2.397 2.996-1.961 3.433-2.04.665-.12.408-.96.11-.96m5.538 6c-.997 0-3.136-.149-3.544.48-2.105 3.24-3.772 6.497-6.868 7.92-.653.3-1.136 2.628-.222 3.12 4.256 2.288 6-5.292 7.09-8.52.808-2.396 2.996-1.961 3.433-2.04.665-.12.409-.96.111-.96m3.887 5.99c-.839.022-1.657.126-1.893.49-2.105 3.24-3.771 6.497-6.868 7.92-.653.3-1.136 2.628-.221 3.12 4.255 2.288 6-5.292 7.089-8.52.393-1.166 1.113-1.661 1.798-1.872m-.463 11.332c-.777.802-1.643 1.47-2.664 1.94-.653.3-1.136 2.628-.222 3.12 1.205.648 2.209.504 3.054-.107M66.767 33.6c0 .636.158 1.247.441 1.697s.667.703 1.067.703c.199 0 .395-.062.578-.183.183-.12.35-.297.49-.52s.25-.487.327-.778a3.7 3.7 0 0 0 0-1.837 2.8 2.8 0 0 0-.327-.779c-.14-.223-.307-.4-.49-.52a1.05 1.05 0 0 0-.578-.183c-.4 0-.784.253-1.067.703s-.442 1.06-.442 1.697m-18.029.54c0 .32.036.637.106.933.07.295.171.563.3.79.129.226.281.405.45.527a.9.9 0 0 0 .53.186c.366 0 .718-.257.978-.713.26-.457.406-1.076.406-1.722s-.146-1.265-.406-1.722-.612-.713-.979-.713a.9.9 0 0 0-.53.185 1.7 1.7 0 0 0-.449.528c-.129.226-.23.495-.3.79s-.106.612-.106.932m-19.86 37.176c1.885-4.48 3.31-9.198 4.312-14.093l2.113-.547.403.631a48 48 0 0 0 2.973 4.166 8268 8268 0 0 1-1.667 28.525 111 111 0 0 0-8.133-18.683m-11.664-9.4-6.114 1.79Zm0 0c-.39 3.243-3.368 9.304-6.086 12.74l-.028-10.95M128.76 84.72c.482.908.981 1.522 1.467 1.693 1.666.586 2.695-1.216 2.695-1.216l-.009 59.629a69.5 69.5 0 0 0-7.317 6.891c-9.094-20.115-11.149-42.769 3.164-66.997m4.162 108.48 12.185 13.2Zm-28.194-93.261-15.687-17.26-2.307 2.734a5 5 0 0 1 .785-.006 4.43 4.43 0 0 1 2.945 1.403c1.278 1.385 1.682 3.633.925 5.722a4.95 4.95 0 0 1 1.963-.257 4.43 4.43 0 0 1 2.945 1.402c1.071 1.16 1.528 2.926 1.203 4.697.468-.1.936-.133 1.39-.1a4.43 4.43 0 0 1 2.945 1.403c1.066 1.154 1.523 2.907 1.209 4.668l.094-.023a1.5 1.5 0 0 1 .613-.012zM22.154 62.4q0 .239.084.46.085.22.24.389.156.168.36.26a1.03 1.03 0 0 0 .847 0q.204-.092.36-.26.155-.17.24-.39a1.3 1.3 0 0 0 0-.918 1.2 1.2 0 0 0-.24-.39 1.1 1.1 0 0 0-.36-.26 1.03 1.03 0 0 0-.847 0 1.1 1.1 0 0 0-.36.26 1.2 1.2 0 0 0-.24.39 1.3 1.3 0 0 0-.084.459m-3.323 7.8q0 .239.084.46.085.22.24.389.156.168.36.26a1.03 1.03 0 0 0 .847 0q.204-.092.36-.26a1.2 1.2 0 0 0 .24-.39 1.3 1.3 0 0 0 0-.918 1.2 1.2 0 0 0-.24-.39 1.1 1.1 0 0 0-.36-.26 1.03 1.03 0 0 0-.847 0 1.1 1.1 0 0 0-.36.26 1.2 1.2 0 0 0-.24.39 1.3 1.3 0 0 0-.084.459m-4.985 8.4q0 .239.085.46c.055.145.137.277.24.388.102.112.225.2.359.26a1.03 1.03 0 0 0 .848 0q.202-.091.36-.26a1.2 1.2 0 0 0 .24-.389 1.3 1.3 0 0 0 0-.918 1.2 1.2 0 0 0-.24-.39 1.1 1.1 0 0 0-.36-.26 1.03 1.03 0 0 0-.848 0c-.134.06-.257.15-.36.26a1.2 1.2 0 0 0-.24.39 1.3 1.3 0 0 0-.084.459"/><path stroke="currentColor" stroke-linecap="round" stroke-linejoin="round" stroke-width=".5" d="M134.585 70.8c.52 1.047.574 2.052 0 3m-.411.826c.52 1.047.574 2.052 0 3m0 1.2c.52 1.047.574 2.052 0 3m0 .6c.52 1.047.574 2.052 0 3M129.6 61.2c0 3-1.108 3.6-1.108 3.6m9.867 6.9c.125.31.148.693 0 1.2m0 2.763c.125.31.148.693 0 1.2m0 2.937c.125.31.148.693 0 1.2m0 3c.125.31.148.693 0 1.2m0-1.66c.125.309.148.692 0 1.2M63.692 60c-2.769-1.2-4.43-1.2-5.538-.6m7.754-28.8c3.323-2.4 6.751-.874 9.969 1.8m-18.83.6c-2.714-3.635-5.636-4.315-7.755-3m17.996 1.032c-.642.482-1.067 1.317-1.067 2.268 0 1.491 1.045 2.7 2.335 2.7s2.336-1.209 2.336-2.7a3 3 0 0 0-.204-1.106M49.5 31.409c-.773.408-1.315 1.37-1.315 2.491 0 1.491.96 2.7 2.143 2.7s2.143-1.209 2.143-2.7c0-.458-.09-.89-.25-1.267m-.713 5.446c-1.251.476-2.891-.044-2.999-.279m38.116 23.379C82.242 64.003 77.041 66.61 72 66.6m13.805-6.808c-4.442 2.895-9.76 5.62-14.913 5.608"/></svg>
