<svg xmlns="http://www.w3.org/2000/svg" fill="none" width="166" height="258"><path fill="currentColor" d="M101.005 97.782c-1.15 0-3.616-.16-4.087.516-2.426 3.483-4.347 6.984-7.917 8.514-.752.323-1.31 2.825-.255 3.354 4.906 2.46 6.917-5.688 8.172-9.159.932-2.576 3.455-2.108 3.959-2.193.766-.129.471-1.032.128-1.032m6.724 7.383c-1.149 0-3.616-.16-4.086.516-2.426 3.483-4.348 6.984-7.917 8.514-.753.322-1.31 2.825-.255 3.354 4.905 2.46 6.916-5.688 8.172-9.159.932-2.576 3.454-2.108 3.958-2.193.766-.129.471-1.032.128-1.032m6.385 6.45c-1.15 0-3.616-.16-4.087.516-2.426 3.483-4.347 6.984-7.916 8.514-.753.322-1.31 2.825-.256 3.354 4.906 2.46 6.917-5.688 8.172-9.159.932-2.576 3.455-2.108 3.959-2.193.766-.129.471-1.032.128-1.032m4.48 6.439c-.967.024-1.909.136-2.182.527-2.426 3.483-4.347 6.984-7.917 8.514-.753.322-1.31 2.825-.255 3.354 4.906 2.46 6.917-5.688 8.172-9.159.453-1.253 1.283-1.786 2.073-2.012m-.534 12.181c-.896.862-1.894 1.581-3.071 2.086-.753.322-1.31 2.825-.256 3.354 1.39.696 2.547.542 3.52-.115M76.966 36.12c0 .684.184 1.34.51 1.824s.769.756 1.23.756c.229 0 .455-.067.666-.196.211-.13.403-.32.564-.56a2.9 2.9 0 0 0 .378-.837 3.7 3.7 0 0 0 .132-.987 3.7 3.7 0 0 0-.132-.987 2.9 2.9 0 0 0-.377-.837 1.9 1.9 0 0 0-.565-.56 1.27 1.27 0 0 0-.666-.196c-.461 0-.904.272-1.23.756-.326.483-.51 1.14-.51 1.824m-20.781.581c0 .344.04.684.121 1.002s.198.606.346.85c.148.242.324.435.518.567s.401.199.61.199c.424 0 .83-.276 1.13-.767.299-.49.467-1.156.467-1.85s-.168-1.36-.468-1.852c-.299-.49-.705-.766-1.128-.766-.21 0-.417.067-.611.199-.194.131-.37.324-.518.567a3.1 3.1 0 0 0-.346.85 4 4 0 0 0-.121 1.001M33.29 76.664c2.172-4.814 3.815-9.887 4.97-15.149l2.436-.588.464.678a52 52 0 0 0 3.427 4.478 8294 8294 0 0 1-1.921 30.665c-2.483-7.048-5.664-13.77-9.376-20.084M19.843 66.56l-7.047 1.923Zm0 0c-.448 3.486-3.882 10.002-7.015 13.696l-.032-11.773m135.637 22.591c.556.976 1.131 1.636 1.691 1.82 1.92.63 3.107-1.307 3.107-1.307l-.01 64.101a78 78 0 0 0-8.435 7.408c-10.484-21.624-12.853-45.977 3.647-72.022m4.798 116.616 14.046 14.19Zm-32.502-100.256L102.646 88.88l-2.66 2.939a6 6 0 0 1 .905-.007c1.304.092 2.514.618 3.395 1.508 1.474 1.49 1.939 3.906 1.066 6.152a6.1 6.1 0 0 1 2.263-.277c1.305.091 2.514.618 3.395 1.508 1.235 1.247 1.761 3.146 1.387 5.049a6 6 0 0 1 1.602-.107c1.305.091 2.515.618 3.396 1.508 1.228 1.241 1.755 3.125 1.393 5.018l.108-.025a2 2 0 0 1 .707-.013zM25.539 67.08a1.3 1.3 0 0 0 .373.912 1.27 1.27 0 0 0 .903.378 1.26 1.26 0 0 0 .903-.378 1.3 1.3 0 0 0 .374-.912 1.3 1.3 0 0 0-.374-.912 1.28 1.28 0 0 0-.903-.378 1.27 1.27 0 0 0-.903.378 1.3 1.3 0 0 0-.374.912m-3.831 8.385a1.3 1.3 0 0 0 .374.912 1.28 1.28 0 0 0 .902.378 1.26 1.26 0 0 0 .903-.378 1.29 1.29 0 0 0 .277-1.406 1.3 1.3 0 0 0-.69-.698 1.27 1.27 0 0 0-1.392.28 1.3 1.3 0 0 0-.374.912m-5.746 9.03a1.3 1.3 0 0 0 .373.912 1.27 1.27 0 0 0 .903.378 1.26 1.26 0 0 0 .903-.378 1.3 1.3 0 0 0 .374-.912 1.3 1.3 0 0 0-.374-.912 1.28 1.28 0 0 0-.903-.378 1.27 1.27 0 0 0-.902.378 1.3 1.3 0 0 0-.374.912"/><path fill="currentColor" d="M149.4 136.353c.518-.007.518.781 0 .774h-7.662c-.518.007-.518-.781 0-.774zm1.277 3.225c.518-.007.518.781 0 .774h-10.854c-.518.007-.518-.781 0-.774zm2.554 3.483v1.548h-15.067l-.297-1.548zm0 3.225v1.548h-14.326l-.334-1.548zm0 3.225v1.548h-13.325l-.482-1.548zm0 3.225v1.548h-12.362l-.444-1.548zm-2.243 4.773h-8.747l-.63-1.548h11.156zm-3.817 3.225h-3.559l-.63-1.548h5.931zM52.878 16.126q3.94-.09 7.897-.108c18.466-.081 37.214 1.098 56.362 4.71l3.307.575L116.2 25.8c-21.434-4.043-42.422-4.987-63.208-4.515l-4.515-4.955zm-6.205 61.162c12.38 10.418 30.077 13.222 48.153 8.865l-5.582 6.313c-15.794 2.327-31.19-.51-43.028-9.029zm15.01 46.581 47.567-54.13 4.651.52-49.531 56.366zm40.963-34.989 18.083 18.554 1.286-4.496-16.682-17.116zm-48.724 26.913c.565-.583 1.35-1.4 2.241-2.372l-6.543-7.137c-.836.923-1.687 1.85-2.475 2.695m94.212 58.145c-12.118-24.129-14.937-52.316 4.982-81.683.636 2.012 1.214 4.187 2.071 5.58-16.477 26.098-14.108 50.451-3.713 72.056z"/><path stroke="currentColor" stroke-linecap="round" stroke-linejoin="round" d="M153.231 91.584V207.69L166 220.59M153.231 87.476v1.795m0-6.062v2.233m0-6.78v1.915m0-29.311v25.443M166-.001l-12.769 12.9v25.366m-.02 117.473c-13.791 10.236-21.93 24.603-25.473 40.753m11.791-126.152c-30.4 38.904-25.076 80.031-6.815 110.984m-12.45-30.829-37.737-38.719m36.832-41.914-52.303 59.52M83 112.26v17.385m1.915-15.42v30.359m1.916-28.393v26.213m1.915-24.248v22.068m1.916-20.103v17.924m1.915-15.959v13.779m1.915-11.813v9.633m1.916-7.668v5.489m1.915-3.524v1.344m15.578-59.066L64.37 126.625m44.88-56.886-47.566 54.13m57.223 19.418-33.693-34.57 12.77-14.19c3.83-2.58 7.661 1.29 5.107 5.16l-12.77 14.19m30.408-6.443L102.646 88.88m19.369 14.058-16.682-17.116m42.222-10.095-15.021-10.116m-86.578-6.213-33.16 9.085m40.573-.817c5.278 4.465 11.342 7.206 18.009 8.216 9.857 1.494 21.1-.83 33.034-7.282m3.74.85c-13.218 7.716-25.91 10.687-37.153 8.984-11.054-1.675-20.633-7.909-27.737-18.295m14.147 7.435c4.324 3.066 9.126 4.966 14.348 5.757 8.723 1.322 18.8-.544 29.688-6.081m-6.619 18.903c-18.076 4.357-35.772 1.553-48.152-8.865m.46-8.398-2.192 35.427m-.348-38.235-1.897 30.674m46.547-4.29c-15.794 2.327-31.19-.51-43.028-9.029m22.72 9.047c-1 3.19-3.011 9.066-5.09 12.006-2.51 3.551-7.786 9.097-9.924 11.303m11.603-23.91c-1.056 3.291-2.935 8.578-4.871 11.317-1.592 2.251-4.294 5.304-6.604 7.799m8.13-19.93c-1.08 3.305-2.873 8.23-4.718 10.841-1.385 1.958-3.61 4.523-5.687 6.8m7.137-18.702c-1.086 3.3-2.839 8.06-4.643 10.612-1.713 2.422-4.712 5.773-7.124 8.359m99.194-23.538c-19.919 29.367-17.1 57.554-4.982 81.683M12.779 92.3c6.796-6.198 11.675-13.67 14.92-22.109a69 69 0 0 0 2.11-6.42M12.918 97.27c10.998-9.029 17.778-20.983 21.131-34.573M19.843 66.56c-.448 3.486-3.882 10.002-7.015 13.696M155.785 30.96 166 20.64m0-5.16L155.785 25.8m0 10.32L166 25.8m-10.215 45.795L166 61.275m0-5.16-10.215 10.32m0 45.795L166 101.91m0-5.16-10.215 10.32m0 10.32L166 107.07m-10.215 45.795L166 142.545m0-5.16-10.215 10.32m0 10.32L166 147.705M155.785 193.5 166 183.18m0-5.16-10.215 10.32m0 10.32L166 188.34m-10.215-95.998V203.82L166 214.14M155.785 52.143v23.569M166 6.45l-10.215 10.32v22.054m-58.55 82.226 12.58-13.98c2.554-3.87-1.277-7.74-5.107-5.16l-12.539 13.933m11.404 11.709L116.2 113.52c2.554-3.87-1.277-7.74-5.108-5.16l-12.591 13.992m20.757-8.305c-.577.112-1.179.358-1.781.763l-12.627 14.032m5.06 5.213 8.034-8.928m-.066 2.782-6.687 7.431m5.094 5.176 1.991-2.213m-18.29-46.484a6 6 0 0 1 .905-.007c1.305.091 2.514.618 3.395 1.508 1.474 1.49 1.939 3.906 1.066 6.152a6.1 6.1 0 0 1 2.263-.277c1.305.091 2.514.618 3.395 1.508 1.235 1.247 1.762 3.146 1.387 5.049a6 6 0 0 1 1.603-.107c1.304.091 2.514.618 3.395 1.508 1.228 1.24 1.755 3.125 1.393 5.017l.108-.024a2 2 0 0 1 .707-.013m-69.995-5.823 6.551 7.09m1.44-19.695a147 147 0 0 1-11.621-6.128m10.177 9.576A149 149 0 0 1 45.72 91.76m8.67 8.687a150 150 0 0 1-8.927-4.533m6.582 7.557a152 152 0 0 1-6.837-3.431m4.285 6.354a152 152 0 0 1-4.538-2.255m3.574 6.227q-1.2-.556-2.4-1.136m11.58-15.823-5.354-4.397 6.429 1.37m-2.558 6.607-5.787-4.752 6.729 1.435m-2.713 6.661-5.93-4.871 6.727 1.435m-3.056 6.379-5.587-4.59 6.728 1.436m-8.25 1.874 6.334 1.351m-1.656 2.73-4.692-3.853m.313 3.605 3.482.743m-.584 3.612-2.331-1.915m18.31-3.671 7.884-.751-6.385-2.58m-4.053 6.556 7.884-.751-5.873-2.373m-4.565 6.349 7.884-.751-5.91-2.389m-4.528 6.365 7.885-.751-6.14-2.481m-2.861 6.381 7.085-.675-6.384-2.58m11.252-17.266c5.833.831 11.176 1.46 16.375 1.715m-16.358-1.758 7.885-.751-6.385-2.58m-3.124 7.313a146 146 0 0 0 14.78 1.585m-14.712-1.731 7.525-.717-6.214-2.511m-3.432 7.12a148 148 0 0 0 13.466 1.579m-16.022 1.645c4.3.7 8.692 1.237 13.206 1.562m-16.003 1.624c4.294.705 8.68 1.249 13.187 1.582m-16.065 1.589c4.314.718 8.72 1.274 13.25 1.616m-13.145 1.932c3.393.521 6.846.937 10.371 1.226m-6.33 2.865q1.744.19 3.516.338m-5.188-1.982 1.995-.19-3.53-1.426m91.925-27.523c-16.477 26.098-14.108 50.451-3.713 72.056m2.831-87.348c-26.999 34.037-23.929 67.967-9.297 95.649m-2.966 4.77c-16.29-29.435-20.344-66.777 8.297-103.099m3.951 2.69c-26.984 34.027-23.914 67.957-9.331 95.685m5.342-98.39c-28.603 36.337-24.549 73.679-8.277 103.049m17.984-84.493s-1.187 1.934-3.107 1.304c-1.958-.643-4.105-7.101-3.916-10.334.187-3.22 1.915-8.385 1.915-9.03s-.244-1.895-.244-4.475c0-3.87 4.075-5.845 4.351-.326.08 1.598-.276 2.22-.915 4.156.087.587 1.277 1.935 1.277 2.58 0 2.58-1.058 2.942-1.058 2.942m10.161 1.426c2.529.341 4.305 1.145 4.305 2.082 0 1.247-3.144 2.257-7.023 2.257s-7.023-1.01-7.023-2.257c0-.975 1.924-1.806 4.618-2.122m-.939 8.55c-1.818.39-3.041 1.12-3.041 1.957 0 1.247 2.716 2.257 6.066 2.257s6.065-1.01 6.065-2.257c0-.757-1.002-1.427-2.539-1.837M156.89 75.64l9.11-9.205m-.002-26.464c-12.455-.419-23.882-4.034-33.836-12.236 2.862 12.122 10.017 22.645 33.813 26.972m.022-12.154c-10.281-.336-20.031-2.818-28.842-8.143 1.386 2.883 3.253 5.542 5.908 7.94 4.609 4.163 11.691 7.635 22.898 9.732M114.44 25.494c8.622 18.322 7.203 30.078 10.698 34.49 2.554 3.226 7.024 3.87 7.024 0m0 0c0-4.514-4.457-1.886-4.47-1.29m4.47 1.29c0 3.87-5.747 4.516-8.939 0-3.274-4.63-2.036-16.344-10.873-34.863m-2.077-.339c9.021 18.71 7.835 30.478 11.035 35.203 8.3 12.255 14.046 4.515 14.046 0 0-9.675-11.492-6.45-10.854-1.29m-16.302-34.248c9.237 18.88 8.645 30.387 11.194 35.538 2.554 5.16 9.91 8.464 12.076 6.288m-25.325-42.11c9.383 19.05 8.772 30.645 11.334 35.822 2.554 5.16 8.236 8.79 10.854 7.095m-24.244-43.202c9.537 19.208 9.062 30.661 11.084 36.107 1.915 5.16 8.172 10.391 11.244 7.74M102.028 23.59c9.668 19.39 8.703 31.187 10.837 36.62 2.697 6.87 6.967 11.081 10.502 8.516M99.972 23.31c9.821 19.558 8.94 31.471 10.698 37.07 1.699 5.41 6.162 11.281 9.891 8.976M97.946 23.09c9.936 19.688 8.913 31.65 10.195 37.403 1.036 4.652 4.921 11.879 9.514 9.223M95.918 22.868c10.045 19.826 7.901 32.46 9.749 38.076 1.595 4.846 5.02 10.447 8.721 9.194M93.89 22.647c10.173 19.952 7.717 32.157 8.689 38.015.852 5.128 4.609 9.864 8.708 8.982m-19.348-47.07c10.215 19.996 6.704 32.356 8.055 38.144.883 3.782 3.585 8.815 7.348 8.469M90.023 22.575c10.215 19.995 5.134 33.359 7.33 38.876 1.91 4.8 4.4 6.5 6.625 6.703M54.535 21.333c-.71 2.563-2.181 8.003-2.181 8.982 0 1.29 1.277 5.16 1.277 7.095m0 0c0 1.935 1.277 9.03 2.554 12.255s5.746 11.61 6.384 12.9c.639 1.29 1.253 5.103 3.168 5.749s6.41 2.636 8.325 1.346 2.553-1.935 3.83-1.935 3.831.645 5.746 0 10.854-1.935 11.493-3.87c.559-1.704 1.277-2.58 1.58-4.878M53.631 37.41s2.237 1.935 4.753 1.935 4.185-1.29 6.74-2.58m0-5.16c-6.385-4.515-7.662-2.58-12.132-.645 3.613-2.655 8.3-1.29 12.131.645m0 0c.716.36.926 2.725.638 3.87-.315 1.25-1.916 6.45-1.916 7.74s-1.14 6.732-1.14 7.377c0 1.29 2.417 2.298 4.332 2.298m4.47-5.16c2.657.22 4.837 5.042-1.19 4.046-3.833-.633-1.364-1.466 2.467-.176m-7.662 5.16-1.277.645-.638-1.29zm0 0c.638 0 1.277-.645 1.915-.645s1.916 1.29 2.554 1.29c.639 0 1.916-1.29 2.554-1.29.639 0 2.554 1.29 4.47 1.29m-4.47 3.225c-1.279 1.397-5.108 1.935-5.108-1.29m22.985-22.575c-4.47.645-10.215-3.87-15.323-3.87m10.215 3.225c.639 1.935-7.023 3.225-8.938 1.935s-2.554-.645-2.554-.645m-8.418-.61c-2.554 0-6.682-2.942-8.938-3.226s-2.554 1.29-2.554 1.29m-.232-13.422c-4.35 7.13-2.113 15.376-2.204 23.063m0 0c-.112 2.1-1.916 1.29-2.554.645m2.554-.645c0-2.58-5.108-4.515-5.108.645 0 5.424 9.873 6.676 8.189-3.496m-2.443 7.366c0 5.805-2.554 9.03-4.469 5.805m8.523-6.105c.014 11.376-12.106 13.78-11.077 5.46.639-5.16 6.385-2.58 6.302-.429m6.505-.936c-.509 6.416-5.584 9.4-9.614 7.815-2.383-.937-2.735-2.318-2.698-3.152M59.2 56.144c-1.044 5.512-8.484 8.894-11.955 4.486m13.158-2.196c-1.179 5.25-5.702 7.58-9.364 6.14-1.197-.488-2.296-1.472-2.489-2.79m12.935-1.316c-1.421 4.723-5.685 6.767-9.17 5.397-1.286-.506-1.98-1.142-2.342-1.75m12.668-1.337c-.785 4.791-10.223 7.343-11.625 2.44m-2.514-48.993 4.375-.099q3.94-.09 7.897-.108c18.467-.081 37.214 1.098 56.362 4.71l3.272.617M140.522 0 116.2 25.8c-21.434-4.043-42.422-4.987-63.208-4.515L33.062 0m72.625 73.753c-12.274 6.404-24.214 8.877-35.067 7.232-11.759-1.782-22.017-8.498-29.46-19.38l-.463-.678M166 77.722c0-.598-.706-1.172-1.964-1.596-1.257-.423-2.962-.661-4.74-.661s-3.483.238-4.74.661-1.964.998-1.964 1.596c0 .6.707 1.173 1.964 1.597s2.962.66 4.74.66 3.483-.237 4.74-.66S166 78.32 166 77.722m0 8.708c0-.599-.706-1.173-1.964-1.596-1.257-.424-2.962-.662-4.74-.662s-3.483.238-4.74.662c-1.257.423-1.964.997-1.964 1.596s.707 1.173 1.964 1.596 2.962.661 4.74.661 3.483-.237 4.74-.66S166 87.028 166 86.43M89.385 32.25c-4.895-2.112-8.452-6.87-17.239-1.29l.639.645c4.612-4.555 10.53-2.351 16.6.645M77.254 56.76v1.935l-1.277-1.29z"/><path stroke="currentColor" stroke-linecap="round" stroke-linejoin="round" stroke-width=".5" d="M155.146 76.11c.601 1.126.663 2.206 0 3.225m-.474.888c.601 1.126.663 2.206 0 3.225m0 1.29c.601 1.126.663 2.206 0 3.225m0 .645c.601 1.126.663 2.206 0 3.225M149.4 65.79c0 3.225-1.277 3.87-1.277 3.87m11.374 7.418c.144.332.171.744 0 1.29m0 2.97c.144.332.171.744 0 1.29m0 3.157c.144.333.171.745 0 1.29m0 3.225c.144.333.171.745 0 1.29m0-1.785c.144.332.171.744 0 1.29M73.423 64.5c-3.192-1.29-5.108-1.29-6.384-.645m8.938-30.96c3.83-2.58 7.783-.94 11.492 1.935m-21.707.645c-3.128-3.907-6.497-4.639-8.939-3.225m20.745 1.11c-.74.517-1.23 1.416-1.23 2.438 0 1.602 1.205 2.902 2.692 2.902s2.693-1.3 2.693-2.903c0-.423-.084-.826-.236-1.189m-24.424-.844c-.891.439-1.517 1.473-1.517 2.678 0 1.603 1.106 2.903 2.47 2.903s2.471-1.3 2.471-2.902a3.3 3.3 0 0 0-.288-1.363m-.822 5.855c-1.442.512-3.333-.047-3.457-.3m43.94 25.132c-5.053 3.036-11.049 5.84-16.86 5.828m15.915-7.319c-5.121 3.113-11.253 6.041-17.192 6.029"/></svg>
