<svg xmlns="http://www.w3.org/2000/svg" fill="none" viewBox="0 0 166 258"><path fill="#000" d="M76.615 57.405c-5.107 0-10.853-4.515-10.853-4.515v-1.935c5.107 1.935 3.83 5.805 10.853 6.45M67.038 27.09l-.638 1.935s5.746-.645 7.023-.645c3.83 0 7.662 5.805 12.13 5.805-4.468 0-8.3-7.095-12.167-7.245-1.276-.05-1.738 1.215-4.292 1.215-.602 0-2.056-1.065-2.056-1.065m6.343 9.425c0 .345-.038.687-.11 1.006a3.3 3.3 0 0 1-.311.853 1.8 1.8 0 0 1-.466.57.9.9 0 0 1-.55.2.9.9 0 0 1-.55-.2 1.8 1.8 0 0 1-.466-.57 3.3 3.3 0 0 1-.311-.853 4.6 4.6 0 0 1-.11-1.006c0-.697.152-1.366.421-1.86.27-.493.635-.77 1.016-.77s.746.277 1.016.77c.27.494.42 1.163.42 1.86M62.442 73.878l17.065.493c2.549.068 6.683-.716 9.32-4.947 1.126 1.503 2.796 2.158 4.58 2.189l-.139.627-2.353 2.098c-9.495 8.464-14.792 10.31-26.17 13.175-.746-4.607-1.53-9.133-2.303-13.635m39.711 4.167c0 2.992-2.401 5.418-5.363 5.418-3.81.082-4.495-5.168-6.307-3.689a5.43 5.43 0 0 1 2.731 4.721c0 2.992-2.4 5.418-5.363 5.418-2.672 0-4.936-1.987-5.31-4.66q-.34.19-.683.372a5.44 5.44 0 0 1 1.78 4.03c0 2.992-2.402 5.418-5.364 5.418-2.282 0-4.23-1.441-5.005-3.471q.151.625.153 1.278c0 2.992-2.401 5.418-5.363 5.418a5.3 5.3 0 0 1-1.926-.361l.283 2.495c12.292-3.114 20.974-6.141 31.641-15.292h18.183c-20.02 38.349-13.779 68.223-8.785 98.718 3.907.049 6.611 1.315 6.708 5.219l12.17-4.227c-9.491-25.358-17.751-46.202-11.267-72.363l-.08.001c-2.962 0-5.363-2.426-5.363-5.418s2.401-5.418 5.363-5.418c1.124 0 2.22.357 3.132 1.02l.198-.528c-2.755-.261-4.862-2.597-4.862-5.394 0-2.992 2.401-5.418 5.363-5.418 1.326 0 2.605.497 3.591 1.394l.196-.4c-2.377-.61-4.043-2.772-4.043-5.251 0-2.992 2.401-5.418 5.363-5.418 1.362 0 2.673.524 3.667 1.464l.107-.181.243-.412c-2.173-.747-3.634-2.81-3.634-5.128 0-.435.052-.868.155-1.29h-.437c.103.422.155.855.155 1.29 0 2.992-2.401 5.418-5.363 5.418s-5.363-2.426-5.363-5.418c0-.435.051-.868.154-1.29h-.756c.103.422.155.855.155 1.29 0 2.992-2.401 5.418-5.363 5.418s-5.364-2.426-5.364-5.418c0-.435.052-.868.155-1.29-1.175-.156-.289.963-.282 1.935m22.359-1.935 7.096.213.126-.213zm3.018 22.304c12.077 7.792 17.48 15.578 21.184 28.578l2.396-1.501c-2.919-4.203.687-5.674 3.742-6.666-3.124.652-6.044 1.95-7.368-.79-1.384-2.862 1.391-4.593 4.154-6.204-2.981 1.146-6.383 2.542-7.985-.246-1.617-2.814 1.618-4.523 4.165-6.463-2.82 1.506-6.057 3.945-7.691 1.62-1.582-2.252.261-4.764 2.247-7.286-2.358 2.171-4.539 4.612-7.021 2.454-2.643-2.102-.626-4.509 1.277-7.095-2.287 2.247-4.179 4.345-6.795 2.572-2.351-1.594 1.823-4.2 1.239-6.086m29.123 29.527c-4.657-14.43-12.804-24.945-26.7-33.843l-1.009 1.75c.603 1.015 1.465 2.347-1.065 5.075-1.166 1.257-.343 3.12 1.376 1.005 2.554-4.515 4.469-1.935 5.762-2.707-.343 1.268 2.581 2.657-1.289 6.086-1.281 1.136-.642 3.071 1.273 1.136 2.698-4.428 4.529-1.787 5.846-2.516-.384 1.256 2.494 2.74-1.484 6.041-1.317 1.093-.741 3.048 1.235 1.177 3.71-3.605 4.828-.585 6.284-.958-.683 1.119 1.735 3.284-2.934 5.474-1.546.725-1.473 2.763.767 1.599 3.981-2.972 4.725.164 6.215-.027-.813 1.026 1.325 3.473-3.573 5.07-1.622.529-1.796 2.561.722 1.553 4.557-2.418 4.797.798 6.299.85-.965.882.76 3.642-4.328 4.43-1.685.261-2.177 2.239.468 1.649zm-14.277 8.024-.229-.809c-3.528-12.477-8.087-19.295-19.459-26.654l-1.871 4.884c9.986 6.497 13.169 11.696 16.419 23.188l.765 2.704"/><path fill="#000" d="m138.483 72.24-7.495 12.683c-23.922 40.48-12.487 64.203-1.112 98.428l2.948-1.325-7.376-22.641c8.23-20.131 22.888-30.426 40.552-37.552v-3.461c-17.624 6.94-32.987 17.137-42.033 36.428l.102.35-.182-.557c-1.722-6.224-2.994-12.272-3.511-18.385-1.237-14.638 1.647-29.824 13.353-49.632l7.495-12.683-3.803 6.44c13.854 8.9 23.105 19.945 28.579 33.963v-29.94c-6.654-5.061-16.686-10.382-24.004-11.741l-.008.014zm-110.39 8.385c-4.884 2.176-6.478 5.137-6.409 8.495-1.697-.045-3.516.62-5.57 2.656.376-1.277.437-2.665.486-4.056-4.892 2.18-6.484 5.148-6.408 8.513-1.168.095-2.399.552-3.727 1.575.44-1.34.506-2.809.558-4.283-4.92 2.193-6.502 5.182-6.406 8.572q-.306.04-.617.117v1.735c.824-.107 1.664-.123 2.842-.076-1.155.338-1.969.576-2.842.748v1.802c1.94 0 4.099-.789 6.563-2.689-1.464-.747-2.93-1.476-4.493-1.649 1.684-.657 2.783-1.517 3.504-2.51 2.837 1.579 6.122 1.53 10.277-1.674-1.38-.704-2.762-1.391-4.224-1.613 2.532-.982 3.745-2.423 4.343-4.078 2.941 1.846 6.355 1.973 10.735-1.404-1.243-.634-2.488-1.256-3.792-1.535 2.235-.822 3.486-1.987 4.194-3.34 2.877 1.679 6.212 1.695 10.452-1.575-3.036-1.549-6.085-3.025-9.974.394.394-1.296.457-2.709.507-4.125m-1.916 3.225c-1.187 2.398-1.842 3.144-3.977 5.306l-.18-.018c1.67-2.761 2.355-3.467 4.157-5.288m6.676.62q.453.003.986.025c-2.446.716-3.39.981-6.58 1.126q.037-.084.072-.17c2.506-.73 3.571-.994 5.522-.981m-10.854 6.45c.303.002.629.01.986.025-2.546.745-3.449 1.003-6.97 1.144l.019-.06c2.84-.83 3.901-1.123 5.965-1.109m-7.314.025c-1.18 2.384-1.835 3.135-3.94 5.268l-.206.002c1.661-2.746 2.347-3.453 4.146-5.27M5.108 96.75c-1.186 2.396-1.841 3.143-3.972 5.301q-.1.005-.2.013c1.68-2.783 2.364-3.487 4.172-5.314m6.037 1.265q.453.003.986.025c-2.368.693-3.323.964-6.275 1.112a6 6 0 0 0 .153-.269c2.244-.647 3.284-.88 5.136-.868m55.648 6.475.588 13.545h33.282l3.39-13.545zm59.723 9.271-.295 1.221c-1.779 7.381-2.086 14.143-1.519 20.853.128 1.507.309 3.017.532 4.532l.271 1.833 1.1-1.483a69 69 0 0 1 8.937-9.884l.356-.325-.133-.465c-2.199-7.67-3.864-11.648-8.302-15.467zm.91 2.888c3.373 3.242 4.804 6.705 6.733 13.375a71 71 0 0 0-7.649 8.316 68 68 0 0 1-.281-2.636c-.522-6.176-.274-12.354 1.197-19.055"/><path stroke="#000" stroke-linecap="round" stroke-linejoin="round" d="M153.869 33.693v12.595m-1.915-13.763v14.93m-1.915-2.265v3.87m0-11.598v5.056m0-11.597v3.869m-1.916 12.73v3.61m0-12.642v3.004m0-12.642v3.61m-1.915 6.998v1.064m-79.79 59.91c12.291-3.114 20.974-6.141 31.64-15.292h18.183c-20.02 38.349-13.779 68.223-8.785 98.718m-40.32-79.618c12.109-3.059 21.592-6.357 32.315-15.23h10.6c-16.836 36.365-11.464 66.174-6.521 94.95m22.805.89c-12.784-34.152-23.334-60.119 1.364-101.91l4.036-6.83H94.718l-1.267 1.13c-10.005 8.918-16.325 11.142-28.11 14.154m64.535 91.957c-11.375-34.225-22.81-57.948 1.112-98.428l7.495-12.683m0 0H93.27l-2.354 2.098c-9.495 8.464-14.792 10.31-26.135 13.208m73.702-15.306c7.477 0 19.799 6.243 27.532 12.126M54.435 0c4.656 7.974 8.742 15.84 10.688 24.509 28.093-6.45 37.031 17.415 62.569 9.675-.785-13.894 7.167-25.523 14.298-34.187M78.5.004c2.136 5.338 7.144 6.404 7.097 11.614-.052 5.804-7.786 5.705-7.704-.1.056-3.922 4.457-3.812 4.403.057-.028 1.935-2.78 1.9-2.752-.035M76.5.006c-2.292 5.257-7.311 6.2-7.412 11.399-.112 5.804 7.622 5.903 7.704.1.056-3.924-4.347-3.927-4.402-.058-.027 1.935 2.724 1.97 2.751.036m41.659 5.276c-.225 1.92 2.865 2.312 3.09.391.45-3.841-4.489-4.52-4.944-.626-.674 5.762 8.012 6.862 8.653 1.096.71-6.4-7.904-7.498-7.399-17.18-1.741 9.525-10.358 8.442-11.143 14.832-.708 5.757 7.978 6.857 8.653 1.095.455-3.894-4.496-4.467-4.945-.626-.225 1.92 2.866 2.312 3.09.392m-49.045.483C90.662 12.9 112.369 25.8 129.685 20.2m-2.579.687c.894-1.568 1.513-3.388 1.863-5.408a41 41 0 0 0 2.963-.448m-10.434 6.56c2.454-1.74 3.944-4.793 4.074-9.7 3.885-.2 6.703-.729 8.913-1.445M59.571 9.192c1.206.676 2.471 1.197 3.82 1.466.509 1.484 1.079 3.225 2.198 5.127q.146.248.307.494m4.67-.297c-2.733-2.428-3.081-5.822-4.584-9.002-3.196.282-6.965-2.444-10.668-5.907m33.918 16.174c1.242-1.666 2.237-3.635 2.885-5.892a11.1 11.1 0 0 0 3.66-2.142 11.3 11.3 0 0 0 3.04 2.995c.1 2.569.682 4.908 1.626 6.965M96.675.007C95.4 4.25 93.62 7.838 89.013 8.087c-.591 3.936-2.093 6.668-4.22 8.573m20.494 3.383c-2.023-2.5-3.091-5.77-2.683-10.225-4.427-1.403-5.288-5.356-5.51-9.812M.017 94.593c20.526-13.692 34.965-20.14 51.813-26.021m83.627 15.09c14.441 9.258 23.319 20.584 28.274 35.637m-30.232-32.314c13.896 8.898 22.043 19.413 26.7 33.843m5.811-6.509c-5.472-14.029-14.726-25.08-28.59-33.978m-9.888 18.073c12.077 7.792 17.481 15.578 21.184 28.578m-22.482-25.603c11.372 7.359 15.931 14.177 19.46 26.654l.228.809m-21.558-22.579c9.986 6.497 13.168 11.696 16.418 23.188l.765 2.704m-8.06 33.16.426-1.267c6.566-16.85 17.283-25.328 32.082-31.767m-18.625 26.114c4.572-7.251 10.461-11.713 18.619-15.579m-23.818 18.351c5.461-10.919 13.003-16.908 23.817-21.872m-28.351 24.084c6.089-14.368 15.253-21.746 28.348-27.593M123.967 154.8c9.046-19.29 24.405-29.49 42.028-36.43m-40.634 41.227c8.213-20.272 22.912-30.613 40.638-37.764m-38.016 45.885c13.803-5.723 26.749-12.605 38.02-21.749m-42.115 8.624c-1.723-6.224-2.995-12.272-3.511-18.385-1.238-14.638 1.647-29.824 13.352-49.632l7.495-12.683.906-1.249m-9.344 109.324c-2.511-7.723-5.365-15.647-7.457-22.441M66.793 104.49h37.26m-36.672 13.545h33.283m-33.337 3.225h32.778m42.03 33.573 2.647 1.735m1.102-6.739 2.363 2.068m1.003-5.537 2.102 2.302m2.415-6.001 1.8 2.555m2.262-5.216 1.576 2.717m3.864-5.642 1.351 2.872m-24.75 18.787 2.786 1.494m13.129-82.33V20.64L166 10.32m-5.108 70.53V22.778l5.108-5.16m-10.218 27.877c-5.297 1.72-9.372 6.838-12.767 13.846m0 0c-.183-5.207-1.06-10.59 2.554-14.835-2.051-1.098-3.917-1.22-6.384-4.515 2.467-3.294 4.333-3.417 6.384-4.515-3.614-4.246-2.737-9.628-2.554-14.835m0 38.7c-6.607-11.508-10.247-23.642 0-38.7m0 0c3.395 7.008 7.47 12.125 12.767 13.846m-9.153 18.59q.01-.62.057-1.19c.168-2.033.602-3.465 1.788-4.858l3.128-3.674-4.239-2.269c-1.103-.59-1.791-.842-2.389-1.095.598-.253 1.286-.505 2.389-1.095l4.239-2.269-3.128-3.674c-1.186-1.393-1.62-2.825-1.788-4.857a18 18 0 0 1-.057-1.19M90.478 79.771a5.4 5.4 0 0 1 2.003 1.987 5.46 5.46 0 0 1-.836 6.568 5.34 5.34 0 0 1-3.793 1.587 5.33 5.33 0 0 1-3.52-1.331 5.43 5.43 0 0 1-1.791-3.34m5.06-3.25q.125-.012.251-.012c.66 0 1.294.265 1.761.736a2.53 2.53 0 0 1 .73 1.78c0 .666-.263 1.306-.73 1.778s-1.1.737-1.76.737a2.48 2.48 0 0 1-1.761-.737 2.53 2.53 0 0 1-.463-2.912M101.8 76.11a5.47 5.47 0 0 1-1.217 5.766 5.34 5.34 0 0 1-3.792 1.587c-1.27 0-2.5-.456-3.47-1.286A5.43 5.43 0 0 1 91.5 78.93m6.881-2.82c.282.235.508.531.664.866a2.54 2.54 0 0 1-.493 2.848c-.467.472-1.1.737-1.761.737s-1.294-.266-1.76-.737a2.53 2.53 0 0 1-.494-2.849c.156-.335.383-.63.665-.867m17.651 0a5.45 5.45 0 0 1-1.416 5.123 5.34 5.34 0 0 1-3.792 1.587 5.34 5.34 0 0 1-3.793-1.587 5.45 5.45 0 0 1-1.416-5.122m7.345 0a2.53 2.53 0 0 1-.376 3.07 2.48 2.48 0 0 1-1.76.737 2.48 2.48 0 0 1-1.761-.737 2.536 2.536 0 0 1-.376-3.07m18.518 0a5.45 5.45 0 0 1-1.416 5.122 5.34 5.34 0 0 1-3.792 1.587 5.34 5.34 0 0 1-3.793-1.587 5.45 5.45 0 0 1-1.416-5.122m7.346 0a2.536 2.536 0 0 1-.377 3.07 2.48 2.48 0 0 1-1.76.737 2.48 2.48 0 0 1-1.761-.737 2.536 2.536 0 0 1-.376-3.07m11.262 6.42a5.36 5.36 0 0 1-2.632-1.975 5.45 5.45 0 0 1-.848-4.445m5.028 3.8a2.48 2.48 0 0 1-1.643-.796 2.53 2.53 0 0 1-.313-3.004m-4.913 16.222a5.36 5.36 0 0 1-2.925-1.923 5.46 5.46 0 0 1 .436-7.164 5.34 5.34 0 0 1 3.792-1.587c1.364 0 2.676.525 3.67 1.467m-3.586 6.465-.084.002c-.66 0-1.293-.265-1.76-.737a2.53 2.53 0 0 1 0-3.558 2.48 2.48 0 0 1 2.994-.406 2.5 2.5 0 0 1 .91.905m-7.741 16.35a5.34 5.34 0 0 1-3.472-1.743 5.45 5.45 0 0 1-1.401-3.652c0-1.437.565-2.815 1.57-3.831a5.34 5.34 0 0 1 3.793-1.587 5.33 5.33 0 0 1 3.604 1.406m-2.906 6.427a2.47 2.47 0 0 1-2.459-.636 2.53 2.53 0 0 1-.729-1.779c0-.667.262-1.307.729-1.779a2.48 2.48 0 0 1 3.076-.357c.395.248.713.603.919 1.025m-5.971 16.848-.094.001a5.34 5.34 0 0 1-3.792-1.587 5.45 5.45 0 0 1-1.571-3.831c0-1.437.565-2.815 1.571-3.831a5.34 5.34 0 0 1 3.792-1.587 5.33 5.33 0 0 1 3.146 1.03m-2.224 6.725a2.47 2.47 0 0 1-2.683-.558 2.53 2.53 0 0 1-.729-1.779c0-.667.262-1.307.729-1.779a2.47 2.47 0 0 1 2.941-.436c.363.197.672.483.899.83m-35.21-20.063a5.4 5.4 0 0 1 1.317 1.825 5.47 5.47 0 0 1-1.105 6.04 5.34 5.34 0 0 1-3.793 1.586 5.34 5.34 0 0 1-3.792-1.587 5.45 5.45 0 0 1-1.557-4.211m5.723-2.107c.589.09 1.126.39 1.514.847a2.53 2.53 0 0 1-.935 3.964 2.47 2.47 0 0 1-2.713-.545 2.53 2.53 0 0 1-.198-3.332m-4.08 1.379a5.45 5.45 0 0 1 1.186 3.4 5.45 5.45 0 0 1-1.57 3.83 5.32 5.32 0 0 1-5.718 1.225m2.664-7.458c.508.16.951.479 1.266.91a2.53 2.53 0 0 1-.244 3.27c-.467.472-1.1.738-1.76.738a2.48 2.48 0 0 1-1.762-.737 2.53 2.53 0 0 1-.729-1.779c0-.643.244-1.262.682-1.73m35.284-59.363c-6.842 16.951.618 22.678.618 32.713 0 7.095-14.685 11.61-14.685 0 0-7.095 9.577-7.095 9.577-1.29m0 0c0 4.515-8.014 5.79-7.661 1.29m7.661-1.29c0-10.32-6.613-14.794 1.277-32.895M89.385 64.5c.39-4.968 6.063-2.497 4.469-.645m-4.47.645c-.638 6.45 10.278 6.036 10.278-1.06 0-10.177-7.114-14.893.26-32.385m3.253 1.43c-6.36 16.413.894 22.12.894 32.015 0 3.976-4.612 7.142-8.666 7.114m9.439-38.474c-5.919 15.912 1.143 21.597 1.143 31.36 0 3.976-4.612 7.142-8.667 7.114m9.219-37.87C101.018 49.197 107.9 54.862 107.9 64.5c0 3.976-4.612 7.142-8.667 7.114m9.018-37.295c-5.147 15.02 1.564 20.663 1.564 30.181 0 3.976-4.612 7.142-8.666 7.114m8.853-36.807c-4.837 14.656 1.729 20.279 1.729 29.693 0 3.976-4.612 7.142-8.667 7.114M111.79 35.2c-4.592 14.365 1.856 19.97 1.856 29.3 0 3.976-4.612 7.142-8.666 7.114m8.633-36.12c-4.412 14.147 1.949 19.74 1.949 29.006 0 3.976-4.612 7.142-8.667 7.114m8.575-35.933c-4.297 14.01 2.007 19.594 2.007 28.82 0 3.975-4.612 7.141-8.667 7.113m8.552-35.857c-4.251 13.954 2.03 19.535 2.03 28.743 0 3.976-4.612 7.142-8.666 7.114m8.564-35.896c-4.275 13.983 2.018 19.565 2.018 28.782 0 3.976-4.612 7.142-8.667 7.114m8.614-36.057c-4.373 14.101 1.968 19.691 1.968 28.943 0 3.976-4.612 7.142-8.667 7.114m8.704-36.345c-4.549 14.314 1.879 19.916 1.879 29.231 0 3.976-4.612 7.142-8.667 7.114m8.839-36.765c-4.81 14.625 1.743 20.246 1.743 29.651 0 3.976-4.612 7.142-8.667 7.114m9.033-37.34c-5.176 15.054 1.549 20.698 1.549 30.226 0 3.976-4.612 7.142-8.666 7.114M66.4 68.728c-6.921 8.48-14.685 6.092-14.685.932s8.3-5.805 8.3-.645c0 3.87-5.746 3.225-5.746.645 0-1.29 0-1.29.639-1.935m8.938 1.218c-3.203 3.457-6.28 4.043-8.614 2.334m13.722-2.62c-2.554 5.16-7.395 5.893-10.14 5.82m12.694-5.605c-2.554 5.16-7.133 5.572-9.877 5.5m12.43-5.357c-2.553 5.16-7.133 5.429-9.876 5.357m12.43-5.572c-2.553 5.16-7.133 5.644-9.876 5.572m12.43-5.787c-2.553 5.16-7.133 5.859-9.877 5.787m12.431-5.93c-2.554 5.16-7.133 6.002-9.877 5.93m12.431-5.859c-2.554 5.16-7.133 5.931-9.877 5.859m12.43-6.002c-2.553 5.16-7.132 6.074-9.876 6.002m11.859-4.968c-2.622 4.25-6.756 5.035-9.305 4.968M66.123 24.359c-.376 1.558-1 4.215-1 4.666 0 .645 1.915 2.58 1.915 3.225s-3.192 3.87-4.469 5.805-3.192 7.74-3.192 9.03-.639 2.58 1.277 2.58 2.554 1.935 2.554 1.935l-1.277 1.935m0 0 1.277 3.225m-1.277-3.225c3.83 1.29 6.01 3.67 8.938 5.805-2.553-1.935-5.107-2.58-7.661-2.58m0 0s-.235 1.764-.639 2.58c-.638 1.29 2.554 1.935 2.554 2.58s-2.61 1.938-2.554 2.58c.5 5.747-3.113 7.255-3.192 6.45m8.938-25.8c1.916 0 1.277 5.16-1.276 3.87-3.831-1.935-5.747.645-1.916-.645m13.408 4.515c.281-.782.943-1.29 1.915-1.29 3.192 0 1.277 5.805-3.83 5.805m0 0c-5.108 0-10.854-4.515-10.854-4.515v-1.935c5.107 1.935 3.83 5.805 10.853 6.45m3.83-19.995c-3.83 0-5.79-3.214-8.3-3.225-1.294-.005-3.83.645-3.83.645m7.772 1.244c1.916 2.58-4.916 3.796-6.496 1.981M30.63 77.028c-.771-1.888-2.159-5.086-3.814-8.013-2.554-4.515-5.747-1.935-4.47.645a47 47 0 0 0 2.554 4.515m-2.517-4.523c-.214-.132-2.71-3.545-6.421-5.152-4.47-1.935-4.245.932-1.277 3.225 1.434 1.109 6.384 8.385 6.384 8.385m-7.661-9.638c-2.554-2.617-5.746-1.972-3.192 1.898m0 0c2.553 3.87 7.022 9.675 7.022 9.675m-7.022-9.675c-1.916-2.58-3.831 0-1.916 2.58 2.423 3.263 5.108 10.32 5.108 10.32m-4.21-8.955c-3.452-3.945-3.571.158-2.294 2.738.638 1.29 2.673 8.152 3.312 9.442l1.366 2.761m120.907 1.48c.603 1.014 1.465 2.346-1.065 5.074-1.166 1.257-.343 3.12 1.376 1.005 2.554-4.515 4.469-1.935 5.762-2.707-.343 1.268 2.581 2.657-1.289 6.087-1.281 1.135-.642 3.07 1.273 1.135 2.699-4.428 4.53-1.787 5.847-2.516-.385 1.256 2.493 2.74-1.485 6.041-1.317 1.093-.741 3.048 1.236 1.177 3.709-3.605 4.827-.585 6.283-.958-.683 1.119 1.735 3.284-2.934 5.474-1.546.725-1.473 2.763.768 1.599 3.98-2.972 4.725.164 6.215-.027-.814 1.027 1.324 3.474-3.574 5.07-1.622.529-1.796 2.561.722 1.553 4.557-2.418 4.798.798 6.299.85-.965.882.76 3.642-4.328 4.43-1.685.261-2.177 2.239.468 1.649m-22.988-32.37c.584 1.885-3.59 4.491-1.238 6.085 2.615 1.773 4.507-.325 6.794-2.572-1.903 2.586-3.92 4.993-1.277 7.095 2.482 2.158 4.663-.283 7.021-2.454-1.986 2.522-3.829 5.034-2.247 7.286 1.634 2.325 4.871-.114 7.691-1.62-2.547 1.94-5.782 3.649-4.165 6.463 1.602 2.788 5.004 1.392 7.985.246-2.762 1.611-5.538 3.342-4.154 6.204 1.324 2.74 4.244 1.442 7.368.79-3.055.992-6.661 2.463-3.742 6.666M67.039 27.09l-.639 1.935s5.746-.645 7.023-.645c3.83 0 7.662 5.805 12.13 5.805-4.468 0-8.3-7.095-12.167-7.245-1.276-.05-1.738 1.215-4.292 1.215-.602 0-2.055-1.065-2.055-1.065"/><path stroke="#000" stroke-linecap="round" stroke-linejoin="round" stroke-width=".5" d="M69.592 34.185c.337-1.23 2.253-3.04 3.563-2.842 2.338.354 4.737 4.777 6.014 4.777m1.277 1.29c-1.277 0-2.554 1.29-2.554 1.29m-3.447-3.633q.07.385.07.8c0 1.78-1 3.224-2.235 3.224s-2.235-1.444-2.235-3.225c0-.57.103-1.108.284-1.573M15.426 64.09c-.476 1.727-.91 1.97-2.066 2.223m-1.042-.717c-.476 1.727-1.447 1.726-2.603 1.98m.527.788c-.476 1.726-.983 1.82-2.325 1.773m.97 1.882c-.643 1.371-1.41 1.352-2.51 1.231m16.857-6.525c.795 2.02 3.581 2.291 3.581 2.291M8.3 76.11c.612.115 1.013-.143 1.277-.645m4.24-4.383c.612.116 1.013-.374 1.277-.876m2.275-1.489c.613.116.85-.342 1.114-.843m-7.797 5.245c.613.115 1.014-.342 1.277-.844"/></svg>