<svg xmlns="http://www.w3.org/2000/svg" width="144" height="240" fill="none"><path stroke="currentColor" stroke-linecap="round" stroke-linejoin="round" d="M133.477 31.342v11.716m-1.662-12.802v13.889m-1.661-2.108v3.6m0-10.788v4.702m0-10.788v3.6m-1.662 11.842v3.358m0-11.76v2.794m0-11.76v3.358m-1.661 6.51v.99m-69.216 55.73C68.278 90.53 75.81 87.712 85.063 79.2h15.773c-17.368 35.673-11.953 63.463-7.621 91.831M58.239 96.967c10.503-2.844 18.73-5.913 28.032-14.167h9.195c-14.605 33.828-9.945 61.558-5.657 88.326m19.782.828c-11.089-31.77-20.24-55.925 1.184-94.8l3.501-6.354H82.165l-1.1 1.05c-8.678 8.297-14.16 10.366-24.383 13.168m55.981 85.541c-9.867-31.837-19.786-53.905.965-91.56L120.13 67.2m0 0H80.909l-2.042 1.951c-8.237 7.874-12.832 9.591-22.671 12.288M120.13 67.2c6.486 0 17.175 5.807 23.883 11.28M47.22 0c4.04 7.418 7.584 14.735 9.272 22.8 24.37-6 32.123 16.2 54.277 9-.681-12.925 6.217-23.743 12.403-31.803M68.096.004c1.853 4.965 6.198 5.957 6.157 10.803-.045 5.4-6.754 5.307-6.683-.092.048-3.65 3.866-3.547 3.819.053-.024 1.8-2.41 1.767-2.387-.033M66.362.005c-1.989 4.89-6.343 5.767-6.43 10.604-.098 5.4 6.612 5.492 6.683.093.048-3.65-3.771-3.653-3.819-.053-.024 1.8 2.363 1.833 2.387.033m36.137 4.908c-.195 1.786 2.486 2.15 2.681.364.39-3.574-3.894-4.206-4.29-.583-.584 5.36 6.952 6.384 7.507 1.02.616-5.953-6.856-6.975-6.418-15.982-1.51 8.86-8.985 7.853-9.667 13.797-.614 5.356 6.922 6.38 7.507 1.02.395-3.623-3.9-4.156-4.29-.583-.195 1.787 2.486 2.15 2.681.364m-42.545.45C78.646 12 97.477 24 112.498 18.792m-2.237.639c.775-1.458 1.312-3.152 1.616-5.03a33 33 0 0 0 2.57-.418m-9.051 6.102c2.128-1.619 3.421-4.458 3.534-9.023 3.37-.186 5.815-.678 7.732-1.344M51.676 8.551c1.046.629 2.144 1.113 3.313 1.364.442 1.38.937 3 1.907 4.769q.128.231.267.459m4.051-.276c-2.371-2.258-2.673-5.416-3.976-8.374-2.773.263-6.043-2.274-9.255-5.495m29.423 15.046c1.077-1.55 1.94-3.382 2.503-5.481a9.5 9.5 0 0 0 3.175-1.993 10.2 10.2 0 0 0 2.636 2.786c.087 2.39.593 4.566 1.411 6.48M83.862.006c-1.105 3.947-2.649 7.286-6.646 7.517-.513 3.661-1.816 6.203-3.66 7.975m17.778 3.147c-1.756-2.326-2.682-5.367-2.328-9.512-3.84-1.305-4.587-4.982-4.78-9.128M.015 87.994C17.82 75.257 30.344 69.258 44.96 63.788m72.544 14.037c12.527 8.612 20.228 19.148 24.527 33.151m-26.225-30.06c12.054 8.278 19.121 18.059 23.161 31.482m5.041-6.055c-4.747-13.05-12.775-23.33-24.801-31.607m-8.578 16.812c10.477 7.248 15.164 14.491 18.377 26.584m-19.503-23.816c9.865 6.845 13.82 13.188 16.881 24.794l.198.752m-18.701-21.003c8.662 6.043 11.423 10.879 14.243 21.57l.663 2.515m-6.992 30.847.369-1.179c5.696-15.674 14.993-23.561 27.831-29.551m-16.157 24.293c3.967-6.745 9.075-10.897 16.151-14.493m-20.661 17.071c4.737-10.157 11.28-15.728 20.661-20.345m-24.594 22.403c5.282-13.366 13.232-20.229 24.591-25.668M107.538 144c7.847-17.944 21.17-27.433 36.457-33.888m-35.248 38.351c7.124-18.858 19.875-28.478 35.252-35.13m-32.977 42.684c11.973-5.323 23.203-11.726 32.98-20.232m-36.533 8.023c-1.495-5.79-2.598-11.416-3.046-17.102-1.073-13.618 1.429-27.744 11.583-46.17l6.502-11.798.785-1.162m-8.105 101.697c-2.178-7.185-4.654-14.556-6.469-20.875M57.941 97.2h32.322m-31.812 12.6h28.872m-28.919 3h28.434m36.459 31.231 2.297 1.613m.956-6.268 2.05 1.924m.87-5.151 1.824 2.141m2.094-5.582 1.562 2.377m1.962-4.853 1.367 2.528m3.352-5.248 1.172 2.671m-21.47 17.477 2.417 1.389m11.388-76.585V19.2L144 9.6m-4.431 65.61V21.188l4.431-4.8m-8.864 25.932c-4.594 1.6-8.129 6.361-11.074 12.88m0 0c-.16-4.843-.92-9.85 2.215-13.8-1.779-1.021-3.398-1.135-5.539-4.2 2.141-3.064 3.76-3.178 5.539-4.2-3.135-3.95-2.375-8.956-2.215-13.8m0 36c-5.732-10.705-8.89-21.992 0-36m0 0c2.945 6.52 6.48 11.28 11.074 12.88m-7.94 17.292q.01-.575.049-1.106c.147-1.891.523-3.223 1.552-4.518l2.713-3.418-3.677-2.111c-.957-.55-1.554-.784-2.072-1.019.518-.235 1.115-.47 2.072-1.019l3.677-2.11-2.713-3.418c-1.029-1.295-1.405-2.627-1.552-4.518a19 19 0 0 1-.049-1.107m-48.71 49.177a4.85 4.85 0 0 1 1.738 1.849c.417.772.638 1.651.638 2.546 0 1.337-.49 2.619-1.363 3.564s-2.056 1.476-3.29 1.476c-1.122 0-2.207-.44-3.054-1.238-.847-.799-1.399-1.902-1.554-3.106m4.39-3.024q.108-.012.218-.012a2.08 2.08 0 0 1 1.528.686c.405.438.632 1.034.632 1.654s-.227 1.216-.632 1.655a2.08 2.08 0 0 1-1.528.685 2.08 2.08 0 0 1-1.527-.685 2.44 2.44 0 0 1-.633-1.655c0-.366.08-.727.232-1.054M88.308 70.8c.203.575.307 1.185.307 1.8 0 1.337-.49 2.619-1.362 3.564s-2.056 1.476-3.29 1.476a4.44 4.44 0 0 1-3.01-1.196c-.84-.772-1.4-1.843-1.58-3.021m5.97-2.624c.244.22.44.495.575.806s.205.651.205.995c0 .62-.228 1.216-.633 1.655a2.08 2.08 0 0 1-1.527.685 2.08 2.08 0 0 1-1.527-.685 2.44 2.44 0 0 1-.633-1.655c0-.344.07-.684.205-.995s.332-.587.577-.806m15.312 0c.089.393.134.796.134 1.201 0 1.337-.49 2.619-1.363 3.564-.872.945-2.056 1.476-3.29 1.476s-2.417-.53-3.29-1.476c-.872-.945-1.362-2.227-1.362-3.564 0-.405.045-.808.134-1.201m6.372 0c.2.363.306.778.306 1.201 0 .62-.227 1.216-.632 1.655a2.08 2.08 0 0 1-1.528.685 2.08 2.08 0 0 1-1.527-.685A2.44 2.44 0 0 1 91.22 72c0-.423.105-.838.306-1.201m16.064 0c.089.393.134.796.134 1.201 0 1.337-.49 2.619-1.363 3.564-.872.945-2.055 1.476-3.289 1.476s-2.417-.53-3.29-1.476c-.872-.945-1.363-2.227-1.363-3.564 0-.405.045-.808.135-1.201m6.371 0c.201.363.307.778.307 1.201 0 .62-.228 1.216-.633 1.655a2.08 2.08 0 0 1-1.527.685 2.08 2.08 0 0 1-1.528-.685 2.44 2.44 0 0 1-.632-1.655c0-.423.106-.838.306-1.201m9.769 5.972a4.7 4.7 0 0 1-2.283-1.837 5.33 5.33 0 0 1-.869-2.934c0-.405.045-.808.134-1.201m4.362 3.535a2.1 2.1 0 0 1-1.426-.74 2.45 2.45 0 0 1-.578-1.594c0-.423.106-.838.307-1.201m-4.262 15.09c-1.006-.273-1.899-.902-2.537-1.788a5.3 5.3 0 0 1-.985-3.1c0-1.338.49-2.62 1.363-3.565.872-.945 2.056-1.476 3.29-1.476 1.182 0 2.321.488 3.183 1.365m-3.111 6.014-.072.001a2.08 2.08 0 0 1-1.528-.685 2.44 2.44 0 0 1-.632-1.655c0-.62.227-1.216.632-1.654a2.08 2.08 0 0 1 1.528-.686c.375 0 .744.106 1.07.308.326.201.598.491.789.841m-6.715 15.21c-1.155-.115-2.23-.693-3.012-1.622A5.28 5.28 0 0 1 98.418 90c0-1.337.49-2.618 1.363-3.564.873-.945 2.056-1.476 3.29-1.476 1.156 0 2.271.467 3.127 1.308m-2.521 5.978a2 2 0 0 1-.606.094 2.08 2.08 0 0 1-1.528-.685 2.44 2.44 0 0 1-.632-1.655c0-.62.227-1.216.632-1.654a2.08 2.08 0 0 1 1.528-.686c.403 0 .798.123 1.141.353.342.231.618.561.797.953m-5.18 15.673-.081.001c-1.234 0-2.418-.531-3.29-1.476s-1.363-2.227-1.363-3.564.49-2.618 1.363-3.564c.873-.945 2.056-1.476 3.29-1.476.98 0 1.935.335 2.729.958m-1.93 6.256c-.254.11-.525.166-.8.166a2.08 2.08 0 0 1-1.527-.685 2.44 2.44 0 0 1-.632-1.655c0-.62.227-1.216.632-1.654a2.08 2.08 0 0 1 1.528-.686c.357 0 .709.096 1.024.28.314.183.582.449.779.772M71.008 79.648a5 5 0 0 1 1.142 1.698 5.4 5.4 0 0 1 .404 2.054c0 1.337-.49 2.619-1.363 3.564-.872.945-2.056 1.476-3.29 1.476s-2.417-.53-3.29-1.476c-.872-.945-1.362-2.227-1.362-3.564q0-.177.012-.354m4.964-1.96c.511.085.978.364 1.314.789.337.424.523.965.523 1.525 0 .307-.056.612-.165.896a2.4 2.4 0 0 1-.468.759c-.2.217-.439.39-.7.507a2 2 0 0 1-.827.178 2.08 2.08 0 0 1-1.528-.685 2.44 2.44 0 0 1-.632-1.655c0-.524.162-1.032.46-1.444m-3.54 1.282a5.3 5.3 0 0 1 1.03 3.162c0 1.337-.49 2.619-1.362 3.564s-2.056 1.476-3.29 1.476a4.3 4.3 0 0 1-1.67-.336m2.311-6.938c.44.148.825.445 1.098.847s.421.888.421 1.387c0 .62-.228 1.216-.633 1.655a2.08 2.08 0 0 1-1.527.685 2.08 2.08 0 0 1-1.527-.685 2.44 2.44 0 0 1-.633-1.655c0-.598.212-1.174.592-1.609M88.079 29.57c-5.935 15.768.536 21.095.536 30.43 0 6.6-12.738 10.8-12.738 0 0-6.6 8.308-6.6 8.308-1.2m0 0c0 4.2-6.953 5.387-6.647 1.2m6.647-1.2c0-9.6-5.737-13.761 1.107-30.6M77.538 60c.338-4.62 5.26-2.322 3.877-.6m-3.877.6c-.553 6 8.916 5.615 8.916-.985 0-9.468-6.171-13.855.225-30.127m2.822 1.33c-5.517 15.268.776 20.577.776 29.782 0 3.699-4 6.644-7.518 6.618m8.188-35.79c-5.134 14.802.992 20.09.992 29.172 0 3.699-4.001 6.644-7.519 6.618m7.997-35.228C87.63 45.765 93.6 51.034 93.6 60c0 3.699-4 6.644-7.518 6.618m7.822-34.693C89.44 45.898 95.262 51.146 95.262 60c0 3.699-4.001 6.644-7.519 6.618m7.68-34.24c-4.196 13.634 1.5 18.865 1.5 27.622 0 3.699-4 6.644-7.518 6.618m7.57-33.874C92.99 46.107 98.584 51.321 98.584 60c0 3.699-4.001 6.644-7.518 6.618m7.489-33.6c-3.827 13.16 1.69 18.363 1.69 26.982 0 3.699-4 6.644-7.518 6.618m7.439-33.426c-3.728 13.032 1.741 18.227 1.741 26.808 0 3.699-4.001 6.644-7.518 6.618m7.418-33.355c-3.688 12.98 1.761 18.172 1.761 26.737 0 3.699-4 6.644-7.518 6.618m7.429-33.392c-3.708 13.007 1.751 18.2 1.751 26.774 0 3.699-4.001 6.644-7.518 6.618m7.472-33.542c-3.794 13.118 1.707 18.318 1.707 26.924 0 3.699-4 6.644-7.518 6.618m7.55-33.81c-3.946 13.315 1.63 18.527 1.63 27.192 0 3.699-4.001 6.644-7.518 6.618m7.668-34.2c-4.173 13.605 1.511 18.833 1.511 27.582 0 3.699-4 6.644-7.518 6.618m7.836-34.735c-4.49 14.004 1.344 19.254 1.344 28.117 0 3.699-4.001 6.644-7.518 6.618M57.6 63.934c-6.004 7.887-12.738 5.666-12.738.866s7.2-5.4 7.2-.6c0 3.6-4.985 3-4.985.6 0-1.2 0-1.2.554-1.8m7.754 1.133c-2.779 3.216-5.448 3.761-7.473 2.172m11.903-2.438c-2.215 4.8-6.415 5.482-8.795 5.414m11.01-5.214c-2.215 4.8-6.187 5.183-8.567 5.116M64.246 64.2c-2.215 4.8-6.188 5.05-8.568 4.983M66.462 64c-2.216 4.8-6.188 5.25-8.568 5.183M68.677 63.8c-2.215 4.8-6.188 5.45-8.568 5.383m10.783-5.516c-2.215 4.8-6.187 5.583-8.568 5.516m10.784-5.45c-2.216 4.8-6.188 5.517-8.568 5.45M75.323 63.6c-2.215 4.8-6.188 5.65-8.568 5.583m10.288-4.621c-2.275 3.954-5.861 4.684-8.073 4.621M57.36 22.659c-.327 1.45-.868 3.922-.868 4.341 0 .6 1.662 2.4 1.662 3s-2.77 3.6-3.877 5.4c-1.108 1.8-2.77 7.2-2.77 8.4s-.553 2.4 1.108 2.4 2.216 1.8 2.216 1.8l-1.108 1.8m0 0 1.108 3m-1.108-3c3.323 1.2 5.215 3.415 7.754 5.4-2.215-1.8-4.43-2.4-6.646-2.4m0 0s-.204 1.641-.554 2.4c-.554 1.2 2.215 1.8 2.215 2.4s-2.263 1.803-2.215 2.4c.433 5.346-2.701 6.749-2.77 6m7.755-24c1.661 0 1.107 4.8-1.108 3.6-3.323-1.8-4.985.6-1.662-.6m11.631 4.2c.244-.727.818-1.2 1.662-1.2 2.769 0 1.107 5.4-3.323 5.4m0 0c-4.431 0-9.416-4.2-9.416-4.2v-1.8c4.431 1.8 3.323 5.4 9.416 6m3.323-18.6c-3.323 0-5.023-2.99-7.2-3-1.123-.005-3.323.6-3.323.6m6.742 1.157c1.662 2.4-4.264 3.532-5.635 1.843M26.57 71.654c-.669-1.756-1.872-4.73-3.308-7.454-2.216-4.2-4.985-1.8-3.877.6C20.492 67.2 21.6 69 21.6 69m-2.183-4.208c-.186-.122-2.351-3.297-5.57-4.792-3.878-1.8-3.682.867-1.108 3 1.244 1.031 5.538 7.8 5.538 7.8m-6.646-8.965C9.415 59.4 6.646 60 8.86 63.6m0 0c2.216 3.6 6.093 9 6.093 9m-6.092-9C7.2 61.2 5.538 63.6 7.2 66c2.102 3.036 4.43 9.6 4.43 9.6m-3.65-8.33c-2.994-3.67-3.098.147-1.99 2.547.553 1.2 2.319 7.583 2.873 8.783l1.185 2.569m104.883 1.376c.523.944 1.271 2.183-.924 4.72-1.011 1.17-.298 2.902 1.194.935 2.215-4.2 3.877-1.8 4.998-2.518-.298 1.18 2.239 2.471-1.117 5.662-1.112 1.056-.558 2.856 1.104 1.056 2.34-4.12 3.929-1.662 5.071-2.34-.333 1.168 2.163 2.55-1.288 5.62-1.142 1.016-.643 2.834 1.072 1.094 3.218-3.354 4.188-.544 5.451-.891-.593 1.041 1.505 3.055-2.545 5.092-1.341.674-1.278 2.57.665 1.488 3.453-2.765 4.099.152 5.392-.026-.706.955 1.149 3.232-3.1 4.717-1.407.492-1.558 2.382.626 1.444 3.953-2.249 4.162.743 5.464.791-.837.821.659 3.388-3.754 4.121-1.462.243-1.889 2.083.406 1.534m-19.941-30.112c.506 1.754-3.114 4.178-1.075 5.66 2.269 1.65 3.911-.302 5.894-2.392-1.651 2.406-3.4 4.644-1.108 6.6 2.153 2.008 4.046-.263 6.091-2.282-1.723 2.346-3.321 4.682-1.949 6.777 1.417 2.163 4.225-.106 6.672-1.507-2.21 1.805-5.016 3.395-3.614 6.012 1.39 2.594 4.341 1.295 6.928.229-2.397 1.498-4.804 3.109-3.605 5.771 1.149 2.549 3.682 1.341 6.392.735-2.65.923-5.778 2.291-3.246 6.201M58.154 25.2 57.6 27s4.985-.6 6.092-.6c3.323 0 6.646 5.4 10.523 5.4-3.877 0-7.2-6.6-10.555-6.74-1.107-.045-1.508 1.131-3.723 1.131-.522 0-1.783-.99-1.783-.99"/><path fill="currentColor" d="m120.13 67.2-6.502 11.798c-20.751 37.656-10.832 59.724-.965 91.561l2.558-1.232-6.398-21.062c7.138-18.727 19.854-28.303 35.177-34.932v-3.219c-15.289 6.455-28.615 15.941-36.462 33.886l.088.325-.157-.517c-1.495-5.791-2.598-11.417-3.046-17.103-1.073-13.617 1.429-27.743 11.583-46.169l6.502-11.798-3.299 5.99c12.018 8.28 20.043 18.554 24.791 31.594V78.47c-5.773-4.707-14.475-9.657-20.822-10.921l-.008.012zM24.37 75c-4.237 2.024-5.62 4.778-5.56 7.902-1.472-.042-3.05.577-4.831 2.471.326-1.188.378-2.479.421-3.773-4.244 2.028-5.624 4.788-5.559 7.919-1.013.089-2.08.514-3.232 1.466.38-1.246.438-2.614.483-3.985-4.268 2.04-5.64 4.82-5.557 7.974a5 5 0 0 0-.535.108v1.614c.715-.098 1.443-.114 2.466-.07-1.003.315-1.709.535-2.466.696v1.676c1.683 0 3.555-.734 5.693-2.501-1.27-.695-2.542-1.373-3.897-1.534 1.46-.61 2.414-1.412 3.04-2.334 2.46 1.468 5.31 1.422 8.914-1.558-1.196-.655-2.395-1.294-3.664-1.501 2.196-.913 3.249-2.254 3.768-3.793 2.55 1.717 5.512 1.835 9.312-1.306-1.079-.59-2.159-1.168-3.29-1.428 1.939-.765 3.024-1.848 3.638-3.107 2.496 1.562 5.389 1.576 9.067-1.465-2.634-1.441-5.279-2.814-8.652.366.342-1.206.397-2.52.44-3.837m-1.662 3c-1.03 2.23-1.598 2.924-3.45 4.936q-.078-.01-.156-.017c1.448-2.568 2.042-3.225 3.606-4.919m5.79.577c.264.002.546.01.856.023-2.122.666-2.94.913-5.708 1.048l.063-.159c2.173-.678 3.098-.925 4.79-.912m-9.415 6c.264.002.546.01.856.023-2.209.693-2.992.933-6.046 1.064l.016-.055c2.463-.773 3.384-1.045 5.174-1.032m-6.344.023c-1.024 2.218-1.592 2.916-3.418 4.9q-.09 0-.178.002c1.44-2.554 2.035-3.212 3.595-4.902M4.43 90c-1.029 2.229-1.597 2.923-3.445 4.931l-.174.012C2.27 92.354 2.862 91.699 4.43 90m5.237 1.177q.393.003.855.023c-2.054.645-2.882.897-5.443 1.035q.069-.124.132-.25c1.947-.603 2.85-.82 4.456-.808M57.94 97.2l.51 12.6h28.872l2.94-12.6zm51.808 8.625-.256 1.135c-1.543 6.866-1.809 13.156-1.318 19.398.111 1.402.268 2.807.462 4.216l.235 1.705.954-1.379a63 63 0 0 1 7.753-9.195l.308-.302-.115-.432c-1.908-7.136-3.351-10.836-7.202-14.389zm.789 2.685c2.926 3.017 4.167 6.238 5.841 12.443a64 64 0 0 0-6.635 7.736 67 67 0 0 1-.244-2.453c-.453-5.745-.238-11.492 1.038-17.726"/><path fill="currentColor" d="M66.462 53.4c-4.431 0-9.416-4.2-9.416-4.2v-1.8c4.431 1.8 3.323 5.4 9.416 6m-8.308-28.2L57.6 27s4.985-.6 6.092-.6c3.324 0 6.647 5.4 10.524 5.4-3.877 0-7.2-6.6-10.556-6.74-1.107-.045-1.508 1.131-3.723 1.131-.522 0-1.783-.991-1.783-.991m5.502 8.767c0 .322-.033.64-.095.937a3.2 3.2 0 0 1-.27.793 1.6 1.6 0 0 1-.405.53.76.76 0 0 1-.477.187.76.76 0 0 1-.476-.187 1.6 1.6 0 0 1-.405-.53 3.2 3.2 0 0 1-.27-.794 4.6 4.6 0 0 1-.095-.936c0-.648.132-1.27.365-1.73.234-.458.551-.716.882-.716s.647.258.88.717c.234.458.366 1.08.366 1.73m-9.489 34.757 14.804.459c2.211.062 5.797-.667 8.084-4.603.978 1.398 2.426 2.008 3.974 2.036l-.12.584-2.042 1.951c-8.237 7.874-12.832 9.591-22.702 12.256-.646-4.285-1.327-8.496-1.998-12.683M88.615 72.6c0 2.784-2.082 5.04-4.652 5.04-3.305.076-3.9-4.807-5.471-3.431 1.464.892 2.37 2.57 2.37 4.391 0 2.784-2.083 5.04-4.653 5.04-2.318 0-4.282-1.849-4.606-4.334q-.296.175-.593.345c.983.956 1.544 2.319 1.544 3.749 0 2.783-2.083 5.04-4.652 5.04-1.98 0-3.67-1.34-4.342-3.229.087.387.132.786.132 1.189 0 2.783-2.083 5.04-4.652 5.04a4.3 4.3 0 0 1-1.67-.336l.245 2.321C68.278 90.53 75.81 87.712 85.063 79.2h15.773c-17.368 35.673-11.953 63.463-7.621 91.83 3.39.046 5.735 1.224 5.819 4.856l10.557-3.933c-8.233-23.588-15.398-42.979-9.773-67.314l-.07.001c-2.57 0-4.653-2.257-4.653-5.04s2.083-5.04 4.653-5.04c.975 0 1.925.332 2.717.949q.084-.246.172-.491c-2.39-.243-4.218-2.416-4.218-5.018 0-2.784 2.082-5.04 4.652-5.04 1.151 0 2.26.462 3.115 1.297l.17-.373c-2.062-.567-3.507-2.578-3.507-4.884 0-2.784 2.083-5.04 4.653-5.04 1.181 0 2.318.487 3.181 1.362l.092-.17.211-.381c-1.885-.696-3.152-2.614-3.152-4.771 0-.404.045-.807.134-1.2h-.379c.089.393.134.796.134 1.2 0 2.784-2.083 5.04-4.652 5.04s-4.652-2.257-4.652-5.04c0-.404.045-.807.133-1.2h-.655c.089.393.134.796.134 1.2 0 2.784-2.083 5.04-4.652 5.04s-4.653-2.257-4.653-5.04c0-.404.045-.807.134-1.2-1.019-.145-.25.896-.245 1.8m19.397-1.8 6.155.199.109-.199zm2.617 20.748c10.477 7.248 15.164 14.491 18.377 26.584l2.078-1.396c-2.532-3.91.596-5.278 3.246-6.201-2.71.606-5.243 1.814-6.391-.735-1.2-2.662 1.207-4.273 3.604-5.771-2.587 1.066-5.538 2.365-6.928-.229-1.402-2.618 1.404-4.208 3.614-6.012-2.447 1.4-5.255 3.67-6.672 1.507-1.372-2.095.226-4.432 1.949-6.778-2.045 2.02-3.938 4.29-6.091 2.283-2.292-1.956-.543-4.194 1.108-6.6-1.983 2.09-3.625 4.041-5.894 2.392-2.039-1.482 1.581-3.906 1.075-5.66m25.263 27.466c-4.04-13.423-11.107-23.204-23.161-31.482l-.876 1.628c.523.945 1.271 2.184-.924 4.721-1.011 1.169-.297 2.902 1.194.935 2.215-4.2 3.877-1.8 4.998-2.519-.297 1.18 2.239 2.472-1.117 5.663-1.112 1.056-.558 2.856 1.104 1.056 2.34-4.12 3.929-1.662 5.071-2.34-.333 1.168 2.163 2.549-1.287 5.62-1.143 1.016-.644 2.834 1.071 1.094 3.218-3.354 4.188-.544 5.451-.891-.593 1.041 1.505 3.055-2.545 5.092-1.341.674-1.278 2.57.666 1.488 3.452-2.766 4.098.152 5.391-.026-.706.955 1.149 3.231-3.1 4.717-1.407.492-1.558 2.382.626 1.444 3.953-2.249 4.162.743 5.464.791-.837.82.66 3.388-3.754 4.121-1.462.242-1.889 2.083.406 1.534zm-12.385 7.464-.198-.752c-3.061-11.607-7.016-17.949-16.881-24.794l-1.622 4.543c8.662 6.043 11.423 10.879 14.243 21.569l.663 2.516"/><path stroke="currentColor" stroke-linecap="round" stroke-linejoin="round" stroke-width=".5" d="M60.37 31.8c.292-1.144 1.954-2.828 3.09-2.644 2.028.33 4.11 4.444 5.217 4.444m1.108 1.2c-1.108 0-2.216 1.2-2.216 1.2m-2.99-3.38q.06.36.06.744c0 1.657-.868 3-1.938 3s-1.939-1.343-1.939-3c0-.531.09-1.03.246-1.463M13.381 59.618c-.412 1.606-.788 1.832-1.791 2.068m-.905-.667c-.412 1.606-1.255 1.605-2.258 1.842m.458.732c-.413 1.606-.853 1.693-2.017 1.65m.84 1.75c-.557 1.276-1.222 1.258-2.177 1.146m14.624-6.07c.69 1.88 3.107 2.131 3.107 2.131M7.2 70.8c.531.107.88-.133 1.108-.6m3.678-4.077c.531.108.879-.349 1.107-.815m1.975-1.385c.53.107.737-.318.965-.785m-6.763 4.88c.531.107.88-.318 1.108-.785"/></svg>
