<svg xmlns="http://www.w3.org/2000/svg" width="144" height="240" fill="none"><path stroke="currentColor" stroke-linecap="round" stroke-linejoin="round" d="M91.273 112.131c-15.853 3.819-29.504 1.652-41.134-2.639m41.17-1.058c-17.404 4.416-31.765 1.33-44.042-3.915m41.476-22.933-9.645 21.645m-17.794-1.472 9.032-20.269m-24.183 21.424c2.25-3.923 3.586-8.813 3.586-14.114 0-6.55-2.04-12.473-5.325-16.72m-21.001 79.443c2.65-29.388 12.302-33.276 22.742-48.615l-14.73-19.19M1 110.823l70.852-63.21m37.54 26.612 35.521 38.48M109.43 74.228C98.497 81.954 91.277 95.27 91.277 110.4c0 10.073 3.2 19.342 8.565 26.692m26.766-68.89c-24.681 10.242-50.503 14.713-82.176 3.878m25.908 9.358c-7.397-.702-15.076-2.212-23.096-4.685m56.24 2.6a111 111 0 0 1-14.785 2.217m41.092-10.848c-4.623 1.977-9.3 3.766-14.057 5.304m-68.22-6.687c29.288 9.473 53.117 5.543 76.302-3.84m-71.632-.331c25.96 7.623 47.063 4.267 68.115-4.013m-64.946 1.191c23.863 6.492 43.287 3.403 62.977-4.242m-59.768 1.38c21.846 5.435 39.688 2.54 58.063-4.536M85.061 58.63c10.353-.555 20.101-3.093 30.109-6.934m-53.35 4.881c5.799 1.295 11.297 1.978 16.6 2.134m8.16 19.449-11.248 25.242m-10.675-.888 10.814-24.265m7.337.095L71.66 103.363m-3.54-.335 11-24.687m13.165 22.402c-17.781 5.247-31.372 2.096-43.771-3.44m43.096 7.351c-17.762 4.817-31.886 1.524-44.306-3.998M145 85.892 89.286 0m21.615 33.343c2.122 23.007 13.386 36.495 27.045 41.715m-46.365 40.686c-6.535 1.536-12.733 2.094-18.582 1.928m18.371-4.335c-6.479 1.548-12.603 2.109-18.375 1.941m18.462-.734c-6.5 1.539-12.655 2.098-18.46 1.931m18.734.461c-6.581 1.54-12.831 2.1-18.733 1.934m.003 3.458c7.599.216 14.61 1.653 21.013 3.755m-2.094-7.964c-6.642 1.55-12.957 2.115-18.922 1.95m.004-.138c7.228.2 13.942 1.472 20.103 3.36m-20.1 1.431c8.081.234 15.474 1.897 22.192 4.278m-22.194-5.475c7.823.224 15.013 1.764 21.563 3.995m-21.564-6.39c7.402.207 14.257 1.556 20.531 3.543m-1.4-5.376q-2.775.645-5.475 1.073m-.062-.004c2.103.449 4.15.976 6.141 1.568m-56.353-31.76q.061-.668.062-1.374c0-3.314-1.102-6.027-2.22-7.472m7.34 15.6c.95-2.352 1.526-5.127 1.526-8.128 0-4.932-1.57-9.25-3.772-12.096m4.574 23.257c1.574-3.149 2.521-6.992 2.521-11.161 0-5.742-1.804-10.861-4.548-14.408m-21.463 73.837c1.508-13.361 4.648-21.721 8.696-28.282 3.883-6.293 8.322-10.799 12.802-16.95L30.954 88.734m-.013.04L1 115.488m25.986 39.864 2.322-1.641c7.322-5.174 12.123-13.942 12.123-24.11 0-5.662-1.477-10.838-4.06-15.256m-7.984 43.609 1.736-1.227c8.226-5.812 13.63-15.717 13.63-27.126 0-6.743-1.877-12.916-5.12-18.082m-5.443 51.637.564-.399C44.784 155.669 51.4 143.49 51.4 129.6c0-8.923-2.726-17.123-7.339-23.744m-18.85 33.331c1.839-.118 3.568-1.053 4.834-2.613s1.97-3.626 1.97-5.774c0-2.115-.684-4.153-1.915-5.705m-6.491-34.501c-.326-1.867-1.482-7.494-3.778-8.994-2.863-1.87-3.846-1.4-6.872-3.682-3.498-2.638-6.772.022-2.215 3 3.82 2.497 3.548 1.882 5.21 2.482-1.662 4.2-1.108 7.2 1.107 8.4M8.564 78.525c-4.38-1.565-6.535.654-.566 2.884 3.13 1.17 4.992 1.51 5.807 1.342M7.336 93.132C6.322 92 5.593 90.919 5.431 90.056m8.835 8.933c-1.63-1.091-3.825-2.785-5.624-4.512m1.433-3.07c-1.529 3.397-3.796 6.156-1.613 12.76m-1.375 1.159c-1.406-3.974-1.41-7.027-.75-9.46.517-1.907 1.333-3.371 1.99-4.722m8.18-28.743c1.662-6.6 9.416 1.8 3.324 3.6m-3.323-3.6c-1.662-6.6-9.416 1.8-3.323 3.6m3.323-3.6V57m3.323 9c6.092 1.8-1.662 10.2-3.323 3.6M19.83 66h4.984m-8.307 3.6c-1.662 6.6-9.416-1.8-3.323-3.6m3.323 3.6V75m-3.323-9H8.2m11.35-5.961c4.02-8.852-10.105-8.852-6.085 0m-2.46 2.665c-8.17-4.355-8.17 10.947 0 6.592m2.46 2.665c-4.02 8.852 10.105 8.852 6.085 0m2.46-2.665c8.171 4.355 8.171-10.947 0-6.592m-6.774 1.918L13.738 63m1.498 4.377L13.738 69m4.041-4.377L19.277 63m-1.497 4.378L19.277 69m-3.894 9.43-.434.784m-1.316-1.823-.4.72m5.545 2.855c3.514-2.196 7.38-3.158 11.576-2.966m-11.588 2.96c5.078-4.835 10.183-8.282 15.465-2.36-4.395.595-6.065 5.322-15.278 2.472M9.862 76.8c-1.85-2.78-3.933-4.976-7.2-4.2.406 2.682 2.848 4.117 5.538 5.4M71.786.022C58.14 20.33 45.82 33.54 44.419 72.086m29.435-69.03C60.745 22.41 49.761 34.324 47.886 68.985m10.817-9.661c1.753-14.381 5.445-23.138 10.666-31.585 1.416 5.861 6.954 1.661 8.616 1.661-1.662-.6-5.253-5.11-8.862-2.4m.61 6.875q-.592 1.095-1.143 2.215c-2.693 5.47-4.75 11.553-6.062 19.83M145 70.338 99.375 0m-24.55.004C73.403 4.417 68.57 19.554 68.57 21.6c0 2.4 1.108 7.2 1.108 8.4s0 9.6 1.108 14.4C71.892 49.2 77.43 60 80.754 60s7.793-4.151 11.077-3.6c7.852 1.318 15.803-15.192 14.4-15.6 0 0 .592 1.29 1.107 1.2 1.982-.348 3.192-3.82 3.836-6.49m17.171-2.337c2.887.591 5.632.768 7.793-.773 1.627 3.145 5.019 3.444 7.754 4.8-6.798.037-13.346.453-17.076 5.105l1.569-5.105-5.249-.569m8.805 2.082L106.829 0m32.611 37.343q-.243-.102-.487-.214c-1.149-.526-2.354-1.276-3.327-2.441-1.892.82-3.944.826-5.953.541M127.277 25.2c0 1.2.717 1.847 2.215 1.2 2.301-.993-.15-5.357-3.031-3.29-3.156 2.263-.322 9.747 5.274 5.613 4.046-2.99-2.243-11.923 3.296-17.923-6.228 5.085-12.13-3.296-15.691.603-4.074 4.462 1.324 8.882 3.59 6.298 2.473-2.822-1.238-6.316-2.603-3.725-.89 1.688.032 2.4 1.096 2.025m2.531 10.399c-1.888-3.476 2.049-5.782 4.431-8.4-3.008 1.268-6.108 4.066-8.862 1.2m-4.444-6.469c.486-4.76 3.421-8.668 5.931-12.725m-7.285 10.628c.897-4.052 3.228-7.45 5.276-10.644m-9.299 15.93.96-5.72-4.985-.6.554-6-4.904-.59m13.301 20.505L115.646 18l-5.268-1.038m8.652 13.34 1.047-5.102-5.068-1.098m7.908 12.192 1.037-4.494-4.683-1.127M99.154 15.235C90.16 12.83 85.658 6.634 81.67.005m6 .003c1.813 2.799 3.674 5.158 6.14 6.966M85.66.01c2.747 4.373 5.622 8.005 10.272 10.262M83.66.009c3.444 5.615 7.163 10.478 13.993 12.894m-26.948.355C75.42 9.996 78.47 5.142 81.224.004m-5.839.005q-.573.984-1.167 1.898M77.341.015c-1.417 2.514-2.886 4.792-4.644 6.73M79.281.022c-2.167 3.953-4.48 7.538-7.679 10.253M107.338 31.8c-1.107 6.6 1.662 5.4 0 3M77.985 23.4c-3.483-4.497-6.647-2.4-9.416-1.2 2.77-.6 6.646-2.4 9.416 1.8zm0 0c1.107 10.8-2.317 11.473-2.216 18 0 1.2 3.323.6 3.323 2.4m3.877-5.4c2.362.017 5.782 4.134 1.108 4.2-.795.011-1.912-1.244-2.442-1.206-4.277.312.098.634 1.334.606m3.323 5.4.554.6v-1.2zm0 0c-1.107 0-2.769-.6-3.323-.6s-1.661.6-2.215.6-1.108-.6-1.662-.6-2.769.6-3.323.6m0 0-.554.6v-1.2zm7.2 2.4c-.554 1.8-4.43 1.8-4.43 0m18.276-20.4c-3.162 1.202-5.46-3-8.307-3-3.323 0-4.955 3.977-5.539 3.6 1.108-1.2 8.037 5.4 10.523-1.2m12.83 12.182.03-.01m-.199 1.323q.477-.16.955-.326m-7.606 10.915c4.785-1.141 9.555-2.681 14.435-4.543m-4.274-8.553q.879-.327 1.768-.67m-3.179 2.449a149 149 0 0 0 3.55-1.318m-6.185 3.478a138 138 0 0 0 6.472-2.315m-7.168 3.79c2.439-.774 4.906-1.65 7.426-2.616m-8.24 4.115c2.797-.853 5.623-1.84 8.51-2.946m-9.434 4.462c3.202-.932 6.43-2.04 9.73-3.302m-10.774 4.835c3.658-1.01 7.335-2.25 11.097-3.686m-12.313 5.242c4.179-1.08 8.365-2.463 12.647-4.097M65.172 53.6a85 85 0 0 0 10.356 1.366m-4.637-6.48q.69.096 1.374.177m-2.551.863q1.582.235 3.129.406m-4.269.627q2.47.397 4.86.636m-6.025.382c2.281.393 4.508.685 6.69.88m-7.8.138c2.908.53 5.73.9 8.484 1.119m46.893 12.617-1.663-5.588m-7.85-7.941 4.983 15.212m-8.895-13.878 4.144 15.465m-8.593-14.126 3.597 15.588m-7.627-14.566 2.291 15.882m-4.916.983c-.48-5.265-.71-10.802-1.177-16.081m-3.642 16.764-.425-16.09m-4.457 16.561.437-16.106m-5.306 16.341 1.77-15.808m-6.5 15.798 2.977-14.747m-8.021 14.481 5.013-15.798m-9.25 15.381 5.572-15.593m-10.64 14.85 6.581-15.28M58.326 72.296l8.196-14.798M52.35 70.79l10.944-13.919m54.46-12.982c-.171 4.511.196 9.44.749 14.515m-2.425-17.095c-.134 4.391.227 9.167.762 14.078m-2.418-16.632c-.131 3.916.137 8.142.575 12.5m4.575-4.561c-.186 4.485.168 9.39.714 14.445m.942-11.895c-.17 4.378.169 9.15.695 14.069m.96-11.514c-.15 4.168.157 8.69.642 13.352m1.015-10.798c-.13 3.894.135 8.094.568 12.425m1.088-9.86c-.108 3.564.11 7.382.482 11.32m1.194-8.739c-.12 3.164.026 6.535.314 10.016m1.365-7.43c-.124 2.71-.046 5.575.154 8.537m1.501-5.99c-.097 2.256-.056 4.618.078 7.053m1.961-3.91a72 72 0 0 0 .047 5.111m1.611-2.554a67 67 0 0 0-.002 3.382m-22.136-37.507c-.104 2.91.013 5.991.259 9.173m-80.643 75.741 3.442-2.725a2.1 2.1 0 0 1 1.232-.48c.982-.048 1.876.61 2.196 1.617s-.012 2.122-.814 2.738l-7.177 4.786 6.602-3.305a2 2 0 0 1 .655-.109c1.107-.002 2.047.881 2.2 2.07.152 1.188-.529 2.316-1.595 2.641l-7.131 1.761 6.775-.557c1.231.08 2.165 1.234 2.077 2.567-.087 1.332-1.163 2.331-2.392 2.221l-6.705-1.276 6.789 1.918c1.144.506 1.685 1.929 1.202 3.161-.484 1.233-1.804 1.798-2.935 1.257l-6.335-3.403 6.434 5.108c.893.924.917 2.46.053 3.416-.865.955-2.283.961-3.154.012l-5.336-6.499 5.187 8.871c.533 1.208.05 2.655-1.072 3.215-1.123.561-2.452.017-2.953-1.207l-3.244-9.922 2.789 12.573c.162 1.329-.71 2.544-1.939 2.7-1.228.156-2.336-.807-2.462-2.14l-.7-6.466M4.32 130.973c1.109-8.4 6.093-5.4 4.986-1.2 3.877-1.2 6.646 4.2-1.108 5.4m4.93-3.294c2.2-.834 4.136-1.955 5.696-3.493 2.81-2.771 4.583-6.946 4.55-13.75m2.008 3.856c-.576 5.248-2.383 9.022-5.067 11.669-3.067 3.025-7.124 4.535-11.547 5.419m-5.957-6.396c.765-4.488 1.986-8.725 4.33-12.183 1.928-2.842 4.627-5.08 8.32-6.417m-.852 2.881c-2.47 1.189-4.282 2.892-5.682 4.957-1.61 2.374-2.662 5.296-3.398 8.526m35.746-23.101a15 15 0 0 1-1.022 1.114c-2.762 2.725-6.328 4.22-10.241 5.136m1.474-2.879c2.858-.873 5.353-2.135 7.276-4.032a13 13 0 0 0 1.704-2.058m-8.592-11.192c-1.185.944-2.17 2.05-3.009 3.286-1.254 1.85-2.17 4.032-2.86 6.433m-3.153 3.749c.699-3.878 1.764-7.55 3.632-10.668M9.02 135.525l-.361-.446-4.16-5.129-1.488-1.836L1 125.634m9.88 9.456 9.684 11.943M1 122.907l2.466 3.041m9.202 8.62 8.21 10.124M5.762 126.053l.235.291M1 120.18l3.015 3.718m14.935 15.69 2.283 2.815m-6.859-8.457 2.443 3.012m-7.436-9.17 1.508 1.859m-4.555-5.616 1.312 1.617M1 117.453l3.659 4.512m15.17 15.979 1.806 2.228m-5.644-6.96 2.443 3.012M7 122.125l7.452 9.19M1.358 115.167l4.042 4.985m12.11 12.205 4.575 5.642M7.789 120.37l8.221 10.138M2.642 114.022l3.604 4.445m12.676 12.904 3.656 4.509M8.706 118.774l8.744 10.782M3.925 112.878l3.278 4.042m13.018 13.326 2.91 3.588m-7.863-9.695 3.491 4.304m-9.003-11.102 3.552 4.381m-8.1-9.989 3.073 3.788m13.113 13.445 2.321 2.862m-7.265-8.96 3.471 4.281m-9.005-11.104 3.71 4.573m-8.135-10.03 2.975 3.668m12.967 13.263 1.943 2.397M12.22 114.923l8.708 10.739M7.775 109.443l2.994 3.692m12.568 12.772 1.725 2.127M13.657 113.97l8.114 10.006M9.058 108.298l3.135 3.866m11.91 11.961 1.72 2.121m-6.14-7.572 2.761 3.405m-5.98-7.375 1.655 2.041m-7.778-9.592 3.384 4.173m10.999 10.837 1.898 2.34m-5.2-6.412 1.516 1.87m-7.55-9.312-.022-.026-3.742-4.615m13.545 13.976 2.297 2.833m-5.093-6.281.873 1.077m-10.338-12.749 4.005 4.94m9.448 8.923 2.011 2.48m-4.87-6.005-.14-.173-.404-.499m-4.45-5.487.219.269m-4.536-5.593.682.841m12.9 13.179 1.532 1.891m-13.83-17.056.92 1.135M28.28 115.64l2.007 2.475m-13.53-16.686 1.272 1.57m11.718 11.722 1.557 1.921M18.04 100.284l.417.514m12.873 13.148 1.014 1.25m-4.927-6.075.154.189m-4.67-5.758.415.511m-3.993-4.924.45.555m13.639 14.092-1.578-1.946-1.034-1.274-.45-.555m-9.744-12.017 2.685 3.312m8.866 8.206 2.342 2.887m-12.61-15.55 1.911 2.357m10.088 9.713 1.707 2.105m-3.726-4.595.412.508m-4.05-4.993 1.39 1.712m-3.512-4.33.282.348m-3.218-3.97 1.248 1.54m11.113 10.977 1.164 1.436m-9.936-12.254 7.217 8.9M24.457 94.56l.679.837m11.937 11.993.73.9M27.525 95.616l8.042 9.917M25.74 93.415l.219.27m12.549 12.747.393.486m-5.287-6.52 3.421 4.218m-8.627-10.638 3.017 3.72m8.408 7.642.157.193m-1.616-1.992-4.304-5.308-.609-.751-4.055-5m11.636 11.62.016.021M30.546 91.159l9.032 11.139m76.15-26.3L145 107.708M8.754 81.909c-4.876-1.925-7.521.377-1.108 2.691 9.181 3.313 7.834-.036 1.108-2.69m-.739 2.81c-4.709-1.926-7.263.376-1.07 2.69 8.867 3.313 7.565-.035 1.07-2.69m-1.102 2.856c-4.242-1.7-6.39.72-.82 2.738 7.97 2.889 6.67-.394.82-2.738M14.718 66c0 .52.188 1.019.524 1.386.336.368.791.574 1.266.574.235 0 .468-.05.685-.149s.414-.243.58-.425.298-.398.388-.636a2.12 2.12 0 0 0 0-1.5 2 2 0 0 0-.388-.636 1.8 1.8 0 0 0-.58-.425 1.7 1.7 0 0 0-.685-.15c-.475 0-.93.207-1.266.575A2.06 2.06 0 0 0 14.718 66m9.544 0c0 .16.058.312.162.424a.53.53 0 0 0 .391.176.53.53 0 0 0 .392-.176.63.63 0 0 0 .162-.424.63.63 0 0 0-.162-.424.53.53 0 0 0-.392-.176.53.53 0 0 0-.391.176.63.63 0 0 0-.162.424m-7.754-8.4a.53.53 0 0 0 .391-.176.63.63 0 0 0 .162-.424.63.63 0 0 0-.162-.424.53.53 0 0 0-.391-.176.53.53 0 0 0-.392.176.63.63 0 0 0-.162.424c0 .16.058.312.162.424a.53.53 0 0 0 .392.176M8.754 66a.63.63 0 0 0-.162-.424.53.53 0 0 0-.392-.176.53.53 0 0 0-.392.176.63.63 0 0 0-.162.424c0 .16.059.312.162.424a.53.53 0 0 0 .392.176.53.53 0 0 0 .392-.176.63.63 0 0 0 .162-.424m7.754 8.4a.53.53 0 0 0-.392.176.63.63 0 0 0-.162.424c0 .16.058.312.162.424a.53.53 0 0 0 .392.176.53.53 0 0 0 .391-.176.63.63 0 0 0 .162-.424.63.63 0 0 0-.162-.424.53.53 0 0 0-.391-.176M13.185 63c0 .16.058.312.162.424a.53.53 0 0 0 .392.176.53.53 0 0 0 .391-.176.63.63 0 0 0 .162-.424.63.63 0 0 0-.162-.424.53.53 0 0 0-.392-.176.53.53 0 0 0-.391.176.63.63 0 0 0-.162.424m.553 6.6a.53.53 0 0 0 .392-.176.63.63 0 0 0 .162-.424.63.63 0 0 0-.162-.424.53.53 0 0 0-.392-.176.53.53 0 0 0-.391.176.63.63 0 0 0-.162.424c0 .16.058.312.162.424a.53.53 0 0 0 .392.176m6.093-6.6c0 .16-.059.312-.162.424a.53.53 0 0 1-.392.176.53.53 0 0 1-.392-.176.63.63 0 0 1-.162-.424c0-.16.058-.312.162-.424a.53.53 0 0 1 .392-.176c.147 0 .288.063.392.176a.63.63 0 0 1 .162.424m-.554 6.6a.53.53 0 0 1-.392-.176.63.63 0 0 1-.162-.424c0-.16.058-.312.162-.424a.53.53 0 0 1 .392-.176c.147 0 .288.063.392.176a.63.63 0 0 1 .162.424c0 .16-.059.312-.162.424a.53.53 0 0 1-.392.176M97.923 24c-3.608-2.62-7.237-5.193-14.4 0 .233-.126-.264.636-.05.478C87.4 21.6 92.3 20.185 97.924 24M18.17 114.6c-1.108 4.2 3.877 7.2 4.985-1.2 1.108 8.4 6.092 5.4 4.985 1.2 3.876 1.2 6.646-4.2-1.108-5.4 7.754-1.2 4.984-6.6 1.108-5.4 1.107-4.2-3.877-7.2-4.985 1.2-1.108-8.4-6.093-5.4-4.985-1.2-3.877-1.2-6.646 4.2 1.108 5.4-7.754 1.2-4.985 6.6-1.108 5.4M30.908 99c0 .477.175.935.486 1.273.312.337.735.527 1.175.527s.863-.19 1.175-.527A1.88 1.88 0 0 0 34.231 99a1.88 1.88 0 0 0-.487-1.273 1.6 1.6 0 0 0-1.175-.527 1.6 1.6 0 0 0-1.175.527A1.88 1.88 0 0 0 30.908 99m-17.723 23.4c0 .477.175.935.486 1.273.312.337.735.527 1.175.527s.863-.19 1.175-.527c.312-.338.487-.796.487-1.273s-.175-.935-.487-1.273a1.6 1.6 0 0 0-1.175-.527c-.44 0-.863.19-1.175.527a1.88 1.88 0 0 0-.486 1.273m3.323 15.6c0 .477.175.935.486 1.273.312.337.735.527 1.175.527s.863-.19 1.175-.527c.312-.338.487-.796.487-1.273s-.175-.935-.487-1.273a1.6 1.6 0 0 0-1.175-.527c-.44 0-.863.19-1.175.527a1.88 1.88 0 0 0-.486 1.273"/><path fill="currentColor" d="m31.405 83.718 2.8-2.445c1.139 1.5 2.241 4.213 2.241 7.527 0 .47-.021.93-.076 1.358zm10.16 13.21c.952-2.352 1.527-5.127 1.527-8.128 0-4.932-1.57-9.25-3.772-12.096l2.547-2.312c2.744 3.547 4.548 8.667 4.548 14.408 0 4.17-.947 8.012-2.52 11.161m3.35-23.208c8.02 2.473 15.698 3.983 23.093 4.711l-9.034 20.295 3.353.755L75.45 78.237c-9.781-.488-20.049-2.405-31.018-6.157m34.673 31.159 9.616-21.66a115 115 0 0 0 14.751-2.21 43 43 0 0 1 5.918-5.138c-7.394 2.05-14.933 3.432-22.79 3.924l-11.31 25.257a47 47 0 0 0 3.814-.173m-31.838 1.28c12.276 5.245 26.638 8.331 44.042 3.915l.3-3.78c-17.762 4.817-31.886 1.524-44.306-3.998l-1.145 2.252zm97.805 8.359-35.658-38.66c5.843-1.632 11.548-3.673 17.183-6.024a39 39 0 0 0 3.128 2.477 138 138 0 0 1-13.994 5.34l29.303 31.735M109.701 15.92l.96-5.72-4.984-.6.554-6-4.904-.59m13.301 20.505L115.646 18l-5.268-1.038m8.652 13.34 1.047-5.102-5.068-1.098m7.908 12.192 1.037-4.494-4.683-1.127m7.545 11.632 1.569-5.105-5.249-.569M71.83 47.588c-.486-1.213-.841-2.303-1.046-3.188-.665-2.885-.93-7.07-1.044-10.368-.401.574-.783 1.311-1.15 2.058-2.693 5.47-4.75 11.553-5.875 19.669z"/><path fill="currentColor" d="m71.358 26.13 1.977.36c.194.489.31 1.112.31 1.79 0 1.568-.62 2.838-1.384 2.838-.765 0-1.385-1.27-1.385-2.837 0-.86.187-1.63.482-2.151m16.873.051c.182 0 .362.074.53.216s.32.352.449.615c.128.264.23.577.3.92.07.345.105.714.105 1.087 0 .372-.035.741-.105 1.086a4 4 0 0 1-.3.92 1.9 1.9 0 0 1-.45.615.82.82 0 0 1-.53.216.82.82 0 0 1-.53-.216 1.9 1.9 0 0 1-.448-.615 4 4 0 0 1-.3-.92 5.5 5.5 0 0 1-.106-1.086c0-.373.036-.742.106-1.086s.171-.657.3-.92c.128-.264.28-.473.449-.616a.82.82 0 0 1 .53-.216m25.34 21.028.366 1.132c-4.88 1.862-9.65 3.402-14.435 4.543l1.421-1.578c4.179-1.08 8.365-2.463 12.648-4.097M66.3 52.596c2.908.53 5.728.9 8.483 1.119l.745 1.252A85 85 0 0 1 65.172 53.6zm63.472 18.11a36 36 0 0 0 8.169 4.324L145 85.895v21.816l-29.269-31.7c4.76-1.523 9.437-3.312 14.041-5.306M44.409 72.09c3.29 4.236 5.33 10.158 5.33 16.709 0 5.301-1.336 10.19-3.585 14.111L31.435 83.69zm38.344 6.24-11.069 25.024a58 58 0 0 1-3.638-.332L79.118 78.34c1.2.013 2.392.006 3.635-.009m20.731 1.023a111 111 0 0 1-14.785 2.216zm-24.392 1.919c-.293 0-.575.127-.783.352s-.324.53-.324.848.116.624.324.849.49.351.783.351.576-.126.784-.351c.207-.225.324-.53.324-.849s-.117-.623-.324-.849a1.07 1.07 0 0 0-.784-.351m-2.485 5.602c-.293 0-.575.126-.783.352s-.324.53-.324.848.116.624.324.849.49.351.783.351.576-.126.784-.351c.207-.225.324-.53.324-.849s-.117-.623-.324-.848a1.07 1.07 0 0 0-.784-.352m-2.484 5.602c-.294 0-.576.126-.784.352-.207.225-.324.53-.324.848s.117.624.324.849.49.351.784.351c.293 0 .575-.126.783-.351s.324-.53.324-.849-.116-.623-.324-.848a1.07 1.07 0 0 0-.783-.352m-2.485 5.602c-.294 0-.576.127-.784.352-.207.225-.324.53-.324.848 0 .319.117.624.324.849s.49.351.784.351c.293 0 .575-.126.783-.351s.324-.53.324-.849-.116-.623-.324-.848a1.07 1.07 0 0 0-.783-.352m-28.325 8.852q.165 0 .318.069a.8.8 0 0 1 .27.195.9.9 0 0 1 .18.292.96.96 0 0 1-.18.98.8.8 0 0 1-.27.196.78.78 0 0 1-.906-.196.9.9 0 0 1-.18-.292.96.96 0 0 1 .18-.98.8.8 0 0 1 .27-.195.8.8 0 0 1 .318-.069m-1.9 2.388 4.141 1.134.566 1.214-1.382 3.651 3.764 2.112.34 1.243-2.006 3.833 3.273 2.884.108 1.282-2.762 3.508 2.628 4.138-.175 1.221-3.49 2.937 1.704 4.496-.433 1.166-3.998 1.906.612 4.97-.675 1.005-4.275.838-.334 4.819-.751.829-5.265.534.295 3.052-1.856-1.917-.179-1.853.75-.99 5.401-.547.33-4.756.68-.818 4.128-.809-.59-4.789.489-.943 3.827-1.825-1.637-4.318.26-1.052 3.368-2.835-2.545-4.008.053-1.094 2.624-3.332-3.158-2.783-.199-1.142 1.927-3.682-3.672-2.06-.387-1.141 1.307-3.453-3.696-1.012a.8.8 0 0 1-.352-.197zm5.538 4.435q.165 0 .318.068.151.069.27.195a.9.9 0 0 1 .18.292.97.97 0 0 1-.18.981.8.8 0 0 1-.27.195.78.78 0 0 1-.906-.195.9.9 0 0 1-.18-.292.96.96 0 0 1 .18-.981.8.8 0 0 1 .27-.195.8.8 0 0 1 .318-.068m2.137 7.463q.165 0 .318.068.151.069.27.195a.9.9 0 0 1 .18.292.96.96 0 0 1-.18.981.8.8 0 0 1-.27.195.78.78 0 0 1-.906-.195.9.9 0 0 1-.18-.292.96.96 0 0 1 .18-.981.8.8 0 0 1 .27-.195.8.8 0 0 1 .318-.068m.614 8.079q.165 0 .318.068.151.069.27.195a.9.9 0 0 1 .18.292.96.96 0 0 1-.18.981.8.8 0 0 1-.27.195.78.78 0 0 1-.906-.195.9.9 0 0 1-.18-.292.96.96 0 0 1 .18-.981.8.8 0 0 1 .27-.195.8.8 0 0 1 .318-.068m-1.092 8.867q.166 0 .318.068c.1.045.193.112.27.195a.9.9 0 0 1 .18.292.96.96 0 0 1-.18.981.8.8 0 0 1-.27.195.78.78 0 0 1-.905-.195.9.9 0 0 1-.18-.292.96.96 0 0 1 .18-.981.8.8 0 0 1 .27-.195.8.8 0 0 1 .317-.068m-3 8.374q.164 0 .317.068.152.07.27.195a.9.9 0 0 1 .18.292.97.97 0 0 1 0 .689.9.9 0 0 1-.18.292.8.8 0 0 1-.27.195.76.76 0 0 1-.636 0 .8.8 0 0 1-.27-.195.9.9 0 0 1-.18-.292.96.96 0 0 1 .18-.981.9.9 0 0 1 .27-.195.8.8 0 0 1 .318-.068m-4.616 7.069q.165 0 .318.068a.9.9 0 0 1 .27.195.9.9 0 0 1 .18.292.97.97 0 0 1 0 .689.9.9 0 0 1-.18.292.8.8 0 0 1-.27.195.76.76 0 0 1-.636 0 .8.8 0 0 1-.27-.195.9.9 0 0 1-.18-.292.96.96 0 0 1 .18-.981.9.9 0 0 1 .27-.195.8.8 0 0 1 .318-.068m-6.434 6.256q.165 0 .317.069a.8.8 0 0 1 .27.195.9.9 0 0 1 .18.292.96.96 0 0 1-.18.98.8.8 0 0 1-.27.196.78.78 0 0 1-.905-.196.94.94 0 0 1-.243-.636c0-.239.087-.468.243-.636a.8.8 0 0 1 .588-.264"/><path stroke="currentColor" stroke-linecap="round" stroke-linejoin="round" stroke-width=".5" d="M12.077 83.4c-.489.742-.77 1.524-.554 2.4m.074.598c-.489.742-.77 1.523-.554 2.4m-.757.358c-.489.742-.77 1.523-.554 2.4M12.631 78c-.114 1.807-4.454.007-3.877-.6m75.323-22.8c-1.697-.907-3.388-1.714-4.985-1.2m5.539-21c.917 1.266 2.653 1.558 4.43 1.8M73.555 33c-1.847.264-2.202-.222-2.77-.6M95.709 27c-2.77 0-5.384-5.088-9.97 0m-7.532.372c-1.33-.372-4.93-6.072-9.084-.972m17.445.509a4.6 4.6 0 0 0-.276 1.596c0 1.826.992 3.306 2.216 3.306 1.223 0 2.215-1.48 2.215-3.306a4.7 4.7 0 0 0-.242-1.504m-20.099-.603a4.8 4.8 0 0 0-.151 1.202c0 1.825.992 3.305 2.215 3.305 1.224 0 2.216-1.48 2.216-3.305q0-.235-.022-.461M59.252 70.673q-2.804-.61-5.676-1.391m24.638 3.701a96 96 0 0 1-4.844-.238m14.129.007q-2.339.173-4.714.23m14.22-1.402q-2.345.405-4.722.7m14.723-2.92q-2.581.7-5.194 1.276m14.787-4.286q-2.322.826-4.658 1.563m-52.087 1.668a112 112 0 0 1-5.477-1.32m24.075 3.536a95 95 0 0 1-4.713-.221m13.792-.02a94 94 0 0 1-4.614.232M96.91 70.39q-2.314.402-4.658.694m14.487-2.884q-2.534.687-5.096 1.255m14.586-4.235a137 137 0 0 1-4.595 1.543m-5.967-3.203a119 119 0 0 0 4.732-1.398m-13.824 3.456q2.203-.394 4.386-.886m-13.302 2.04a91 91 0 0 0 4.466-.468m-12.72.742q2.037.027 4.043-.038m-21.187-1.81q2.225.444 4.4.777m-3.177-2.955q-2.114-.407-4.275-.919m20.68 2.591a87 87 0 0 1-3.927-.124m11.765-.163a87 87 0 0 1-4.009.236m12.699-1.382a92 92 0 0 1-4.352.682m13.073-2.673q-2.248.617-4.513 1.132m13.39-3.945q-2.11.755-4.224 1.43m-5.725-3.26q2.245-.62 4.49-1.343m-12.49 3.2a93 93 0 0 0 3.876-.81m-12.086 1.94q2.053-.18 4.08-.46m-10.297.765q1.314-.015 2.614-.07m-18.326-1.243a92 92 0 0 0 3.68.568m-9.15 9.315a111 111 0 0 1-5.278-1.248m23.512 3.37a93 93 0 0 1-4.582-.203m13.455-.046a93 93 0 0 1-4.513.234m13.765-1.395a98 98 0 0 1-4.596.69m14.251-2.849q-2.487.675-4.999 1.235m14.387-4.186a137 137 0 0 1-4.534 1.524m-.617-2.3q-2.38.754-4.773 1.407-2.392.652-4.803 1.193-2.228.5-4.476.898m-9.029 1.157q2.28-.18 4.53-.469m-12.99.735q2.09.032 4.15-.031m-21.661-1.908q2.285.464 4.522.814m-2.081-5.19a101 101 0 0 1-4.068-.854m20.1 2.435a86 86 0 0 1-3.794-.108m11.424-.185a85 85 0 0 1-3.907.236m12.485-1.38q-2.14.392-4.304.68m12.837-2.636a104 104 0 0 1-4.416 1.111m13.191-3.894q-2.082.745-4.163 1.411m5.265 1.963a153 153 0 0 0 4.205-1.567m-6.418-5.2q1.546-.552 3.1-1.148m-.517 9.045q2.249-.8 4.496-1.68m-6.709-5.086a147 147 0 0 0 3.212-1.191m-11.782 3.915q2.267-.625 4.531-1.353m-12.706 3.243a94 94 0 0 0 3.953-.822M87.823 60.81a85 85 0 0 0 4.145-.46m-11.36.765a83 83 0 0 0 3.51-.07M69.185 72.343q-2.445-.288-4.941-.706m5.353-.448q-2.41-.277-4.869-.683m6.52-3.94q2 .21 3.964.326m-3.145-2.62a92 92 0 0 1-4.421-.544m6.081-4.105q1.879.16 3.723.234m-7.44 10.178a99 99 0 0 1-4.798-.66m5.623-1.652q2.021.216 4.01.342m-2.363-4.954a91 91 0 0 1-4.345-.52m5.175-1.804q1.9.168 3.767.25M65.317 59.71q1.92.344 3.8.602m-14.8 2.983q1.642.457 3.257.856m3.168-6.602q.87.201 1.733.384m-9.23 6.299q1.78.51 3.529.95m2.87-6.664q1.014.244 2.017.463m61.167 5.384q-.79.27-1.58.529m.733-1.498q-.537.18-1.073.357m.296-1.35-.635.21M145 82.336 126.763 54.22M145 78.162 128.939 53.4M145 73.987l-13.914-21.45m-77.097-4.538c-1.19 5.156-2.064 11-2.57 17.836m3.554-3.414.435-3.569c.572-4.69 1.36-8.849 2.343-12.62M46.137 70.554l.09-1.675c.372-6.87 1.107-12.876 2.147-18.24m3.728-1.755C50.939 54.238 50.1 60.3 49.648 67.362m7.19-6.49.219-1.784c.636-5.223 1.536-9.746 2.671-13.795m4.058-1.908c-1.344 4.081-2.409 8.686-3.176 14.192M55.9 47.094c-1.217 4.941-2.126 10.544-2.685 17.124"/></svg>
