<svg xmlns="http://www.w3.org/2000/svg" fill="none" viewBox="0 0 166 258"><path fill="#000" d="m81.107 28.09 2.28.387c.223.525.357 1.195.357 1.925 0 1.684-.714 3.05-1.596 3.05s-1.596-1.366-1.596-3.05c0-.925.215-1.753.555-2.312m19.451.055c.209 0 .417.079.611.232.193.153.369.378.517.661s.266.62.346.99c.081.37.122.767.122 1.167s-.041.797-.122 1.167-.197.707-.346.99a2.05 2.05 0 0 1-.517.661 1 1 0 0 1-.611.232.98.98 0 0 1-.611-.232 2 2 0 0 1-.518-.661 4 4 0 0 1-.346-.99 5.6 5.6 0 0 1-.121-1.167c0-.4.04-.797.121-1.167s.198-.706.346-.99a2 2 0 0 1 .518-.66.98.98 0 0 1 .611-.233m29.211 22.604.423 1.218c-5.627 2.001-11.125 3.657-16.641 4.884l1.638-1.697c4.818-1.161 9.643-2.648 14.58-4.405M75.276 56.54c3.352.571 6.604.968 9.78 1.203l.858 1.346c-3.86-.246-7.826-.728-11.938-1.468zm73.17 19.468a42.8 42.8 0 0 0 9.416 4.65L166 92.337v23.451l-33.741-34.076c5.487-1.639 10.879-3.562 16.187-5.705m-98.406 1.49c3.794 4.554 6.145 10.92 6.145 17.962 0 5.699-1.54 10.955-4.133 15.169L35.085 89.967zm44.202 6.708-12.76 26.9a71 71 0 0 1-4.192-.356l12.763-26.535c1.382.015 2.758.007 4.19-.009m23.9 1.1a137 137 0 0 1-17.045 2.382zm-28.119 2.063a1.27 1.27 0 0 0-.903.377 1.297 1.297 0 0 0 0 1.825 1.27 1.27 0 0 0 1.806 0 1.297 1.297 0 0 0 0-1.825 1.27 1.27 0 0 0-.903-.377M87.16 93.39a1.27 1.27 0 0 0-.903.377 1.297 1.297 0 0 0 0 1.825 1.27 1.27 0 0 0 1.805 0 1.296 1.296 0 0 0 0-1.825 1.27 1.27 0 0 0-.903-.377m-2.865 6.022a1.27 1.27 0 0 0-.903.378 1.3 1.3 0 0 0 0 1.824 1.27 1.27 0 0 0 1.806 0 1.297 1.297 0 0 0 0-1.824 1.27 1.27 0 0 0-.903-.378m-2.864 6.022a1.27 1.27 0 0 0-.903.378 1.297 1.297 0 0 0 0 1.824 1.27 1.27 0 0 0 1.805 0 1.295 1.295 0 0 0 0-1.824 1.27 1.27 0 0 0-.902-.378m-32.653 9.516a.96.96 0 0 1 .677.283.975.975 0 0 1-.31 1.578.94.94 0 0 1-1.044-.21.96.96 0 0 1-.28-.684.97.97 0 0 1 .59-.894 1 1 0 0 1 .367-.073m-2.19 2.567 4.774 1.219.652 1.305-1.593 3.925 4.339 2.27.392 1.336-2.312 4.121 3.773 3.1.124 1.379-3.184 3.77 3.03 4.449-.202 1.312-4.023 3.157 1.965 4.834-.5 1.253-4.608 2.05.705 5.342-.778 1.08-4.929.901-.385 5.181-.865.891-6.07.574.34 3.281-2.14-2.061-.205-1.992.863-1.064 6.228-.588.38-5.113.784-.879 4.758-.87-.68-5.148.563-1.013 4.412-1.963-1.886-4.641.298-1.132 3.884-3.048-2.934-4.308.06-1.176 3.026-3.582-3.64-2.991-.23-1.228 2.221-3.958-4.233-2.215-.445-1.226 1.506-3.713-4.26-1.087a1 1 0 0 1-.407-.211zm6.384 4.767a.94.94 0 0 1 .677.284.96.96 0 0 1 .28.684.97.97 0 0 1-.59.894.96.96 0 0 1-.734 0 .96.96 0 0 1-.518-.524.97.97 0 0 1 .518-1.264.9.9 0 0 1 .367-.074m2.463 8.023a.94.94 0 0 1 .678.283.975.975 0 0 1-.311 1.578.94.94 0 0 1-1.044-.21.96.96 0 0 1-.28-.684.98.98 0 0 1 .28-.684.94.94 0 0 1 .677-.283m.708 8.685a.96.96 0 0 1 .677.283.975.975 0 0 1-.31 1.578.94.94 0 0 1-1.044-.21.97.97 0 0 1-.28-.684.97.97 0 0 1 .59-.894 1 1 0 0 1 .367-.073m-1.258 9.532a.96.96 0 0 1 .677.283.975.975 0 0 1-.31 1.578.94.94 0 0 1-1.044-.21.96.96 0 0 1-.28-.684.97.97 0 0 1 .59-.894 1 1 0 0 1 .367-.073m-3.46 9.002a.94.94 0 0 1 .678.283.973.973 0 0 1-.311 1.578.94.94 0 0 1-.733 0 .94.94 0 0 1-.519-.523.98.98 0 0 1 .208-1.055.96.96 0 0 1 .677-.283m-5.32 7.599a.94.94 0 0 1 .677.284q.135.135.208.314a.974.974 0 0 1-.519 1.264.96.96 0 0 1-.733 0 .96.96 0 0 1-.518-.524.974.974 0 0 1 .518-1.264.9.9 0 0 1 .367-.074m-7.417 6.726a.96.96 0 0 1 .677.283.976.976 0 0 1 0 1.368.96.96 0 0 1-.677.284.95.95 0 0 1-.677-.284.97.97 0 0 1 .677-1.651"/><path fill="#000" d="m35.05 89.997 3.228-2.628c1.313 1.612 2.584 4.528 2.584 8.091 0 .506-.025.999-.088 1.46zm11.713 14.201c1.096-2.529 1.76-5.512 1.76-8.738 0-5.302-1.81-9.943-4.349-13.003l2.937-2.486c3.163 3.813 5.243 9.317 5.243 15.489 0 4.482-1.093 8.613-2.907 11.998m3.862-24.949c9.246 2.66 18.097 4.282 26.623 5.065L69.517 109.39l3.866.812 12.442-26.098c-11.276-.525-23.112-2.585-35.757-6.62m39.97 33.497 11.085-23.285a141 141 0 0 0 17.004-2.376 48.5 48.5 0 0 1 6.823-5.522c-8.524 2.203-17.215 3.69-26.273 4.218l-13.038 27.151a58 58 0 0 0 4.398-.186m-36.703 1.376c14.153 5.638 30.708 8.955 50.772 4.208l.345-4.063c-20.475 5.179-36.757 1.638-51.075-4.297l-1.32 2.42zm112.748 8.986-41.106-41.56c6.735-1.754 13.313-3.948 19.808-6.476a44 44 0 0 0 3.606 2.664 166 166 0 0 1-16.132 5.74l33.78 34.115m-40.73-98.713 1.106-6.149-5.746-.645.639-6.45-5.653-.635m15.333 22.043 1.173-5.928-6.073-1.116m9.975 14.34 1.206-5.484-5.842-1.18m9.116 13.106 1.195-4.831-5.398-1.212m8.698 12.505 1.808-5.488-6.05-.611M81.651 51.157c-.56-1.304-.97-2.475-1.205-3.427-.767-3.101-1.074-7.6-1.203-11.146-.464.617-.903 1.41-1.327 2.213-3.104 5.88-5.475 12.419-6.772 21.144z"/><path stroke="#000" stroke-linecap="round" stroke-linejoin="round" d="M104.065 120.541c-18.275 4.105-34.012 1.776-47.42-2.837m47.462-1.138c-20.064 4.748-36.62 1.43-50.772-4.208m47.814-24.652-11.12 23.268m-20.512-1.583L79.93 87.602m-27.878 23.031c2.594-4.218 4.134-9.474 4.134-15.173 0-7.042-2.35-13.408-6.138-17.974m-24.21 85.401c3.056-31.592 14.181-35.771 26.217-52.261l-16.98-20.629M0 119.135l81.676-67.951m43.276 28.608 40.947 41.366m-40.903-41.362c-12.604 8.304-20.927 22.618-20.927 38.884 0 10.829 3.689 20.793 9.874 28.694m30.855-74.057c-28.451 11.01-58.22 15.817-94.73 4.169m29.866 10.06c-8.528-.755-17.38-2.378-26.625-5.037m64.833 2.796a137 137 0 0 1-17.045 2.383m47.37-11.661c-5.329 2.124-10.721 4.048-16.204 5.701M53.62 74.54c33.763 10.183 61.232 5.958 87.96-4.128m-82.576-.357c29.927 8.195 54.253 4.588 78.521-4.313m-74.868 1.28c27.508 6.98 49.9 3.658 72.599-4.56m-68.9 1.484c25.183 5.842 45.752 2.73 66.934-4.877m-36.386 3.959c11.934-.597 23.172-3.326 34.708-7.455m-61.5 5.248c6.685 1.392 13.023 2.126 19.136 2.293m9.407 20.908L85.69 111.157m-12.306-.954 12.465-26.085m8.459.102-12.852 26.895m-4.082-.36 12.682-26.538m15.175 24.082c-20.498 5.64-36.164 2.253-50.459-3.698m49.681 7.902c-20.475 5.179-36.757 1.638-51.075-4.297M166 92.334 101.774 0m24.918 35.844c2.446 24.733 15.43 39.232 31.176 44.843m-53.449 43.737c-7.533 1.652-14.677 2.252-21.42 2.073m21.178-4.66c-7.47 1.664-14.529 2.267-21.183 2.087m21.283-.789c-7.494 1.655-14.588 2.255-21.281 2.076m21.597.495c-7.587 1.655-14.792 2.257-21.595 2.08m.003 3.717c8.76.232 16.842 1.777 24.224 4.036m-2.414-8.561c-7.657 1.666-14.937 2.273-21.813 2.096m.004-.148c8.333.215 16.073 1.582 23.174 3.612m-23.17 1.538c9.315.252 17.838 2.039 25.583 4.599m-25.585-5.886c9.018.241 17.307 1.897 24.857 4.296m-24.859-6.87c8.533.223 16.435 1.672 23.668 3.809m-1.614-5.779a96 96 0 0 1-6.312 1.153m-.071-.005a98 98 0 0 1 7.08 1.687M40.79 96.937q.071-.718.072-1.477c0-3.562-1.271-6.478-2.56-8.032m8.461 16.77c1.096-2.529 1.76-5.512 1.76-8.738 0-5.302-1.81-9.943-4.349-13.003m5.273 25.002c1.814-3.386 2.907-7.517 2.907-11.999 0-6.172-2.08-11.676-5.243-15.489m-24.743 79.375c1.739-14.362 5.358-23.349 10.025-30.403 4.476-6.765 9.593-11.609 14.758-18.221l-12.62-15.333m-.015.044L0 124.149m29.956 42.854 2.677-1.764c8.441-5.562 13.975-14.988 13.975-25.919 0-6.086-1.703-11.651-4.68-16.4m-9.204 46.879 2.002-1.319c9.481-6.247 15.712-16.895 15.712-29.16 0-7.248-2.165-13.885-5.903-19.438m-6.275 55.51.651-.429C50.474 167.344 58.1 154.252 58.1 139.32c0-9.592-3.143-18.407-8.46-25.525m-21.73 35.831c2.12-.127 4.113-1.132 5.572-2.809s2.272-3.898 2.272-6.207c0-2.274-.789-4.464-2.208-6.133m-7.483-37.089c-.376-2.007-1.708-8.055-4.355-9.668-3.3-2.01-4.434-1.505-7.922-3.958-4.032-2.836-7.806.024-2.554 3.225 4.404 2.684 4.091 2.023 6.006 2.668-1.915 4.515-1.277 7.74 1.277 9.03m-9.797-14.27c-5.048-1.683-7.533.703-.652 3.1 3.608 1.257 5.755 1.622 6.694 1.442m-7.456 11.161c-1.17-1.218-2.01-2.38-2.196-3.309m10.185 9.603c-1.878-1.173-4.41-2.994-6.484-4.851m1.652-3.3c-1.762 3.652-4.376 6.618-1.86 13.718m-1.584 1.245c-1.62-4.272-1.625-7.553-.864-10.17.596-2.049 1.535-3.623 2.294-5.076m9.43-30.898c1.915-7.095 10.854 1.935 3.83 3.87m-3.83-3.87c-1.915-7.095-10.854 1.935-3.83 3.87m3.83-3.87v-5.805m3.83 9.675c7.024 1.935-1.915 10.965-3.83 3.87m3.83-3.87h5.747m-9.577 3.87c-1.915 7.095-10.854-1.935-3.83-3.87m3.83 3.87v5.805m-3.83-9.675H8.3m13.084-6.408c4.634-9.516-11.648-9.516-7.014 0m-2.836 2.865c-9.42-4.681-9.42 11.768 0 7.086m2.836 2.865c-4.634 9.516 11.648 9.516 7.014 0m2.836-2.865c9.42 4.682 9.42-11.767 0-7.086m-7.81 2.062-1.725-1.744m1.726 4.706-1.726 1.744m4.658-4.706 1.726-1.744m-1.726 4.706 1.726 1.744M16.58 84.313l-.5.842m-1.517-1.96-.46.775m6.39 3.068c4.052-2.36 8.51-3.394 13.345-3.188M20.48 87.032c5.854-5.198 11.74-8.903 17.828-2.537-5.066.64-6.992 5.72-17.612 2.658m-10.48-4.593c-2.133-2.989-4.534-5.35-8.3-4.515.467 2.883 3.283 4.426 6.384 5.805M81.6.023c-15.73 21.831-29.932 36.033-31.547 77.47M83.985 3.285C68.873 24.091 56.21 36.898 54.049 74.16m12.47-10.386c2.02-15.46 6.277-24.873 12.296-33.953 1.631 6.3 8.016 1.785 9.931 1.785-1.915-.645-6.055-5.493-10.215-2.58m.704 7.391a69 69 0 0 0-1.32 2.38c-3.103 5.88-5.475 12.42-6.987 21.319M166 75.614 113.405 0m-28.3.005c-1.641 4.744-7.213 21.015-7.213 23.215 0 2.58 1.277 7.74 1.277 9.03s0 10.32 1.277 15.48S88.108 64.5 91.938 64.5s8.984-4.462 12.77-3.87c9.052 1.417 18.217-16.331 16.6-16.77 0 0 .682 1.388 1.277 1.29 2.284-.374 3.679-4.107 4.421-6.977M146.8 35.66c3.328.636 6.493.825 8.985-.83 1.874 3.38 5.784 3.701 8.938 5.16-7.837.04-15.385.486-19.685 5.487l1.808-5.488-6.05-.611m10.15 2.238L121.998 0m37.592 40.144q-.279-.11-.561-.23c-1.325-.565-2.714-1.372-3.835-2.625-2.182.883-4.546.889-6.863.583m-2.762-10.782c0 1.29.827 1.986 2.554 1.29 2.652-1.068-.173-5.759-3.494-3.537-3.638 2.433-.372 10.479 6.08 6.034 4.664-3.214-2.586-12.817 3.799-19.267-7.179 5.466-13.984-3.543-18.089.649-4.696 4.796 1.527 9.547 4.139 6.77 2.851-3.033-1.427-6.79-3.001-4.004-1.025 1.814.038 2.578 1.264 2.176m2.917 11.18c-2.176-3.737 2.362-6.216 5.108-9.03-3.466 1.362-7.041 4.37-10.215 1.29m-5.124-6.955c.562-5.117 3.944-9.319 6.838-13.68m-8.398 11.426c1.034-4.356 3.721-8.008 6.082-11.442m-10.72 17.124 1.106-6.149-5.746-.645.639-6.45-5.653-.634m15.333 22.043 1.174-5.929-6.074-1.116m9.975 14.34 1.206-5.484-5.842-1.18m9.116 13.106 1.195-4.83-5.398-1.213m-23.19-16.595C102.782 13.793 97.592 7.132 92.994.005m6.916.004c2.09 3.009 4.235 5.545 7.079 7.488M97.593.011c3.167 4.701 6.481 8.606 11.841 11.031M95.289.01c3.97 6.036 8.256 11.265 16.13 13.862m-31.064.381c5.433-3.507 8.95-8.725 12.125-14.248M85.75.01a49 49 0 0 1-1.346 2.04m3.6-2.033c-1.633 2.703-3.327 5.152-5.353 7.235M90.24.023c-2.498 4.25-5.165 8.104-8.852 11.023m41.196 23.14c-1.277 7.094 1.915 5.804 0 3.224M88.746 25.155c-4.014-4.835-7.661-2.58-10.854-1.29 3.193-.645 7.662-2.58 10.854 1.935zm0 0c1.277 11.61-2.67 12.334-2.554 19.35 0 1.29 3.831.645 3.831 2.58m4.47-5.805c2.722.018 6.665 4.444 1.276 4.515-.916.012-2.204-1.337-2.814-1.296-4.931.335.112.681 1.537.651m3.831 5.805.639.645v-1.29zm0 0c-1.277 0-3.192-.645-3.83-.645-.64 0-1.916.645-2.555.645-.638 0-1.276-.645-1.915-.645-.638 0-3.192.645-3.83.645m0 0-.64.645v-1.29zm8.3 2.58c-.64 1.935-5.108 1.935-5.108 0m21.069-21.93c-3.645 1.292-6.295-3.225-9.577-3.225-3.83 0-5.712 4.275-6.385 3.87 1.277-1.29 9.265 5.805 12.131-1.29m14.79 13.096.034-.011m-.229 1.423q.549-.173 1.101-.351m-8.768 11.734c5.516-1.227 11.014-2.883 16.64-4.884m-4.926-9.195a198 198 0 0 0 2.038-.72m-3.665 2.633q2.024-.675 4.092-1.417m-7.13 3.739c2.45-.75 4.931-1.582 7.461-2.489m-8.263 4.074a161 161 0 0 0 8.56-2.812m-9.498 4.423a157 157 0 0 0 9.81-3.166m-10.875 4.797c3.691-1.003 7.411-2.194 11.216-3.55m-12.42 5.197c4.217-1.085 8.455-2.418 12.792-3.962m-14.194 5.635c4.817-1.161 9.642-2.648 14.58-4.405m-55.793 6.872c4.112.74 8.078 1.222 11.938 1.468m-5.346-6.965q.797.102 1.585.19m-2.941.927a100 100 0 0 0 3.607.437m-4.921.674q2.847.427 5.601.684m-6.944.41c2.63.423 5.196.736 7.712.947m-8.99.148c3.351.57 6.603.967 9.779 1.203m54.057 13.563-1.918-6.007m-9.049-8.537 5.744 16.353m-10.254-14.919 4.778 16.626m-9.906-15.186 4.147 16.757m-8.793-15.66 2.641 17.075m-5.667 1.056c-.554-5.66-.818-11.611-1.356-17.287M105.281 79.6l-.49-17.297m-5.138 17.803.504-17.314M94.04 80.359l2.04-16.994m-7.493 16.983 3.432-15.853m-9.246 15.567 5.778-16.983M77.89 79.614l6.422-16.762M72.046 78.814l7.587-16.424M66.084 77.717l9.448-15.908M59.196 76.101l12.617-14.963m62.78-13.956c-.198 4.85.225 10.149.864 15.604m-2.796-18.377c-.155 4.72.261 9.854.878 15.133m-2.788-17.88c-.15 4.21.159 8.754.663 13.438m5.275-4.903c-.215 4.822.193 10.095.822 15.528m1.086-12.787c-.196 4.706.196 9.838.801 15.125m1.108-12.378c-.173 4.48.18 9.342.739 14.354m1.17-11.608c-.149 4.186.155 8.701.655 13.357m1.254-10.6c-.124 3.831.127 7.936.556 12.169m1.376-9.394c-.138 3.401.03 7.024.363 10.767m1.572-7.988c-.142 2.913-.052 5.994.178 9.177m1.73-6.439c-.111 2.425-.063 4.965.091 7.582m2.261-4.202a72 72 0 0 0 .053 5.494m1.857-2.746a68 68 0 0 0-.001 3.636m-25.518-40.32c-.121 3.127.015 6.44.298 9.86m-92.964 81.422 3.968-2.929a2.53 2.53 0 0 1 1.42-.516 2.554 2.554 0 0 1 2.532 1.739 2.595 2.595 0 0 1-.938 2.943l-8.273 5.144 7.61-3.552a2.5 2.5 0 0 1 .755-.117 2.56 2.56 0 0 1 2.535 2.224 2.58 2.58 0 0 1-1.838 2.84l-8.22 1.893 7.81-.599c1.42.086 2.496 1.327 2.395 2.759-.102 1.433-1.341 2.506-2.758 2.388l-7.73-1.371 7.826 2.061c1.32.544 1.943 2.074 1.386 3.399a2.546 2.546 0 0 1-3.383 1.351l-7.304-3.659 7.418 5.491a2.6 2.6 0 0 1 .06 3.673 2.536 2.536 0 0 1-3.635.013l-6.15-6.987 5.978 9.536a2.59 2.59 0 0 1-1.236 3.457 2.544 2.544 0 0 1-3.403-1.298l-3.74-10.666 3.214 13.516c.188 1.428-.818 2.735-2.234 2.903-1.415.167-2.693-.868-2.838-2.301l-.808-6.951M3.83 140.796c1.277-9.03 7.023-5.805 5.747-1.29 4.469-1.29 7.661 4.515-1.277 5.805m5.684-3.54c2.536-.897 4.767-2.102 6.565-3.756 3.239-2.978 5.283-7.467 5.244-14.781m2.316 4.145c-.664 5.642-2.746 9.699-5.84 12.544-3.537 3.252-8.214 4.875-13.312 5.826m-6.867-6.876c.882-4.825 2.29-9.379 4.992-13.096 2.222-3.056 5.333-5.462 9.591-6.899m-.983 3.097c-2.846 1.278-4.936 3.109-6.55 5.329-1.855 2.552-3.068 5.693-3.917 9.165m41.208-24.834q-.562.632-1.178 1.198c-3.185 2.929-7.296 4.537-11.806 5.522m1.699-3.095c3.295-.939 6.17-2.296 8.388-4.335a14.5 14.5 0 0 0 1.964-2.212m-9.905-12.031a16.3 16.3 0 0 0-3.468 3.532c-1.446 1.988-2.502 4.334-3.299 6.915m-3.634 4.03c.806-4.169 2.034-8.115 4.188-11.468M9.245 145.69l-.416-.479-4.795-5.513-1.716-1.974L0 135.057m11.389 10.165 11.164 12.839M0 132.125l2.842 3.269m10.608 9.267 9.464 10.883M5.491 135.507l.27.312m-5.76-6.625 3.475 3.997m17.216 16.866 2.632 3.026m-7.906-9.091 2.816 3.238m-8.572-9.858 1.737 1.998m-5.25-6.037 1.512 1.739M0 126.262l4.218 4.85m17.487 17.178 2.083 2.395m-6.507-7.482 2.816 3.238m-13.18-15.156 8.592 9.879M.412 123.805l4.66 5.358m13.959 13.121 5.274 6.065m-16.48-18.951 9.478 10.899M1.891 122.574l4.155 4.778m14.613 13.872 4.215 4.847M8.883 127.682l10.08 11.591m-15.591-17.93 3.778 4.346m15.007 14.326 3.355 3.857m-9.064-10.423 4.024 4.628m-10.379-11.936 4.096 4.71M4.85 120.113l3.542 4.073m15.117 14.452 2.675 3.077m-8.375-9.631 4.002 4.602m-10.38-11.938 4.275 4.917M6.33 118.882l3.43 3.944m14.947 14.257 2.24 2.577m-14.014-16.117 10.038 11.544M7.81 117.651l3.451 3.97m14.49 13.73 1.987 2.285M14.59 122.518l9.354 10.756M9.289 116.421l3.614 4.155m13.73 12.858 1.983 2.28m-7.078-8.139 3.183 3.66m-6.895-7.928 1.909 2.194m-8.967-10.311 3.901 4.486m12.68 11.649 2.187 2.516m-5.994-6.893 1.748 2.01m-8.704-10.01-.025-.028-4.313-4.961m15.613 15.024 2.649 3.045m-5.872-6.752 1.007 1.158m-11.918-13.705 4.618 5.31m10.89 9.592 2.319 2.666m-5.613-6.455-.162-.186-.467-.537m-5.128-5.897.25.288m-5.228-6.012.787.904m14.87 14.168 1.767 2.033m-15.945-18.336 1.061 1.22m13.703 12.826 2.314 2.661m-15.598-17.938 1.467 1.688m13.508 12.601 1.795 2.065m-15.29-17.584.48.552m14.84 14.134 1.168 1.344m-5.679-6.531.177.204m-5.383-6.191.478.55m-4.603-5.293.52.597m15.722 15.148-1.82-2.092-1.19-1.37-.52-.597m-11.232-12.917 3.095 3.56m10.22 8.821 2.7 3.104m-14.536-16.716 2.203 2.534m11.629 10.441 1.967 2.262m-4.295-4.939.476.547m-4.669-5.369 1.601 1.842m-4.047-4.655.324.373m-3.71-4.266 1.44 1.655m12.81 11.799 1.342 1.544m-11.455-13.172 8.32 9.567m-10.977-12.624.782.9m13.761 12.893.841.967m-11.847-13.624 9.27 10.66M28.52 100.421l.252.29m14.466 13.704.454.522m-6.095-7.009 3.943 4.535m-9.945-11.437 3.478 3.999m9.693 8.216.18.207m-1.862-2.142-4.961-5.706-.703-.807-4.674-5.376m13.413 12.493.019.022M34.06 97.996l10.412 11.975m87.784-28.274L166 115.787M8.938 88.052c-5.62-2.07-8.67.405-1.276 2.893 10.583 3.561 9.03-.038 1.276-2.893m-.851 3.02c-5.429-2.069-8.373.405-1.233 2.893 10.22 3.561 8.72-.038 1.233-2.892m-1.271 3.07c-4.89-1.827-7.365.775-.946 2.944 9.19 3.106 7.69-.423.946-2.943m8.998-23.192c0 .559.217 1.095.604 1.49s.912.617 1.459.617a2.03 2.03 0 0 0 1.459-.617 2.146 2.146 0 0 0 0-2.98 2.026 2.026 0 0 0-2.918 0 2.13 2.13 0 0 0-.604 1.49m11.001 0c0 .171.068.335.187.456a.635.635 0 0 0 .903 0 .65.65 0 0 0 0-.912.635.635 0 0 0-.903 0 .65.65 0 0 0-.187.456m-8.938-9.03c.17 0 .332-.068.451-.189a.65.65 0 0 0 0-.912.635.635 0 0 0-.903 0 .65.65 0 0 0 0 .912c.12.121.283.19.452.19m-8.939 9.03a.65.65 0 0 0-.187-.456.635.635 0 0 0-.902 0 .65.65 0 0 0 0 .912.635.635 0 0 0 1.09-.456m8.939 9.03a.64.64 0 0 0-.452.189.65.65 0 0 0 0 .912.636.636 0 0 0 1.09-.456.65.65 0 0 0-.187-.456.64.64 0 0 0-.451-.189m-3.83-12.255c0 .171.066.335.186.456a.636.636 0 0 0 1.09-.456.65.65 0 0 0-.187-.456.635.635 0 0 0-.903 0 .65.65 0 0 0-.187.456m.638 7.095a.64.64 0 0 0 .451-.189.65.65 0 0 0 0-.912.635.635 0 0 0-.903 0 .65.65 0 0 0 0 .912c.12.121.282.19.452.19m7.023-7.095a.65.65 0 0 1-.187.456.636.636 0 0 1-1.09-.456c0-.171.067-.335.187-.456a.635.635 0 0 1 .903 0c.12.121.187.285.187.456m-.639 7.095a.64.64 0 0 1-.451-.189.65.65 0 0 1 0-.912.635.635 0 0 1 .903 0 .65.65 0 0 1 0 .912.64.64 0 0 1-.452.19m90.662-49.02c-4.159-2.816-8.343-5.582-16.6 0 .268-.135-.305.684-.057.514C99.6 23.22 105.248 21.7 111.73 25.8m-91.939 97.395c-1.277 4.515 4.47 7.74 5.746-1.29 1.277 9.03 7.024 5.805 5.747 1.29 4.469 1.29 7.661-4.515-1.277-5.805 8.938-1.29 5.746-7.095 1.277-5.805 1.277-4.515-4.47-7.74-5.747 1.29-1.276-9.03-7.023-5.805-5.746-1.29-4.469-1.29-7.661 4.515 1.277 5.805-8.938 1.29-5.746 7.095-1.277 5.805m14.685-16.77c0 .513.202 1.005.56 1.368a1.905 1.905 0 0 0 2.709 0 1.945 1.945 0 0 0 0-2.736 1.9 1.9 0 0 0-1.354-.567c-.508 0-.995.204-1.354.567s-.561.855-.561 1.368m-20.43 25.155c0 .513.2 1.005.56 1.368s.847.567 1.354.567.996-.204 1.355-.567a1.945 1.945 0 0 0 0-2.736 1.9 1.9 0 0 0-1.354-.567c-.508 0-.996.204-1.355.567a1.94 1.94 0 0 0-.56 1.368m3.83 16.77c0 .513.202 1.005.56 1.368a1.905 1.905 0 0 0 2.709 0 1.945 1.945 0 0 0 0-2.736 1.9 1.9 0 0 0-1.354-.567c-.508 0-.995.204-1.354.567s-.561.855-.561 1.368"/><path stroke="#000" stroke-linecap="round" stroke-linejoin="round" stroke-width=".5" d="M12.77 89.655c-.564.798-.888 1.638-.64 2.58m.086.643c-.564.797-.888 1.638-.639 2.58m-.872.384c-.563.798-.887 1.638-.639 2.58m3.342-14.572c-.132 1.942-5.135.008-4.47-.645m86.831-24.51c-1.956-.975-3.905-1.843-5.746-1.29m6.385-22.575c1.057 1.36 3.058 1.674 5.107 1.935m-17.877-1.29c-2.129.284-2.537-.238-3.192-.645m28.731-5.805c-3.192 0-6.206-5.47-11.492 0m-8.684.4c-1.532-.4-5.682-6.527-10.47-1.045m20.11.547a4.7 4.7 0 0 0-.318 1.716c0 1.963 1.144 3.554 2.554 3.554s2.554-1.591 2.554-3.554c0-.582-.101-1.132-.279-1.617m-23.17-.648c-.112.4-.174.836-.174 1.292 0 1.962 1.143 3.553 2.554 3.553s2.553-1.59 2.553-3.553q0-.253-.024-.496m-17.74 46.8a138 138 0 0 1-6.543-1.496m28.402 3.98a119 119 0 0 1-5.584-.257m16.288.007q-2.695.186-5.434.249m16.391-1.508q-2.701.435-5.442.751m16.973-3.138q-2.977.751-5.988 1.371m17.046-4.607a166 166 0 0 1-5.369 1.68M67.846 74.8q-3.119-.622-6.314-1.418m27.753 3.8a117 117 0 0 1-5.433-.237m15.899-.021q-2.64.184-5.319.25m16.129-1.504q-2.667.431-5.369.747m16.701-3.101q-2.922.739-5.875 1.35m16.814-4.554a166 166 0 0 1-5.297 1.66m-6.878-3.444q2.734-.696 5.455-1.503m-15.936 3.715q2.54-.423 5.056-.952M99.897 71.78q2.593-.194 5.149-.503m-14.664.797q2.35.03 4.661-.04M70.62 70.087q2.564.477 5.073.836m-3.663-3.178q-2.437-.437-4.928-.987m23.838 2.785a108 108 0 0 1-4.525-.133m13.562-.175q-2.295.176-4.621.253m14.638-1.485q-2.493.42-5.017.732m15.071-2.873q-2.592.663-5.203 1.217m15.436-4.24q-2.433.81-4.87 1.537m-6.599-3.505a137 137 0 0 0 5.176-1.443m-14.398 3.44q2.24-.391 4.468-.872m-13.933 2.085a103 103 0 0 0 4.705-.494m-11.872.823q1.514-.015 3.014-.076M74.846 63q2.142.35 4.242.61m-10.55 10.015q-3.004-.59-6.083-1.342m27.105 3.623a116 116 0 0 1-5.282-.219m15.51-.049q-2.581.184-5.203.251m15.869-1.5q-2.632.43-5.299.743m16.429-3.063a136 136 0 0 1-5.763 1.327m16.584-4.5a164 164 0 0 1-5.226 1.639m-.711-2.473q-2.743.811-5.502 1.513-2.758.7-5.538 1.283-2.566.537-5.159.965m-10.408 1.244q2.628-.194 5.221-.504m-14.974.79q2.41.034 4.783-.034m-24.97-2.05q2.635.498 5.214.874m-2.4-5.58a124 124 0 0 1-4.69-.917m23.171 2.618a106 106 0 0 1-4.372-.117m13.169-.198a105 105 0 0 1-4.504.253M109.9 66.72q-2.467.42-4.961.73m14.798-2.834q-2.537.65-5.091 1.195m15.206-4.187q-2.398.801-4.798 1.517m6.068 2.11a185 185 0 0 0 4.849-1.684m-7.4-5.59a177 177 0 0 0 3.574-1.234m-.595 9.723a185 185 0 0 0 5.182-1.805m-7.734-5.468a175 175 0 0 0 3.703-1.28M119.12 62.12a138 138 0 0 0 5.223-1.454m-14.647 3.485q2.287-.395 4.558-.883m-14.167 2.103a105 105 0 0 0 4.779-.495m-13.097.823a102 102 0 0 0 4.048-.075M78.602 77.768q-2.82-.309-5.696-.76m6.171-.48a123 123 0 0 1-5.613-.735m7.516-4.235q2.305.224 4.57.35m-3.625-2.817a113 113 0 0 1-5.097-.584m7.01-4.413q2.166.171 4.292.251m-8.577 10.941a122 122 0 0 1-5.531-.709m6.482-1.775q2.331.231 4.622.366m-2.724-5.324a112 112 0 0 1-5.008-.56m5.965-1.94q2.191.18 4.343.27m-13.558-1.425q2.213.37 4.38.647m-17.061 3.207q1.893.492 3.754.92m3.652-7.097q1.004.216 1.998.413m-10.64 6.771q2.052.549 4.068 1.022m3.308-7.164q1.17.261 2.326.498m70.511 5.788q-.909.29-1.821.568m.845-1.61q-.618.194-1.237.384m.342-1.453-.733.227M166 88.51l-21.023-30.224M166 84.024l-18.515-26.619M166 79.536l-16.039-23.059M61.085 51.6c-1.373 5.542-2.38 11.824-2.964 19.173m4.098-3.67.502-3.836c.659-5.042 1.568-9.513 2.7-13.567M52.033 75.846l.104-1.8c.429-7.385 1.276-13.843 2.474-19.608m4.299-1.888c-1.342 5.756-2.308 12.272-2.83 19.864m8.289-6.976.25-1.919c.735-5.613 1.771-10.476 3.08-14.83m4.678-2.05c-1.55 4.387-2.776 9.338-3.661 15.256m-5.43-11.268c-1.402 5.31-2.45 11.333-3.096 18.407"/></svg>