<svg xmlns="http://www.w3.org/2000/svg" fill="none" viewBox="0 0 166 258"><path fill="#000" d="m36.873 168.906 6.219-8.171a41.67 41.67 0 0 1-7.338-23.672c0-9.715 3.312-18.663 8.89-25.842-2.693-7.177-6.059-13.954-10.303-20.383.088 1.3.136 2.632.136 3.977 0 15.937-6.764 30.024-17.165 38.576 4.728 13.007 11.913 25.546 19.56 35.515M70.486 47.214c-2.554-.331-5.465-3.083-6.13-3.741-.522-.518-1.904.56-1.787 1.29 2.526 1.329 6.135 2.79 7.917 2.451m7.79-18.318c-.262.448-8.386-5.011-9.833-5.547-1.775-.657-3.396.863-3.32.774l-.255 1.419s2.095-1.53 3.192-1.161c1.15.387 10.08 5.179 10.215 4.515m-12.897 1.226c0 .262.027.522.082.765.055.242.135.463.235.648q.153.28.353.434c.131.1.272.152.415.152a.7.7 0 0 0 .415-.152c.132-.1.252-.248.352-.434.101-.185.181-.406.236-.648.054-.243.082-.503.082-.765 0-.263-.028-.523-.082-.766a2.5 2.5 0 0 0-.236-.648c-.1-.186-.22-.333-.352-.434a.7.7 0 0 0-.415-.152.7.7 0 0 0-.415.152c-.132.1-.252.248-.353.434-.1.185-.18.406-.235.648a3.5 3.5 0 0 0-.082.765"/><path fill="#000" d="M85.186 12.094c14.118-.067 26.941 2.646 37.958 5.75l-2.565 2.648c-16.404-4.74-38.674-7.868-58.648-1.142l-3.444-3.614c9.292-2.56 18.228-3.601 26.699-3.642m46.858 54.032.47.304.868 2.85-1.415 1.655-6.233-.969 1.893 5.736-1.318 1.694-5.918-.499 1.522 6.663-1.454 1.562-5.81-.978 1.523 7.176-1.459 1.542-5.623-.947 1.946 6.39-1.415 1.655-6.286-.977 1.955 6.418-1.221 1.669h-6.477l1.931 5.364-1.2 1.731h-6.317l.998 2.218-2.78.054-1.363-3.028 1.162-1.824H96.5l-1.93-5.364 1.2-1.731h6.57l-2.045-6.716 1.415-1.654 6.286.977-1.955-6.418 1.431-1.651 5.809.978-1.522-7.176 1.459-1.542 5.778.972-1.486-6.505 1.35-1.575 5.732.482-1.942-5.884 1.406-1.683 6.286.977-.482-1.58zm-80.102 3.951 5.714.888 1.05 1.565-1.629 7.128 7.056 1.645.892 1.753-2.701 6.55 6.482 2.728.688 1.687-2.768 6.711 5.439 3.297.459 1.732-2.668 4.853 5.542 4.479c.397.309.563.807.473 1.272l-2.912.061-5.541-4.479-.319-1.633 2.593-4.715-5.326-3.228-.522-1.602 2.702-6.55-6.483-2.728-.688-1.687 2.611-6.33-6.827-1.592-.957-1.547 1.606-7.031-6.702-1.042zm69.366.873c.254 0 .497.102.677.283a.975.975 0 0 1 0 1.369.953.953 0 0 1-1.355 0 .975.975 0 0 1 0-1.369.96.96 0 0 1 .678-.283m7.98.968c.254 0 .498.101.678.283a.975.975 0 0 1 0 1.368.955.955 0 0 1-1.355 0 .975.975 0 0 1 0-1.368.95.95 0 0 1 .677-.283m-77.253 2.58a.95.95 0 0 1 .677.283.97.97 0 0 1 0 1.368.953.953 0 0 1-1.355 0 .97.97 0 0 1 0-1.368.95.95 0 0 1 .678-.284m57.78.967L81.723 112.23c-3.113-13.025-7.26-25.783-13.408-36.765zm-49.48.968a.95.95 0 0 1 .677.283.97.97 0 0 1 0 1.368.953.953 0 0 1-1.355 0 .97.97 0 0 1 0-1.368.95.95 0 0 1 .678-.283m45.65.967H71.508c5.107 9.675 8.619 19.937 10.854 30.96zm17.557.968c.254 0 .498.101.677.283a.97.97 0 0 1 0 1.368.95.95 0 0 1-1.354 0 .97.97 0 0 1-.28-.684c0-.257.1-.503.28-.684a.95.95 0 0 1 .677-.283m-7.661 0a.95.95 0 0 1 .677.283.97.97 0 0 1 .28.684.97.97 0 0 1-.28.684.953.953 0 0 1-1.354 0 .97.97 0 0 1 0-1.368.95.95 0 0 1 .677-.283m-82.49 5.63c6.628 8.82 11.417 18.398 14.979 28.682-5.478 6.627-8.785 15.122-8.785 24.382 0 9.244 3.295 17.725 8.768 24.351l-10.33 13.466c-8.986-10.073-17.897-24.268-23.743-39.232a39 39 0 0 0 2.992-2.222c4.768 12.973 11.953 25.512 19.6 35.481l6.22-8.17a41.67 41.67 0 0 1-7.338-23.674q0-.94.041-1.87h-3.872a.38.38 0 0 1-.274-.111.38.38 0 0 1-.114-.276.39.39 0 0 1 .388-.387h3.914q.099-1.565.31-3.096h-5.82a.38.38 0 0 1-.275-.111.38.38 0 0 1-.114-.276.39.39 0 0 1 .24-.359.4.4 0 0 1 .149-.028h5.933q.244-1.568.604-3.096h-6.856a.38.38 0 0 1-.275-.111.38.38 0 0 1-.114-.276.39.39 0 0 1 .389-.387h7.046q.35-1.373.79-2.709h-9.752a.76.76 0 0 1-.561-.237q.413-.647.808-1.311h10.047a42 42 0 0 1 .947-2.322h-9.325a.8.8 0 0 1-.328-.07q.383-.73.744-1.478h9.632a42 42 0 0 1 1.233-2.322h-9.812q.324-.766.626-1.548H42.22a43 43 0 0 1 1.573-2.322H32.94q.255-.767.488-1.548h11.058q-.443-1.168-.91-2.322H34.07q.195-.77.367-1.548h8.498a105 105 0 0 0-1.015-2.322h-7.022a55 55 0 0 0 .251-1.548h6.055q-.551-1.169-1.13-2.322h-4.631q.08-.771.14-1.548h3.692a96 96 0 0 0-4.933-8.347 52 52 0 0 0-.952-6.856m25.028.174a.95.95 0 0 1 .677.284.97.97 0 0 1 0 1.368.953.953 0 0 1-1.354 0 .97.97 0 0 1 0-1.368.95.95 0 0 1 .677-.284m59.377 1.936c.254 0 .498.101.677.283a.97.97 0 0 1 0 1.368.95.95 0 0 1-1.354 0 .97.97 0 0 1 0-1.368.95.95 0 0 1 .677-.284m-7.661 0a.95.95 0 0 1 .677.283.975.975 0 0 1 0 1.368.953.953 0 0 1-1.355 0 .975.975 0 0 1 0-1.368.96.96 0 0 1 .678-.284m-44.054 1.29a.95.95 0 0 1 .677.283.97.97 0 0 1 0 1.368.953.953 0 0 1-1.354 0 .97.97 0 0 1 0-1.368.95.95 0 0 1 .677-.284m38.307 5.805c.254 0 .498.101.678.283a.975.975 0 0 1 0 1.368.955.955 0 0 1-1.355 0 .975.975 0 0 1 0-1.368.95.95 0 0 1 .677-.284m8.3.644c.254 0 .498.102.678.284a.975.975 0 0 1 0 1.368.955.955 0 0 1-1.355 0 .975.975 0 0 1 0-1.368.95.95 0 0 1 .677-.284m-49.48.968c.254 0 .497.102.677.283a.97.97 0 0 1 0 1.369.953.953 0 0 1-1.354 0 .97.97 0 0 1 0-1.369.95.95 0 0 1 .677-.283m7.023 3.87c.254 0 .497.102.677.283a.97.97 0 0 1 0 1.369.954.954 0 0 1-1.635-.684c0-.257.101-.503.28-.685a.95.95 0 0 1 .678-.283m-58.333 1.194c-1.461 7.119-6.01 12.84-11.898 15.134v-6.31c3.96-2.939 7.918-5.877 11.898-8.824m95.044 1.063a.95.95 0 0 1 .677.284.97.97 0 0 1 0 1.368.95.95 0 0 1-1.354 0 .97.97 0 0 1-.28-.684c0-.257.1-.503.28-.684a.95.95 0 0 1 .677-.284m-8.3 0c.254 0 .498.102.678.284a.97.97 0 0 1-.678 1.651.95.95 0 0 1-.677-.283.97.97 0 0 1 .677-1.652m-31.923 4.515a.95.95 0 0 1 .677.284.97.97 0 0 1-.677 1.651.95.95 0 0 1-.677-.283.97.97 0 0 1 .677-1.652m34.477 3.225a.95.95 0 0 1 .677.284.97.97 0 0 1 0 1.368.95.95 0 0 1-1.354 0 .97.97 0 0 1 0-1.368.95.95 0 0 1 .677-.284m-8.3 0a.95.95 0 0 1 .677.284.97.97 0 0 1-.677 1.651.95.95 0 0 1-.677-.283.97.97 0 0 1 .677-1.652M73.422 109c.254 0 .498.102.677.283a.974.974 0 0 1 0 1.369.954.954 0 0 1-1.354 0 .975.975 0 0 1 0-1.369.95.95 0 0 1 .677-.283"/><path stroke="#000" stroke-linecap="round" stroke-linejoin="round" d="M102.473 141.578v-25.155m0 0H63.527c-3.645-15.113-9.254-28.872-18.466-41.208m57.412 41.208 35.403-46.233m-35.408 48.49H63.574m38.868 2.58h-38.92m35.12-4.837 36.727-47.962m-50.773 47.962 39.005-50.937m-3.57-.34-39.266 51.277c-4.438-18.4-9.546-36.49-22.48-50.966m-2.305 1.767c11.818 14.167 16.695 31.54 20.955 49.199M47.53 73.437c10.026 12.787 16.005 27.142 19.827 42.986M35.824 82.195c6.693 8.472 11.597 17.636 15.265 27.467M33.365 83.974c6.654 8.843 11.443 18.422 14.975 28.709m11.343-9.282c-11.979 6.523-20.098 19.152-20.098 33.662 0 9.243 3.295 17.724 8.784 24.348m14.269-48.5c-8 5.107-13.297 14.016-13.297 24.152a28.4 28.4 0 0 0 5.147 16.343m9.024-36.397c-6.226 4.517-10.27 11.817-10.27 20.054 0 4.775 1.36 9.235 3.715 13.021M113.59 73.53H64.477m54.06-6.45H59.844m57.633-3.87H61.292m0 0L0 108.702M61.292 63.21l3.179-2.408m67.554 5.338L166 89.81m-30.068-17.078L166 93.68M44.631 111.269c-5.565 7.131-8.877 16.079-8.877 25.794a41.74 41.74 0 0 0 7.318 23.661M.003 141.423c19.491-3.266 34.474-22.889 34.474-46.608a55 55 0 0 0-1.062-10.793M0 127.022c12.764-3.105 22.355-16.345 22.355-32.207q0-1.305-.085-2.584M.009 123.054c10.918-3.037 19.04-14.528 19.04-28.239l-.001-.263M.002 115.015c5.887-2.295 10.436-8.018 11.92-15.146m-.709 37.699c6.307 15.384 15.76 29.816 25.008 39.608m-21.938-41.507c5.843 14.942 14.754 29.137 23.706 39.25m-20.727-41.495c4.778 12.974 11.963 25.513 19.598 35.465m6.251-8.143-6.226 8.177m-2.538-78.07c4.238 6.414 7.604 13.191 10.309 20.32m67.376-35.708H65.774M.002 139.042c18.32-2.473 32.56-21.111 32.56-43.736 0-3.468-.335-6.842-.967-10.078m-.872 10.375.001-.297c0-3.04-.27-6.004-.784-8.86m-1.581 24.025a48.4 48.4 0 0 0 2.121-10.196m-10.09 24.738c2.568-3.049 4.742-6.573 6.424-10.453M7.472 134.739c3.963-1.679 7.597-4.192 10.755-7.363M.005 136.823a30 30 0 0 0 3.051-.6m25.481-43.566a47 47 0 0 0-.51-4.776m-1.685 21.816a45.5 45.5 0 0 0 2.07-10.047m-9.262 23.267c2.244-2.722 4.159-5.835 5.667-9.247M6.043 132.645c3.65-1.432 7.018-3.611 9.978-6.387m10.378-33.916a44 44 0 0 0-.303-2.999m-.928 16.699q.552-2.165.88-4.434m-6.999 17.709a37 37 0 0 0 2.745-4.441M7.476 129.314a29.2 29.2 0 0 0 5.025-3.155m11.634-35.394a41 41 0 0 1 .208 6.401m-1.466 9.14c.499-1.763.881-3.59 1.136-5.468m-2.436 9.283q.195-.487.378-.983m-4.96 9.14a34.5 34.5 0 0 0 3.01-4.752m-5.943 8.117q.222-.221.441-.448m-14.5 7.961c4.088-.714 7.895-2.468 11.228-5.03m-11.248 6.173c.642-.298 1.566-.242 2.801.442.28-6.061 8.733-.64 3.229 1.873 4.696 3.402-3.221 7.582-3.345 1.886-1.126.75-2.03.743-2.675.342m63.554-.516c-1.57-.786-4.75-2.304-6.724-2.746-4.074-.913-4.3 4.974-.638 5.16 1.889.096 5.533.404 7.296.557m.077-1.436-4.181-1.056m4.086-3.583c-1.075-1.207-3.044-3.327-4.439-4.293-3.032-2.099-5.133 2.637-2.201 4.006 2.043.953 6.575 3.284 6.575 3.284m.11-1.28-3.446-2.525m3.427-5.468c-.495-.901-1.02-1.764-1.5-2.366-2.305-2.893-5.668 1.031-3.25 3.195 1.255 1.124 3.617 3.384 4.738 4.461m.042-1.988-1.53-2.029m1.515-8.024c-1.585.113-3.008 2.129-1.696 3.887a121 121 0 0 1 1.684 2.339m-.055 13.326c-1.689-.214-5.316-.61-7.374-.362-4.144.499-2.43 6.13 1.086 5.083 1.584-.472 4.483-1.238 6.334-1.721m-.035-1.537-3.92.366m3.957 1.219c-1.675.44-5.116 1.411-6.913 2.395-3.298 1.807-.68 5.703 1.98 4.81m3.864-5.002-1.822.935m.593-30.024-2.449-2.969c-2.66-3.225-6.384 1.548-4.469 3.87l2.494 3.024m-1.36 1.643-3.305-2.15c-3.494-2.271-5.632 3.409-3.117 5.045l3.264 2.122m-.84 1.852-3.702-.933c-4.031-1.015-4.247 5.058-1.344 5.79l3.405.858m-.318 2.41-3.421.1c-4.154.121-2.74 6.028.252 5.941l3.259-.095m.472 2.739-3.24.796c-4.038.992-1.437 6.473 1.47 5.758l3.623-.89m.698 1.46-2.956 2.284c-2.455 1.897-.559 4.573 1.552 5.064m8.781-53.668c-1.061 1.444-1.495 3.308-.63 4.879-4.339-5.26-10.413 2.525-7.29 6.312-5.699-3.706-9.186 5.56-5.082 8.228-6.577-1.657-6.929 8.249-2.194 9.442-6.775.198-4.468 9.833.41 9.691-6.585 1.618-2.343 10.556 2.399 9.391-3.755 2.901-1.27 6.919 1.892 8.07M166 3.505l-13.408 16.49v60.392M166 13.152l-7.662 9.423v61.836m-5.815-55.915c-8.472-7.728-6.077-12.699-5.677-18.176-19.301 16.612-14.024 32.866-1.915 49.02.093-7.65 1.044-14.556 7.721-16.486m-6.198-29.439c-2.853 3.742-6.069 7.264-.246 16.255-2.578 1.015-5.169 1.762-7.662 4.515 2.03 3.141 4.797 4.284 7.662 5.16-2.203 4.756-6.664 7.912-1.27 18.053M27.321 88.437c-.22-1.903-.663-5.43-1.144-5.877-.67-.62-5.66-7.009-6.385-7.74-.638-.645-4.469-1.29-5.107-1.29-.639 0-3.414 1.23-3.831 3.225-1.223 5.845 1.308 9.722 4.469 1.29 1.277 1.29 1.915 1.29 3.83 1.29-5.454 4.373-3.688 7.767 1.916 10.32m-7.001-16.147c-.474-.619-1.114-1.266-1.937-1.913-3.927-3.085-9.834-.982-3.831 3.87.878.71 1.696 1.236 2.438 1.605m-1.923-1.188c-4.776-1.48-8.531 1.187-1.077 5.444 7.1 4.053 9.974 1.69 6.948-1.688m-6.781 1.75c-4.377-.342-6.981 2.39.328 4.938 7.658 2.67 9.826-.242 5.6-2.885M7.98 86.247c-4.36-.265-7.137 2.923-.042 4.698 7.3 1.827 8.729-1.588 4.024-3.665m3.638 9.897c-2.844-.889-6.456-4.12-6.807-6.014m7.988-4.398c-.623 2.494 2.029 5.643 2.372 5.47m17.238-32.25c.639 5.16-4.469 7.095-9.577 3.225-6.871-5.206-20.059-5.428-13.407 8.385m22.984-11.61c8.939 3.87.639 18.06-8.3 12.255-5.388-3.5-13.407-5.16-14.684-.645m22.984-11.61c5.804 6.793-1.815 13.153-11.492 6.45-9.484-6.569-14.368 3.056-11.492 5.16m0 0 .638 1.935m2.065-13.51c-1.105 2.067-1.932 4.143-2.078 6.243m5.076-6.238c-1.267 1.437-2.292 2.955-2.849 4.628m8.015-2.995c-1.172.88-2.265 1.824-3.153 2.89m7.436-.227c-1.655.319-3.203.794-4.55 1.56m8.042-.605c-1.263.968-2.372 2.024-3.208 3.235m6.938-5.128c-.944 1.952-1.675 3.9-1.883 5.836m-16.66-.337c-.715-1.293-.55-2.803-.007-4.53m2.95 4.723c-.596-1.3-.432-2.916-.002-4.783m5.214 6.443c-.593-1.13-.67-2.595-.569-4.295m6.809 7.149c-.914-1.085-1.296-2.716-1.57-4.653m7.668 2.338c-.861-.526-1.624-1.379-2.381-2.423m27.586-49.88c-.734 2.349-1.643 5.414-1.643 6.184 0 1.442.639 1.694.639 2.58 0 .645-5.108 9.03-5.108 11.61s2.554 2.58 3.192 2.58 0 2.58 0 3.225.639 1.935.639 1.935-.639 1.023-.639 1.935c0 1.935 3.831 1.935 3.831 1.935s-.638 1.935-.638 2.58-2.554 0-2.554 3.225c0 1.29 3.83 4.515 5.107 4.515s2.554-1.29 3.831-1.29 3.193 1.29 4.47 1.29 7.792-2.646 10.215-3.87c1.277-.645 1.095-2.576 3.269-3.427 1.327-.52 2.776-2.476 3.894-4.66M63.846 38.055c4.983.452 2.012 5.196-2.554 1.935-1.042-.745 0 .645 0 .645 1.16 0 2.3.61 3.193.516m1.404 7.095c-1.802-.281-3.594-.1-5.235-1.29M74.7 31.606c-4.258-.28-7.69-4.07-11.11-3.87m7.284 2.81c1.588 3.67-5.205 1.01-7.411 2.22m55.744-12.635c6.627 15.795-2.223 28.255 5.931 41.79m0 0c1.218 2.02 6.385 3.224 7.024 0 1.126-5.693-6.417-3.599-4.47-1.29m-2.554 1.29c-2.553-7.096 10.427-9.642 9.577.644-.49 5.935-9.577 4.515-12.13-.645-7.124-14.393 1.146-26.48-6.236-42.544m-2.922-.777c8.02 16.454-.634 28.696 6.604 43.321 1.576 3.185 5.641 4.945 8.637 4.43m-18.105-48.382c8.611 16.773.222 29.141 7.552 43.952 1.092 2.205 2.908 3.15 4.917 3.351m-15.304-47.846c9.073 16.96.425 28.236 7.834 43.205 1.576 3.185 4.665 5.03 7.661 4.515m-18.304-48.192c9.489 17.19.612 27.925 8.089 43.032 1.515 3.06 3.837 4.288 6.675 3.922m-17.565-47.394c9.889 17.448.795 28.237 8.336 43.472 1.576 3.185 3.388 3.74 6.384 3.225M99.385 16.2c10.177 17.633.929 28.46 8.515 43.786 1.576 3.185 4.027 3.74 7.023 3.225M96.661 15.907c10.45 17.785 1.058 27.377 8.685 42.788 1.576 3.185 3.388 4.385 6.385 3.87M93.984 15.697c10.647 17.915 1.151 26.882 8.808 42.353 1.577 3.185 3.389 4.385 6.385 3.87M91.353 15.57c10.769 17.998 1.21 26.327 8.885 41.835 1.323 2.672 2.362 3.493 4.432 3.384M88.746 15.48c10.854 18.06 1.25 24.456 8.939 39.99 1.176 2.377 2.128 3.649 3.782 3.927M86.192 15.48c10.854 18.06 1.25 23.166 8.939 38.7.785 1.587 1.947 2.361 3.285 2.675M83.687 15.56c10.776 17.984.576 19.24 8.252 34.75.951 1.921 1.755 2.885 2.901 3.235m28.305-35.713c-17.627-4.953-39.88-8.921-64.651-2.117M140.506 0l-19.927 20.492c-16.404-4.74-38.674-7.868-58.648-1.142L43.357 0M22.34 109.963c-3.161-5.159 6.845-5.516 3.711-.3 5.778.124 1.588 8.094-1.703 3.467-2.118 5.253-8.417-2.519-2.008-3.167m3.05-13.265c-4.178-4.358 5.523-6.865 3.563-1.093 5.671-1.125 3.26 7.565-.932 3.754-.96 5.589-8.755-.646-2.63-2.661m-10.822 24.979c-1.531-5.866 8.142-3.255 3.636.809 5.49 1.824-.823 8.209-2.632 2.813-3.545 4.399-7.322-4.894-1.004-3.622m55.918-74.463c-2.554-.331-5.465-3.083-6.13-3.74-.522-.52-1.904.559-1.787 1.29 2.526 1.328 6.135 2.79 7.917 2.45m7.79-18.318c-.262.448-8.386-5.011-9.833-5.547-1.775-.657-3.396.863-3.32.774l-.255 1.42s2.095-1.531 3.192-1.162c1.15.387 10.08 5.179 10.215 4.515"/><path stroke="#000" stroke-linecap="round" stroke-linejoin="round" stroke-width=".5" d="M151.315 27.327V43.35m-1.276-17.398v18.1m-1.277-19.72v20.731m-1.277-22.888V46.63m-1.277-35.02v37.693m-1.277-37.254v46.646m-1.277-45.403V57.57m-1.277-42.934v41.116M141.1 16.095v37.72m-1.277-36.112v34.009m-1.277-32.202v29.925m-1.277-27.786V46.89M12.514 87.72c-1.253 1.134-.974 3.462-.51 3.483m1.531-7.482c-1.252 1.134-.974 3.462-.51 3.483m-2.171-9.417c1.15.645.51 4.644.51 4.644m-1.276 1.161c-.41.608-.489 1.327-.511 2.064m-.766 2.322c-.41.608-.489 1.327-.51 2.064m55.034-57.276c.373-.33 3.325.694 3.448 1.419m-3.32-6.579c1.532.387 2.937-1.29 4.725-1.29.526 0 2.809 1.032 2.809 1.032m-5.286.773c-.464.358-.704 1.066-.716 1.872 0 1.318.83 2.386 1.852 2.386s1.852-1.068 1.852-2.386q-.001-.3-.055-.578M90.124 51.6h2.49m-4.273 1.935h6.448m-8.964 1.935h10.196m-11.716 1.935H98.8M80.446 59.34h20.431m-17.239 1.935h21.74"/></svg>