<svg xmlns="http://www.w3.org/2000/svg" width="144" height="240" fill="none"><path stroke="currentColor" stroke-linecap="round" stroke-linejoin="round" d="M57.674.018c1.847 6.356 7.304 6.611 7.604 11.948.303 5.39-6.568 5.803-6.844.411-.186-3.644 3.727-3.83 3.911-.235.092 1.798-2.352 1.944-2.444.147M56.958.02c-1.17 6.577-6.592 7.476-6.345 12.828.25 5.393 7.12 4.98 6.844-.411-.187-3.644-4.095-3.36-3.91.235.091 1.797 2.535 1.65 2.443-.147M92.173.018c.751 7.1 7.135 8.388 6.572 13.843-.555 5.366-8.285 4.377-7.7-.985.394-3.625 4.79-3.013 4.4.562-.195 1.788-2.945 1.436-2.75-.351M91.585.023c-2.28 6.636-8.719 6.3-9.341 11.727-.615 5.359 7.116 6.348 7.7.985.395-3.625-4.01-4.138-4.4-.563-.195 1.788 2.556 2.14 2.75.352m13.079 6.354q.222-.228.435-.475c1.729-2.001 2.73-4.685 3.044-7.83 3.306-.647 5.795-1.574 7.766-2.639m-16.333 10.18c3.497-1.424 5.575-4.604 5.336-10.65 10.174-1.3 11.879-4.663 15.862-7.472M39.726 7.434c1.388 1.11 2.874 2.013 4.53 2.467.375 1.406.79 3.053 1.684 4.88a11.5 11.5 0 0 0 1.784 2.629m4.983-.433c-4.661-2.446-4.478-6.507-5.956-10.35-3.004.092-6.398-2.95-9.657-6.62m30.661 16.348c1.404-1.87 2.47-4.17 3.023-6.855a9.9 9.9 0 0 0 3.12-2.227 10.2 10.2 0 0 0 2.876 2.58c.26 2.527.986 4.777 2.047 6.701m-5-16.542c-.9 3.423-2.382 6.186-5.995 6.658-.375 4.81-2.246 7.823-5 9.774m20.25.356c-1.999-2.198-3.18-5.188-3.083-9.411-3.562-.9-4.752-3.846-5.3-7.379m43.29.083c-10.609 14.852-12.982 20.863-15.318 28.076M35.522.056C42.223 11.433 45.59 18.404 48.319 26.39m-1.27-3.504c21.667-2.17 39.399-1.16 56.803 1.818m-55.55 1.673c20.699-1.996 37.666-1.04 54.371 1.77m-57.77-10.464c23.38-2.493 42.435-1.374 61.058 1.919m-8.593 111.573c-5.445-19.762-3.028-42.11 11.895-67.798 6.399 15.77 21.21 32.636 34.741 45.136m-21.336 64.99c-8.044-8.682-14.874-17.939-19.77-27.888M-.002 80.822c11.978-10.356 26.355-17.397 40.904-24.2m43.742 9.632c-8.575 38.671-2.62 75.58 10.545 106.284m-38.605-83.21 18.641-19.774m-7.268 3.511L55.642 86.128m1.835 6.451 25.288-26.824c3.799-1.857 5.368-7.48 5.216-11.011C87.508 43.8 80.86 45 80.63 25.686M61.77 114h19.242m-19.972-4.887 20.283-21.516m.504-4.733-21.413 22.713m1.185 7.142 19.378-20.556M80.841 111H63.22M42.646 60.6c-1.108 0-2.149 3.426.554 3.6 2.102.135 4.43-5.4 0-5.4-4.985 0-4.445 8.86 1.093 8.86 7.191 0 14.968-1.06 16.63-7.06 6.092 15.6 16.636 9.643 16.615 5.4-.016-3.328-3.876-3.6-4.43-1.8-.757 2.46 1.107 3.6 2.769 1.8-2.77 4.2-8.352 1.009-11.077-5.4m-2.72 55.746 1.058-1.146 2.216 2.4 2.215-2.4 2.216 2.4L72 115.2l2.215 2.4 2.216-2.4 2.215 2.4 2.216-2.4.247.268M65.293 84.287q.257.216.485.47m0 0c.87.97 1.35 2.274 1.332 3.627s-.53 2.642-1.426 3.585m.094-7.212c.87.97 2.06 1.525 3.309 1.544 1.248.02 2.453-.5 3.348-1.442m-6.657-.102a5 5 0 0 1-.42-.538m.326 7.75c-.895.943-2.1 1.462-3.348 1.443-1.248-.02-2.438-.575-3.309-1.545m6.657.102c-.895.943-1.408 2.232-1.425 3.585s.461 2.657 1.332 3.627m.093-7.212a4.7 4.7 0 0 1 1.542-1.082 4.4 4.4 0 0 1 1.806-.361c.618.01 1.229.15 1.796.416a4.7 4.7 0 0 1 1.513 1.128m-13.314-.203a5 5 0 0 1-.4-.509m.4.51a5 5 0 0 0-.458-.448m.458.447c.851.949 1.33 2.219 1.332 3.542.004 1.322-.468 2.595-1.314 3.549m19.696-28.936q.287.235.538.514m0 0c.431.48.77 1.048.999 1.67a5.48 5.48 0 0 1-.05 3.903 5.1 5.1 0 0 1-1.042 1.64m.093-7.213a4.7 4.7 0 0 0 1.934 1.3 4.36 4.36 0 0 0 2.27.165m-4.204-1.465a5 5 0 0 1-.46-.597m.367 7.81a4.7 4.7 0 0 1-1.542 1.081 4.4 4.4 0 0 1-1.806.361 4.4 4.4 0 0 1-1.797-.416 4.7 4.7 0 0 1-1.513-1.128m6.657.101c-.895.943-1.407 2.233-1.425 3.585-.018 1.353.462 2.657 1.332 3.627m.094-7.212a4.7 4.7 0 0 1 1.636-1.122 4.4 4.4 0 0 1 1.914-.313m-10.208 1.334a5 5 0 0 1-.44-.568m.44.568a5 5 0 0 0-.51-.493m.51.493c.87.97 1.35 2.274 1.332 3.627-.017 1.352-.53 2.642-1.425 3.585m0 0c-.895.942-1.408 2.232-1.426 3.584-.017 1.353.462 2.657 1.332 3.627m.094-7.211a4.7 4.7 0 0 1 1.541-1.083 4.4 4.4 0 0 1 1.807-.36 4.4 4.4 0 0 1 1.796.415 4.7 4.7 0 0 1 1.513 1.129M59.043 98.968c.903-.893 2.092-1.37 3.314-1.33s2.381.593 3.234 1.543m0 0q.21.233.39.494m-.39-.494q.21.232.444.436m6.306-7.547q.198.22.37.465m-.37-.465q.198.22.419.414m6.724-7.133a5 5 0 0 1-.392-.391m0 0q.185.208.35.436M77.11 67.554l2.782-2.951m-29.854 5.784c1.87-.208 3.714-.56 5.456-1.139 1.84-.612 3.633-1.574 5.102-2.938 2.175 3.575 4.767 5.767 7.374 6.775m37.164-10.294c5.396 1.906 10.656.86 15.603-6.991.739 3.97 2.883 7.073 4.985 10.2 2.205-3.586 3.692-7.186 4.431-10.8 3.117 6.599 8.482 8.495 13.842 10.403m.006 38.024c-12.347-11.768-25.27-27.01-31.116-40.614M98.934 86.048c1.929 3.678 2.974 8.164 2.974 12.775 0 3.646-.653 7.23-1.896 10.405s-3.032 5.834-5.196 7.719m.29 3.104c1.7-1.215 3.218-2.796 4.492-4.631 3.024-4.36 4.802-10.201 4.802-16.597 0-6.084-1.609-11.665-4.369-15.947m-2.82 48.214c4.185-2.099 7.728-5.393 10.356-9.182 4.466-6.438 6.802-14.52 6.802-23.085 0-8.564-2.336-16.647-6.802-23.084a30.4 30.4 0 0 0-2.964-3.642m-2.404 59.393c2.974-2.142 5.536-4.83 7.582-7.78 4.856-7 7.357-15.731 7.357-24.887s-2.501-17.887-7.357-24.886a33.3 33.3 0 0 0-3.792-4.548m4.85 57.699a37 37 0 0 0 1.156-1.575c5.246-7.562 7.913-16.942 7.913-26.69s-2.668-19.127-7.913-26.689a36 36 0 0 0-4.596-5.408m21.447-18.999-1.396 6.824q-.59 2.88-1.926 5.833c-.968-1.687-1.733-3.36-2.071-5.177l-1.298-6.975-3.704 5.877c-1.997 3.168-3.874 4.87-5.62 5.732m26.842.885c-2.937-1.395-5.348-3.28-7.054-6.893l-2.954-6.252m-20.501 15.98c5.843-4.76 8.163-11.184 10.829-17.443m13.179.25c2.863 8.729 6.267 15.701 10.826 18.933m.003 89.213c-7.023 6.477-15.096 11.697-23.694 16.369m23.699-29.702c-8.968 8.295-19.566 14.918-30.622 21.244m30.62-26.045c-9.204 9.094-20.615 16.251-32.725 23.171m9.684-35.951H144m-15.508-12.082 4.39 5.835-4.39 4.756m9.97-8.735-4.82-6.408 3.747-4.547m-4.799-4.989-4.098 4.973m8.023 21.197 1.946-2.109m-13.292-32.535V123.6m3.323-30.719V123.6m6.479-23.653-5.696 6.912 8.079 10.741-5.539 6m6.646-20.12v20.12m2.216-17.955V123.6m-15.608-40.8H144m-31.146 61.058 7.884 8.542c.417-2.562.536-5.392-2.215-10.8 3.257-1.19 5.883-3.14 7.754-6q-2.766-1.198-7.754-2.4c2.514-4.437 2.781-8.321 2.215-12m0 0c-2.337 3.41-4.528 6.941-8.232 9.231m8.232-9.231-2.223-1.788c-2.101 3.065-3.874 5.809-6.317 7.744-.156-.021-.309-.047-.473-.054-.293-.013-.58.007-.872.022m33.227-2.573c-4.935 4.602-11.816 11.341-19.46 13.14m-14.766-5.742c-3.065-.172-12.94-.879-15.736-.879-6.092 0-8.746 3.33-1.072 3.33m0 0h4.985m-4.985 0c-4.43 0-8.308 3-3.877 3.6m10.523 3c-4.43 0-6.646.6-8.861.6-3.323 0-4.431 3-1.108 3h9.178m-.316-7.2c-.554 0-6.647.6-8.862.6s-4.985 3 0 3.6M110 143.078l-9.2 3.322c-1.662.6-2.77 1.2-3.984 1.937-2.94 1.782-3.77-1.337-2.108-2.537s2.769-1.2 2.769-1.2m15.993-11.674q.138-.064.272-.15c1.38-.853 2.55-1.851 3.6-2.911a19 19 0 0 1-.943 1.923l-1.828 3.227 3.411.821c1.398.336 2.624.671 3.731 1.001-1.133.914-2.449 1.643-3.987 2.205l-2.825 1.032 1.439 2.829c.351.69.64 1.306.893 1.881l-2.617-2.835a2.5 2.5 0 0 0-.976-.67m8.278-104.946.332 4.322m10.673-4.674v4.2m-11.974-4.642c1.173 1.054 3.527 2.861 5.882 2.861 3.323 0 8.307-3 8.307-6 0-1.41-.489-2.82-1.008-3.92m-13.507-8.849c.351-.249.896-.431 1.777-.431 2.769 0 3.877 1.8 4.431 1.8 2.019 0 2.653 2.934-.554 3-2.215.046-3.323-2.4-3.323-2.4.682 1.7 1.843 3.494.554 4.8 3.902.816 5.033 3.59 4.984 7.2m-4.482-14.139q.012-.698.051-1.461m3.159 5.9c-.611 4.535-2.531 4.348-3.073-.729m-2.275-3.93c.145-1.45.878-2.296 2.189-3.041 2.339-1.327 3.203 2.567 3.316 4.892m-1.098-4.277c4.381-4.11 4.237 8.604 3.875 9.585-.903 2.445-2.91 3.296-3.321-.696m2.437-8.532c2.649-2.516 4.473 2.044 3.934 6.13-.692 5.248-3.029 7.42-3.329 3.727m2.57-9.264c2.424-1.649 4.11 2.646 3.495 6.486-.873 5.454-3.465 5.81-3.061.813m3.157-2.848q.105-.015.21-.016c1.224 0 2.215 1.612 2.215 3.6m0 0c0 1.988-.991 3.6-2.215 3.6-.651 0-1.269-.466-1.69-1.273m3.905-2.327c0 .796.263 1.559.73 2.121.468.563 1.102.879 1.763.879s1.295-.316 1.762-.879.73-1.325.73-2.121-.262-1.559-.73-2.121-1.101-.879-1.762-.879-1.295.316-1.763.879-.73 1.325-.73 2.121m-32.869-5.4h12.406m-16.753 10.2h17.808m8.332-2.4c1.597.943 2.93 2.133 3.323 4.2m-29.047 70.193a2.9 2.9 0 0 1-1.437-.267 3.2 3.2 0 0 1-1.044-.78 3.7 3.7 0 0 1-.699-1.168 3.98 3.98 0 0 1 0-2.756c.162-.436.4-.833.699-1.168s.653-.599 1.044-.78a2.93 2.93 0 0 1 1.483-.263m-.031-.22a2.9 2.9 0 0 1-1.966-.18 3.2 3.2 0 0 1-1.045-.78 3.7 3.7 0 0 1-.698-1.168 3.97 3.97 0 0 1 .367-3.489 3.27 3.27 0 0 1 1.602-1.309m-.172 21.523a3.28 3.28 0 0 1-1.572-1.313 3.9 3.9 0 0 1-.599-2.09c0-.955.34-1.871.943-2.546.604-.675 1.423-1.054 2.277-1.054q.415 0 .816.117m-5.561 12.8a3.55 3.55 0 0 1-.913-1.259 3.97 3.97 0 0 1-.082-2.957c.162-.437.4-.834.698-1.168.3-.334.654-.6 1.045-.78s.81-.275 1.232-.275c.604 0 1.195.19 1.707.548m-4.868 6.762q.081.083.165.163m1.728-22.881c.293.682.72 1.284 1.242 1.763A5.4 5.4 0 0 0 96.852 99a5.4 5.4 0 0 0 1.15 3.357c-1.091.94-1.793 2.407-1.793 4.027 0 .586.091 1.156.261 1.691a4.6 4.6 0 0 0-1.704 1.224m4.572-22.394a4.4 4.4 0 0 0-.813.439M81.415 58.2c0-4.2-3.877-4.2-3.877.6s6.093 2.4 6.093-1.8c0-6-8.308-4.8-8.308 1.2 0 7.697 12.64 9.363 19.84 8.763 7.159-.597 14.348-5.82 14.408-13.598.082-10.873-7.229-15.334-8.979-25.514m-22.249 35.77c5.393.187 7.503-2.421 7.557-7.99.086-8.95-7.254-10.031-6.642-30.021m.642 38.997h-.01a4.5 4.5 0 0 1-2.377 1.834m26.425-2.689c2.474-2.494 3.93-6.667 3.958-10.387.083-10.959-7.209-15.404-8.861-25.755m3.813 36.846c2.252-2.703 3.346-7.507 3.373-11.091.084-11.044-7.186-15.473-8.74-25.998m3.268 38.167c2.546-2.643 3.768-8.36 3.797-12.17.085-11.123-7.152-15.536-8.615-26.227m3.091 39.058c2.589-2.667 3.82-8.989 3.85-12.83.085-11.192-7.1-15.59-8.482-26.424m3.149 39.653c2.466-2.844 3.629-9.477 3.658-13.23.085-11.255-7.04-15.64-8.346-26.61m2.714 40.173c2.679-2.624 3.927-9.655 3.957-13.562.086-11.318-6.975-15.688-8.207-26.792m2.448 40.486c2.775-2.512 4.054-9.72 4.084-13.694.087-11.377-6.903-15.734-8.066-26.967m2.297 40.683c2.791-2.493 4.064-9.73 4.094-13.716.087-11.422-6.811-15.768-7.92-27.1m2.213 40.771c2.757-2.533 4.003-9.708 4.033-13.671.087-11.467-6.719-15.802-7.773-27.235m2.19 40.8c2.678-2.622 3.878-9.656 3.908-13.565.088-11.513-6.623-15.836-7.625-27.37m2.226 40.762c2.572-2.746 4.017-9.58 3.724-13.392C90.277 42 84.185 39 83.673 25.858m1.463 40.505c3.032-2.52 4.704-8.655 4.338-12.998C88.615 43.2 82.523 42.6 82.15 25.77m1.35 32.277c.336-2.212.522-2.568.44-3.913-.483-8.053-7.344-5.241-6.352-28.619m-4.443 40.66c-2.433-.94-4.82-3.094-6.13-6.176m6.295 3.82c-1.84-.812-3.55-2.472-4.634-5.02m9.582 4.794c-2.897.1-6.2-1.947-7.92-5.994m5.694 3.518c-1.593-.85-3.05-2.408-4.033-4.718m3.351 1.477c-.783-.756-1.46-1.724-1.97-2.923m2.592.63A12 12 0 0 1 74.77 53.4m2.877.4a12 12 0 0 1-1.215-2.2m3.286 1.502a10.8 10.8 0 0 1-1.625-2.702M42.646 64.2c5.392.955 7.13-3.484 7.113-8.437-.017-5.068-2.682-10.163-1.574-14.963m0 0c0 7.2 2.967 10.092 2.983 15.16.017 4.953-2.266 12.545-7.658 11.59m4.675-26.75s.662 9.602.553 12.6c-.171 4.732-8.307 9.318-8.307 0 0-6 6.646-5.4 6.646-.6M48.7 67.49c2.549-1.863 3.799-6.235 3.993-9.754m-1.584 9.484c1.997-2.12 2.996-5.905 3.168-9.02m-.632 8.497c1.418-2.178 2.149-5.275 2.293-7.897m.17 7.02c.897-1.978 1.378-4.347 1.492-6.42m.934 4.92a20 20 0 0 0 .727-4.32m-12.184-7.2c0 4.8-4.985 3.6-4.985.6s3.877-2.4 3.877 0m1.108-.6c0-3-.788-5.267-.88-6.188-.16-1.583.618-2.683.829-4.829M49.578 26.1c-.47 1.614-1.393 4.959-1.393 6.301 0 1.8.553 3 .553 6 0 4.8-7.753 6.6-7.753 0 0-5.4 6.646-6.6 6.646-1.8m0 0c0 4.8-4.431 3.6-4.431 1.2s2.77-2.4 2.77-.6m1.66-.6s-.607-3.33-.607-5.803c0-1.364.733-3.178 1.365-4.491m-.158 5.445s1.616-2.351 3.832-2.351 3.323 1.2 4.43 1.2c.554 0 1.662-1.2 1.662-1.2v1.2m0 0c-.554 0-1.087.587-1.662.6-.554 0-3.323-1.8-3.877-1.8m5.539 1.2s1.107 3 1.107 3.6-2.215 6-2.215 7.2-1.108 4.2-1.108 4.8S57.6 48 58.154 48m16.061-16.8s-3.877-2.4-4.984-2.4m0 0c-1.662 0-3.877 1.2-4.985 1.2s-2.77-.6-2.77-.6v.6c.937 0 2.236.603 2.77.6.549-.003 3.323-1.8 4.985-1.8M58.154 48c.554 0 2.215-1.2 3.323-1.8.495-.268 1.108 1.2-3.323 1.8m4.43-4.2c2.77 0 3.2 2.938 1.245 3.707-.744.293-1.853-.188-2.009-1.093m4.642 5.186 1.107 1.8-.554-2.4zm0 0 .553.6-2.769-.6c-1.108 0-2.215-1.2-2.215-1.2s-.744 1.2-1.852 1.2c-1.471 0-1.471-1.2-1.471-1.2-1.108 1.2-2.726 1.58-2.834 1.729l-.49.671c1.108-1.52 7.935-.394 11.078-1.2M58.708 54c1.873 2.067 3.323 1.8 4.984 0m49.293-31.8-2.77 3.6m0 0 3.323 3m-3.323-3h-2.114m-1.763 3 3.877-6.6v6.6m22.721 11.38a2.6 2.6 0 0 0-1.251.337c-3.936 2.131-5.773 2.131-9.708 0a2.57 2.57 0 0 0-2.13-.187c-.349.123-.671.32-.949.58s-.506.575-.67.93a3.2 3.2 0 0 0-.286 1.14c-.024.396.024.794.142 1.17s.304.723.548 1.02c.243.298.538.54.868.713 4.926 2.669 9.735 2.669 14.661 0a2.9 2.9 0 0 0 1.295-1.407 3.23 3.23 0 0 0 .2-1.975 3.04 3.04 0 0 0-.984-1.677 2.64 2.64 0 0 0-1.736-.643M111.614 130.1a1.55 1.55 0 0 0-.755.161 1.7 1.7 0 0 0-.608.512c-.163.22-.275.478-.329.754a1.95 1.95 0 0 0 .019.833c1.077 4.663 1.074 6.422.036 9.795a1.94 1.94 0 0 0 .074 1.39c.097.214.233.406.399.563.166.158.359.278.569.354a1.55 1.55 0 0 0 1.281-.105q.297-.165.514-.442c.142-.182.249-.394.316-.622 1.177-3.828 1.175-6.869.035-11.806a1.83 1.83 0 0 0-.56-.976 1.6 1.6 0 0 0-.991-.411m8.571-117.5c0 10.2 4.452 25.8-2.77 25.8-3.877 0-4.246-5.863-1.488-5.597 2.042.197 1.994 2.595.934 3.197 2.858-2.57 3.049-6.288 0-11.4 2.215-1.68.554-9 .554-11.4 0-5.4 6.646-4.26 6.646-1.2 0 3-3.323 3-3.876.6M55.938 51l-1.107 2.4 1.107-1.2zm-7.2-15.6c2.216 0 3.362-1.949 4.468-1.898 2.179.098 2.732 1.898 3.84 1.898-.554 0-1.661 1.8-4.43 1.8-1.662 0-1.662-1.8-3.878-1.8m22.708 0c-2.215 0-3.361-1.949-4.468-1.898-2.178.098-2.732 1.898-3.84 1.898.554 0 1.662 1.8 4.431 1.8 1.662 0 1.662-1.8 3.877-1.8"/><path fill="currentColor" d="M69.955 21.722c-7.21-.017-14.781.35-22.906 1.163l1.253 3.492c20.699-1.996 37.666-1.04 54.372 1.77l1.178-3.443c-10.877-1.862-21.883-2.954-33.898-2.982m48.875 27.14-.933 2.177c5.51 2.762 11.538 2.885 17.093.37l-.841-2.22c-5.02 2.29-10.327 2.182-15.319-.327M60.923 60.6c-1.319 4.763-6.49 6.413-12.149 6.851.43.928.839 1.902 1.253 2.91 1.881-.182 3.726-.533 5.468-1.113 1.84-.612 3.634-1.574 5.102-2.938 2.175 3.575 4.767 5.767 7.367 6.765l-12.33 13.02c.308 1.004.616 2.045.933 3.162l18.641-19.68c-3.474 2.305-9.987 2.028-14.285-8.977m46.476 6.126-1.41 2.663a33.3 33.3 0 0 1 3.792 4.548c4.856 7 7.357 15.73 7.357 24.886s-2.501 17.887-7.357 24.887c-2.046 2.949-4.608 5.638-7.515 7.778 3.119.196 6.134.361 7.603.427.023-1.017.781-1.858 1.745-1.816.387.017.744.178.957.386 3.639-2.344 5.83-5.875 8.167-9.285l-2.223-1.789c-2.101 3.066-3.874 5.81-6.317 7.745-.156-.021-.309-.047-.473-.054-.293-.013-.58.007-.872.021.387-.552.772-1.077 1.142-1.611 5.246-7.561 7.913-16.941 7.913-26.689s-2.668-19.127-7.913-26.689a36 36 0 0 0-4.596-5.408m8.589 2.514.413.72H144v-.72zm1.381 2.4.449.72H144v-.72zm1.385 2.22.697 1.08H144v-1.08zm1.864 2.82 1 1.44H144v-1.44zm1.986 2.82 1.331 1.8H144v-1.8zm-41.28 8.097-20.283 21.516.559 3.606 19.378-20.556zm57.138 15.883v20.12h2.215v-17.955zM63.139 115.2l-1.058 1.146.49 4.254h18.97l-.432-5.132-.247-.268-2.216 2.4-2.215-2.4-2.216 2.4L72 115.2l-2.215 2.4-2.216-2.4-2.215 2.4zm57.761 10.68-.197 1.44h20.4l1.55-1.44zm-.433 2.58-.327 1.08h18.473l1.215-1.08zm-.648 1.98-.293.72h17.118l.876-.72zM144 136.381c-9.203 9.093-20.612 16.25-32.72 23.17l2.104 2.874c11.055-6.325 21.649-12.949 30.616-21.242z"/><path fill="currentColor" d="M66.81 33.255c-.293 0-.575.21-.782.585s-.325.882-.325 1.412c0 .262.029.522.084.764.056.243.138.463.24.648q.156.281.36.433c.204.152.278.152.424.152s.29-.051.424-.152q.203-.152.359-.433c.103-.185.184-.405.24-.648.056-.242.084-.502.084-.764 0-.53-.116-1.037-.324-1.412-.208-.374-.49-.585-.783-.585m-13.64.148a.7.7 0 0 0-.425.152q-.203.152-.36.433a2.5 2.5 0 0 0-.24.648 3.4 3.4 0 0 0-.084.764c0 .262.03.522.085.764.056.243.137.463.24.648q.156.281.36.433c.134.1.278.152.423.152q.221 0 .424-.152c.134-.1.257-.247.36-.433.102-.185.184-.405.24-.648a3.5 3.5 0 0 0 0-1.528 2.5 2.5 0 0 0-.24-.648 1.35 1.35 0 0 0-.36-.433.7.7 0 0 0-.424-.152m79.762 2.587c-1.736 1.42-4.193 2.41-6.101 2.41-1.806 0-3.611-1.063-4.898-2.05l.181 4.236c3.798 2.062 5.635 2.062 9.571-.07a2.6 2.6 0 0 1 1.245-.335zM58.708 50.4c-1.108 1.2-2.726 1.58-2.834 1.729l-.49.671c.978-1.342 6.41-.623 9.833-.99l-.97-.21c-1.109 0-2.216-1.2-2.216-1.2s-.744 1.2-1.852 1.2c-1.471 0-1.471-1.2-1.471-1.2m6.51 1.41 1.797.39-.553-.6c-.37.094-.79.162-1.245.21m64.936 3.39c-.739 3.614-2.226 7.214-4.431 10.8-2.102-3.127-4.246-6.23-4.985-10.2-2.536 4.026-5.155 6.262-7.842 7.22 2.75 6.405 7.071 13.175 12.169 19.778L144 82.8V65.604c-5.361-1.908-10.728-3.804-13.846-10.404m-20.891 8.177a111 111 0 0 0-1.858 3.318 38 38 0 0 1 4.59 5.44c5.245 7.561 7.913 16.94 7.913 26.688s-2.667 19.128-7.913 26.69a70 70 0 0 1-1.149 1.593c.299.003.586-.017.879-.004.164.007.317.033.473.054 2.443-1.935 4.216-4.679 6.317-7.744l2.223 1.788c.117.757.198 1.522.228 2.35l4.188.05.073-34.718c-6.702-8.306-12.539-17.063-15.964-25.505m-7.875 3.193a.5.5 0 0 0-.287.1.6.6 0 0 0-.197.246.65.65 0 0 0-.019.459.58.58 0 0 0 .286.338.52.52 0 0 0 .609-.1.6.6 0 0 0 .128-.189.65.65 0 0 0 .019-.458.6.6 0 0 0-.286-.34.5.5 0 0 0-.253-.056m-13.129 1.04a.53.53 0 0 0-.358.138.6.6 0 0 0-.192.355.64.64 0 0 0 .09.45c.083.13.211.22.356.248a.52.52 0 0 0 .414-.097.6.6 0 0 0 .23-.386.64.64 0 0 0-.09-.449.55.55 0 0 0-.45-.258m10.685.372a.5.5 0 0 0-.287.099.6.6 0 0 0-.196.246.65.65 0 0 0-.02.459c.05.15.154.271.287.339a.52.52 0 0 0 .608-.1.6.6 0 0 0 .128-.19.65.65 0 0 0 .019-.458.6.6 0 0 0-.286-.34.5.5 0 0 0-.253-.055m-7.415.274a.53.53 0 0 0-.358.138.6.6 0 0 0-.193.355.64.64 0 0 0 .09.448.56.56 0 0 0 .356.25.52.52 0 0 0 .414-.098.6.6 0 0 0 .23-.385.65.65 0 0 0-.09-.45.6.6 0 0 0-.154-.162.53.53 0 0 0-.295-.096m-1.74.868-2.28 6.868 1.387-1.556.148 2.469.688-2.395 1.046 2.127zm12.165.383a.53.53 0 0 0-.287.099.6.6 0 0 0-.196.246.63.63 0 0 0-.019.46.57.57 0 0 0 .286.339.52.52 0 0 0 .608-.101.6.6 0 0 0 .128-.189.65.65 0 0 0 .019-.459.6.6 0 0 0-.112-.2.6.6 0 0 0-.174-.139.5.5 0 0 0-.253-.056m-1.721.38-3.82 6.014 1.708-1.122-.437 2.428 1.228-2.126.511 2.345zM81.65 73.179c.089.664.08 1.34-.026 2.001q.651-.101 1.306-.045l.324-1.895a5.4 5.4 0 0 1-1.604-.06m10.288 6.17a.53.53 0 0 0-.332.133.6.6 0 0 0-.19.323.64.64 0 0 0 .065.454.56.56 0 0 0 .341.272.52.52 0 0 0 .42-.07.6.6 0 0 0 .25-.37.64.64 0 0 0-.064-.453.56.56 0 0 0-.341-.272.5.5 0 0 0-.149-.017m-17.038.94c.088.665.08 1.34-.026 2.002a5.4 5.4 0 0 1 1.847.028 6.9 6.9 0 0 1 .026-2.001 5.4 5.4 0 0 1-1.847-.028m14.896.96a.53.53 0 0 0-.332.134.6.6 0 0 0-.19.323.64.64 0 0 0 .064.454.56.56 0 0 0 .342.272.52.52 0 0 0 .419-.07.6.6 0 0 0 .251-.37.64.64 0 0 0-.064-.453.56.56 0 0 0-.342-.272.5.5 0 0 0-.148-.017m3.227.86a.53.53 0 0 0-.332.133.6.6 0 0 0-.19.323.64.64 0 0 0 .064.454.56.56 0 0 0 .342.272.52.52 0 0 0 .419-.07.6.6 0 0 0 .251-.37.64.64 0 0 0-.064-.453.56.56 0 0 0-.342-.272.5.5 0 0 0-.148-.017m-1.73.753-2.662 6.705 1.473-1.461.009 2.474.821-2.345.924 2.191zM68.15 87.399c.089.664.08 1.34-.026 2.001a5.4 5.4 0 0 1 1.847.028 6.9 6.9 0 0 1 .026-2 5.4 5.4 0 0 1-1.847-.029m16.39 6.223a.53.53 0 0 0-.384.141.64.64 0 0 0-.078.829.524.524 0 0 0 .778.1.636.636 0 0 0 .093-.843.55.55 0 0 0-.409-.227m12.229.275c-1.214 5.296-1.866 10.393-2.023 15.341l.021.061a4.6 4.6 0 0 1 1.704-1.224 5.6 5.6 0 0 1-.261-1.691c0-1.62.701-3.087 1.793-4.027A5.4 5.4 0 0 1 96.852 99c0-1.286.442-2.476 1.17-3.382a5.6 5.6 0 0 1-1.254-1.721m-35.37.613a6.9 6.9 0 0 1-.026 2 5.4 5.4 0 0 1 1.847.028 6.9 6.9 0 0 1 .026-2 5.4 5.4 0 0 1-1.847-.028m30.516.327a.53.53 0 0 0-.35.16.636.636 0 0 0-.057.81.524.524 0 0 0 .778.1.6.6 0 0 0 .207-.4.65.65 0 0 0-.114-.442.6.6 0 0 0-.165-.152.53.53 0 0 0-.3-.076m-9.343.955a.53.53 0 0 0-.35.16.636.636 0 0 0-.057.81.523.523 0 0 0 .778.1.636.636 0 0 0 .093-.842.55.55 0 0 0-.464-.228m3.34.425a.52.52 0 0 0-.39.162.636.636 0 0 0-.057.81.524.524 0 0 0 .778.1.637.637 0 0 0 .093-.843.55.55 0 0 0-.424-.228m4.09.79a.53.53 0 0 0-.35.16.64.64 0 0 0-.057.81.524.524 0 0 0 .778.1.6.6 0 0 0 .208-.4.65.65 0 0 0-.115-.442.6.6 0 0 0-.164-.153.53.53 0 0 0-.3-.076m-5.816.193-1.888 7.007 1.297-1.645.288 2.454.55-2.436 1.165 2.054zm9.155.232-.039.001a.53.53 0 0 0-.35.161.636.636 0 0 0-.057.81.55.55 0 0 0 .37.224.51.51 0 0 0 .408-.124.6.6 0 0 0 .14-.178.64.64 0 0 0-.047-.665.55.55 0 0 0-.425-.229m-1.726.983-1.887 7.007 1.297-1.645.287 2.454.551-2.436 1.165 2.053zM87.508 108.6a.53.53 0 0 0-.392.176.63.63 0 0 0-.162.424c0 .159.058.312.162.424a.53.53 0 0 0 .392.176.53.53 0 0 0 .391-.176.63.63 0 0 0 .162-.424.63.63 0 0 0-.162-.424.53.53 0 0 0-.391-.176m-1.662 2.4a.53.53 0 0 0-.392.176.63.63 0 0 0-.162.424c0 .159.059.312.162.424a.53.53 0 0 0 .392.176.53.53 0 0 0 .392-.176.63.63 0 0 0 .162-.424.63.63 0 0 0-.162-.424.53.53 0 0 0-.392-.176m3.323 0a.53.53 0 0 0-.391.176.63.63 0 0 0-.163.424c0 .159.059.312.163.424a.53.53 0 0 0 .391.176.53.53 0 0 0 .392-.176.63.63 0 0 0 .162-.424.63.63 0 0 0-.162-.424.53.53 0 0 0-.392-.176m-1.661 1.2-1.108 7.2 1.108-1.8.553 2.4.282-2.49 1.38 1.89zm4.56 10.215a.51.51 0 0 0-.437.2.6.6 0 0 0-.11.201.65.65 0 0 0 .025.459.6.6 0 0 0 .13.187.52.52 0 0 0 .61.092.6.6 0 0 0 .172-.141.62.62 0 0 0 .14-.434.62.62 0 0 0-.165-.393.54.54 0 0 0-.365-.172zm-7.81.359a.6.6 0 0 0-.11.008.55.55 0 0 0-.357.247.64.64 0 0 0-.092.449.6.6 0 0 0 .228.387.52.52 0 0 0 .414.099.55.55 0 0 0 .357-.247.64.64 0 0 0-.092-.798.52.52 0 0 0-.347-.145M144 124.626c-4.929 4.6-11.772 11.272-19.338 13.024-1.633 1.753-3.711 3.063-6.139 3.95 2.751 5.408 2.632 8.238 2.215 10.8l-7.883-8.541c-.42.584-1.149.85-1.836.602-.586-.212-.99-.742-1.104-1.353-1.526.551-4.804 1.735-7.018 2.521 2.371 4.803 5.195 9.457 8.386 13.942 12.106-6.938 23.514-14.097 32.717-23.19zm-34.085 18.482.085-.03-.101-.072zm-16.06-18.402a.51.51 0 0 0-.437.2.62.62 0 0 0-.14.434.62.62 0 0 0 .185.414c.11.105.253.16.4.151a.53.53 0 0 0 .382-.2.62.62 0 0 0 .139-.434.62.62 0 0 0-.164-.393.54.54 0 0 0-.365-.172m-7.575.118a.55.55 0 0 0-.468.256.64.64 0 0 0-.092.448.6.6 0 0 0 .228.387.52.52 0 0 0 .414.1.55.55 0 0 0 .358-.247.64.64 0 0 0-.093-.799.54.54 0 0 0-.347-.145m4.257.091a.51.51 0 0 0-.437.2.63.63 0 0 0-.085.66.6.6 0 0 0 .13.187.52.52 0 0 0 .61.092.58.58 0 0 0 .282-.343.7.7 0 0 0 .03-.232.62.62 0 0 0-.165-.393.54.54 0 0 0-.365-.172zm-7.53.535a.55.55 0 0 0-.468.256.64.64 0 0 0-.091.448.6.6 0 0 0 .228.387.524.524 0 0 0 .771-.147.64.64 0 0 0 .092-.449.6.6 0 0 0-.184-.35.53.53 0 0 0-.348-.145m9.197.559-.523 5.264 2.388-.201zm-7.478.319.064 7.299.802-1.982.93 2.26-.122-2.505 1.663 1.601zm16.981 20.943-.353 2.129-1.392-1.961.659 2.404-1.962-1.136 4.683 5.645zm-9.623 2.379-.493 2.096-1.259-2.064.499 2.449-1.882-1.285 4.298 5.994zm12.997 3.934a.5.5 0 0 0-.215.05.6.6 0 0 0-.178.133.63.63 0 0 0 .014.849.6.6 0 0 0 .182.126.52.52 0 0 0 .601-.141.65.65 0 0 0 .11-.656.6.6 0 0 0-.207-.265.52.52 0 0 0-.307-.096m-3.047 1.436a.5.5 0 0 0-.215.05.6.6 0 0 0-.178.133.6.6 0 0 0-.155.428.64.64 0 0 0 .169.421.6.6 0 0 0 .182.126.52.52 0 0 0 .601-.141.6.6 0 0 0 .155-.428.6.6 0 0 0-.046-.228.6.6 0 0 0-.206-.264.52.52 0 0 0-.307-.097m-7.019 1.188h-.039a.5.5 0 0 0-.162.033.57.57 0 0 0-.316.307.65.65 0 0 0-.023.458c.05.151.151.273.284.342a.51.51 0 0 0 .423.025.57.57 0 0 0 .315-.307.65.65 0 0 0 .023-.458.6.6 0 0 0-.195-.285.53.53 0 0 0-.31-.116zm9.426.295a.52.52 0 0 0-.393.183.64.64 0 0 0 .014.848.52.52 0 0 0 .606.119.6.6 0 0 0 .294-.331.65.65 0 0 0-.007-.459.6.6 0 0 0-.207-.264.52.52 0 0 0-.307-.096m-12.56.901h-.039a.5.5 0 0 0-.162.033.57.57 0 0 0-.316.307.65.65 0 0 0-.023.458c.049.151.15.273.283.342a.51.51 0 0 0 .424.025.57.57 0 0 0 .315-.307.65.65 0 0 0 .023-.458.6.6 0 0 0-.195-.285.53.53 0 0 0-.31-.116zm9.127.044-.208 2.152-1.52-1.846.819 2.346-2.033-.978 5.051 5.259zm-6.824 1.621h-.039a.5.5 0 0 0-.162.034.57.57 0 0 0-.316.307.65.65 0 0 0-.023.458c.05.15.151.273.283.342a.51.51 0 0 0 .424.025.57.57 0 0 0 .315-.307.65.65 0 0 0 .023-.459.6.6 0 0 0-.195-.284.53.53 0 0 0-.31-.116m10.671 4.407a.5.5 0 0 0-.267.069.6.6 0 0 0-.271.352.65.65 0 0 0 .038.458c.068.14.186.246.326.293.14.048.292.033.422-.041a.6.6 0 0 0 .271-.353.64.64 0 0 0-.038-.457.6.6 0 0 0-.2-.232.5.5 0 0 0-.281-.089m-2.943 1.673a.5.5 0 0 0-.266.069.6.6 0 0 0-.271.353.64.64 0 0 0 .038.457q.052.106.136.182a.525.525 0 0 0 .78-.077.63.63 0 0 0 .126-.438.6.6 0 0 0-.261-.457.53.53 0 0 0-.282-.089m9.212.8-.208 2.151-1.52-1.846.819 2.346-2.033-.978 5.051 5.259zm-6.711.488a.5.5 0 0 0-.266.069.6.6 0 0 0-.168.147.63.63 0 0 0-.126.439.6.6 0 0 0 .061.224.56.56 0 0 0 .325.294.52.52 0 0 0 .423-.041.6.6 0 0 0 .271-.353.65.65 0 0 0-.038-.457.6.6 0 0 0-.2-.233.53.53 0 0 0-.282-.089m-3.144 1.86-.469 2.103-1.281-2.048.525 2.443-1.895-1.261 2.102 2.861 1.84.644zm13.702 3.679a.5.5 0 0 0-.267.069.6.6 0 0 0-.271.353.63.63 0 0 0 .038.457.57.57 0 0 0 .326.294c.14.047.292.032.422-.042a.6.6 0 0 0 .271-.353.63.63 0 0 0-.038-.457.6.6 0 0 0-.2-.232.53.53 0 0 0-.281-.089m-2.942 1.673a.5.5 0 0 0-.267.069.57.57 0 0 0-.271.353.63.63 0 0 0 .038.457.56.56 0 0 0 .326.294c.14.047.292.032.422-.042.13-.073.227-.2.271-.352a.65.65 0 0 0-.038-.458.6.6 0 0 0-.2-.232.53.53 0 0 0-.281-.089m-7.794 1.168a.5.5 0 0 0-.162.036.57.57 0 0 0-.288.26l.282.864a.52.52 0 0 0 .386.003.57.57 0 0 0 .312-.311.64.64 0 0 0 .018-.459.6.6 0 0 0-.191-.277.53.53 0 0 0-.357-.116m10.295.121a.5.5 0 0 0-.267.068.6.6 0 0 0-.271.353.64.64 0 0 0 .038.457.56.56 0 0 0 .326.294c.14.048.292.033.422-.041a.6.6 0 0 0 .271-.353.64.64 0 0 0-.038-.457.6.6 0 0 0-.2-.232.5.5 0 0 0-.281-.089"/><path stroke="currentColor" stroke-linecap="round" stroke-linejoin="round" stroke-width=".5" d="M88.812 138.126c.547 1.37.374 2.192.09 3.305m.411.451c.547 1.37.443 1.577.16 2.689m-.114-9.535c.547 1.369.42 1.724.136 2.836M104.815 22.2h13.097m-13.944 2.2h13.09m-13.866 2.2h14.727M100.8 28.8h17.932m8.099-3c1.111-.202 2.219.003 3.323.6m-5.815-1.725c1.112-.201 1.628-.194 2.732.403m3.193 1.388c1.112-.201 1.128-.12 2.232.477m.45-.026c1.111-.202 1.064-.294 2.168.303m-9.391-6.82c-.554 1.2 2.354 1.932 2.765 1.835m2.774-.635c.336-.287.711-.238 1.107 0m1.666.517c.337-.286.711-.238 1.108 0m-6.973-1.379c.336-.287.711-.238 1.107 0M93.047 135.6c.255.519.163.876 0 1.2m-.114 2.101c.256.518.163.876 0 1.2m.454 2.469c.256.519.164.877 0 1.2M49.292 35.4c1.108 0 1.662 2.9 3.915 2.95 2.178.05 4.393-2.95 4.947-2.95m13.383.049c-1.108 0-1.662 2.9-3.915 2.95-2.178.05-4.393-2.95-4.947-2.95M48.74 35.4c1.661 0 2.597-3.362 4.43-3.6 1.396-.181 3.877 1.8 3.877 1.8m14.4 0s-3.224-1.97-4.62-1.788c-1.833.238-2.769 3.6-4.43 3.6.742-.012 1.296 2.988 1.296 2.988M48.74 36c.29 2.28 2.678 3.97 2.769 3.6m4.43 8.4c-1.661 1.8-2.41 3.089-3.323 4.8m13.293-6c.554 2.4 3.681 5.231 3.877 4.8m-10.523 7.2c.553-2.4 2.769-1.8 3.877-.6m-8.42-24.272c.074.278.112.574.112.872a3.2 3.2 0 0 1-.329 1.443c-.213.416-.513.719-.853.863a1.16 1.16 0 0 1-.688.07c-.389-.084-.744-.37-1.001-.806s-.399-.993-.399-1.57q0-.259.038-.512m16.725-.178c.068.268.103.552.103.838 0 .484-.1.956-.286 1.355-.186.4-.45.707-.757.882-.189.108-.39.163-.592.163-.323 0-.638-.14-.907-.404a2.3 2.3 0 0 1-.534-.864 3.3 3.3 0 0 1-.194-1.132c0-.312.042-.622.123-.91M86.4 67.2l-2.32 1.74m2.32.06-2.739 2.054m2.74-.254-3.133 2.35m2.895-.372L82.92 75.21m2.872-.354-3.207 2.405m2.867-.35-3.157 2.367m2.85-.337-3.124 2.343m2.835-.326-3.076 2.307m2.832-.324-3.05 2.287m2.816-.312-3.01 2.258m2.816-.312L81.202 89.1m2.802-.302-2.953 2.215m2.802-.302-2.917 2.188m2.79-.292-2.899 2.174m2.79-.293-2.86 2.145m2.78-.285-2.845 2.134m2.743 1.543-2.795 2.096m2.83-3.922-2.807 2.105m2.743 1.542-2.758 2.069m2.766-.274-2.75 2.062m2.76-.27-2.716 2.037m2.761-.271-2.708 2.031m2.758-.268-2.679 2.009m2.758-.268-2.67 2.002m2.756-.267-2.643 1.983m2.756-.267-2.635 1.975m2.756-.266-2.61 1.958m2.754-.267-2.601 1.951m2.755-.266-2.58 1.935m2.756-.267-2.572 1.929m2.758-.269-2.552 1.914m2.758-.268-2.545 1.909m2.76-.271-2.525 1.894m2.761-.27-2.52 1.89m9.427-12.493 3.244 4.718m-3.397-8.008 3.022 4.396m-3.033-7.48 2.814 4.094m-2.72-7.024 2.647 3.85m-2.447-6.627 2.517 3.661m-2.24-6.325 2.4 3.491m-2.052-6.053 2.317 3.371m-1.907-5.842 2.245 3.267m-1.778-5.656 2.182 3.176m-1.665-5.49 2.128 3.096m-1.563-5.342 2.08 3.026m-1.473-5.21 2.038 2.965m-1.393-5.094 2.002 2.912m-1.321-4.99 1.97 2.867m-1.258-4.898 1.944 2.828m-1.201-4.815 1.92 2.793m-1.15-4.742 1.911 2.782m-1.118-4.694 1.892 2.753m-1.073-4.629 1.873 2.724m-1.026-4.56 1.861 2.708m-.995-4.515 1.831 2.663m-.946-4.443 1.833 2.666m-.93-4.42 1.821 2.649m-.882-4.35 1.786 2.598M93.615 131.98c.256.519.164.876 0 1.2m-3.543-1.595c.547 1.369.352 1.625.068 2.738m2.352-13.722 3.244 4.118m-2.69-.518 3.653 4.463m-3.144-.518 2.66 2.88m1.504 16.575c-.796-.9-3.565.6-3.565.6m-11.025-16.32 3.458 3.48m-2.928-.546 3.547 3.568m-2.953-.57 3.647 3.668m-2.983-.601 3.757 3.78m-3.019-.637 3.882 3.905m-3.061-.68 4.02 4.044m-3.111-.729 4.176 4.201m-3.17-.788 4.351 4.376m-3.237-.856 4.584 4.611m-3.333-.953 4.768 4.797m-3.36-.979 4.205 4.229m-2.656-.272 2.656 2.672m25.847 1.402-.581 1.028m-.53-2.262-1.492 2.639m.38-3.873-1.492 2.639m.399-3.906-1.504 2.66m.418-3.939-1.504 2.66m.421-3.945-1.508 2.666m.45-3.994-1.519 2.685m.46-4.014-1.518 2.686m.478-4.045-1.537 2.717m.509-4.1-1.536 2.717m.511-4.105-1.539 2.722m.546-4.165-1.558 2.756m.564-4.198-1.558 2.755m.589-4.242-1.582 2.799m.626-4.308-1.584 2.802m.411-4.729-1.606 2.842m.692-4.425-1.616 2.858m.713-4.461-1.627 2.877m.76-4.543-1.655 2.927m.744-4.517-1.266 2.24"/></svg>
