<svg xmlns="http://www.w3.org/2000/svg" fill="none" viewBox="0 0 166 258"><path fill="currentColor" d="M77.018 35.75c-.339 0-.663.225-.903.628s-.374.949-.374 1.518c0 .282.033.561.097.822s.158.497.277.696c.119.2.26.358.414.465a.85.85 0 0 0 .489.164.85.85 0 0 0 .489-.163c.154-.108.295-.267.414-.466.118-.2.212-.436.277-.696.064-.26.097-.54.097-.822 0-.57-.135-1.115-.374-1.518-.24-.403-.564-.629-.903-.629m-15.726.158a.85.85 0 0 0-.488.163 1.5 1.5 0 0 0-.415.466 2.6 2.6 0 0 0-.276.696c-.065.26-.098.54-.098.822s.033.561.098.822c.064.26.158.497.276.696.119.2.26.358.415.465a.85.85 0 0 0 .488.164.85.85 0 0 0 .489-.163c.155-.108.296-.267.414-.466.119-.2.213-.436.277-.696s.097-.54.097-.822-.033-.561-.097-.822a2.6 2.6 0 0 0-.277-.696c-.118-.2-.26-.358-.414-.465a.85.85 0 0 0-.489-.164m91.949 2.782c-2.002 1.526-4.833 2.59-7.033 2.59-2.082 0-4.163-1.142-5.647-2.204l.209 4.554c4.379 2.217 6.497 2.217 11.033-.075a3.16 3.16 0 0 1 1.435-.36zM67.677 54.18c-1.277 1.29-3.142 1.699-3.267 1.858l-.564.722c1.127-1.443 7.39-.67 11.335-1.064l-1.12-.226c-1.276 0-2.553-1.29-2.553-1.29s-.858 1.29-2.135 1.29c-1.696 0-1.696-1.29-1.696-1.29m7.504 1.516 2.073.419-.639-.645c-.424.102-.91.174-1.434.226m74.857 3.644c-.852 3.885-2.566 7.755-5.107 11.61-2.424-3.362-4.895-6.697-5.746-10.965-2.925 4.327-5.944 6.732-9.041 7.762 3.17 6.885 8.152 14.163 14.028 21.26L166 89.01V70.525c-6.18-2.052-12.368-4.09-15.962-11.185m-24.083 8.79a117 117 0 0 0-2.141 3.567 42 42 0 0 1 5.291 5.847c6.047 8.13 9.122 18.212 9.122 28.691s-3.075 20.562-9.122 28.691c-.426.573-.87 1.138-1.324 1.712.345.004.675-.017 1.013-.004.189.008.366.036.545.059 2.817-2.081 4.86-5.03 7.283-8.326l2.563 1.923c.134.813.227 1.636.262 2.526l4.828.054.084-37.322c-7.726-8.93-14.454-18.342-18.404-27.418m-9.078 3.433a.63.63 0 0 0-.557.372.645.645 0 0 0 .55.918.63.63 0 0 0 .459-.17.65.65 0 0 0 .17-.695.64.64 0 0 0-.622-.425m-15.134 1.119a.63.63 0 0 0-.412.147.647.647 0 0 0 .292 1.132.63.63 0 0 0 .478-.104.65.65 0 0 0 .161-.897.64.64 0 0 0-.519-.278m12.317.398a.63.63 0 0 0-.557.372.645.645 0 0 0 .55.918.63.63 0 0 0 .459-.17.65.65 0 0 0 .17-.695.64.64 0 0 0-.622-.425m-8.548.295a.64.64 0 0 0-.634.53.65.65 0 0 0 .103.482.637.637 0 0 0 1.153-.251.646.646 0 0 0-.622-.76m-2.005.933-2.629 7.383 1.599-1.672.171 2.654.793-2.575 1.206 2.287zm14.023.412a.63.63 0 0 0-.557.371.65.65 0 0 0-.022.494q.044.12.129.215a.64.64 0 0 0 .443.21.63.63 0 0 0 .459-.17.65.65 0 0 0 .041-.91.64.64 0 0 0-.493-.21m-1.984.41-4.403 6.463 1.968-1.206-.504 2.61 1.416-2.285.59 2.521zm-21.421 3.537c.102.714.092 1.44-.03 2.15a6.7 6.7 0 0 1 1.505-.048l.374-2.037a6.7 6.7 0 0 1-1.85-.065m11.859 6.632a.64.64 0 0 0-.601.49.65.65 0 0 0 .074.489.64.64 0 0 0 .877.217.65.65 0 0 0 .215-.886.64.64 0 0 0-.565-.31m-19.64 1.01c.102.713.092 1.44-.03 2.15a6.7 6.7 0 0 1 2.129.03 7 7 0 0 1 .03-2.15 6.7 6.7 0 0 1-2.13-.03m17.172 1.031a.64.64 0 0 0-.601.491.64.64 0 0 0 .467.78.63.63 0 0 0 .483-.074.647.647 0 0 0-.349-1.197m3.72.924a.636.636 0 0 0-.601.49.64.64 0 0 0 .467.78.63.63 0 0 0 .483-.073.647.647 0 0 0-.349-1.197m-1.994.81-3.069 7.208 1.697-1.572.011 2.66.947-2.521 1.065 2.356zm-26.68 4.878c.102.714.092 1.44-.03 2.151a6.7 6.7 0 0 1 2.129.03 7 7 0 0 1 .03-2.15 6.7 6.7 0 0 1-2.13-.03m18.894 6.689a.64.64 0 0 0-.665.568c-.02.17.028.341.133.475a.634.634 0 0 0 .896.109.648.648 0 0 0-.319-1.148zm14.097.296c-1.4 5.693-2.151 11.173-2.332 16.492l.025.066a5.3 5.3 0 0 1 1.964-1.317 5.6 5.6 0 0 1-.302-1.817 5.56 5.56 0 0 1 2.068-4.33 5.566 5.566 0 0 1 .023-7.244 6.1 6.1 0 0 1-1.446-1.85m-40.773.659c.102.714.092 1.44-.03 2.151a6.7 6.7 0 0 1 2.129.03 7 7 0 0 1 .03-2.151 6.7 6.7 0 0 1-2.13-.03m35.177.351a.64.64 0 0 0-.601.568c-.02.17.028.341.132.475a.635.635 0 0 0 1.136-.322.65.65 0 0 0-.558-.717l-.045-.004zm-10.77 1.027a.64.64 0 0 0-.402.173.649.649 0 0 0 .36 1.112.63.63 0 0 0 .47-.134.648.648 0 0 0-.318-1.147 1 1 0 0 0-.11-.004m3.85.458-.046.001a.646.646 0 0 0-.469 1.043.637.637 0 0 0 1.137-.323.65.65 0 0 0-.558-.717zm4.715.848a.636.636 0 0 0-.6.568.647.647 0 0 0 .558.717.63.63 0 0 0 .47-.134.647.647 0 0 0-.428-1.151m-6.705.208-2.176 7.533 1.495-1.769.332 2.638.635-2.618 1.342 2.207zm10.554.25h-.045a.64.64 0 0 0-.6.568.646.646 0 0 0 .558.717.63.63 0 0 0 .632-.325.643.643 0 0 0-.481-.956q-.031-.004-.064-.004m-1.989 1.056-2.176 7.533 1.495-1.769.332 2.638.635-2.619 1.342 2.208zm-4.734 10.949a.64.64 0 0 0-.452.189.65.65 0 0 0 0 .912.637.637 0 0 0 1.09-.456.65.65 0 0 0-.187-.456.63.63 0 0 0-.451-.189m-1.915 2.58a.64.64 0 0 0-.452.189.648.648 0 0 0 .451 1.101c.17 0 .332-.068.452-.189a.65.65 0 0 0 0-.912.64.64 0 0 0-.451-.189m3.83 0a.64.64 0 0 0-.451.189.647.647 0 0 0 .451 1.101c.17 0 .332-.068.452-.189a.65.65 0 0 0 0-.912.64.64 0 0 0-.452-.189m-1.915 1.29-1.277 7.74 1.277-1.935.638 2.58.324-2.676 1.592 2.031zm5.257 10.981h-.064a.63.63 0 0 0-.44.215.64.64 0 0 0-.098.71.64.64 0 0 0 .612.363.64.64 0 0 0 .566-.432.646.646 0 0 0-.576-.857zm-9.003.386a.64.64 0 0 0-.54.274.65.65 0 0 0 .158.899.637.637 0 0 0 .995-.641.646.646 0 0 0-.613-.532M166 133.973c-5.682 4.945-13.57 12.117-22.292 14-1.883 1.885-4.278 3.293-7.077 4.247 3.171 5.814 3.034 8.856 2.554 11.61l-9.089-9.182a1.9 1.9 0 0 1-2.116.647 1.92 1.92 0 0 1-1.272-1.454c-1.76.593-5.539 1.865-8.091 2.71 2.734 5.163 5.989 10.167 9.668 14.988 13.955-7.459 27.106-15.155 37.715-24.929zm-39.292 19.868.098-.032-.117-.078q.008.056.019.11m-18.514-19.782h-.064a.63.63 0 0 0-.44.215.64.64 0 0 0-.161.467c.01.171.086.33.213.444a.63.63 0 0 0 .901-.053.64.64 0 0 0 .161-.466.647.647 0 0 0-.61-.607m-8.732.127a.64.64 0 0 0-.54.275.65.65 0 0 0 .157.898.633.633 0 0 0 .89-.158.647.647 0 0 0-.507-1.015m4.907.097h-.064a.64.64 0 0 0-.44.215.65.65 0 0 0 .267 1.038.63.63 0 0 0 .687-.18.66.66 0 0 0 .161-.466.65.65 0 0 0-.19-.423.63.63 0 0 0-.421-.184m-8.68.576a.64.64 0 0 0-.539.275.65.65 0 0 0 .157.898.637.637 0 0 0 .995-.641.646.646 0 0 0-.613-.532m10.602.601-.603 5.658 2.752-.216zm-8.62.342.073 7.847.925-2.13 1.072 2.429-.141-2.693 1.917 1.721zm19.574 22.514-.407 2.289-1.604-2.109.76 2.585-2.262-1.221 5.399 6.068zm-11.093 2.558-.568 2.253-1.451-2.219.575 2.633-2.169-1.382 4.954 6.444zm14.983 4.229a.64.64 0 0 0-.453.197.64.64 0 0 0-.179.459.66.66 0 0 0 .195.453.64.64 0 0 0 .455.181.63.63 0 0 0 .448-.197.66.66 0 0 0 .179-.46.65.65 0 0 0-.291-.53.63.63 0 0 0-.354-.103m-3.513 1.544a.63.63 0 0 0-.452.197.64.64 0 0 0-.179.459.65.65 0 0 0 .195.453q.091.088.209.136a.6.6 0 0 0 .245.044.62.62 0 0 0 .448-.197.64.64 0 0 0 .179-.459.65.65 0 0 0-.291-.53.63.63 0 0 0-.354-.103m-8.09 1.276h-.045a.64.64 0 0 0-.551.366.646.646 0 0 0 .3.86.63.63 0 0 0 .851-.303.65.65 0 0 0-.198-.799.63.63 0 0 0-.357-.124m10.866.317a.63.63 0 0 0-.453.197.64.64 0 0 0-.179.46.64.64 0 0 0 .195.452.632.632 0 0 0 1.037-.227.65.65 0 0 0-.247-.778.63.63 0 0 0-.353-.104m-14.479.969h-.045a.63.63 0 0 0-.552.366.644.644 0 0 0 .3.86.63.63 0 0 0 .852-.303.65.65 0 0 0-.199-.799.63.63 0 0 0-.356-.124m10.521.048-.24 2.313-1.752-1.985.944 2.522-2.343-1.051 5.822 5.654zM108.574 171h-.046a.64.64 0 0 0-.55.365.65.65 0 0 0 .299.861.64.64 0 0 0 .852-.303.65.65 0 0 0-.555-.924zm12.3 4.737a.64.64 0 0 0-.62.453.65.65 0 0 0 .044.491.64.64 0 0 0 .376.316.64.64 0 0 0 .799-.424.65.65 0 0 0-.275-.741.63.63 0 0 0-.324-.095m-3.392 1.798a.647.647 0 1 0 .048 1.288.64.64 0 0 0 .551-.451.66.66 0 0 0-.274-.741.64.64 0 0 0-.325-.096m10.62.86-.24 2.313-1.753-1.985.945 2.522-2.344-1.051 5.822 5.653zm-7.737.525a.63.63 0 0 0-.501.232.645.645 0 0 0-.074.713.64.64 0 0 0 .862.271.64.64 0 0 0 .339-.629.66.66 0 0 0-.301-.491.64.64 0 0 0-.325-.096m-3.624 1.999-.541 2.261-1.477-2.201.606 2.626-2.185-1.356 2.423 3.075 2.121.693zm15.795 3.955a.64.64 0 0 0-.62.453.66.66 0 0 0 .044.492.63.63 0 0 0 1.056.113.66.66 0 0 0 .145-.471.637.637 0 0 0-.625-.587m-3.392 1.799a.63.63 0 0 0-.501.232.64.64 0 0 0-.145.472.638.638 0 0 0 1.245.133.65.65 0 0 0-.275-.741.63.63 0 0 0-.324-.096m-8.984 1.255a.64.64 0 0 0-.519.318l.325.93a.637.637 0 0 0 .805-.332.65.65 0 0 0-.2-.791.64.64 0 0 0-.411-.125m11.867.13a.64.64 0 0 0-.62.453.643.643 0 0 0 .42.808.63.63 0 0 0 .486-.045.64.64 0 0 0 .313-.379.643.643 0 0 0-.599-.837"/><path fill="currentColor" d="M80.642 23.351c-8.31-.018-17.039.376-26.405 1.251l1.445 3.753c23.86-2.146 43.42-1.117 62.678 1.904l1.359-3.702c-12.54-2.001-25.227-3.176-39.077-3.206m56.342 29.176-1.074 2.34c6.351 2.97 13.299 3.101 19.704.397l-.97-2.385c-5.787 2.462-11.905 2.344-17.66-.352M70.231 65.145c-1.52 5.12-7.483 6.894-14.005 7.365.496.997.967 2.044 1.444 3.127 2.169-.194 4.295-.572 6.303-1.195 2.121-.658 4.189-1.693 5.882-3.16 2.507 3.845 5.495 6.201 8.492 7.273L64.133 92.553c.356 1.079.711 2.199 1.076 3.4L86.7 74.796c-4.006 2.477-11.514 2.179-16.468-9.651m53.577 6.586-1.626 2.862a36.4 36.4 0 0 1 4.371 4.889c5.598 7.525 8.482 16.91 8.482 26.753s-2.884 19.229-8.482 26.753a37 37 0 0 1-8.663 8.362c3.595.211 7.071.388 8.765.459.025-1.094.9-1.997 2.011-1.952.447.018.858.191 1.104.414 4.194-2.52 6.72-6.315 9.415-9.981l-2.563-1.923c-2.423 3.296-4.466 6.245-7.283 8.326-.179-.023-.356-.051-.545-.059-.338-.013-.668.008-1.005.024.446-.594.89-1.159 1.316-1.732 6.047-8.129 9.122-18.212 9.122-28.691s-3.075-20.562-9.122-28.69a39.6 39.6 0 0 0-5.297-5.814m9.9 2.702.476.774H166v-.774zm1.593 2.58.517.774H166v-.774zm1.596 2.386.804 1.162H166v-1.162zm2.149 3.032 1.153 1.548H166v-1.548zm2.289 3.032 1.534 1.935H166v-1.935zM93.75 94.166l-23.382 23.13.644 3.877L93.35 99.075zm65.866 17.075v21.629h2.554v-19.302zm-86.83 12.599-1.22 1.232.565 4.573H94l-.498-5.516-.286-.289-2.553 2.58-2.554-2.58-2.554 2.58L83 123.84l-2.554 2.58-2.554-2.58-2.553 2.58zm66.586 11.481-.227 1.548h23.517l1.787-1.548zm-.5 2.774-.377 1.161h21.296l1.4-1.161zm-.747 2.128-.337.774h19.733l1.01-.774zM166 146.61c-10.609 9.774-23.761 17.469-37.719 24.907l2.425 3.09c12.744-6.799 24.957-13.92 35.294-22.835z"/><path stroke="currentColor" stroke-linecap="round" stroke-linejoin="round" d="M66.486.02c2.128 6.832 8.42 7.106 8.765 12.844.35 5.794-7.57 6.238-7.89.442-.214-3.918 4.297-4.117 4.509-.253.106 1.932-2.712 2.09-2.818.158M65.66.019c-1.349 7.071-7.6 8.038-7.314 13.792.287 5.797 8.207 5.354 7.889-.442-.215-3.918-4.72-3.612-4.508.252.106 1.932 2.923 1.774 2.817-.158M106.255.02c.866 7.632 8.225 9.016 7.576 14.88-.639 5.77-9.551 4.706-8.877-1.059.455-3.896 5.522-3.238 5.073.605-.225 1.922-3.395 1.544-3.171-.378M105.577.025c-2.629 7.133-10.05 6.773-10.768 12.606-.708 5.76 8.203 6.824 8.877 1.059.455-3.896-4.623-4.448-5.073-.605-.224 1.922 2.946 2.3 3.171.378m15.076 6.83q.256-.244.502-.51c1.993-2.151 3.147-5.036 3.51-8.417 3.81-.696 6.679-1.693 8.951-2.837m-18.828 10.943c4.032-1.53 6.427-4.949 6.152-11.448 11.728-1.398 13.693-5.013 18.285-8.032m-89.637 8c1.6 1.193 3.313 2.164 5.223 2.651.431 1.511.91 3.283 1.94 5.247a12.4 12.4 0 0 0 2.058 2.826m5.744-.465c-5.374-2.63-5.163-6.996-6.866-11.128-3.464.1-7.376-3.17-11.133-7.115m35.346 17.574c1.618-2.011 2.847-4.483 3.484-7.37a11.5 11.5 0 0 0 3.596-2.394 11.5 11.5 0 0 0 3.317 2.775c.298 2.715 1.136 5.134 2.36 7.203M85.099.013c-1.037 3.68-2.745 6.65-6.91 7.157-.433 5.17-2.59 8.41-5.763 10.507m23.343.383c-2.305-2.362-3.666-5.577-3.555-10.117-4.106-.967-5.478-4.134-6.109-7.932M136.008.1c-12.23 15.966-14.965 22.428-17.658 30.182M40.948.06c7.726 12.23 11.608 19.724 14.754 28.309m-1.465-3.767c24.977-2.333 45.418-1.247 65.482 1.955m-64.037 1.798c23.86-2.146 43.42-1.117 62.678 1.904m-66.597-11.25c26.952-2.68 48.918-1.477 70.387 2.063m-9.907 119.941c-6.276-21.244-3.49-45.268 13.713-72.883 7.377 16.953 24.45 35.084 40.049 48.522m-24.596 69.864c-9.273-9.333-17.147-19.284-22.791-29.98M-.002 86.884C13.805 75.75 30.38 68.182 47.15 60.868m50.425 10.355c-9.886 41.572-3.02 81.249 12.155 114.255m-44.502-89.45 21.49-21.258m-8.38 3.775L64.143 92.588m2.115 6.935L95.41 70.687c4.38-1.996 6.189-8.042 6.013-11.837-.545-11.765-8.207-10.475-8.473-31.237M71.21 122.55h22.18m-23.023-5.254 23.382-23.13m.58-5.087-24.684 24.417m1.366 7.677L93.35 99.075m-.158 20.25H72.878m-23.717-54.18c-1.276 0-2.477 3.683.639 3.87 2.423.145 5.108-5.805 0-5.805-5.746 0-5.124 9.525 1.26 9.525 8.29 0 17.255-1.14 19.17-7.59 7.024 16.77 19.179 10.366 19.155 5.805-.02-3.577-4.47-3.87-5.108-1.935-.873 2.645 1.277 3.87 3.192 1.935-3.192 4.515-9.628 1.085-12.769-5.805m-3.135 59.927 1.22-1.232 2.553 2.58 2.554-2.58 2.554 2.58L83 123.84l2.554 2.58 2.554-2.58 2.553 2.58 2.554-2.58.286.289m-18.232-33.52q.296.233.558.505m0 0a5.5 5.5 0 0 1 1.536 3.899 5.5 5.5 0 0 1-1.644 3.853m.108-7.752a5.4 5.4 0 0 0 3.815 1.66 5.4 5.4 0 0 0 3.86-1.551m-7.675-.11a5.5 5.5 0 0 1-.484-.578m.376 8.332a5.4 5.4 0 0 1-3.86 1.551 5.4 5.4 0 0 1-3.814-1.66m7.674.109a5.5 5.5 0 0 0-1.643 3.853 5.5 5.5 0 0 0 1.535 3.899m.108-7.752a5.4 5.4 0 0 1 1.777-1.164 5.38 5.38 0 0 1 5.897 1.273m-15.348-.219a6 6 0 0 1-.461-.547m.461.547a6 6 0 0 0-.528-.48m.528.48a5.5 5.5 0 0 1 1.536 3.807 5.5 5.5 0 0 1-1.515 3.815M90.77 75.274q.331.252.62.553m0 0a5.5 5.5 0 0 1 1.152 1.795 5.53 5.53 0 0 1-.059 4.196 5.5 5.5 0 0 1-1.2 1.761m.107-7.752a5.4 5.4 0 0 0 2.23 1.397 5.4 5.4 0 0 0 2.617.178m-4.847-1.575q-.289-.3-.53-.643m.422 8.395a5.4 5.4 0 0 1-1.777 1.164 5.38 5.38 0 0 1-4.153-.06 5.4 5.4 0 0 1-1.744-1.213m7.674.11a5.5 5.5 0 0 0-1.643 3.853 5.5 5.5 0 0 0 1.535 3.899m.108-7.753a5.4 5.4 0 0 1 1.886-1.205 5.4 5.4 0 0 1 2.207-.337M83.61 83.47a5.5 5.5 0 0 1-.507-.61m.507.61a5.4 5.4 0 0 0-.589-.529m.59.53a5.5 5.5 0 0 1 1.535 3.898 5.5 5.5 0 0 1-1.644 3.854m0 0a5.5 5.5 0 0 0-1.643 3.854 5.5 5.5 0 0 0 1.535 3.899m.108-7.753a5.4 5.4 0 0 1 1.777-1.163 5.38 5.38 0 0 1 5.897 1.272M68.064 106.39a5.4 5.4 0 0 1 3.82-1.429 5.4 5.4 0 0 1 3.727 1.658m0 0q.242.251.45.532m-.45-.532q.242.251.513.469m7.27-8.112q.227.236.426.5m-.427-.5q.228.236.483.444m7.752-7.668a6 6 0 0 1-.453-.42m0 0q.215.223.403.469m-2.687-19.18 3.208-3.173m-34.415 6.218c2.155-.223 4.282-.601 6.29-1.224 2.12-.658 4.188-1.693 5.88-3.16 2.508 3.845 5.496 6.201 8.502 7.284M121.198 67.5c6.219 2.05 12.283.925 17.987-7.515.851 4.268 3.322 7.603 5.746 10.965 2.541-3.855 4.255-7.725 5.107-11.61 3.594 7.093 9.779 9.132 15.958 11.183m.006 40.876c-14.233-12.65-29.13-29.036-35.869-43.66m-16.084 24.763c2.224 3.954 3.428 8.776 3.428 13.733 0 3.919-.753 7.772-2.185 11.185s-3.495 6.272-5.99 8.299m.334 3.336c1.96-1.306 3.71-3.005 5.178-4.979 3.486-4.686 5.536-10.965 5.536-17.841 0-6.54-1.855-12.54-5.036-17.144m-3.252 51.83c4.825-2.255 8.909-5.796 11.939-9.87 5.148-6.92 7.841-15.609 7.841-24.816s-2.693-17.895-7.841-24.816a33 33 0 0 0-3.417-3.914m-2.771 63.847c3.429-2.303 6.382-5.193 8.74-8.364 5.598-7.524 8.482-16.91 8.482-26.753s-2.885-19.228-8.482-26.753a36.4 36.4 0 0 0-4.371-4.889m5.591 62.026q.693-.833 1.332-1.693c6.047-8.129 9.122-18.212 9.122-28.691s-3.075-20.562-9.122-28.69a39.6 39.6 0 0 0-5.297-5.814m24.723-20.424-1.609 7.335q-.68 3.097-2.22 6.271c-1.117-1.814-1.998-3.611-2.388-5.565l-1.497-7.499-4.269 6.318c-2.302 3.406-4.466 5.236-6.479 6.162m30.943.952c-3.386-1.5-6.165-3.527-8.132-7.41l-3.405-6.722m-23.633 17.18c6.736-5.119 9.41-12.024 12.483-18.752m15.193.269c3.3 9.383 7.224 16.879 12.479 20.352m.004 95.905c-8.096 6.962-17.402 12.574-27.314 17.596m27.32-31.93c-10.338 8.917-22.555 16.038-35.301 22.838m35.298-27.998c-10.609 9.775-23.764 17.469-37.723 24.908m11.162-38.647H166m-17.877-12.988 5.06 6.273-5.06 5.112m11.492-9.39-5.556-6.889 4.32-4.888m-5.532-5.362-4.724 5.346m9.248 22.786 2.244-2.267m-15.323-34.975v37.242m3.831-33.023v33.023m7.469-25.427-6.567 7.431 9.313 11.546-6.384 6.45m7.661-21.629v21.629m2.554-19.302v19.302m-17.992-43.86H166m-35.905 65.638 9.09 9.182c.48-2.754.617-5.796-2.554-11.61 3.755-1.28 6.782-3.376 8.938-6.45-2.126-.859-5.102-1.719-8.938-2.58 2.898-4.77 3.205-8.945 2.554-12.9m0 0c-2.695 3.666-5.221 7.461-9.49 9.924m9.49-9.924-2.563-1.923c-2.423 3.296-4.466 6.245-7.283 8.326-.179-.023-.356-.051-.545-.059-.338-.013-.668.008-1.005.024m38.303-2.765c-5.689 4.947-13.62 12.191-22.433 14.124m-17.022-6.171c-3.533-.185-14.918-.945-18.14-.945-7.023 0-10.082 3.579-1.235 3.579m0 0h5.746m-5.746 0c-5.108 0-9.577 3.225-4.47 3.87m12.131 3.225c-5.108 0-7.661.645-10.215.645-3.831 0-5.108 3.225-1.277 3.225h10.58m-.365-7.74c-.638 0-7.661.645-10.215.645s-5.746 3.225 0 3.87m23.375 1.589L116.2 157.38c-1.915.645-3.192 1.29-4.593 2.082-3.388 1.916-4.345-1.437-2.43-2.727s3.192-1.29 3.192-1.29m18.437-12.549q.16-.07.313-.162c1.591-.917 2.94-1.989 4.151-3.129a20 20 0 0 1-1.088 2.067l-2.107 3.469 3.933.882c1.61.362 3.024.722 4.3 1.077-1.306.983-2.823 1.766-4.596 2.37l-3.256 1.11 1.659 3.041c.404.742.737 1.404 1.028 2.021l-3.016-3.047a2.86 2.86 0 0 0-1.126-.72m9.543-112.817.383 4.646m12.304-5.025v4.516m-13.803-4.99c1.352 1.132 4.066 3.075 6.78 3.075 3.83 0 9.577-3.225 9.577-6.45 0-1.516-.565-3.032-1.163-4.213m-15.571-9.514c.405-.267 1.033-.463 2.049-.463 3.192 0 4.469 1.935 5.108 1.935 2.327 0 3.058 3.154-.639 3.225-2.553.049-3.831-2.58-3.831-2.58.787 1.827 2.125 3.756.639 5.16 4.498.877 5.803 3.86 5.746 7.74m-5.167-15.2q.014-.75.059-1.57m3.641 6.342c-.704 4.875-2.918 4.674-3.542-.783m-2.622-4.224c.166-1.559 1.011-2.47 2.523-3.27 2.696-1.427 3.692 2.76 3.823 5.26m-1.266-4.6c5.05-4.417 4.884 9.25 4.466 10.305-1.04 2.629-3.354 3.543-3.828-.749m2.81-9.171c3.054-2.705 5.156 2.197 4.535 6.59-.798 5.64-3.492 7.977-3.837 4.006m2.961-9.96c2.795-1.771 4.738 2.846 4.03 6.973-1.007 5.864-3.995 6.246-3.529.874m3.639-3.06q.121-.018.243-.018c1.41 0 2.553 1.733 2.553 3.87m0 0c0 2.137-1.143 3.87-2.553 3.87-.751 0-1.464-.5-1.949-1.369m4.502-2.501c0 .855.303 1.676.842 2.28.539.605 1.269.945 2.031.945s1.493-.34 2.032-.945c.539-.604.842-1.425.842-2.28s-.303-1.676-.842-2.28c-.539-.605-1.27-.945-2.032-.945s-1.492.34-2.031.945c-.539.604-.842 1.425-.842 2.28m-37.891-5.805h14.302m-19.313 10.965h20.529m9.604-2.58c1.841 1.014 3.379 2.293 3.831 4.515m-33.485 75.457a3.6 3.6 0 0 1-1.656-.287 3.7 3.7 0 0 1-1.204-.838 3.9 3.9 0 0 1-.805-1.256 4.03 4.03 0 0 1 0-2.962c.187-.469.46-.896.805-1.255.345-.36.754-.645 1.204-.839a3.6 3.6 0 0 1 1.71-.283m-.036-.237a3.6 3.6 0 0 1-2.267-.193 3.7 3.7 0 0 1-1.204-.839 3.9 3.9 0 0 1-.805-1.255 4 4 0 0 1-.282-1.482c0-.814.246-1.609.705-2.269a3.73 3.73 0 0 1 1.847-1.407m-.198 23.137a3.73 3.73 0 0 1-1.813-1.412 4 4 0 0 1-.69-2.247c0-1.026.391-2.01 1.088-2.736a3.64 3.64 0 0 1 2.625-1.134q.477 0 .94.127m-6.411 13.76a3.85 3.85 0 0 1-1.053-1.354 4.03 4.03 0 0 1-.094-3.179c.187-.469.46-.896.805-1.255.345-.36.754-.645 1.204-.839a3.58 3.58 0 0 1 3.388.293m-5.611 7.27q.093.09.189.175m1.993-24.597a5.5 5.5 0 0 0 1.432 1.895 5.57 5.57 0 0 0-.023 7.245 5.56 5.56 0 0 0-2.068 4.329c0 .63.106 1.243.302 1.817a5.3 5.3 0 0 0-1.964 1.317m5.269-24.074a5.2 5.2 0 0 0-.936.472m-19.724-31.33c0-4.515-4.47-4.515-4.47.645s7.024 2.58 7.024-1.935c0-6.45-9.577-5.16-9.577 1.29 0 8.274 14.57 10.065 22.87 9.42 8.254-.642 16.541-6.255 16.61-14.618.095-11.688-8.333-16.484-10.351-27.427M90.313 68.393c6.216.2 8.648-2.603 8.71-8.59.1-9.62-8.361-10.783-7.656-32.272m.74 41.921h-.012a5.16 5.16 0 0 1-2.74 1.972m30.463-2.89c2.851-2.682 4.529-7.168 4.562-11.167.096-11.78-8.31-16.559-10.215-27.686m4.396 39.61c2.596-2.906 3.857-8.07 3.888-11.924.097-11.872-8.283-16.633-10.076-27.947m3.768 41.029c2.935-2.84 4.344-8.987 4.378-13.082.097-11.958-8.246-16.701-9.931-28.195m3.563 41.988c2.984-2.868 4.403-9.663 4.437-13.793.098-12.031-8.185-16.759-9.778-28.406m3.631 42.628c2.842-3.058 4.184-10.188 4.216-14.222.099-12.1-8.115-16.813-9.62-28.606m3.128 43.186c3.088-2.821 4.528-10.38 4.562-14.58.099-12.166-8.04-16.864-9.461-28.801m2.822 43.523c3.199-2.7 4.673-10.449 4.708-14.722.1-12.23-7.958-16.913-9.298-28.99m2.647 43.735c3.218-2.68 4.686-10.46 4.721-14.745.1-12.279-7.853-16.95-9.13-29.133m2.55 43.83c3.178-2.723 4.614-10.437 4.649-14.697.1-12.327-7.745-16.987-8.96-29.278m2.525 43.86c3.087-2.818 4.47-10.38 4.504-14.582.101-12.376-7.635-17.024-8.79-29.423m2.566 43.82c2.965-2.952 4.631-10.298 4.294-14.397-1.005-12.217-8.028-15.442-8.618-29.57m1.687 43.543c3.495-2.71 5.423-9.304 5-13.973-.989-10.927-8.012-11.572-8.44-29.664m1.556 34.698c.387-2.377.6-2.76.507-4.206-.558-8.656-8.467-5.634-7.323-30.765m-5.122 43.71c-2.805-1.01-5.556-3.326-7.067-6.639m7.258 4.106c-2.123-.872-4.094-2.657-5.343-5.396m11.046 5.154c-3.34.106-7.147-2.093-9.13-6.444m6.565 3.782c-1.837-.914-3.518-2.589-4.65-5.072m3.863 1.588c-.903-.812-1.684-1.854-2.272-3.143m2.99.678a12.6 12.6 0 0 1-1.389-2.348m3.317.43a12.6 12.6 0 0 1-1.401-2.365m3.788 1.614a11.5 11.5 0 0 1-1.873-2.904M49.162 69.015c6.215 1.027 8.218-3.746 8.199-9.07-.02-5.448-3.092-10.925-1.815-16.085m0 0c0 7.74 3.42 10.849 3.44 16.297.019 5.324-2.613 13.486-8.828 12.459m5.388-28.756s.764 10.322.639 13.545c-.198 5.086-9.577 10.017-9.577 0 0-6.45 7.661-5.805 7.661-.645m1.87 15.792c2.94-2.003 4.38-6.703 4.604-10.485m-1.826 10.195c2.302-2.279 3.454-6.348 3.652-9.697M61.84 71.7c1.635-2.343 2.478-5.671 2.645-8.49m.195 7.546c1.034-2.126 1.588-4.673 1.72-6.901m1.077 5.289c.477-1.544.75-3.164.838-4.644M54.27 56.76c0 5.16-5.746 3.87-5.746.645s4.47-2.58 4.47 0m1.276-.645c0-3.225-.908-5.663-1.015-6.652-.183-1.702.714-2.884.956-5.19m2.943-16.861c-.542 1.735-1.607 5.33-1.607 6.773 0 1.935.639 3.225.639 6.45 0 5.16-8.939 7.095-8.939 0 0-5.805 7.662-7.095 7.662-1.935m0 0c0 5.16-5.108 3.87-5.108 1.29s3.192-2.58 3.192-.645m1.916-.645s-.7-3.579-.7-6.238c0-1.466.844-3.417 1.573-4.828m-.182 5.853s1.863-2.527 4.416-2.527 3.831 1.29 5.108 1.29c.638 0 1.915-1.29 1.915-1.29v1.29m0 0c-.638 0-1.253.63-1.915.645-.638 0-3.83-1.935-4.47-1.935m6.385 1.29s1.277 3.225 1.277 3.87-2.553 6.45-2.553 7.74-1.277 4.515-1.277 5.16S66.4 51.6 67.038 51.6m18.516-18.06s-4.47-2.58-5.746-2.58m0 0c-1.916 0-4.47 1.29-5.747 1.29-1.276 0-3.192-.645-3.192-.645v.645c1.079 0 2.577.648 3.192.645.633-.003 3.831-1.935 5.747-1.935M67.038 51.6c.639 0 2.554-1.29 3.831-1.935.571-.288 1.277 1.29-3.83 1.935m5.108-4.515c3.192 0 3.69 3.158 1.434 3.986-.857.314-2.135-.203-2.315-1.176m5.35 5.575 1.277 1.935-.638-2.58zm0 0 .639.645-3.193-.645c-1.276 0-2.553-1.29-2.553-1.29s-.858 1.29-2.135 1.29c-1.696 0-1.696-1.29-1.696-1.29-1.277 1.29-3.142 1.699-3.267 1.858l-.564.722c1.277-1.634 9.147-.424 12.77-1.29m-8.938 2.58c2.16 2.222 3.83 1.935 5.746 0m56.823-34.185-3.192 3.87m0 0 3.831 3.225m-3.831-3.225h-2.438m-2.031 3.225 4.469-7.095v7.095m26.192 12.234a3.2 3.2 0 0 0-1.443.361c-4.536 2.292-6.654 2.292-11.191 0a3.17 3.17 0 0 0-3.549.422 3.2 3.2 0 0 0-.772 1.002 3.26 3.26 0 0 0-.166 2.482 3.23 3.23 0 0 0 1.632 1.864c5.679 2.868 11.223 2.868 16.901 0a3.2 3.2 0 0 0 1.493-1.513c.313-.661.394-1.41.23-2.123a3.24 3.24 0 0 0-1.134-1.803 3.17 3.17 0 0 0-2.001-.692m-24.58 96.663a1.91 1.91 0 0 0-1.95 1.533c-.062.297-.055.603.022.896 1.241 5.013 1.237 6.904.041 10.529a1.94 1.94 0 0 0 .545 2.101 1.92 1.92 0 0 0 1.406.473 1.92 1.92 0 0 0 1.683-1.35c1.358-4.115 1.355-7.384.041-12.691a1.93 1.93 0 0 0-.645-1.05 1.9 1.9 0 0 0-1.143-.441m9.88-126.312c0 10.965 5.132 27.735-3.192 27.735-4.469 0-4.895-6.303-1.715-6.017 2.353.212 2.298 2.79 1.076 3.437 3.295-2.763 3.515-6.759 0-12.255 2.553-1.806.639-9.675.639-12.255 0-5.805 7.661-4.579 7.661-1.29 0 3.225-3.83 3.225-4.469.645m-74.061 41.28-1.277 2.58 1.277-1.29zm-8.3-16.77c2.553 0 3.874-2.095 5.15-2.04 2.511.105 3.15 2.04 4.426 2.04-.638 0-1.915 1.935-5.107 1.935-1.916 0-1.916-1.935-4.47-1.935m26.177 0c-2.554 0-3.875-2.095-5.151-2.04-2.511.105-3.15 2.04-4.426 2.04.638 0 1.915 1.935 5.107 1.935 1.916 0 1.916-1.935 4.47-1.935"/><path stroke="currentColor" stroke-linecap="round" stroke-linejoin="round" stroke-width=".5" d="M102.38 148.486c.63 1.472.432 2.356.105 3.552m.473.485c.631 1.472.511 1.695.184 2.891m-.131-10.25c.63 1.472.484 1.853.157 3.049m17.661-124.348h15.097m-16.074 2.365h15.089m-15.984 2.365h16.977M116.2 30.96h20.672m9.336-3.225c1.281-.217 2.558.003 3.83.645m-6.703-1.854c1.282-.217 1.877-.209 3.149.433m3.681 1.492c1.282-.216 1.301-.129 2.573.513m.519-.028c1.281-.217 1.227-.316 2.499.326m-10.825-7.332c-.639 1.29 2.714 2.077 3.187 1.972m3.197-.682c.388-.308.82-.256 1.277 0m1.921.556c.387-.308.82-.256 1.277 0m-8.039-1.483c.387-.308.82-.255 1.277 0M107.261 145.77c.296.558.19.942 0 1.29m-.131 2.258c.296.558.19.942 0 1.29m.525 2.655c.295.558.189.942 0 1.29M56.823 38.055c1.277 0 1.916 3.117 4.512 3.172 2.511.053 5.065-3.172 5.703-3.172m15.428.052c-1.277 0-1.916 3.118-4.512 3.172-2.511.053-5.065-3.172-5.704-3.172m-16.065-.052c1.915 0 2.994-3.614 5.107-3.87 1.61-.195 4.47 1.935 4.47 1.935m16.6 0s-3.717-2.117-5.326-1.922c-2.113.256-3.193 3.87-5.108 3.87.857-.013 1.495 3.212 1.495 3.212M56.185 38.7c.334 2.45 3.088 4.268 3.192 3.87m5.108 9.03c-1.916 1.935-2.78 3.32-3.831 5.16m15.323-6.45c.638 2.58 4.244 5.623 4.47 5.16m-12.132 7.74c.639-2.58 3.193-1.935 4.47-.645m-9.706-26.092c.085.299.129.616.129.937a3.25 3.25 0 0 1-.38 1.551c-.245.447-.59.773-.983.928a1.4 1.4 0 0 1-.793.074c-.448-.089-.858-.396-1.154-.865s-.46-1.068-.46-1.688q0-.279.044-.55m19.28-.191c.079.288.119.593.119.9a3.3 3.3 0 0 1-.33 1.457c-.214.43-.518.76-.872.948a1.45 1.45 0 0 1-.683.175c-.372 0-.736-.151-1.045-.434a2.5 2.5 0 0 1-.616-.929 3.4 3.4 0 0 1-.223-1.217c0-.336.048-.668.14-.979M99.6 72.24l-2.675 1.871m2.675.064-3.157 2.208m3.157-.273-3.61 2.525m3.337-.4-3.74 2.617m3.31-.38L95.2 83.056m3.305-.376-3.638 2.544m3.286-.363-3.602 2.52m3.268-.351-3.546 2.48m3.264-.348-3.515 2.458m3.246-.335-3.47 2.427m3.246-.335-3.436 2.403m3.23-.324-3.404 2.38m3.23-.323L93.3 99.866m3.216-.315-3.341 2.337m3.216-.314-3.296 2.305m3.204-.306-3.28 2.294m3.162 1.658-3.222 2.254m3.262-4.217-3.235 2.263m3.162 1.659-3.18 2.224m3.188-.295-3.17 2.217m3.183-.291-3.132 2.19m3.183-.291-3.121 2.183m3.178-.288-3.088 2.16m3.18-.289-3.078 2.153m3.177-.287-3.047 2.131m3.177-.287-3.037 2.124m3.176-.287-3.01 2.105m3.177-.286-2.999 2.097m3.177-.286-2.974 2.08m3.177-.287-2.965 2.073m3.179-.288-2.942 2.057m3.179-.288-2.933 2.052m3.182-.291-2.912 2.036m3.183-.291-2.905 2.032m10.868-13.429 3.738 5.072m-3.915-8.609 3.484 4.726m-3.497-8.042 3.244 4.401m-3.135-7.55 3.051 4.138m-2.821-7.124 2.901 3.936m-2.581-6.799 2.766 3.752m-2.366-6.507 2.672 3.624m-2.199-6.28 2.589 3.512m-2.051-6.08 2.516 3.414m-1.919-5.901 2.453 3.327m-1.802-5.742 2.398 3.253m-1.699-5.602 2.35 3.188m-1.606-5.476 2.308 3.13m-1.523-5.363 2.271 3.081m-1.45-5.264 2.241 3.039m-1.385-5.176 2.213 3.003m-1.326-5.097 2.204 2.99m-1.289-5.046 2.182 2.959M116 79.548l2.158 2.928m-1.182-4.901 2.145 2.91m-1.147-4.853 2.111 2.863m-1.091-4.777 2.113 2.866m-1.071-4.75 2.098 2.846m-1.017-4.677 2.06 2.794m-15.26 69.081c.295.558.189.942 0 1.29m-4.084-1.715c.63 1.472.405 1.747.078 2.943m2.712-14.751 3.739 4.427m-3.101-.557 4.211 4.798m-3.624-.557 3.066 3.096m1.734 17.818c-.917-.968-4.11.645-4.11.645m-12.71-17.544 3.988 3.741m-3.376-.587 4.089 3.836m-3.404-.613 4.204 3.943m-3.439-.646 4.331 4.063m-3.48-.684 4.475 4.197m-3.529-.73 4.634 4.347m-3.586-.784 4.814 4.516m-3.653-.847 5.015 4.705m-3.731-.92 5.284 4.956m-3.843-1.024 5.497 5.156m-3.873-1.053 4.847 4.547m-3.061-.292 3.061 2.872m29.796 1.507-.67 1.105m-.611-2.431-1.72 2.836m.438-4.162-1.72 2.836m.46-4.199-1.733 2.859m.481-4.234-1.734 2.86m.486-4.242-1.738 2.867m.518-4.294-1.751 2.887m.531-4.315-1.751 2.887m.551-4.349-1.771 2.921m.586-4.407-1.771 2.921m.59-4.413-1.774 2.926m.629-4.477-1.796 2.962m.65-4.513-1.796 2.962m.679-4.56-1.824 3.009m.722-4.632-1.826 3.012m.474-5.082-1.851 3.054m.798-4.757-1.864 3.073m.823-4.796-1.876 3.093m.876-4.884-1.908 3.147m.858-4.856-1.46 2.408"/></svg>
