<svg xmlns="http://www.w3.org/2000/svg" width="144" height="240" fill="none"><path stroke="currentColor" stroke-linecap="round" stroke-linejoin="round" d="M60.462 45.89 0 83.81m23.262 32.234L0 139.378m101.01-.713c11.009-23.3 7.838-54.67 13.292-66.26m-71.273 28.869c7.036 2.125 11.381 11.01 9.83 20.619-1.645 10.179-9.285 17.316-17.067 15.939a11 11 0 0 1-1.155-.268m66.161 7.824 2.677-5.356c6.077-12.86 7.935-27.681 9.205-40.409.635-6.364 1.116-12.215 1.832-16.961.65-2.725.943-5.75 1.979-8.281m7.515 5.436c-1.102 3.384-1.67 7.4-2.202 11.899-.811 6.86-1.358 14.854-2.458 23.068-2.123 15.848-6.287 32.236-17.715 42.763M41.879 78.925c1.098 7.016 1.609 15.228 1.141 22.346m-25.524 57.397c5.112-17.155.402-59.433 24.456-79.714l1.21-1.043m95.934 11.109c1.639.926 3.278 1.837 4.913 2.743M83.154 14.771c7.579 36.776 24.583 54.253 43.307 66.617M31.39 64.152c23.373 17.541 52.5 18.882 79.51 4.876m-82.158-3.229C39.693 74.3 51.94 79.307 64.664 80.92m24.6-1.009c8.053-1.646 16.089-4.57 23.917-8.75m-4.436-4.344c-25.56 12.9-52.668 11.645-74.759-4.376m87.973 54.291L144 94.622M99.162 80.395l.461 23.619m-8.242-21.525c6.275-1.405 12.526-3.559 18.661-6.449M26.08 67.41c11.1 8.899 23.559 14.266 36.524 16.214m47.526-7.745c-1.75 6.666-2.15 15.35-3.143 24.93q-.061.593-.125 1.189M79.178 78.34l-.52 34.889M75.397 78.48l1.55 34.072M90.24 76.711c-3.837 11.545-4.972 25.695-5.457 37.898M63.676 77.791c3.261 9.895 5.088 21.329 5.942 31.643m17.974 4.517c.392-10.803 1.163-21.366 3.848-31.501M87.12 77.3c-3.547 11.431-4.645 25.263-5.113 36.946m-9.526-3.73c-.754-10.625-2.462-21.937-5.754-32.364m-4.16 5.578c2.126 7.635 3.559 16.795 4.292 24.831M74.888 0 115.2 72l5.539-3.6L82.638 0m22.843 40.957c5.391-3.05 9.654-6.951 15.811-4.357m0 0c-3.295-11.237-7.34-22.28 1.29-36.593m-1.29 36.593c-1.992-1.912-4.412-3.563-5.538-6-2.769 1.8-6.075 2.316-9.057 1.031m3.694 6.359L88.409 0m21.088 36.454-4.843 3.06m3.81-4.907-4.789 3.026m3.711-4.845-4.772 3.016m3.705-4.842-4.803 3.036m3.763-4.878-3.348 2.115m2.271-3.935-2.495 1.577m1.862-9.077s-1.107-1.8 1.108-1.8 2.769 3.6.554 4.8c-2.147 1.163-6.646-4.2-2.769-7.2 3.479-2.692 7.753 3.6 12.738 1.8-3.903 3.811-.956 10.942-4.833 12.894-4.321 2.176-6.41-4.709-4.418-6.159 2.056-1.497 4.674.8 3.582 2.888s-1.991.157-1.991.157m-4.817-2.396c2.965-.988 5.734-2.919 8.6-4.384m-2.215-1.2c-.434 1.773-.821 2.08-3.323 4.2 1.974-.42 4.43-.328 5.538.6m-3.443 9.655c2.311.512 5.626.404 7.32-.055.99 1.065 2.725 1.725 4.431 2.4M90.945 4.402c1.38.326 2.534.796 5.978-.202.87.5 1.96.845 3.877.6-.3.986-.79 1.623-.554 3.6-1.301 2.378-2.108 4.715-2.878 7.048m2.072 3.674c.514-2.847.224-5.782 3.575-8.322.179-3.52.766-7.137 1.534-10.798M46.643 54.51c18.735 11.228 36.162 7.563 53.414 1.904m-3.662-5.699c-14.95 4.793-28.57 7.413-43.496-.147m73.582 30.84s1.795-1.973 2.011-2.208c.554-.6 3.075.258 4.363-1.619 1.866-2.718 3.858-.683 1.943 1.594-1.583 1.882-4.09 3.288-4.09 3.288 1.165 4.187.659 8.075-1.108 11.737m7.771-.378c-.368 2.317-2.379 5.135-3.894 5.778-2.052.87-6.903 1.665-9.632-.786m-58.868 18.508q1.15.322 2.407.774m-14.234-.645q.844-.297 1.705-.515m38.317-5.268c-3.435 1.842-5.388 2.705-7.322 2.896-2.042.202-4.927-.161-10.577-2.81-6.227-2.92-11.592-4.381-16.574-4.331q-1.068.01-2.113.114a25.5 25.5 0 0 0-5.413 1.148m3.836 6.371a21 21 0 0 0-1.994.553m15.14.87a36 36 0 0 0-3.644-1.131m7.184 2.582q-.405-.183-.801-.354m11.737 4.074c-2.374-.318-5.14-1.133-8.58-2.644m16.83 1.636c-1.46.559-2.895.941-4.428 1.092q-.406.04-.826.059m-27.533-8.954q-.533.024-1.055.075c-1.5.148-2.904.46-4.251.888m19.188 2.307c-4.003-1.773-7.414-2.783-10.487-3.141m20.476 6.76c-1.807-.326-3.897-.961-6.418-2.016m15.517.934c-1.627.687-3.144 1.136-4.761 1.295m-28.698-8.878q-.36.023-.717.059c-1.582.156-3.056.48-4.46.918m39.013 4.489c-1.927.9-3.562 1.449-5.29 1.62-2.75.272-6.255-.304-12.198-3.091-4.536-2.128-8.43-3.379-11.961-3.837m40.183 24.795a2.7 2.7 0 0 0-.46-.18c-5.397-1.629-9.196-8.849-7.845-17.212 1.43-8.86 7.897-14.556 13.891-13.496q.454.081.888.207.309.094.614.11m-3.478 19.355c-2.141 0-3.877-2.149-3.877-4.8s1.736-4.8 3.877-4.8c.732 0 1.417.251 2.001.688m-1.17 5.894a1.42 1.42 0 0 1-.831.275c-.918 0-1.662-.921-1.662-2.057s.744-2.057 1.662-2.057c.582 0 1.094.37 1.391.932m-2.96-3.271-2.308-5.804m0 0-3.623-.6.3 4.8m3.323-4.2 2.215-4.2L108 108m-9.415 6-3.877 1.8 1.661 4.8m2.216-6.6 4.02 3.178m-6.236 3.422-2.567 3.6 3.675 2.4m-1.108-6 5.551-.334m-4.443 6.334-1.108 4.8h4.431m-3.323-4.8 5.119-3.882M100.8 131.4l.554 4.2 1.232-.534M100.8 131.4l3.25-7.143M108 108l-1.398 7.279M108 108l1.136-1.231m-8.89 5.431 3.069 4.103m1.916-7.103.318 5.939m-8.072 2.461 4.563 1.245m-5.117 4.755 5.19-2.002m-2.42 6.802 3.602-4.734m.274 7.134 1.31-6.111M24.348 89.45c.47.36.801.984.74 2.34m.796-4.068c.376.467.992.77 2.277.61m-8.12-3.503c-.333-.51-.908-.868-2.16-.802m3.756-.861c-.432-.408-.71-1.075-.564-2.467m1.104 8.104c-.704.666-1.308 1.61-1.632 3.324m.196-4.88c-.615.763-1.486 1.417-3.068 1.768m7.637-3.606c.615-.763 1.486-1.416 3.068-1.768m-4.504.212c.704-.666 1.307-1.609 1.632-3.323m-1.893 9.829c.05 3.36.783.848 3.524 5.515.784-.848 1.959-2.97 1.175-3.818.784.848 2.742-.424 3.525-1.273-4.308-2.97-1.989-3.764-5.091-3.818m-7.441-1.273c-3.103-.055-.783-.849-5.091-3.818.783-.849 2.741-2.122 3.524-1.273-.783-.849.392-2.97 1.175-3.819 2.742 4.667 3.475 2.155 3.525 5.516m.457 7.283c-1.754 4.931-1.567 1.697-7.898 10.112-.718-.778-1.37-3.182.196-4.88-1.567 1.698-3.786.99-4.504.213 7.767-6.86 4.782-6.656 9.334-8.556m6.005-.283c4.552-1.9 1.566-1.697 9.334-8.556-.718-.778-2.937-1.485-4.504.212 1.567-1.697.914-4.101.196-4.879-6.332 8.415-6.144 5.18-7.898 10.112M-.001 108.97a1.6 1.6 0 0 1 1.07-.368c.376.015.722.176.977.453.142.153.252.337.323.543.072.205.104.428.095.654a1.94 1.94 0 0 1-.515 1.242 1.72 1.72 0 0 1-.948.536c-.353.064-.705 0-1.002-.181m2.195 1.6c.471.361.802.984.741 2.34m.795-4.068c.376.467.992.769 2.277.611m-5.984.47-.024.023m3.157-3.417c.615-.762 1.486-1.416 3.068-1.768m-4.504.212c.704-.666 1.307-1.609 1.632-3.323m-1.893 9.829c.05 3.361.783.848 3.525 5.515.783-.848 1.958-2.97 1.175-3.818.783.848 2.74-.424 3.524-1.273-4.308-2.97-1.988-3.764-5.091-3.818M0 104.475c.187.302.268.779.284 1.823m.457 7.283c-.28.789-.512 1.37-.728 1.822m3.861-5.216c4.552-1.9 1.567-1.697 9.334-8.556-.718-.778-2.937-1.485-4.504.212 1.567-1.697.914-4.101.196-4.879-6.331 8.415-6.144 5.18-7.898 10.112m1.444-2.965q.107-.635.314-1.352c.751-2.578 2.497-5.667 5.046-8.428s5.4-4.654 7.78-5.467a10 10 0 0 1 1.188-.328m4.212 4.573q-.105.602-.302 1.278c-.75 2.578-2.496 5.667-5.045 8.429-2.55 2.761-5.401 4.653-7.78 5.466a10 10 0 0 1-1.09.308m.189 3.571c.66-.108 1.329-.281 1.993-.508 3.004-1.027 6.183-3.2 9.037-6.292s4.86-6.536 5.808-9.79c.284-.977.477-1.961.553-2.921m-7.126-7.758c-.897.08-1.817.29-2.729.601-3.004 1.027-6.183 3.2-9.038 6.292-2.544 2.756-4.414 5.793-5.461 8.725m29.18-12.159a13 13 0 0 0 1.707-.457c1.66-.567 3.372-1.484 5.054-2.712M27.19 68.244c-2.749 3.035-4.683 6.395-5.609 9.573a16 16 0 0 0-.43 1.902m3.22.681q.105-.654.322-1.4c.75-2.578 2.496-5.667 5.045-8.428l.217-.232m9.847 5.94a26 26 0 0 1-2.231 2.777c-2.55 2.761-5.4 4.653-7.78 5.466a10 10 0 0 1-1.106.311M.011 123.701c.812-1.463 1.436-2.936 1.854-4.372.236-.81.409-1.626.504-2.429m3.49 11.074 3.01 2.508m-8.632-7.193 3.212 2.678m.821 3.268 3.19 2.659M0 125.677l2.688 2.24M0 128.262l6.053 5.044M0 130.846l4.646 3.872M0 133.431l3.238 2.698M0 136.015l1.662 1.385m.164-17.955 9.857 8.214m-10.578-6.231 9.17 7.643m-2.03-17.2L18.72 120.6m-9.499-5.331 8.092 6.743m-9.972-5.725 8.564 7.137m-9.692-5.493 8.285 6.904m-9.277-5.146 7.87 6.558m-10.76-8.966 2.189 1.824m15.2-15.763 5.46 4.549m-10.075-8.396 1.952 1.627M8.343 93.86l6.243 5.203M0 86.908l5.62 4.683m12.839 13.284 6.174 5.144M6.962 95.295l8.83 7.357M0 89.492l4.296 3.58M17.08 106.31l7.042 5.869m-11.736-9.78 2.005 1.671m-4.802-4.002.928.773m-4.759-3.966 1.956 1.63M0 92.077l3.11 2.591m12.497 12.999 8.039 6.699m-12.74-10.617 1.946 1.623m-8.199-6.833 1.813 1.511M0 94.662l2.011 1.675m17.864 17.472 3.067 2.556m-8.912-7.427 3.48 2.899m-7.987-6.655 1.7 1.417m-7.509-6.258 1.416 1.18M0 97.246l1.016.847m17.315 17.013 3.204 2.67m-9.21-7.675 4.136 3.447m-8.253-6.877 1.205 1.003m-6.504-5.42.794.663m6.664 8.137 9.76 8.134M6.98 108.232l.332.277m16.825-14.41 4.46 3.716M6.727 79.591l7.299 6.082m9.6 10.584 4.193 3.495m-7.428-6.19.432.36m-5.824-4.853.875.729M4.958 80.7l7.064 5.887M22.84 98.186l4.254 3.545m-8.15-6.791 1.192.993m-7.047-5.872 1.481 1.234M3.19 81.81l7.03 5.86M21.9 99.987l4.509 3.757m-8.795-7.329 1.608 1.34m-7.904-6.587 1.863 1.553M1.419 82.92l7.12 5.933m12.344 12.872 4.881 4.067m-9.403-7.836 1.846 1.539m-4.51-3.759.686.572m-4.632-3.86 1.984 1.653M0 84.323l7.035 5.862m23.583 1.56.638.532m-19.22-16.016 4.934 4.111m11.66 12.302 1.694 1.411M10.267 77.371l4.644 3.87m13.055 13.464 1.471 1.226M8.497 78.48l7.825 6.52m14.746-3.219 1.626 1.356m-7.282-6.07 1.263 1.053m-7.56-6.3 3.605 3.005M33.736 86.59l.706.589m-4.614-3.846.953.794m-6.12-5.099.541.45m-7.856-6.546 4.593 3.828m9.902 10.836 1.488 1.24M15.576 74.04l5.744 4.787m8.234 9.447 2.71 2.258M13.807 75.152l4.01 3.342m13.933-3.897 5.607 4.673m-8.785-7.322 1.983 1.653m-6.13-5.108 1.492 1.243m7.958 9.217 2.078 1.73m-8.575-7.145 1.959 1.632m-6.681-5.567 2.099 1.75m7.679 8.983 1.94 1.617m-8.063-6.72 1.736 1.447m-7.161-5.967 2.79 2.325m6.21-2.579 8.789 7.324m-12.48-10.4.988.823m42.994-6.459v10.12c0 3.6 4.431 4.8 4.431 0v-10.11m-3.839.024c2.171 6.541 1.624 11.287 1.624 11.287s0-6.988 1.878-11.297m.573-.026.787 10.024c.282 3.587 4.79 4.376 4.415-.407l-.782-9.966m-3.81.322c2.652 6.292 2.478 11.043 2.478 11.043s-.538-6.856.954-11.326m.94-.1.694 9.925c.25 3.59 4.752 4.424 4.418-.362l-.715-10.24m-3.766.617c2.568 6.285 2.355 11 2.355 11s-.498-7.132 1.143-11.573m.385.041 1.47 10.075c.518 3.556 5.068 3.992 4.376-.75l-1.513-10.369m-3.786.95c3.139 6.145 3.284 10.98 3.284 10.98s-1.072-7.346.351-11.903m.315.17 2.012 9.964c.71 3.517 5.276 3.663 4.329-1.026L93.1 58.547m-3.723 1.22c3.466 5.934 3.872 10.751 3.872 10.751s-1.475-7.306-.282-11.943m.633.037 2.819 9.732c.995 3.435 5.554 3.143 4.228-1.437l-2.832-9.776m-3.686 1.301c3.937 5.579 4.735 10.338 4.735 10.338s-1.98-6.837-1.305-11.566m1.371-.415c3.792 5.308 4.639 9.811 4.639 9.811s-1.123-3.607-1.508-7.4m-3.822-2.205 2.877 9.236c1.063 3.41 5.615 3.012 4.198-1.535l-.744-2.39m-39.273-1.012-.881 9.879c-.32 3.583 3.984 5.24 4.41.461l.885-9.92m-3.765-.322c1.516 6.63.569 11.206.569 11.206s.606-6.804 2.799-10.913M60.32 60.3l-.897 9.984c-.323 3.583 3.98 5.242 4.41.465l.858-9.55m-3.741-.739c1.525 6.656.57 11.25.57 11.25s.582-6.471 2.648-10.601m-8.402-2.224-2.33 9.615c-.843 3.482 3.162 5.862 4.286 1.219l2.301-9.5m-3.634-1.104c.518 6.805-1.09 11.155-1.09 11.155s1.568-6.476 4.286-10.175m-7.68-2.797L48.55 66.22c-1.253 3.334 2.433 6.255 4.104 1.81l3.4-9.044m-3.466-1.37c-.347 6.647-2.404 10.62-2.404 10.62s2.3-6.12 5.407-9.42m-7.615-3.531-4.433 8.998c-1.565 3.176 1.823 6.495 3.909 2.26l4.537-9.21m-3.524-1.766c-.914 6.953-3.49 10.905-3.49 10.905s3.2-6.493 6.847-9.225m-12.5 1.9-.95 1.22c-2.14 2.754.536 6.764 3.39 3.093l6.315-8.124m-4.706 1.307c-1.963 4.13-4.017 6.189-4.017 6.189s4.498-5.787 8.639-7.554m-16.333 8.6c7.968-26.036 15.727-46.104 23.158-56.818M35.776 61.31C42.27 40.375 48.624 23.495 54.77 12.513m-12.135 44.59c4.238-13.334 8.413-24.878 12.506-34.115.365 1.156 1.627 1.57 3.013 1.611 2.38.126 3.877-1.2 5.538-1.8-1.661 0-3.336-2.636-5.497-2.651-1.218-.009-2.41.97-2.81 2.051M46.83 54.382c3.035-9.39 6.037-17.84 8.999-25.16M32.612 60.862l2.845.711m-2.28-2.508 4.49 1.122m-3.924-2.92 6.134 1.534m-5.568-3.33 7.778 1.944m-7.211-3.741 9.42 2.355m-8.82-4.144 11.03 2.758m-10.43-4.546 11.245 2.811m-10.645-4.6 11.24 2.81m-10.64-4.598 11.235 2.809M39.323 45l9.812 2.453M41.539 43.8l8.136 2.034M44.862 42.6l5.474 1.369M54.831 0v19.2c0 1.8 1.661 16.2 2.215 18.6s6.093 16.8 12.185 16.8S80.86 48 80.86 48m9.825-5.352c-2.072 4.14-5.388 7.926-8.22 11.711m1.612-6.456c-1.732 2.386-3.647 4.697-5.349 7.014m8.732-9.532c-2.042 3.211-4.636 6.245-6.888 9.285m-2.461-3.29c-1.005 1.291-2.007 2.572-2.938 3.855m1.217-3.252c4.863-1.292 12.215-7.327 15.262-10.227m.585 1.107c-2.005 3.915-5.102 7.516-7.818 11.107m8.596-9.512c-1.871 3.151-4.344 6.12-6.6 9.072m7.334-7.592c-1.605 2.435-3.502 4.774-5.293 7.098m6.02-5.734c-1.243 1.757-2.603 3.47-3.923 5.17m4.63-3.857c-.806 1.084-1.642 2.154-2.47 3.218m-11.871-1.832c-1.323 1.72-2.681 3.414-3.919 5.112m-4.06-1.242q-.546.719-1.066 1.438m3.76-2.781c-.716.923-1.42 1.842-2.086 2.764m-5.887-1.03q-.264.352-.523.706m1.944-.384q-.203.273-.401.546m2.164-.682q-.295.396-.583.791m-5.75-3.367a176 176 0 0 0-1.761 2.29m2.701-1.36a119 119 0 0 0-1.287 1.69m2.33-.885q-.434.569-.854 1.137m-3.598-6.147c-1.103 1.483-2.262 2.94-3.382 4.392m4.164-3.227c-.94 1.227-1.9 2.44-2.827 3.65m3.644-2.556c-.773.995-1.549 1.983-2.297 2.969m-3.622-6.135c-.917 1.273-1.889 2.525-2.856 3.767m5.68-5.447c-1.357 2.05-2.918 4.033-4.446 5.995m5.192-4.66c-1.243 1.75-2.6 3.46-3.916 5.156m48.133-11.573h.113m-14.816-1.346c2.314 1.444 5.623 3.558 9.143 5.07m-10.36-8.023c2.147 1.335 5.243 3.336 8.59 4.872m-9.658-7.73c1.98 1.227 4.803 3.058 7.896 4.56m-8.87-7.361c1.797 1.113 4.294 2.73 7.06 4.146M86.58 28.22c1.6.993 3.745 2.374 6.135 3.656m-6.95-6.358c1.387.863 3.161 1.996 5.139 3.1m-5.877-5.754c1.129.704 2.495 1.569 4.008 2.445m-4.73-5.089c.852.533 1.83 1.147 2.896 1.783m4.881 20.616c2.472 1.545 5.93 3.712 9.547 5.151m-8.001-1.992c2.604 1.623 6.119 3.757 9.73 5.076m-7.91-1.751c2.684 1.652 6.13 3.645 9.613 4.8m-7.615-1.376c2.707 1.625 6.014 3.422 9.307 4.394m-6.93-.77c2.614 1.494 5.632 2.99 8.602 3.755m-5.744.077c2.344 1.227 4.9 2.333 7.396 2.876m-4.167 1.024c1.902.858 3.88 1.56 5.806 1.898m-2.47 1.738c1.393.58 2.816 1.058 4.219 1.359M131.262 46.8c1.661-1.2 3.418-1.742 4.626-1.248 1.101.45 3.127 3.048 5.343 3.048-2.216 0-4.242 2.598-5.343 3.048-1.208.494-2.965-.048-4.626-1.248m0-3.6c1.107-1.8 1.608-3.704 1.152-5.012-.416-1.193-2.814-3.388-2.814-5.788 0 2.4-2.398 4.595-2.814 5.788-.456 1.308.045 3.212 1.153 5.012m3.323 0 3.877-4.2m-7.2 4.2c-1.662-1.2-3.419-1.742-4.627-1.248-1.101.45-3.127 3.048-5.343 3.048 2.216 0 4.242 2.598 5.343 3.048 1.208.494 2.965-.048 4.627-1.248m0-3.6-3.877-4.2m3.877 7.8c-1.108 1.8-1.609 3.704-1.153 5.012.416 1.193 2.814 3.388 2.814 5.788 0-2.4 2.398-4.595 2.814-5.788.456-1.308-.045-3.212-1.152-5.012m-3.323 0-3.877 4.2m7.2-4.2 3.877 4.2M122.1 46.213c-2.268-3.113 2.174-8.187 5.27-5.622m9.977 5.987c3.059-3.189-2.156-9.138-5.368-5.599m-9.768 9.864c-2.541 3.126 2.099 8.469 5.247 5.691m9.875-5.928c3.092 3.188-2.143 9.167-5.359 5.608m-3.44 2.157c.422 9.692 3.892 12.565 3.883 19.433m-2.196-18.925c.479 8.58 3.373 11.7 3.804 17.446m-1.608 1.452c-1.939-3.297-4.311-4.564-6.694-5.777m8.308 3.6c-1.074-7.609.299-12.847 6.092-13.8-3.944 3.821.77 12.14-6.092 13.8m0 0c.545-3.834 1.416-7.12 2.769-9.6M69.003.006c2.022 6.828 6.145 10.14 11.909 10.707M70.965 0c1.794 4.21 4.606 6.716 8.275 7.787M73.539.043c1.038 1.816 2.316 3.228 3.817 4.27m-22.49 7.937C62.567 7.577 63.134 3.813 64.09 0m-9.255 9.402c5.11-3.482 6.359-6.472 7.142-9.403m-7.163 5.8C57.42 3.733 58.725 1.834 59.511 0m7.505 39.6s-.554-2.4-1.662-2.4-2.221-.473-2.221-2.273c0-1.2 2.632-9.788 1.667-16.927m0 0c-3.017-2.32-6.207-3.557-9.97-1.2.19-.044.385.02.569-.045C58.708 15.6 61.838 15.652 64.8 18m4.985 14.4c3.363-.121 2.769 4.2 1.107 4.2-.725 0-1.48-.98-2.067-1.034-1.81-.166-1.81 1.034.406.434m-4.985 6.6-.554.6V42zm0 0c1.324.752 1.605-.57 2.216-.6.553 0 1.18.564 1.734.564s1.42-.74 1.975-.74c1.973 1.315 2.141.228 3.49.176m0 0 .555.6v-1.2zm-3.876-19.2c2.433-.094 3.39-2.112 4.984-2.4 3.323-.6 5.539 2.4 7.2 2.4-1.661 0-4.524 2.416-6.646 2.4-1.442-.011-3.877-1.2-3.323-3m49.406 98.131L144 97.667M136.246 77.4c4.431-6 6.699-1.627 2.769 2.4-4.415 4.526-7.049 3.396-2.769-2.4m.612 4.2c5.78-4.453 6.854.426 2.055 3.131-5.392 3.04-7.639 1.172-2.055-3.13m.024 4.253c6.009-3.57 6.446 1.42 1.577 3.402-5.473 2.227-7.381.047-1.577-3.402m-.049 4.451c6.1-1.511 5.408 3.079.661 3.487-5.335.46-6.555-2.027-.661-3.487m-112.73-2.809a1.68 1.68 0 0 1-1.147.558 1.4 1.4 0 0 1-1.105-.452 1.55 1.55 0 0 1-.323-.543 1.8 1.8 0 0 1-.095-.655 1.95 1.95 0 0 1 .515-1.241q.235-.254.532-.399c.197-.096.406-.15.615-.16s.414.025.604.103.36.196.501.35.251.337.323.543c.072.205.104.428.095.654a1.95 1.95 0 0 1-.516 1.242M132.368 77.4c-1.128-4.492-6.981-10.358-12.738-7.2 5.1-.429 4.397 9.667 12.738 7.2M68.677 18c3.98-5.14 8.353-2.69 12.738 0-4.166-1.979-8.307-4.2-12.126.022-.127.14-.473-.163-.612-.022m-2.77 27c1.448 1.871 3.174 1.308 4.985 0-1.496.964-3.216.62-4.984 0M19.94 113.4c0 .477-.175.935-.487 1.273a1.6 1.6 0 0 1-1.175.527c-.44 0-.863-.19-1.175-.527a1.88 1.88 0 0 1-.486-1.273c0-.477.175-.935.486-1.273a1.6 1.6 0 0 1 1.175-.527c.44 0 .863.19 1.175.527.311.338.487.796.487 1.273m-14.02 14.086c0 .477-.176.935-.487 1.272a1.6 1.6 0 0 1-1.175.528c-.44 0-.864-.19-1.175-.528a1.88 1.88 0 0 1-.487-1.272c0-.478.175-.936.487-1.273a1.6 1.6 0 0 1 1.175-.527c.44 0 .863.189 1.175.527.311.337.486.795.486 1.273m53.897-6.886c-4.076 2.668-1.451-1.657-1.108-3.6-1.794.372-5.786 3.215-3.323-1.2a13 13 0 0 1-.387-.741c-1.588-3.33 2.027-.807 3.71-.459-.343-1.943-2.968-6.268 1.108-3.6 4.075-2.668 1.45 1.657 1.107 3.6 1.724-.357 5.48-2.998 3.581.718q-.114.225-.258.482c2.463 4.415-1.529 1.572-3.323 1.2.343 1.943 2.968 6.268-1.108 3.6m9.969 3.557c-4.76.103-.492-2.221.702-3.718-1.725-.65-6.494-.35-2.324-2.839-.095-5.157 2.05-.533 3.432.761.6-1.869.323-7.036 2.62-2.518 4.761-.103.492 2.221-.702 3.718 1.725.65 6.495.35 2.324 2.839.095 5.157-2.05.533-3.431-.761-.6 1.869-.323 7.036-2.621 2.518M129.6 46.5c1.031 0 1.939.983 1.939 2.1s-.908 2.1-1.939 2.1-1.938-.983-1.938-2.1.907-2.1 1.938-2.1"/><path fill="currentColor" d="M74.887 0 115.2 72l5.538-3.6L82.638 0zM55.843 29.283c-2.976 7.259-5.978 15.709-8.964 25.097l13.539-8.517c-1.884-3.53-3.125-6.992-3.372-8.063-.253-1.096-.737-4.697-1.203-8.517M28.742 65.799 26.08 67.41c11.1 8.899 23.559 14.266 36.505 16.267 2.107 7.689 3.54 16.849 4.26 24.883.866.238 1.762.517 2.725.853-.718-9.229-2.266-19.38-4.918-28.503-12.712-1.602-24.959-6.61-35.91-15.11m84.439 5.362c-7.828 4.179-15.865 7.103-23.9 8.688-3.07 10.86-4.054 23.621-4.548 34.76.371.009.757-.01 1.117-.045.549-.054 1.1-.163 1.714-.473.42-10.943 1.191-21.506 3.846-31.622 6.246-1.385 12.497-3.539 18.676-6.51-1.706 6.586-2.106 15.27-3.099 24.85a11 11 0 0 1-.168 1.195c.433.027.911.079 1.389.164.392.069.777.159 1.278.237 1.482-12.74 1.997-24.01 4.815-30z"/><path fill="currentColor" d="M58.313 20.004c-.367 0-.72.254-.979.705-.26.452-.405 1.064-.405 1.703s.145 1.251.405 1.703.612.705.98.705c.366 0 .719-.253.978-.705.26-.452.406-1.064.406-1.703s-.146-1.251-.406-1.703c-.26-.451-.612-.705-.979-.705m16.88.297c-.368 0-.72.254-.98.705-.26.452-.405 1.064-.405 1.703s.146 1.251.405 1.703c.26.451.612.705.98.705.367 0 .719-.254.978-.705.26-.452.406-1.064.406-1.703s-.146-1.251-.406-1.703c-.26-.451-.611-.705-.979-.705M53.017 50.873l-1.074.29.134.583 1.278 5.537 4.047-2.282 1.593 4.055 3.966-2.456 2.503 4.118 3.655-3.264 2.928 3.786 3.299-3.677 3.371 3.319 2.654-3.73 3.243 3.165 2.789-4.679 4.177 2.799 2.239-4.244 4.229 2.319.73-1.862-.736-1.19-.55 1.402-4.113-2.255-2.192 4.156-4.126-2.765-2.672 4.485-3.166-3.09-2.65 3.725-3.275-3.223-3.19 3.556-2.846-3.68-3.55 3.172L63.314 55l-3.788 2.344-1.574-4.006-3.863 2.179-.937-4.062zm-6.351 3.645L33.983 62.47c22.094 15.992 49.203 17.247 74.673 4.321a80 80 0 0 1-8.588-10.353q-.9.295-1.803.58l6.304 5.289.745 2.39c1.417 4.547-3.135 4.946-4.198 1.535l-2.869-9.208-.425.133 2.824 9.75c1.327 4.58-3.232 4.873-4.227 1.438l-2.82-9.732 3.477-1.221q-1.984.616-3.973 1.176l2.074 10.266c.947 4.69-3.619 4.543-4.329 1.026l-2.012-9.964 3.714-1.174c-1.29.357-2.58.694-3.874 1.003l1.509 10.344c.691 4.74-3.858 4.305-4.377.749l-1.47-10.075 2.375-.572q-1.245.27-2.49.501l.714 10.226c.334 4.786-4.168 3.952-4.419.362l-.691-9.906-.563.066.78 9.942c.376 4.783-4.133 3.994-4.414.407l-.785-10.001-.238.009v10.09c0 4.8-4.43 3.6-4.43 0V61.76l-.469-.022-.882 9.896c-.426 4.778-4.73 3.122-4.41-.461l.88-9.875-.605-.09-.858 9.541c-.43 4.778-4.732 3.118-4.41-.465l.898-9.981-.298-.079-2.3 9.495c-1.125 4.642-5.129 2.263-4.286-1.219l1.738-7.174-2.52 6.705c-1.671 4.445-5.357 1.524-4.104-1.81l3.024-8.044-4.122 8.368c-2.087 4.234-5.474.915-3.91-2.26l4.19-8.504-5.97 7.68c-2.854 3.671-5.53-.339-3.39-3.092l.95-1.222 8.594-3.74.06-.121.1.051h.001l.037.02q-.723-.405-1.448-.839m63.419 21.442a87 87 0 0 1-10.95 4.425l.521 23.624c2.235-1.399 4.682-2.124 7.192-2.004.055-.404.097-.801.138-1.196.993-9.58 1.393-18.264 3.099-24.85m-22.954 1.343q-3.944.73-7.93 1.032c5.227.388 7 2.705.78 3.3 4.29.59 4.885 2.345-.782 2.965 4.43.485 5.931 2.805-.168 3.914 3.853.581 4.781 2.692-.07 3.286v.866c3.545.774 4.475 2.336-.045 2.705l-.017.975c3.375.606 4.142 1.956-.042 2.56l-.01.54c2.809.614 3.377 1.778-.04 2.38l-.01.609c2.866.615 3.456 1.798-.04 2.4l-.01.589c2.923.615 3.531 1.816-.04 2.42l-.001.1c2.335.605 2.759 1.616-.037 2.203l-.004.186c2.381.608 2.817 1.633-.037 2.222l-.01.646c1.304.486 2.443.833 3.406 1.052.449-11.689 1.546-25.521 5.107-36.95m-20.439.859c3.325 10.418 5.033 21.73 5.757 32.343.9.373 1.851.793 2.823 1.249.572.268 1.116.513 1.653.767l-.091-2.037c-4.544-.307-5.323-2.006-.123-2.727l-.018-.4c-4.655-.292-5.46-2.028-.124-2.746l-.005-.107c-4.88-.258-5.74-2.071-.125-2.782l-.016-.349c-4.988-.241-5.88-2.09-.126-2.797l-.007-.153c-5.25-.22-6.224-2.38-.142-3.157l-.009-.186c-5.667-.136-6.757-2.458-.145-3.212l-.012-.285c-5.537-.164-6.588-2.435-.144-3.197l-.009-.187c-6.217-.014-7.484-2.748-.158-3.515l-.003-.049c-7.078.222-8.626-2.895-.16-3.573l-.005-.094c-6.247.286-8.604-1.52-4.345-2.487q-2.251-.082-4.466-.32m72.403 10.858q1.031.582 2.062 1.158 1.422.794 2.842 1.58v-.008zm2.062 1.158-.249-.14-.319.29c1.547.87.207 3.179-3.096 3.463-.074.006-.147.012-.171.024-.32 2.324-2.331 5.142-3.846 5.785-2.052.87-6.903 1.664-9.626-.84-.534 5.518-1.078 11.645-1.929 17.941L144 94.583v-2.799a227 227 0 0 0-2.842-1.606"/><path stroke="currentColor" stroke-linecap="round" stroke-linejoin="round" stroke-width=".5" d="M132.687 78c1.114.35 2.825-1.06 2.825-1.06m-.688 2.86c1.422.6 1.422 2.4 1.422 2.4m-1.238 1.009c1.146 1.092.576 2.783.576 2.783m-.445 1.608c1.038 1.212.314 2.832.314 2.832m-.824.601c1.028 1.222.29 2.835.29 2.835m2.435-16.468c.558.283.972.655 1.108 1.2m-.783 3.695c.472.43.783.906.783 1.47m-.788 2.865c.408.5.652 1.02.576 1.578m-.766 2.917c.211.628.26 1.208 0 1.697M65.908 48.6c1.405-.727 2.867-.87 4.43 0M54.832 19.8c2.215-2.4 4.984-2.4 6.646-.6M57.6 27.6c2.215.6 4.43-1.8 4.43-1.8m9.97-6c3.323-1.8 6.646 0 8.308 1.8m-6.093 6c3.877 0 6.093-2.4 6.093-2.4m-20.324-4.52c.17.42.268.911.268 1.435 0 1.563-.868 2.83-1.939 2.83-1.07 0-1.938-1.267-1.938-2.83 0-.588.123-1.134.333-1.587m20.04.01c.334.508.54 1.198.54 1.959 0 1.563-.868 2.83-1.939 2.83-1.07 0-1.938-1.267-1.938-2.83 0-.677.162-1.297.433-1.784"/></svg>