<svg xmlns="http://www.w3.org/2000/svg" fill="none" viewBox="0 0 166 258"><path fill="#000" d="M67.222 21.504c-.423 0-.83.273-1.128.758-.3.486-.468 1.144-.468 1.831s.168 1.345.468 1.83c.299.486.705.759 1.128.759.424 0 .83-.273 1.129-.758.3-.486.467-1.144.467-1.831s-.168-1.345-.467-1.83-.706-.759-1.129-.759m19.458.32c-.423 0-.83.272-1.129.758-.299.485-.467 1.144-.467 1.83s.168 1.345.467 1.83.706.759 1.13.759c.422 0 .828-.273 1.128-.758.3-.486.467-1.144.467-1.83s-.168-1.346-.467-1.831c-.3-.486-.706-.759-1.129-.759M61.118 54.687 59.88 55l.154.625 1.474 5.954 4.665-2.453 1.836 4.358 4.572-2.64 2.886 4.427 4.213-3.51 3.375 4.071 3.803-3.953 3.886 3.568 3.06-4.01 3.739 3.403 3.214-5.03 4.816 3.009 2.58-4.563 4.875 2.493.842-2.001-.849-1.28-.634 1.507-4.74-2.423-2.527 4.467-4.757-2.972-3.08 4.82-3.65-3.32-3.055 4.004-3.775-3.465-3.678 3.822-3.28-3.956-4.093 3.41-2.764-4.239-4.366 2.521-1.814-4.307-4.454 2.342-1.08-4.367zm-7.322 3.919-14.621 8.547c25.47 17.192 56.72 18.54 86.081 4.645a88 88 0 0 1-9.9-11.129q-1.039.316-2.079.624l7.268 5.685.859 2.569c1.633 4.889-3.615 5.317-4.84 1.65l-3.307-9.898-.49.143 3.256 10.481c1.529 4.924-3.726 5.238-4.873 1.545l-3.25-10.462 4.007-1.312q-2.287.662-4.579 1.264l2.39 11.037c1.091 5.04-4.171 4.883-4.99 1.102l-2.32-10.711 4.281-1.262q-2.23.578-4.466 1.078l1.74 11.12c.797 5.096-4.447 4.628-5.045.805l-1.694-10.83 2.737-.615q-1.434.29-2.871.538l.823 10.993c.385 5.146-4.804 4.249-5.093.39l-.797-10.65q-.325.037-.649.071l.9 10.688c.432 5.142-4.765 4.293-5.09.437L86.28 66.4l-.274.009v10.848c0 5.16-5.108 3.87-5.108 0V66.392l-.539-.024-1.017 10.639c-.49 5.136-5.452 3.356-5.084-.496l1.015-10.615a58 58 0 0 1-.697-.098l-.99 10.257c-.495 5.136-5.455 3.352-5.083-.5l1.035-10.73q-.173-.041-.344-.084l-2.651 10.206c-1.297 4.992-5.913 2.434-4.94-1.31l2.003-7.712-2.906 7.208c-1.926 4.78-6.175 1.638-4.73-1.946l3.486-8.647-4.753 8.995c-2.405 4.553-6.31.985-4.506-2.43l4.83-9.14-6.883 8.255c-3.29 3.947-6.374-.364-3.907-3.324l1.095-1.313 9.907-4.02.069-.13.116.054.043.021q-.834-.435-1.67-.901m73.109 23.05a104 104 0 0 1-12.624 4.757l.602 25.395c2.576-1.503 5.396-2.283 8.29-2.154.064-.434.112-.86.159-1.285 1.145-10.3 1.606-19.634 3.573-26.714M100.444 83.1a92 92 0 0 1-9.142 1.11c6.025.416 8.07 2.907.9 3.546 4.945.635 5.631 2.522-.902 3.188 5.108.521 6.838 3.016-.194 4.208 4.442.624 5.512 2.893-.08 3.532v.931c4.086.832 5.159 2.511-.052 2.907l-.02 1.049c3.89.651 4.775 2.103-.049 2.752l-.01.58c3.237.661 3.892 1.912-.046 2.559l-.012.655c3.303.661 3.983 1.932-.046 2.58l-.011.633c3.368.661 4.07 1.952-.047 2.601l-.002.107c2.692.651 3.181 1.738-.043 2.369l-.003.2c2.744.653 3.247 1.755-.043 2.388l-.012.695c1.504.523 2.816.896 3.927 1.131.517-12.566 1.782-27.435 5.887-39.721m-23.562.923c3.833 11.2 5.802 23.36 6.636 34.769 1.04.401 2.135.852 3.255 1.342.66.289 1.287.552 1.906.825l-.106-2.189c-5.238-.331-6.136-2.158-.141-2.932l-.021-.431c-5.366-.313-6.294-2.179-.143-2.951l-.005-.116c-5.626-.277-6.618-2.225-.145-2.99l-.018-.375c-5.75-.26-6.779-2.247-.145-3.007l-.008-.164c-6.052-.237-7.176-2.559-.165-3.394l-.01-.2c-6.532-.147-7.789-2.642-.166-3.453l-.015-.307c-6.382-.175-7.594-2.617-.166-3.436l-.01-.201c-7.167-.016-8.627-2.954-.182-3.779l-.003-.052c-8.16.238-9.945-3.113-.186-3.841l-.004-.102c-7.202.308-9.919-1.634-5.01-2.673a79 79 0 0 1-5.148-.343m83.465 11.672q1.188.626 2.377 1.245 1.64.854 3.276 1.699v-.009zm2.377 1.245-.287-.15-.368.312c1.783.934.239 3.417-3.569 3.722a1 1 0 0 0-.198.027c-.368 2.498-2.686 5.527-4.433 6.218-2.366.936-7.957 1.789-11.096-.902-.616 5.931-1.243 12.517-2.223 19.286L166 101.676v-3.008a273 273 0 0 0-3.276-1.727"/><path fill="#000" d="M86.328 0 132.8 77.4l6.385-3.87L95.263 0zM64.375 31.48c-3.431 7.802-6.892 16.886-10.334 26.978l15.607-9.155c-2.172-3.795-3.602-7.517-3.887-8.668-.291-1.179-.85-5.05-1.386-9.156M33.133 70.733l-3.069 1.732c12.797 9.566 27.158 15.336 42.082 17.487 2.429 8.265 4.081 18.112 4.911 26.749.999.256 2.032.555 3.142.917-.828-9.921-2.613-20.833-5.67-30.641-14.654-1.722-28.772-7.105-41.396-16.244m97.339 5.764c-9.023 4.492-18.288 7.636-27.551 9.34-3.54 11.674-4.674 25.393-5.243 37.366.428.01.873-.01 1.287-.048.633-.058 1.268-.175 1.976-.508.484-11.764 1.374-23.119 4.435-33.993 7.2-1.49 14.405-3.805 21.529-6.999-1.967 7.08-2.428 16.415-3.573 26.714a11 11 0 0 1-.193 1.284c.499.029 1.049.085 1.6.176.453.075.897.171 1.474.256 1.709-13.696 2.302-25.812 5.551-32.25z"/><path stroke="#000" stroke-linecap="round" stroke-linejoin="round" d="M69.7 49.33 0 90.097m26.816 34.651L0 149.831m116.442-.766c12.691-25.048 9.035-58.77 15.322-71.229M49.603 108.87c8.11 2.284 13.12 11.836 11.33 22.165-1.895 10.944-10.702 18.615-19.672 17.136a14 14 0 0 1-1.332-.289m76.268 8.412 3.087-5.759c7.005-13.825 9.146-29.756 10.61-43.439.733-6.842 1.288-13.131 2.112-18.234.75-2.928 1.088-6.18 2.282-8.902m8.663 5.845c-1.27 3.637-1.925 7.954-2.538 12.79-.935 7.375-1.565 15.969-2.834 24.799-2.447 17.037-7.247 34.653-20.421 45.97m-68.88-84.519c1.264 7.542 1.854 16.371 1.315 24.022m-29.424 61.702c5.892-18.442.464-63.89 28.192-85.693l1.394-1.12m110.592 11.941a811 811 0 0 0 5.663 2.95M95.858 15.878c8.736 39.534 28.339 58.322 49.923 71.614M36.185 68.963c26.944 18.857 60.522 20.299 91.658 5.242m-94.71-3.47c12.624 9.138 26.742 14.52 41.41 16.253m28.359-1.084c9.282-1.77 18.547-4.914 27.57-9.406m-5.114-4.671c-29.464 13.867-60.714 12.519-86.18-4.704m101.414 58.363L166 101.719m-51.689-15.294.532 25.39m-9.502-23.14c7.235-1.51 14.441-3.825 21.513-6.932m-96.79-9.277c12.797 9.566 27.158 15.336 42.105 17.43m54.787-8.326c-2.018 7.166-2.479 16.5-3.624 26.8l-.144 1.278M91.275 84.216l-.6 37.505m-3.76-37.355 1.787 36.627m15.325-38.529c-4.423 12.412-5.731 27.623-6.29 40.74M73.405 83.625c3.758 10.637 5.865 22.929 6.85 34.017m20.719 4.855c.451-11.613 1.341-22.968 4.436-33.863m-4.982-5.535c-4.089 12.288-5.354 27.157-5.893 39.717m-10.982-4.01c-.869-11.422-2.838-23.582-6.632-34.792m-4.797 5.997c2.45 8.207 4.103 18.054 4.949 26.693M86.328 0 132.8 77.4l6.385-3.87L95.263 0m26.333 44.029c6.214-3.279 11.129-7.473 18.227-4.684m0 0c-3.798-12.08-8.462-23.95 1.486-39.338m-1.486 39.338c-2.296-2.055-5.087-3.83-6.385-6.45-3.192 1.935-7.002 2.49-10.44 1.109m4.259 6.835L101.916 0m24.309 39.188-5.583 3.29m4.393-5.276-5.521 3.254m4.278-5.209-5.501 3.242m4.271-5.204-5.537 3.262m4.338-5.243-3.859 2.274m2.618-4.23-2.877 1.695m2.147-9.758s-1.277-1.935 1.277-1.935 3.193 3.87.639 5.16c-2.475 1.25-7.662-4.515-3.193-7.74 4.011-2.894 8.939 3.87 14.685 1.935-4.499 4.097-1.102 11.763-5.572 13.861-4.98 2.34-7.389-5.062-5.092-6.62 2.369-1.61 5.388.859 4.129 3.104s-2.296.168-2.296.168m-5.552-2.575c3.418-1.062 6.61-3.138 9.914-4.713m-2.554-1.29c-.501 1.906-.946 2.236-3.831 4.515 2.276-.452 5.108-.352 6.385.645m-3.969 10.38c2.664.55 6.485.433 8.438-.06 1.141 1.145 3.141 1.854 5.108 2.58M104.839 4.732c1.59.35 2.922.856 6.892-.217 1.002.538 2.258.908 4.469.645-.347 1.06-.911 1.745-.638 3.87-1.501 2.556-2.43 5.068-3.318 7.577m2.388 3.95c.593-3.062.258-6.217 4.122-8.947.206-3.784.882-7.673 1.768-11.608M53.769 58.598c21.598 12.07 41.687 8.13 61.574 2.047m-4.221-6.126c-17.235 5.152-32.935 7.968-50.141-.158m84.824 33.153s2.068-2.122 2.318-2.374c.639-.645 3.544.277 5.029-1.74 2.151-2.922 4.448-.735 2.239 1.713-1.824 2.023-4.714 3.535-4.714 3.535 1.343 4.501.76 8.68-1.277 12.617m8.958-.406c-.424 2.49-2.742 5.52-4.489 6.211-2.366.936-7.957 1.789-11.103-.845m-67.862 19.896q1.326.347 2.775.832m-16.409-.693a24 24 0 0 1 1.966-.554m44.17-5.663c-3.959 1.981-6.211 2.908-8.44 3.113-2.354.217-5.68-.172-12.193-3.021-7.178-3.139-13.363-4.709-19.106-4.656q-1.23.012-2.436.123a31.3 31.3 0 0 0-6.24 1.234m4.422 6.85a25 25 0 0 0-2.298.593m17.453.935a44 44 0 0 0-4.201-1.215m8.28 2.776a70 70 0 0 0-.922-.381m13.53 4.38c-2.736-.342-5.924-1.218-9.891-2.843m19.402 1.759c-1.683.602-3.337 1.011-5.105 1.174q-.468.043-.953.064m-31.739-9.626q-.615.025-1.216.081c-1.73.159-3.347.494-4.9.954m22.119 2.48c-4.615-1.906-8.546-2.992-12.09-3.376m23.605 7.267c-2.083-.351-4.492-1.034-7.398-2.168m17.887 1.004c-1.875.739-3.625 1.221-5.489 1.393m-33.081-9.544a27.2 27.2 0 0 0-5.969 1.05m44.974 4.825c-2.222.968-4.106 1.559-6.098 1.742-3.17.292-7.211-.327-14.062-3.323-5.229-2.287-9.717-3.632-13.788-4.124m46.322 26.654a3 3 0 0 0-.531-.193c-6.22-1.752-10.6-9.513-9.043-18.503 1.649-9.524 9.104-15.648 16.014-14.508q.522.087 1.023.222.355.1.708.119m-4.01 20.806c-2.468 0-4.469-2.31-4.469-5.16s2.001-5.16 4.469-5.16c.844 0 1.633.27 2.307.74m-1.349 6.335a1.7 1.7 0 0 1-.958.296c-1.058 0-1.915-.99-1.915-2.211s.857-2.211 1.915-2.211c.671 0 1.262.398 1.604 1.001m-3.412-3.516-2.661-6.239m0 0-4.176-.645.345 5.16m3.831-4.515 2.554-4.515 4.469 2.58m-10.854 6.45-4.469 1.935 1.915 5.16m2.554-7.095 4.634 3.417m-7.188 3.678-2.96 3.87 4.237 2.58m-1.277-6.45 6.399-.36m-5.122 6.81-1.277 5.16h5.108m-3.831-5.16 5.902-4.174m-2.071 9.334.638 4.515 1.42-.574m-2.058-3.941 3.746-7.678M124.5 116.1l-1.611 7.825m1.611-7.825 1.31-1.323m-10.248 5.838 3.537 4.41m2.209-7.635.366 6.384m-9.305 2.646 5.261 1.338m-5.899 5.112 5.983-2.153m-2.791 7.313 4.153-5.089m.316 7.669 1.51-6.569M28.068 96.159c.543.388.924 1.058.854 2.515m.916-4.373c.433.502 1.144.827 2.625.657m-9.36-3.766c-.384-.549-1.047-.934-2.49-.863m4.33-.926c-.498-.438-.82-1.155-.651-2.652m1.273 8.712c-.812.717-1.507 1.73-1.881 3.573m.226-5.245c-.71.82-1.713 1.523-3.537 1.9m8.804-3.876c.708-.82 1.712-1.523 3.536-1.9m-5.192.227c.812-.716 1.507-1.73 1.881-3.572M27.22 97.136c.058 3.613.903.912 4.063 5.929.903-.912 2.258-3.193 1.355-4.105.903.912 3.16-.456 4.063-1.368-4.966-3.193-2.293-4.046-5.87-4.105m-8.577-1.368c-3.576-.059-.903-.912-5.869-4.105.903-.912 3.16-2.28 4.063-1.368-.903-.912.452-3.193 1.355-4.105 3.16 5.017 4.005 2.316 4.063 5.93m.526 7.829c-2.021 5.301-1.805 1.824-9.104 10.87-.828-.837-1.58-3.421.226-5.245-1.806 1.824-4.364 1.064-5.192.228 8.954-7.374 5.513-7.155 10.76-9.198m6.922-.304c5.247-2.043 1.806-1.824 10.76-9.198-.828-.836-3.386-1.596-5.192.228 1.806-1.824 1.054-4.409.226-5.245-7.299 9.046-7.083 5.57-9.105 10.87M0 117.144a1.95 1.95 0 0 1 1.234-.396 1.64 1.64 0 0 1 1.498 1.071c.082.221.12.46.11.703a2 2 0 0 1-.171.716 2.1 2.1 0 0 1-.424.619 2.02 2.02 0 0 1-1.092.576A1.74 1.74 0 0 1 0 120.239m2.53 1.72c.543.388.924 1.058.854 2.515m.917-4.373c.433.502 1.143.827 2.624.657m-6.898.505-.027.025m3.64-3.673c.708-.82 1.712-1.523 3.536-1.901m-5.192.228c.811-.716 1.507-1.73 1.88-3.572m-2.181 10.566c.058 3.613.903.912 4.063 5.929.903-.912 2.257-3.193 1.354-4.105.903.912 3.16-.456 4.063-1.368-4.966-3.193-2.292-4.046-5.869-4.105M0 112.311c.215.324.31.837.327 1.959m.527 7.83c-.324.848-.59 1.472-.839 1.958m4.45-5.607c5.248-2.043 1.807-1.824 10.76-9.198-.827-.836-3.385-1.596-5.191.228 1.806-1.824 1.053-4.409.225-5.245-7.298 9.046-7.082 5.569-9.104 10.87m1.665-3.187q.122-.681.362-1.453c.865-2.771 2.878-6.092 5.817-9.061 2.938-2.968 6.226-5.002 8.968-5.876q.725-.23 1.37-.353m4.855 4.917a12 12 0 0 1-.348 1.373c-.865 2.771-2.878 6.092-5.816 9.061-2.939 2.969-6.226 5.002-8.969 5.876q-.662.21-1.257.331m.219 3.839a15 15 0 0 0 2.297-.546c3.463-1.104 7.129-3.44 10.419-6.764 3.29-3.323 5.602-7.026 6.695-10.525a14.8 14.8 0 0 0 .637-3.14m-8.215-8.34a14.3 14.3 0 0 0-3.145.647c-3.463 1.104-7.129 3.44-10.42 6.764-2.932 2.963-5.088 6.227-6.295 9.379m33.639-13.07a15 15 0 0 0 1.967-.492c1.913-.61 3.887-1.595 5.826-2.916M31.342 73.363c-3.168 3.263-5.398 6.875-6.465 10.292-.213.68-.381 1.365-.497 2.044m3.712.732q.123-.703.372-1.505c.865-2.77 2.878-6.092 5.816-9.06l.25-.25m11.351 6.386a28 28 0 0 1-2.571 2.985c-2.939 2.969-6.226 5.002-8.97 5.876q-.67.214-1.274.335M.012 132.978c.936-1.573 1.656-3.156 2.138-4.699.272-.871.47-1.748.58-2.612m4.023 11.905 3.47 2.697m-9.95-7.733 3.703 2.878m.947 3.514 3.677 2.858M0 135.103l3.099 2.408m-3.099.37 6.978 5.423M0 140.66l5.356 4.161M0 143.438l3.733 2.901M0 146.217l1.915 1.488m.19-19.302 11.363 8.83m-12.195-6.698 10.572 8.216m-2.34-18.49 12.075 9.384m-10.95-5.731 9.327 7.249m-11.494-6.154 9.872 7.671m-11.173-5.904 9.55 7.422m-10.694-5.532 9.072 7.05m-12.403-9.639 2.523 1.961m17.524-16.946 6.292 4.89m-11.614-9.025 2.25 1.749M9.619 100.9l7.196 5.592M0 93.426l6.48 5.035m14.799 14.279 7.117 5.531m-20.37-15.829 10.179 7.909M0 96.204l4.953 3.849m14.735 14.229 8.119 6.309m-13.53-10.513 2.312 1.796m-5.536-4.302 1.07.831m-5.486-4.263 2.254 1.752M0 98.982l3.584 2.786m14.407 13.974 9.267 7.202m-14.686-11.413 2.244 1.743m-9.452-7.344 2.09 1.624M0 101.761l2.318 1.802m20.594 18.782 3.535 2.747m-10.274-7.984 4.012 3.117m-9.208-7.155 1.96 1.524m-8.655-6.727 1.631 1.268M0 104.54l1.171.91m19.96 18.289 3.694 2.871m-10.618-8.251 4.768 3.705m-9.513-7.393 1.388 1.079m-7.497-5.826.916.712m7.682 8.748 11.252 8.743M8.046 116.349l.383.298m19.396-15.491 5.14 3.995m-25.21-19.59 8.414 6.537m11.066 11.379 4.834 3.756m-8.563-6.654.498.387m-6.713-5.217 1.009.784m-12.585-9.78 8.144 6.329m12.47 12.468 4.903 3.811m-9.395-7.301 1.375 1.068m-8.124-6.313 1.707 1.327M3.675 87.947l8.106 6.299m13.465 13.241 5.196 4.039m-10.138-7.879 1.853 1.44m-9.11-7.08 2.146 1.669M1.636 89.14l8.207 6.378m14.23 13.837 5.627 4.373m-10.84-8.424 2.128 1.654m-5.199-4.041.791.615m-5.34-4.15 2.288 1.778M0 90.647l8.11 6.302m27.185 1.677.736.572M13.876 81.98l5.687 4.42m13.441 13.223 1.952 1.517m-23.12-17.967 5.353 4.16m15.05 14.474 1.695 1.318M9.795 84.367l9.02 7.01m17-3.461 1.874 1.457m-8.395-6.524 1.456 1.132m-8.714-6.773 4.155 3.23M38.89 93.085l.814.632m-5.32-4.134 1.1.854m-7.055-5.481.623.483m-9.056-7.037 5.295 4.114m11.415 11.65 1.714 1.332M17.956 79.594l6.621 5.146m9.493 10.155 3.124 2.428M15.916 80.789l4.622 3.592M36.6 80.19l6.463 5.024m-10.128-7.87 2.287 1.776m-7.066-5.491 1.72 1.336m9.174 9.908 2.394 1.86m-9.885-7.68 2.259 1.754m-7.702-5.985 2.42 1.88m8.852 9.658 2.236 1.738m-9.294-7.223 2 1.555m-8.254-6.415 3.215 2.5m7.16-2.772 10.131 7.873m-14.387-11.18 1.14.885m49.563-6.944v10.88c0 3.87 5.107 5.16 5.107 0V66.388m-4.425.025c2.503 7.033 1.871 12.134 1.871 12.134s0-7.512 2.166-12.144m.66-.028.907 10.775c.325 3.856 5.522 4.705 5.09-.437L91.372 66m-4.391.346c3.056 6.764 2.856 11.872 2.856 11.872s-.62-7.37 1.1-12.175m1.084-.108.799 10.67c.289 3.859 5.478 4.756 5.093-.39l-.824-11.009m-4.341.664c2.96 6.757 2.715 11.826 2.715 11.826s-.574-7.667 1.317-12.441m.444.044 1.694 10.83c.598 3.823 5.842 4.291 5.045-.805l-1.744-11.147m-4.365 1.02C101.473 71.803 101.64 77 101.64 77s-1.235-7.897.405-12.796m.363.183 2.32 10.711c.818 3.781 6.081 3.939 4.99-1.102l-2.395-11.058m-4.291 1.31c3.996 6.38 4.464 11.56 4.464 11.56s-1.701-7.855-.326-12.84m.73.04 3.25 10.461c1.146 3.693 6.402 3.379 4.873-1.544l-3.264-10.51m-4.25 1.4c4.54 5.996 5.46 11.113 5.46 11.113s-2.283-7.35-1.506-12.434m1.582-.446c4.37 5.706 5.347 10.547 5.347 10.547s-1.295-3.877-1.738-7.954m-4.407-2.371 3.317 9.928c1.225 3.667 6.473 3.239 4.84-1.65l-.859-2.57m-45.272-1.087-1.016 10.62c-.368 3.852 4.593 5.632 5.084.496l1.02-10.665m-4.34-.346c1.747 7.128.655 12.047.655 12.047s.7-7.314 3.227-11.732m-10.366-1.488-1.035 10.732c-.371 3.852 4.588 5.636 5.084.5l.99-10.267m-4.313-.793c1.758 7.155.657 12.094.657 12.094s.671-6.957 3.052-11.397m-9.685-2.39L61.6 73.637c-.972 3.743 3.644 6.3 4.94 1.31l2.654-10.212m-4.19-1.187c.597 7.315-1.257 11.991-1.257 11.991s1.808-6.962 4.94-10.938m-8.852-3.007-3.867 9.592c-1.445 3.584 2.804 6.725 4.73 1.946l3.92-9.722m-3.996-1.474c-.4 7.147-2.77 11.418-2.77 11.418s2.651-6.578 6.232-10.128m-8.778-3.795-5.11 9.674c-1.804 3.414 2.1 6.982 4.505 2.43l5.23-9.901m-4.062-1.899c-1.054 7.474-4.022 11.723-4.022 11.723s3.688-6.98 7.893-9.918m-14.41 2.042-1.095 1.313c-2.467 2.96.617 7.271 3.907 3.324l7.28-8.733m-5.425 1.405c-2.263 4.44-4.63 6.653-4.63 6.653s5.185-6.22 9.958-8.12M36.498 68.67c9.186-27.99 18.13-49.563 26.696-61.08M41.24 65.907c7.488-22.504 14.812-40.65 21.896-52.456M49.148 61.387c4.886-14.334 9.698-26.744 14.418-36.674.42 1.243 1.874 1.689 3.472 1.732 2.744.135 4.47-1.29 6.385-1.935-1.915 0-3.846-2.834-6.337-2.85-1.404-.01-2.78 1.042-3.24 2.205m-9.861 34.596c3.498-10.095 6.959-19.178 10.373-27.047M37.594 65.425l3.28.765m-2.628-2.697 5.176 1.207m-4.523-3.138 7.07 1.648m-6.418-3.58 8.966 2.09m-8.313-4.022 10.86 2.532m-10.169-4.454 12.716 2.964m-12.024-4.887 12.963 3.022M42.28 51.93l12.957 3.021m-12.265-4.943 12.952 3.02M45.33 48.374l11.31 2.637m-8.756-3.927 9.38 2.187m-5.55-3.477 6.311 1.471M63.208 0v20.64c0 1.935 1.915 17.415 2.553 19.995.639 2.58 7.024 18.06 14.047 18.06S93.215 51.6 93.215 51.6m11.325-5.753c-2.388 4.45-6.21 8.52-9.475 12.59m1.858-6.942c-1.997 2.565-4.204 5.05-6.166 7.541m10.066-10.247c-2.354 3.452-5.345 6.713-7.94 9.982m-2.837-3.537c-1.16 1.388-2.314 2.764-3.387 4.144m1.402-3.496c5.607-1.39 14.082-7.876 17.595-10.994m.674 1.19c-2.312 4.208-5.882 8.08-9.012 11.94m9.909-10.226c-2.158 3.388-5.008 6.579-7.608 9.752m8.453-8.161c-1.85 2.618-4.036 5.133-6.101 7.63m6.941-6.164c-1.434 1.889-3.002 3.73-4.523 5.56m5.338-4.148c-.93 1.165-1.894 2.316-2.85 3.46m-13.683-1.97c-1.525 1.85-3.09 3.67-4.518 5.496m-4.68-1.335q-.63.773-1.23 1.545m4.335-2.99c-.825.992-1.636 1.98-2.405 2.971m-6.786-1.106q-.304.378-.603.758m2.241-.412q-.233.293-.463.587m2.496-.733q-.34.425-.672.85m-6.628-3.62c-.687.824-1.37 1.644-2.031 2.463m3.114-1.463q-.756.909-1.483 1.818m2.685-.953q-.5.611-.985 1.223m-4.147-6.608c-1.271 1.594-2.608 3.161-3.898 4.721m4.8-3.47c-1.083 1.32-2.191 2.624-3.26 3.924m4.201-2.747c-.89 1.07-1.785 2.131-2.648 3.192m-4.175-6.596c-1.057 1.37-2.177 2.715-3.292 4.05m6.548-5.856c-1.564 2.205-3.364 4.336-5.126 6.446m5.985-5.011c-1.432 1.883-2.996 3.72-4.514 5.544m55.487-12.441h.131m-17.081-1.447c2.668 1.552 6.483 3.825 10.54 5.449m-11.943-8.623c2.476 1.435 6.044 3.586 9.902 5.236m-11.132-8.31c2.282 1.32 5.536 3.288 9.102 4.903m-10.225-7.913c2.071 1.196 4.949 2.934 8.138 4.456m-9.166-7.413c1.845 1.068 4.318 2.552 7.073 3.93m-8.011-6.834c1.598.928 3.643 2.145 5.923 3.332m-6.775-6.185c1.302.757 2.877 1.686 4.621 2.628m-5.453-5.47c.982.572 2.11 1.232 3.339 1.916m5.626 22.163c2.849 1.66 6.837 3.99 11.006 5.537m-9.224-2.142c3.002 1.745 7.054 4.039 11.217 5.457m-9.12-1.883c3.095 1.777 7.068 3.92 11.083 5.16m-8.779-1.479c3.121 1.747 6.933 3.679 10.73 4.724m-7.988-.828c3.013 1.606 6.491 3.215 9.914 4.037m-6.62.083c2.702 1.319 5.648 2.507 8.525 3.092m-4.803 1.1c2.192.923 4.472 1.677 6.693 2.04m-2.848 1.869c1.607.623 3.246 1.138 4.863 1.46m20.515-23.733c1.916-1.29 3.941-1.873 5.334-1.342 1.269.484 3.605 3.277 6.159 3.277-2.554 0-4.89 2.793-6.159 3.277-1.393.531-3.418-.052-5.334-1.342m0-3.87c1.277-1.935 1.855-3.981 1.329-5.388-.479-1.282-3.244-3.642-3.244-6.222 0 2.58-2.765 4.94-3.244 6.222-.526 1.407.052 3.453 1.329 5.388m3.83 0 4.47-4.515m-8.3 4.515c-1.916-1.29-3.941-1.873-5.334-1.342-1.269.484-3.605 3.277-6.159 3.277 2.554 0 4.89 2.793 6.159 3.277 1.393.531 3.418-.052 5.334-1.342m0-3.87-4.47-4.515m4.47 8.385c-1.277 1.935-1.855 3.981-1.329 5.388.479 1.282 3.244 3.642 3.244 6.222 0-2.58 2.765-4.94 3.244-6.222.526-1.407-.052-3.453-1.329-5.388m-3.83 0-4.47 4.515m8.3-4.515 4.47 4.515m-15.03-9.016c-2.615-3.346 2.505-8.8 6.075-6.044m11.501 6.437c3.526-3.429-2.486-9.824-6.188-6.02m-11.261 10.604c-2.929 3.36 2.42 9.104 6.048 6.119m11.384-6.373c3.564 3.426-2.47 9.853-6.178 6.029m-3.965 2.317c.487 10.42 4.487 13.508 4.477 20.891m-2.532-20.344c.552 9.223 3.888 12.578 4.385 18.754m-1.853 1.561c-2.236-3.544-4.97-4.906-7.717-6.21m9.577 3.87c-1.238-8.18.344-13.81 7.023-14.835-4.547 4.108.887 13.05-7.023 14.835m0 0c.628-4.121 1.632-7.655 3.192-10.32M79.545.006c2.331 7.34 7.084 10.9 13.728 11.51M81.807 0c2.067 4.527 5.31 7.22 9.54 8.37M84.773.047c1.196 1.952 2.67 3.47 4.4 4.59M63.246 13.17C72.127 8.145 72.78 4.099 73.884 0m-10.67 10.107c5.89-3.743 7.331-6.957 8.234-10.108M63.19 6.234C66.192 4.014 67.697 1.97 68.603 0m8.65 42.57s-.638-2.58-1.915-2.58c-1.276 0-2.56-.508-2.56-2.443 0-1.29 3.034-10.522 1.922-18.197m0 0c-3.478-2.494-7.156-3.824-11.492-1.29.218-.048.443.02.655-.048 3.814-1.242 7.422-1.186 10.837 1.338m5.746 15.48c3.878-.13 3.192 4.515 1.277 4.515-.836 0-1.706-1.054-2.383-1.112-2.086-.178-2.086 1.112.468.467m-5.747 7.095-.638.645v-1.29zm0 0c1.526.809 1.85-.613 2.554-.645.639 0 1.361.606 2 .606.638 0 1.638-.795 2.276-.795 2.275 1.413 2.469.245 4.024.189m0 0 .639.645v-1.29zm-4.469-20.64c2.805-.101 3.909-2.27 5.746-2.58 3.831-.645 6.385 2.58 8.3 2.58-1.915 0-5.216 2.598-7.661 2.58-1.662-.012-4.47-1.29-3.831-3.225m56.953 105.491L166 104.992m-8.938-21.787c5.107-6.45 7.721-1.75 3.192 2.58-5.09 4.866-8.127 3.651-3.192-2.58m.705 4.516c6.663-4.788 7.9.457 2.369 3.365-6.216 3.269-8.806 1.26-2.369-3.365m.028 4.571c6.926-3.838 7.431 1.527 1.817 3.657-6.309 2.394-8.509.05-1.817-3.657m-.058 4.785c7.033-1.625 6.235 3.309.762 3.748-6.149.494-7.555-2.178-.762-3.748m-129.952-3.02c-.36.363-.835.579-1.322.6a1.68 1.68 0 0 1-1.274-.486 1.65 1.65 0 0 1-.372-.584c-.083-.22-.12-.46-.11-.704s.069-.486.17-.715a2.1 2.1 0 0 1 1.037-1.047c.227-.103.468-.162.709-.172.24-.011.477.026.696.11a1.63 1.63 0 0 1 .95.96c.083.22.12.46.11.703a2 2 0 0 1-.17.716c-.103.23-.247.44-.424.62m124.807-10.852c-1.301-4.829-8.047-11.135-14.684-7.74 5.879-.46 5.069 10.392 14.684 7.74M79.169 19.35c4.59-5.526 9.63-2.892 14.685 0-4.803-2.127-9.577-4.515-13.98.024-.146.151-.545-.176-.705-.024m-3.192 29.025c1.668 2.011 3.658 1.406 5.746 0-1.725 1.036-3.708.667-5.746 0m-52.992 73.53c0 .513-.202 1.005-.561 1.368s-.847.567-1.355.567-.995-.204-1.354-.567a1.945 1.945 0 0 1 0-2.736 1.904 1.904 0 0 1 2.709 0c.359.363.56.855.56 1.368M6.822 137.047c0 .513-.201 1.005-.56 1.368s-.847.567-1.355.567-.995-.204-1.354-.567a1.945 1.945 0 0 1 0-2.736 1.904 1.904 0 0 1 2.708 0c.359.363.561.855.561 1.368m62.132-7.402c-4.698 2.868-1.672-1.781-1.277-3.87-2.068.399-6.67 3.456-3.83-1.29a14 14 0 0 1-.446-.797c-1.832-3.579 2.336-.868 4.276-.493-.396-2.089-3.421-6.738 1.277-3.87 4.698-2.868 1.672 1.781 1.277 3.87 1.987-.384 6.316-3.222 4.128.772q-.132.242-.297.518c2.838 4.746-1.763 1.689-3.831 1.29.395 2.089 3.42 6.738-1.277 3.87m11.492 3.824c-5.488.11-.567-2.387.81-3.997-1.989-.698-7.487-.376-2.68-3.052-.11-5.544 2.363-.573 3.957.818.691-2.009.372-7.563 3.02-2.707 5.489-.11.568 2.387-.809 3.997 1.989.698 7.487.376 2.68 3.052.11 5.544-2.364.573-3.957-.818-.691 2.009-.372 7.563-3.02 2.707M149.4 49.988c1.189 0 2.235 1.056 2.235 2.257s-1.046 2.258-2.235 2.258-2.235-1.057-2.235-2.258c0-1.2 1.046-2.258 2.235-2.258"/><path stroke="#000" stroke-linecap="round" stroke-linejoin="round" stroke-width=".5" d="M152.958 83.85c1.285.376 3.257-1.14 3.257-1.14m-.793 3.075c1.64.645 1.64 2.58 1.64 2.58m-1.428 1.085c1.321 1.174.664 2.991.664 2.991m-.513 1.729c1.197 1.303.362 3.044.362 3.044m-.949.647c1.185 1.313.334 3.047.334 3.047m2.807-17.703c.643.304 1.121.704 1.276 1.29m-.901 3.972c.543.462.901.974.901 1.58m-.908 3.08c.471.538.752 1.097.664 1.697m-.882 3.135c.242.675.299 1.299 0 1.824M75.977 52.245c1.62-.782 3.306-.935 5.108 0m-17.877-30.96c2.554-2.58 5.746-2.58 7.661-.645M66.4 29.67c2.554.645 5.108-1.935 5.108-1.935M83 21.285c3.83-1.935 7.662 0 9.577 1.935m-7.023 6.45c4.47 0 7.023-2.58 7.023-2.58m-23.428-4.859c.196.452.308.98.308 1.543 0 1.68-1 3.042-2.235 3.042s-2.234-1.362-2.234-3.042c0-.633.141-1.22.384-1.706m23.101.01c.386.546.623 1.288.623 2.106 0 1.68-1.001 3.043-2.235 3.043s-2.235-1.362-2.235-3.043c0-.727.188-1.395.5-1.918"/></svg>