<svg xmlns="http://www.w3.org/2000/svg" fill="none" viewBox="0 0 166 258"><path fill="currentColor" d="M65.762 66.435v7.095h7.023v-7.095zm3.511 1.29c.593 0 1.161.238 1.58.661a2.27 2.27 0 0 1 0 3.193 2.22 2.22 0 0 1-1.58.661 2.22 2.22 0 0 1-1.58-.661 2.27 2.27 0 0 1 0-3.193 2.22 2.22 0 0 1 1.58-.661m11.812-1.29v7.095h7.023v-7.095zm3.511 1.29c.593 0 1.161.238 1.58.661a2.27 2.27 0 0 1 0 3.193 2.223 2.223 0 0 1-3.16 0 2.27 2.27 0 0 1-.654-1.596c0-.6.235-1.173.654-1.597s.987-.661 1.58-.661m11.812-1.29v7.095h7.023v-7.095zm3.511 1.29c.593 0 1.161.238 1.58.661a2.27 2.27 0 0 1 0 3.193 2.22 2.22 0 0 1-3.16 0 2.27 2.27 0 0 1-.654-1.596c0-.6.235-1.173.654-1.597s.988-.661 1.58-.661M65.442 99.33c-1.27 0-2.488.51-3.386 1.417a4.86 4.86 0 0 0-1.39 3.743h-.012v10.965h9.577V104.49h-.016q.013-.161.016-.322a4.86 4.86 0 0 0-1.403-3.421 4.76 4.76 0 0 0-3.386-1.417m-13.786 0c-2.645 0-4.788 2.166-4.788 4.838q0 .161.01.322h-.01v1.58l6.18 9.385h3.397V104.49h-.016q.013-.161.016-.322c0-2.672-2.144-4.838-4.789-4.838m26.563 2.304a4.14 4.14 0 0 0-2.928 1.214 4.14 4.14 0 0 0-1.204 3.208h-.01v9.399h8.285v-9.399h-.014q.01-.138.014-.276a4.15 4.15 0 0 0-2.557-3.831 4.1 4.1 0 0 0-1.586-.315m11.493 2.856c-.46 0-.916.087-1.34.255a3.5 3.5 0 0 0-1.138.725c-.325.31-.583.679-.76 1.085a3.2 3.2 0 0 0-.258 1.503h-.008v7.581h7.007v-7.581h-.011q.01-.111.011-.223c0-.439-.09-.874-.266-1.28a3.3 3.3 0 0 0-.76-1.085 3.5 3.5 0 0 0-1.136-.725 3.7 3.7 0 0 0-1.341-.255m39.361-32.714-2.337 3.945 4.373 2.666 2.324-3.923zm8.085 4.983-2.285 3.857 4.291 2.803 2.338-3.945zm8.052 5.038-2.373 4.005 4.232 2.903 2.459-4.149zm7.967 5.18-2.458 4.15 4.141 3.057 2.546-4.298zm7.8 5.463-2.497 4.215 4.158 3.03 2.504-4.227zm-52.296 4.044 3.05 2.201c6.384 4.515 11.492-4.515 6.384-9.03l-3.442-2.318zm6.242-3.604c1.058 0 1.915.866 1.915 1.935a1.925 1.925 0 0 1-1.915 1.935 1.925 1.925 0 0 1-1.915-1.935c0-1.069.857-1.935 1.915-1.935m12.564-13.125-5.405-3.193-4.665 6.692 2.614 1.886c2.624 1.856 5.033 1.423 6.605-.044zm-4.264-.42c1.058 0 1.915.866 1.915 1.935a1.925 1.925 0 0 1-1.915 1.935 1.925 1.925 0 0 1-1.915-1.935c0-1.069.857-1.935 1.915-1.935m-19.792 25.155 7.118 1.024c-.204-1.294-.838-2.568-2.011-3.604l-2.47-1.664zm23.41-7.758-7.528 11.379c4.999 1.92 9.773 4.598 14.155 7.96-3.494-5.974-5.759-12.535-6.627-19.339m-8.726-45.777s-1.915-.645-2.553-.645c-.639 0-1.277 1.935-2.554 1.935s-1.277.645-1.277.645c-.079.04 2.924.468 3.831-.645.405-.498 2.577-.288 2.577-.288m-9.601-1.002c1.916 0 4.47-3.437 5.747-3.483l3.192-.129-.511 1.032s-1.66.258-2.298.258-2.937 2.967-4.214 2.967-1.916-.645-1.916-.645m7.917-5.547c3.323-.498 5.652-2.293 3.576-2.193-2.682.129-3.703 1.419-4.214 2.064m.255-19.866-1.021 1.032s-3.959-1.548-6.129-1.29c-2.065.245-9.96 4.257-9.96 4.257 1.787-2.322 11.109-7.998 17.11-3.999m-4.852 6.514c0 .6-.108 1.173-.299 1.597-.192.423-.452.661-.723.661s-.53-.238-.722-.661-.299-.998-.299-1.597c0-.296.026-.59.078-.863.051-.274.126-.523.221-.733a1.5 1.5 0 0 1 .332-.49.58.58 0 0 1 .39-.171.58.58 0 0 1 .391.172 1.5 1.5 0 0 1 .332.49c.095.209.17.458.221.732.052.273.078.567.078.863"/><path fill="currentColor" d="m35.754 70.305 4.47-2.13v29.611l-4.448-4.504zm19.181 48.375-1.943-3.225h48.072l1.096 3.225zm6.357-41.925h41.38l-3.632 5.16H61.292zm95.116 105.783a67 67 0 0 0 1.66-14.838c0-12.681-3.506-24.969-9.919-35.323a59 59 0 0 0 6.508 4.21c4.507 9.48 6.972 20.158 6.972 31.113 0 5.571-.638 11.071-1.97 16.332a107 107 0 0 1-3.251-1.494m-34.422-73.319 3.791-6.019c.707 3.066 1.512 6.089 2.333 9.105m-66.756-90.89a68 68 0 0 1 2.492 4.385c18.354-3.923 37.247-6.022 55.546-3.87a95 95 0 0 1 3.016-3.882c-15.262-6.545-45.78-2.919-61.054 3.367"/><path stroke="currentColor" stroke-linecap="round" stroke-linejoin="round" d="M165.987 91.378c-17.197-11.4-32.574-20.892-49.32-29.226m-17.222 48.071c11.507 38.941 31.586 63.333 66.545 76.355m-64.926-71.123H53.1m49.064 3.225H54.935m48.278 3.225h-46.6m58.922-59L89.601 101.37m35.629-34.767c-9.783 14.608-19.725 29.108-29.477 43.738m-42.48-48.257C41.25 67.565 29.3 73.321 17.52 79.716m25.256-12.621v33.627m14.685-37.27V97.81M35.754 70.334v22.974m4.47-25.128v29.63m21.068-35.836v35.498m0-31.037h48.523l-25.527 37.111M61.292 73.53h43.53m-43.53 3.225h41.38m-41.38 5.16H99.04m-47.886-9.108a1.945 1.945 0 0 1 0 2.736m0-2.736a1.906 1.906 0 0 0-2.708 0m2.709 0c1.062-1.073 1.867-1.231 2.42-.907 1.768 1.038.927 7.025-2.42 3.643m0-2.736c4.391-4.437-7.101-4.437-2.71 0m2.71 2.736a1.905 1.905 0 0 1-2.71 0m2.71 0c4.391 4.437-7.101 4.437-2.71 0m0 0a1.945 1.945 0 0 1 0-2.736m0 2.736c-4.391 4.437-4.391-7.173 0-2.736m2.632 14.757a1.945 1.945 0 0 1 0 2.736m0-2.736a1.906 1.906 0 0 0-2.709 0m2.709 0c1.063-1.074 1.868-1.231 2.42-.908 1.769 1.038.928 7.026-2.42 3.644m0-2.736c4.392-4.437-7.1-4.437-2.709 0m2.709 2.736a1.906 1.906 0 0 1-2.709 0m2.709 0c4.392 4.437-7.1 4.437-2.709 0m0 0a1.945 1.945 0 0 1 0-2.736m0 2.736c-4.392 4.437-4.392-7.173 0-2.736m-5.591-7.584h14.685m-14.685 2.58h14.685m-5.514 2.58h5.514m-14.685 0h4.704m6.746 2.58h3.235m-14.685 0h2.48m8.933 2.58h3.272m-14.685 0h2.536m6.542 2.58h5.607m-14.685 0h4.834m6.394-20.64h3.457m-14.685 0h2.851m8.822 2.58h3.012m-14.685 0h2.406m6.987 2.58h5.292m-14.685 0h4.63m.63-12.9h9.425m-14.95 2.58h14.95m-6.385 2.58h6.385m-14.685 0h5.742m-5.742 25.8h14.685m-14.685 2.58h2.888m-2.888 2.58h1.387m23.295 27.051a1.945 1.945 0 0 1 0 2.736m0-2.736a1.9 1.9 0 0 0-1.355-.567c-.508 0-.995.204-1.354.567m2.709 0c1.062-1.073 1.868-1.231 2.42-.907 1.768 1.038.927 7.025-2.42 3.643m0-2.736c4.392-4.437-7.1-4.437-2.709 0m2.709 2.736a1.905 1.905 0 0 1-2.709 0m2.709 0c4.392 4.437-7.1 4.437-2.709 0m0 0a1.945 1.945 0 0 1 0-2.736m0 2.736c-4.392 4.437-4.392-7.173 0-2.736m13.962 0a1.945 1.945 0 0 1 0 2.736m0-2.736a1.905 1.905 0 0 0-2.708 0m2.708 0c1.063-1.073 1.868-1.231 2.42-.907 1.77 1.038.928 7.025-2.42 3.643m0-2.736c4.392-4.437-7.1-4.437-2.708 0m2.708 2.736a1.905 1.905 0 0 1-2.708 0m2.708 0c4.392 4.437-7.1 4.437-2.708 0m0 0a1.945 1.945 0 0 1 0-2.736m0 2.736c-4.392 4.437-4.392-7.173 0-2.736M44.432 102.84v-.982h.017a5 5 0 0 1-.017-.399c0-3.313 3.261-5.999 7.283-5.999S59 98.146 59 101.459c-.003.1-.043.326 0 .425 0-3.18 2.943-5.779 6.573-5.779 3.523 0 6.399 2.447 6.6 5.71.441-2.459 2.975-4.498 6.04-4.498 3.35 0 6.065 2.437 6.065 5.442a5 5 0 0 1-.02.363h.02v1.201c1.575-1.718 3.113-2.783 5.746-2.953 3.174 0 5.746 1.892 5.746 4.226a3 3 0 0 1-.019.281h.02v9.578l32.003-47.546m-10.547-5.478 7.366 5.116M99.265 87.084l8.255 5.734m-6.948-7.648 8.272 5.746m-1.313-16.11 8.227 5.714m-6.918-7.627 8.171 5.675m-2.012-14.862 8.237 5.72M91.051 99.4l8.182 5.683m-6.916-7.626 8.267 5.742m21.498-26.636c16.044 9.393 30.88 19.382 43.928 29.38m-42.32-32.036c15.414 9.075 29.696 18.693 42.326 28.328M126.261 70.15c14.406 8.48 27.802 16.99 39.758 25.965m-.029 33.26c-16.524-6.544-28.082-21.576-28.082-39.074q0-1.984.195-3.92m27.892 55.059c-8.421-2.63-16.162-7.044-22.562-12.988-10.896-10.118-17.018-23.842-17.018-38.151 0-3.564.38-7.092 1.119-10.537m38.457 46.488c-14.349-6.435-24.252-20.115-24.252-35.951q0-.776.031-1.545m24.222 35.133c-13.012-6.278-21.908-18.962-21.908-33.588m21.91 46.209c-7.392-2.432-14.185-6.313-19.853-11.447-10.177-9.22-15.895-21.724-15.895-34.762 0-2.824.269-5.623.792-8.37m.659 12.276a44 44 0 0 1 .492-11.535m3.315 25.981a44.8 44.8 0 0 1-3.715-13.525m11.51 25.507a47.6 47.6 0 0 1-7.329-10.981m17.759 19.929a52 52 0 0 1-6.685-5.156 50 50 0 0 1-2.587-2.531m19.493 12.884a55 55 0 0 1-7.419-3.495M132.852 92.43a44 44 0 0 1 .364-8.166m2.643 22.085a44 44 0 0 1-2.63-9.962m9.044 21.238a46.6 46.6 0 0 1-4.505-7.069m13.884 16.315a51 51 0 0 1-4.078-3.425m15.337 9.887q-1.35-.569-2.665-1.208m-7.109 48.793a64.3 64.3 0 0 0 1.371-13.217c0-15.738-5.752-30.831-15.991-41.96-4.242-4.61-9.11-8.384-14.387-11.222a60 60 0 0 0-.827-.436c-7.042-3.629-14.781-5.61-22.713-5.717m51.937 69.562q-.088.543-.187 1.085m.633-4.432q-.064.605-.139 1.206m.484-8.737.003.651q.001 2.451-.17 4.853m.069-8.427q.044.783.069 1.571m-.406-5.422q.12 1.015.208 2.038m-1.567-9.546a63 63 0 0 1 1.213 6.374m-1.939-9.071q.225.765.43 1.538m-1.519-4.893q.272.759.522 1.527m-3.601-8.674a60 60 0 0 1 2.479 5.538m-3.882-8.131q.213.372.422.749m-2.345-3.87q.415.63.816 1.272m-6.239-8.252a57 57 0 0 1 4.49 5.61m-6.475-7.681q.302.3.6.604m-2.957-2.807q.354.312.704.632m-7.698-5.85a53 53 0 0 1 5.281 3.771m-7.71-5.2q.276.153.55.309m-3.253-1.7q.27.129.538.261m-9.431-3.532a50 50 0 0 1 6.613 2.248m-9.396-2.898q.532.108 1.061.227m-4.312-.777q.567.077 1.132.166m-7.706-.607q2.266 0 4.506.207m47.715 57.536.002.307q0 2.363-.18 4.7m-.113-10.697.022.234m-1.411-8.523q.656 2.742 1.059 5.553m-5.892-18.719a59 59 0 0 1 2.31 5.141m-10.889-17.603a56 56 0 0 1 4.257 5.297m-15.395-14.614a52 52 0 0 1 5.131 3.651m-18.673-9.544a49 49 0 0 1 6.329 2.161m-19.031-3.796.253-.001q2.177 0 4.329.195m46.705 56.181.001.384q0 2.428-.193 4.829m-1.489-18.953a60 60 0 0 1 1.094 5.724m-5.871-18.61a58 58 0 0 1 2.388 5.299m-10.881-17.516.004.004a54.5 54.5 0 0 1 4.464 5.542m-15.457-14.62a51 51 0 0 1 5.449 3.861m-18.607-9.492a48 48 0 0 1 6.607 2.253m-18.178-3.79q2.056.017 4.089.211m45.029 54.49q.005.384.005.768 0 2.65-.238 5.266m-1.521-19.478c.542 2.15.962 4.34 1.256 6.559m-6.006-19.013a56 56 0 0 1 2.71 5.999m-11.184-17.891q.246.26.488.524a53 53 0 0 1 4.643 5.827m-15.977-15.037a49 49 0 0 1 6.348 4.471m-19.05-9.681a46.7 46.7 0 0 1 7.536 2.562m-17.71-3.89q2.077.037 4.128.259m43.285 52.221q.015.651.015 1.302a57 57 0 0 1-.304 5.879m-1.581-20.388a56 56 0 0 1 1.477 7.702m-6.248-19.761a54.5 54.5 0 0 1 3.165 6.991m-11.703-18.607q.545.556 1.073 1.131a51.4 51.4 0 0 1 4.951 6.308m-16.837-15.767a48 48 0 0 1 7.551 5.282m-19.871-10.058a45.4 45.4 0 0 1 8.855 3.008m-17.639-4.107q2.24.056 4.449.335m41.347 49.983q.038 1.032.038 2.069c0 2.317-.145 4.617-.429 6.887m-1.663-21.95a55 55 0 0 1 1.806 9.435m-6.7-21.151a53 53 0 0 1 3.905 8.599m-5.095-10.591-.057-.09a50.3 50.3 0 0 0-5.513-7.21 49 49 0 0 0-2.006-2.056m-1.359-1.263a46.6 46.6 0 0 0-10.451-7.075 44.3 44.3 0 0 0-11.086-3.747m-6.709-.772c1.709.063 3.407.226 5.085.488m35.165 56.946c2.886-26.045-12.131-50.31-37.933-50.955l6.29 7.393m-3.707-.949c16.572 3.31 29.129 19.092 29.129 38.061q0 .83-.032 1.654m-26.912-35.197c13.074 3.981 22.769 16.747 23.355 32.071m16.205-33.862c6.428 10.365 9.934 22.653 9.934 35.334 0 5.064-.564 9.994-1.645 14.835m-53.275-77.947c10.939.662 21.439 4.667 30.317 11.483m21.102 20.47c4.597 9.526 7.062 20.204 7.062 31.159 0 5.571-.638 11.071-1.869 16.383m-16.221-33.974c.204-.846.942-1.994 2.03-3.049 1.654-1.603 3.49-2.382 4.1-1.739.459.483.169 1.558-.744 2.78m.916 2.675c1.256.493 1.868 1.178 1.763 1.789-.15.878-2.102 1.27-4.361.876-1.869-.327-3.363-1.089-3.736-1.84m2.513 11.3c.348-.796 1.275-1.796 2.529-2.641 1.907-1.284 3.849-1.725 4.339-.984.367.557-.106 1.563-1.216 2.604m.436 2.797c1.151.708 1.634 1.491 1.425 2.074-.301.837-2.291.877-4.446.088-1.784-.654-3.121-1.669-3.358-2.475m.479 10.431c.539-.679 1.688-1.405 3.116-1.896 2.169-.746 4.159-.668 4.443.175.213.634-.499 1.484-1.837 2.201m-6.23 1.449a1.7 1.7 0 0 1-.146-.59m6.086 1.957c.932.983 1.2 1.866.849 2.375m-13.89-41.358c-.085-.866.234-2.197.914-3.557 1.034-2.067 2.51-3.416 3.296-3.015.592.302.671 1.413.212 2.872m1.742 2.216c1.347.044 2.149.486 2.252 1.097.146.879-1.567 1.903-3.827 2.288-1.871.319-3.53.1-4.129-.483m-9.288-12.487c-.235-.838-.154-2.205.278-3.664.656-2.219 1.873-3.811 2.718-3.556.635.192.907 1.271.709 2.789m2.103 1.871c1.334-.197 2.2.095 2.408.678.297.838-1.21 2.152-3.367 2.934-1.786.648-3.457.728-4.149.262m-11.456-8.944c-.433-.753-.687-2.098-.625-3.62.094-2.314.885-4.159 1.765-4.123.663.028 1.19 1.006 1.369 2.526m2.495 1.289c1.244-.523 2.155-.456 2.498.058.494.738-.646 2.387-2.546 3.682-1.573 1.073-3.173 1.567-3.957 1.287m-13.623-4.626c-.65-.57-1.324-1.759-1.754-3.219-.654-2.219-.5-4.224.345-4.478.636-.191 1.448.561 2.106 1.94m2.774.401c1.009-.902 1.892-1.138 2.382-.765.704.537.155 2.47-1.225 4.318-1.143 1.53-2.497 2.523-3.329 2.515m2.406 12.994 1.805-6.38m-1.805 6.38 10.253-3.119m-3.483 6.158 3.483-6.158m-3.483 6.158-4.972-9.397-6.025 3.999m10.997 5.398 10.371-1.486m-6.888-4.672 1.963 10.099m0 0 4.925-5.427m-4.925 5.427 10.849 1.103m-5.924-6.53.03 10.652m0 0 5.894-4.122m-5.894 4.122 10.637 4.177m-4.743-8.299-1.632 11.059m0 0 6.375-2.76m-6.375 2.76 9.24 6.04-5.331 8.06m2.466-16.86-3.694 10.125m0 0 6.607-1.335m-6.607 1.335 7.742 6.735-5.45 6.394m-1.064-6.394h6.524m-6.524 0 6.572 7.022-2.094 2.027m-2.989-2.393 5.115.369m19.489 13.977V153.51m1.915 32.1V154.8m1.916 31.604V156.09m-30.676-46.301c4.697-1.366 3.218 6.176 9.709 2.143m-5.213-11.666c-7.272 3.463-.671 6.414-4.583 9.327m8.594 12.596c3.747-1.792 4.538 5.192 9.574-.571m-8.329-9.61c-5.845 5.184.514 6.287-1.543 9.809m12.036 9.715c2.936-1.553 5.443 3.978 8.665-3.077m-10.643-6.788c-4.196 6.311 1.34 6.086 1.104 9.357m9.539-2.569c-2.383 6.261.834 6.279 2.425 7.848M130.49 94.901c5.21.06 1.185 6.898 8.661 5.238m-1.23-12.744c-7.949.931-2.448 5.99-7.445 7.364m2.559-11.48c.437 1.969.191 4.27 4.886 4.09m.284 7.721c-1.068.306-2.151.584-3.49.37m1.277-3.225c.075 2.246 1.123 2.296 2.156 2.382m.064.844c-.971.65-2.067 1.487-2.22 2.579m5.303 8.15c-1.009.659-2.009 1.328-3.462 1.534m.29-3.461c.782 2.309 1.914 1.802 3.011 1.587m.186.672c-.775.934-1.701 2.133-1.52 3.293m8.65 7.491c-.332 1.069-.696 2.136-1.606 3.148m-1.97-2.846c2.016 1.239 2.587.197 3.271-.667m.62.82c.019 1.115.154 2.355.915 3.029m8.787 4.844c-.293.86-.672 1.711-1.406 2.528m-1.97-2.847c1.551.954 2.247.557 2.797-.07m1.109.685c.053.981.243 1.985.9 2.567m3.189-24.712c-1.49 2.918 1.179 6.172 2.919 7.645m-6.443-10.332c-5.699-1.104-14.976-2.187-13.993-5.638.381-1.152 1.44-2.076 2.235-2.635m1.137 6.015c-5.161 4.044-1.53 6.169 13.714 6.858m-11.96-1.288c-3.522 7.569 5.65 4.179 12.28 2.983m-9.795 1.818c-1.688 7.001 3.889 4.407 10.822.02m-8.151 4.199c1.001 7.535 4.891 3.615 9.384-2.692m-5.714 6.382c3.561 9.155 4.972.504 6.478-4.844m-2.257 7.448c1.043 2.185 1.764 3.192 2.261 3.381m-51.875-19.918-.188.281m8.796-13.117-.326.485m-6.799 12.689-.862 1.286m9.521-14.2-1.075 1.605m-5.713 11.069-2.236 3.334m11.119-16.581-2.749 4.099m-3.353 7.55-3.653 5.447m9.854-14.695-3.377 5.037m3.286-7.276c-1.624.669-3.409.626-5.065-.545 6.01 4.858-.993 16.003-7.162 13.526a5.5 5.5 0 0 1-1.138-.626c1.382 1.117 2.076 2.566 2.25 4.106m42.59-39.584c3.008-1.655 5.203-6.846 5.203-12.992-.002-5.172-1.583-9.89-4.074-12.16l5.841-5.9-5.845-5.905c2.492-2.268 4.074-6.984 4.078-12.155 0-7.481-3.252-13.545-7.263-13.545s-7.262 6.064-7.262 13.545c.002 5.17 1.583 9.889 4.074 12.16l-5.841 5.9 5.845 5.905c-2.492 2.267-4.074 6.983-4.078 12.154 0 4.364 1.106 8.245 2.824 10.722M139.889 74.81c.283-1.73 1.43-5.141 2.488-5.795 1.217-.752 5.746-4.515 7.662-4.515s3.83 2.58 7.661 2.58c3.192 0 2.554 2.58 0 2.58s-4.469-.645-4.469-.645c-1.918 2.174-3.209 1.98-4.469 2.58-1.291.616 1.915-.645 2.553.645.564 1.139-1.858 6.803-2.433 8.114m10.643-11.263c2.265.232 3.921.977 3.921 1.859 0 1.069-2.429 1.935-5.427 1.935s-5.427-.866-5.427-1.935c0-.635.858-1.198 2.182-1.55m4.562 3.395c2.276-.038 4.007.504 4.11 1.38.125 1.061-2.187 2.21-5.164 2.567-2.976.356-5.49-.215-5.614-1.276-.074-.63 1.201-1.936 4.394-2.581m2.33 3.793c2.276-.038 4.008.504 4.11 1.38.125 1.061-2.187 2.21-5.163 2.567-2.977.356-5.491-.215-5.615-1.276-.071-.608 1.111-1.842 4.055-2.508m2.493 3.797c1.997.215 4.18 1.149 4.174 2.014-.007 1.047-2.158 1.91-4.803 1.927s-4.784-.818-4.777-1.866c.004-.6 1.175-1.671 3.827-1.993m-38.931-58.876c.006 3.325-1.28 6.439-1.157 7.181.21 1.273 6.35 11.632 6.64 13.545.528 3.492-4.737 3.54-4.98 3.999-.171.322.127 2.451.127 2.451 0 .645-1.277 2.58-1.277 2.58s0 1.29.639 1.935c.638.645-3.192 2.58-3.192 2.58s1.915 2.58 1.915 3.87-.638 3.225-3.831 3.225-7.023-.645-9.577-.645-9.577-3.225-10.853-3.225m-7.46 1.389c.972.467 5.208 2.405 7.46 1.836 1.64-.414 3.808-1.095 5.149-1.529m19.75-10.081s-1.915-.387-2.553-.387c-.639 0-1.277 1.677-2.554 1.677s-1.277.645-1.277.645c-.079.04 2.924.468 3.831-.645.405-.498 2.577-.288 2.577-.288m-1.684-10.548c-1.93.013-3.37 4.504 0 3.999 3.323-.498 5.652-2.293 3.576-2.193-2.682.129-3.703 1.419-4.214 2.064m-14.302-12.255c4.087.645 6.002-3.999 13.153-3.999m-8.683 2.838c-4.086 3.741 8.427 2.58 8.427 2.58m-50.193-8.715c2.245 8.146-6.636 13.309-5.48 22.647.638 5.16 8.938 4.515 8.938 0 0-3.225-3.83-2.58-3.83-.645m0 0c0 1.935 1.276 2.58 1.276 2.58m-1.277-2.58c-.81-9.379 8.296-14.428 5.066-22.982m-2.118.437c2.536 8.313-6.566 13.487-5.397 22.934.302 2.441 2.01 2.919 3.725 2.266m6.18-26.046c3.446 8.268-4.746 13.337-5.094 21.797M73.64 23.86c3.928 8.629-5.609 15.246-5.964 23.87m8.035-24.174c4.196 9.021-5.899 15.262-6.008 23.798-.112 8.761 9.465 6.826 9.465 2.311s-6.617-4.728-6.384-.645 4.918 1.637 3.83.645m1.71-26.566c3.697 8.544-5.937 15.198-6.045 23.687-.026 2.01.492 3.352 1.304 4.17m7.403-28.238c3.26 8.184-5.505 15.424-6.24 23.46m4.428 3.509c3.884 7.207 14.679 3.573 14.679-1.957 0-7.124-7.023-5.805-7.023-1.29 0 4.47 5.746 1.935 3.192-.645 0 0 1.277 1.29 1.277 2.58 0 3.5-9.577 4.515-10.215-1.935-.79-7.986 8.247-16.13 5.024-24.388m-2.442.312c2.914 8.33-5.775 17.906-5.775 22.786 0 .657.164 1.264.294 1.834m10.423-25.2c4.117 10.998-10.998 22.862-.722 26.922M61.985 61.388c-3.969 3.505-10.27 1.546-10.27-2.693 0-7.124 6.391-5.16 6.385-1.935-.005 2.652-3.83 2.58-3.83-.645-.64 1.29-.735 1.942-.64 2.58.748 4.942 10.941.974 9.628-6.718m1.856-.3c.118 2.292-.131 4.194-.636 5.748m-2.753-5.615c-.425 3.433-2.65 7.602-5.54 6.885m17.043 3.81c-3.985 4.429-11.297 4.118-11.297-1.875 0-3.923 6.385-4.515 6.385-1.29m0 0c0 3.87-3.831 2.58-3.831 1.29m3.83-1.29c.889-2.216 1.617-4.987 2.299-7.916m-6.13 9.206c.19 1.276 3.917 3.71 7.662-.645 1.402-1.63 1.53-4.815 1.435-6.548m-9.096 7.193c-.097-.65.213-.93.638-1.29m10.44-5.964a13.4 13.4 0 0 1 .165 2.888m-3.73-3.443c-.758 5.728-2.225 9.277-4.938 8.986m2.72-13.213c-.94 3.002-2.275 6.443-3.536 8.663m21.786-3.8c-1.347 14.842-16.004 13.426-15.245 6.528.638-5.805 6.237-3.867 6.384-.645.152 3.297-3.83 3.225-3.83.645m10.758-6.288c-.853 5.4-6.02 12.266-9.635 8.075m7.64-8.223c-.614 3.917-2.003 6.944-5.437 7.618m3.488-8.408c-.52 3.024-1.787 4.968-3.019 6.499m1.242-7.904c-.244 2.267-1.041 4.347-1.926 6.21m-1.088-4.874c.275 1.289.221 2.619.018 3.968M43.337-.078C50.49 7.169 58.666 15.786 63.847 25.8c18.353-3.923 37.246-6.022 55.545-3.87 5.974-8.151 13.669-15.242 22.009-21.935M61.349 21.387c15.278-6.258 45.797-9.884 61.083-3.39m28.883 130.998c.204.867-1.439 2.002-3.669 2.537-2.23.534-4.203.265-4.406-.602-.204-.866 1.439-2.002 3.669-2.536s4.203-.265 4.406.601m2.554 14.19c.05.889-1.765 1.715-4.053 1.846-2.289.13-4.184-.486-4.234-1.375s1.766-1.715 4.054-1.845 4.184.485 4.233 1.374m-.147 13.922c-.179.872-2.143 1.199-4.387.731-2.245-.468-3.92-1.554-3.742-2.427.178-.872 2.142-1.199 4.387-.731s3.92 1.555 3.742 2.427m-8.153-41.657c.477.749-.7 2.371-2.628 3.623s-3.878 1.659-4.354.91c-.477-.749.7-2.371 2.628-3.623s3.878-1.659 4.354-.91m-9.577-12.255c.6.653-.274 2.459-1.954 4.035s-3.527 2.324-4.126 1.672.274-2.459 1.954-4.035 3.526-2.324 4.126-1.672m-12.13-9.03c.74.483.333 2.452-.909 4.397-1.243 1.946-2.851 3.132-3.591 2.649s-.334-2.452.908-4.397c1.243-1.946 2.851-3.132 3.592-2.649m-14.893-4.778c.856.214 1.104 2.209.554 4.457s-1.69 3.897-2.546 3.683-1.103-2.209-.553-4.457 1.69-3.897 2.545-3.683m46.819-63.043c2.292 0 4.15 3.466 4.15 7.74 0 4.275-1.858 7.74-4.15 7.74s-4.15-3.465-4.15-7.74c0-4.274 1.858-7.74 4.15-7.74m0-14.098 3.74 3.779-3.74 3.778-3.74-3.778zm0-22.022c2.292 0 4.15 3.466 4.15 7.74 0 4.275-1.858 7.74-4.15 7.74s-4.15-3.465-4.15-7.74c0-4.274 1.858-7.74 4.15-7.74m-47.249 40.731c1.915 0 4.47-3.437 5.746-3.483l3.192-.129-.511 1.032s-1.66.258-2.298.258-2.937 2.967-4.214 2.967-1.915-.645-1.915-.645m7.533-25.542-1.021 1.032s-3.959-1.548-6.129-1.29c-2.065.245-9.96 4.257-9.96 4.257 1.787-2.322 11.109-7.998 17.11-3.999"/><path stroke="currentColor" stroke-linecap="round" stroke-linejoin="round" stroke-width=".5" d="M156.423 67.08c0 1.29 3.192 1.29 3.192 1.29m-4.841 1.029c.773 1.136.139 2.921 0 2.841m-.004 1.846c.773 1.136.139 2.92 0 2.84m.192.712c.774 1.136.139 2.92 0 2.84m1.084.703c.774 1.136.14 2.92 0 2.84m2.293-13.716c.359.566.187.931 0 1.29m.428 2.595c.36.567.187.931 0 1.29m0 2.58c.36.566.187.931 0 1.29m0 2.58c.36.566.187.931 0 1.29m-39.502-33.555c-1.382.137-2.948-.178-4.214 1.032m-2.682-16.125c-.894.129-2.426 2.322-2.426 2.322m1.333-7.444c.284.529.455 1.213.455 1.962 0 1.674-.858 3.031-1.916 3.031s-1.915-1.357-1.915-3.031q0-.367.053-.708m-7.587.643c3.576 0 7.406-3.999 9.833-3.999 1.468 0 1.532 1.677 1.532 1.677"/></svg>
