<svg xmlns="http://www.w3.org/2000/svg" fill="none" width="166" height="258"><path fill="currentColor" d="M102.068 37.887a.97.97 0 0 0-.559.186 1.7 1.7 0 0 0-.475.532 3 3 0 0 0-.317.796 4 4 0 0 0-.111.939c0 .322.037.641.111.939.073.297.181.568.317.796.136.227.297.408.474.531a1 1 0 0 0 .56.187 1 1 0 0 0 .56-.187c.177-.123.338-.304.474-.532a3 3 0 0 0 .317-.795c.074-.298.111-.617.111-.94 0-.65-.154-1.274-.428-1.734s-.646-.718-1.034-.718m18.058.503a.97.97 0 0 0-.559.186 1.7 1.7 0 0 0-.475.532 3 3 0 0 0-.317.796 4 4 0 0 0-.111.939c0 .65.154 1.274.428 1.734.275.46.647.719 1.034.719.388 0 .76-.259 1.034-.719.275-.46.429-1.084.429-1.734a4 4 0 0 0-.112-.939 3 3 0 0 0-.317-.796 1.7 1.7 0 0 0-.474-.532 1 1 0 0 0-.56-.186m1.926 16.206a3 3 0 0 0-.158 0c-1.277.035-1.863 1.519-1.863 1.519s.923-.994 1.921-1.025c2.029-.063-.178 4.225-1.921 4.25-1.264.018-3.831-3.225-6.385-3.225v1.29c2.554 0 4.563 2.56 6.385 2.58 2.941.033 5.263-5.31 2.021-5.389m-26.283.008c-3.19.099-3.201 6.762.77 6.618 3.497-.127 7.53-3.817 13.276-3.817v-1.29c-7.023.328-7.731 3.215-12.769 4.149-3.264.604-3.423-4.54-1.277-4.794 1.268-.15 1.277 2.236 1.277 2.236.037.006 1.277-3.182-1.277-3.102m-21.88 11.86-5.085.812q.337 1.206.667 2.418l2.461-.673q.25-.072.51-.075a1.92 1.92 0 0 1 1.916 1.685 1.934 1.934 0 0 1-1.425 2.125l-2.463.674.124.472 2.466-.642q.252-.07.511-.068a1.92 1.92 0 0 1 1.895 1.71 1.934 1.934 0 0 1-1.45 2.106l-2.469.642.122.49 2.488-.61q.253-.066.512-.06a1.923 1.923 0 0 1 1.871 1.735c.1.974-.536 1.869-1.48 2.086l-2.49.61.102.44 2.481-.566q.253-.06.513-.052c.968.033 1.76.79 1.844 1.766a1.93 1.93 0 0 1-1.514 2.061l-2.482.567.098.457 2.515-.526a1.92 1.92 0 0 1 2.318 1.658 1.933 1.933 0 0 1-1.54 2.13l-2.515.528.093.468 2.52-.477q.16-.033.323-.038a1.92 1.92 0 0 1 1.962 1.741 1.93 1.93 0 0 1-1.58 2.1l-2.52.478.13.754 2.531-.42q.16-.03.324-.03a1.923 1.923 0 0 1 1.924 1.785 1.93 1.93 0 0 1-1.627 2.064l-2.53.42.099.648 2.54-.36q.162-.025.325-.022a1.925 1.925 0 0 1 1.882 1.83 1.93 1.93 0 0 1-1.675 2.025l-2.539.359.063.512 2.554-.298q.163-.021.325-.014a1.925 1.925 0 0 1 1.836 1.875 1.93 1.93 0 0 1-1.721 1.984l-2.554.297c.04.394.083.788.12 1.183l5.18.457c-1.367-15.108-4.669-29.493-8.487-43.222m29.142 6.547c-.333.151-.781.063-1.201.317-.701.422-1.37 1.132-1.636.638-.728 1.35-1.717 1.071-2.171.753-.81.648-.902.657-1.692.312-5.54 11.585-9.184 23.176-11.247 34.575l3.555-.473-.839-.176a1.93 1.93 0 0 1-1.542-2.102 1.923 1.923 0 0 1 1.941-1.733q.192.004.38.046l2.48.52.047-.211-2.462-.601a1.93 1.93 0 0 1-1.486-2.055 1.925 1.925 0 0 1 1.815-1.765q.29-.015.57.058l2.459.6q.053-.215.11-.431l-2.44-.684a1.934 1.934 0 0 1-1.415-2.105 1.92 1.92 0 0 1 1.873-1.701c.192-.003.384.023.568.078l2.435.683.133-.455-2.413-.767a1.936 1.936 0 0 1-1.344-2.152 1.92 1.92 0 0 1 1.929-1.637q.29.006.564.098l2.41.765.13-.39-2.386-.846a1.94 1.94 0 0 1-1.289-2.1 1.92 1.92 0 0 1 1.805-1.667c.256-.013.512.027.752.116l2.386.846.175-.48-2.357-.925a1.94 1.94 0 0 1-1.219-2.143 1.92 1.92 0 0 1 1.86-1.606c.255-.004.51.044.747.142l2.358.926.18-.445-2.327-1.003a1.94 1.94 0 0 1-1.149-2.182 1.92 1.92 0 0 1 1.91-1.543 1.9 1.9 0 0 1 .743.166l2.328 1.004.152-.344-2.294-1.077a1.94 1.94 0 0 1-1.081-2.216 1.92 1.92 0 0 1 1.956-1.483 1.9 1.9 0 0 1 .738.19l2.297 1.077q1.052-2.204 2.204-4.412m60.415 8.904-.053 31.592a4.3 4.3 0 0 0 .692-.211c1.008 1.98-.027 3.121 0 4.515 0 0-2.092 1.144-4.069 1.672-.588.158-1.167.261-1.677.263-3.772.01-7.087-3.405-10.854-3.225 0 0 .724.915 1.384 2.014 3.397.469 4.722 2.501 7.554 2.501a2.3 2.3 0 0 1 .871.175l2.544-.965-.015.083c6.675-1.662 7.713 1.909 1.708 3.932-.381.128-.744.239-1.027.322 5.786.042 5.668 3.127-.72 4.216q-.931.158-1.736.235l.013.406c7.708-.317 8.125 3.353 1.012 4.193l-.348.303c6.192-.046 6.326 3.401.21 4.212l-.429.619c1.772.662 3.025 2.293 3.025 4.199 0 2.017-1.404 3.726-3.401 4.294 1.786 4.005 5.25 10.037 7.87 14.555V83.632l-.001-.064a101 101 0 0 0-2.553-1.653m-12.774 5.655c-8.132 12.049-11.782 22.408-13.308 33.113 2.145.91 4.516 1.857 6.866 2.586-1.488-.834-2.491-2.078-2.491-4.168 0-2.754 1.915-6.45 5.107-6.45 1.114 0 2.369.083 3.76.214zm-86.338 22.837-1.23 2.456 1.739.787-.469 1.033-.638-.338c-.457-.255-.823.452-.356.686l1.355.717 1.126-2.486-1.711-.774.525-1.047c.436.219.873.436 1.307.637.524.243 1.047.467 1.57.687l-.57 1.411-.868 2.151.354.147q1.152.477 2.306.886 1.204.43 2.416.776l.366.104.746-2.601-.371-.106a34 34 0 0 1-1.907-.616l.373-1.074a34 34 0 0 0 1.853.602c.589.171 1.182.315 1.775.451l-.336 1.505-.503 2.266.369.088a37 37 0 0 0 5.118.839l.38.035.255-2.696-.384-.035a33 33 0 0 1-2.083-.272l.183-1.146a32 32 0 0 0 2.01.267q.742.07 1.489.11c.117.006.24.007.359.011l-.052 1.539-.076 2.324.378.018c.782.036 1.558.042 2.332.029.83.028 1.843-.11 2.574-.123l.405-.007-.195-2.722-.383.03c-.672.051-1.341.075-2.01.09v-1.161a43 43 0 0 0 1.925-.092 41 41 0 0 0 2.182-.233l.2 1.56.289 2.305.379-.048q1.26-.158 2.529-.38a60 60 0 0 0 2.401-.47l.374-.082-.556-2.65-.376.082c-.647.141-1.286.261-1.924.376l-.203-1.167a48 48 0 0 0 1.88-.357 68 68 0 0 0 1.848-.429l.368 1.517.542 2.26.37-.09a84 84 0 0 0 4.601-1.266l.366-.112-.765-2.596-.368.113a66 66 0 0 1-1.805.521l-.308-1.133a78 78 0 0 0 3.673-1.092l1.225 3.902.729-.224-.234-.759-1.22-3.887-.365.117q-1.141.364-2.25.696c-.721.216-1.432.42-2.126.604l-.375.1.716 2.627.367-.098a66 66 0 0 0 1.825-.526l.328 1.113q-.933.282-1.85.538c-.664.184-1.319.352-1.97.513l-.361-1.504-.55-2.265-.373.093q-1.111.278-2.197.51a46 46 0 0 1-2.224.423l-.385.062.47 2.698.376-.065a56 56 0 0 0 1.953-.382l.238 1.135c-.668.141-1.334.276-1.996.391a51 51 0 0 1-2.114.318l-.192-1.53-.297-2.324-.384.054c-.846.12-1.683.206-2.517.269q-1.135.085-2.26.108l-.376.007v2.706l.388-.005a37 37 0 0 0 2.063-.092l.082 1.16c-.727.037-1.527.12-2.136.099h-.02c-.64.011-1.28-.002-1.92-.024l.051-1.547.078-2.33-.399.003c-.233.001-.47-.009-.712-.022a35 35 0 0 1-1.457-.108 30 30 0 0 1-2.336-.31l-.382-.066-.426 2.677.376.063c.708.12 1.42.205 2.135.279l-.11 1.156a36 36 0 0 1-2.204-.286 36 36 0 0 1-2.056-.413l.334-1.505.503-2.255-.38-.081c-.7-.15-1.399-.331-2.099-.534a33 33 0 0 1-2.172-.706l-.364-.133-.88 2.537.359.13c.65.234 1.3.437 1.951.63l-.32 1.115a40 40 0 0 1-2.007-.644 46 46 0 0 1-1.912-.735l.575-1.427.674-1.67a.4.4 0 0 0 .07-.306.386.386 0 0 0-.35-.337 45 45 0 0 1-3.409-1.573zm39.704.566-1.092.367.551 1.671zm13.414 21.325a115 115 0 0 0 .34 10.439c9.604 4.238 16.285 14.511 16.285 26.253 0 7.382-2.641 14.184-6.989 19.277l.278 1.149c1.365-.266 2.745-.562 4.13-.886q1.192-.279 2.387-.583c1.961-.499 3.933-1.02 5.831-1.629a40.2 40.2 0 0 0 3.94-17.328c0-16.99-10.857-32.141-26.202-36.692m5.771 3.152c1.185 0 2.322.476 3.16 1.322a4.54 4.54 0 0 1 1.309 3.193c0 1.197-.47 2.346-1.309 3.193a4.45 4.45 0 0 1-3.16 1.322 4.45 4.45 0 0 1-3.16-1.322 4.54 4.54 0 0 1-1.309-3.193c0-1.197.471-2.346 1.309-3.193a4.45 4.45 0 0 1 3.16-1.322m8.496 7.657c1.185 0 2.322.475 3.16 1.322a4.54 4.54 0 0 1 1.309 3.193 4.54 4.54 0 0 1-1.309 3.192 4.45 4.45 0 0 1-3.16 1.323 4.45 4.45 0 0 1-3.161-1.323 4.54 4.54 0 0 1-1.309-3.192 4.54 4.54 0 0 1 1.309-3.193 4.45 4.45 0 0 1 3.161-1.322m-10.536 8.619a2.85 2.85 0 0 0-1.888.748l-.372.33.448 2.176 1.197-1.061.01-.009a.95.95 0 0 1 .676-.248c.481.017.745.286.871.649.125.362.083.739-.284 1.054l-.01.009-2.012 1.783.786 3.813 3.701-1.582.012-.005a.95.95 0 0 1 1.322.679.96.96 0 0 1-.575 1.103l-.013.005-4.049 1.731.632 3.07 4.521-.515.014-.002.081-.007h.081a.95.95 0 0 1 .917.941.95.95 0 0 1-.865.989l-.014.002-4.342.494.747 3.628 3.433.634.012.002a.953.953 0 0 1 .783 1.129.943.943 0 0 1-1.127.775l-.012-.002-2.668-.493.422 2.046 1.889.348c1.56.31 3.094-.746 3.38-2.326s-.78-3.116-2.347-3.384l-3.091-.57 3.122-.356c1.492-.147 2.633-1.453 2.592-2.968s-1.25-2.755-2.748-2.821q-.245-.01-.487.021l.014-.002-2.049.233 1.893-.809c1.29-.53 2.022-1.936 1.725-3.31-.298-1.374-1.545-2.342-2.935-2.279a2.8 2.8 0 0 0-1.029.243l-2.582 1.103 2.129-1.886-.01.009c.963-.83 1.207-2.126.849-3.164-.357-1.038-1.345-1.901-2.61-1.946zm2.013 21.82-.421-2.045-.164-.03.486 2.057zm-1.168-5.673-.393-1.902-.295.033.428 1.899zm-1.025-4.972-.398-1.931-.271.116.377 1.94zm-1.184-5.744-.448-2.177-.101.09.374 2.242zm16.996-4.314c1.185 0 2.322.475 3.16 1.322a4.54 4.54 0 0 1 1.309 3.193c0 1.197-.47 2.345-1.309 3.192a4.45 4.45 0 0 1-3.16 1.323 4.45 4.45 0 0 1-3.16-1.323 4.54 4.54 0 0 1-1.309-3.192 4.54 4.54 0 0 1 1.309-3.193 4.45 4.45 0 0 1 3.16-1.322m2.132 11.327c1.185 0 2.322.475 3.16 1.322a4.54 4.54 0 0 1 1.309 3.193 4.54 4.54 0 0 1-1.309 3.192 4.45 4.45 0 0 1-3.16 1.323 4.45 4.45 0 0 1-3.161-1.323 4.54 4.54 0 0 1-1.309-3.192 4.54 4.54 0 0 1 1.309-3.193 4.45 4.45 0 0 1 3.161-1.322m-1.39 10.578c1.185 0 2.322.476 3.16 1.322a4.54 4.54 0 0 1 1.309 3.193 4.54 4.54 0 0 1-1.309 3.192 4.45 4.45 0 0 1-3.16 1.323 4.45 4.45 0 0 1-3.161-1.323 4.54 4.54 0 0 1-1.309-3.192 4.54 4.54 0 0 1 1.309-3.193 4.45 4.45 0 0 1 3.161-1.322m-4.541 9.736c.85 0 1.682.245 2.399.705a4.5 4.5 0 0 1 1.649 1.897l-8.514 2.091-.003-.178a4.54 4.54 0 0 1 1.309-3.193 4.45 4.45 0 0 1 3.16-1.322"/><path fill="currentColor" d="M99.777 26.644c-11.935.037-24.519.962-38.477 3.045l1.646 3.668c23.71-3.455 43.295-3.504 62.687-1.547l1.157-3.772c-8.84-.915-17.73-1.423-27.013-1.394m30.36 39.926c.011.245.063.55.109.869.879 6.11-.73 8.623-2.815 8.643l-5.761.098c-10.945 18.582-15.219 36.506-15.687 54.213-.503 19.065 3.521 37.933 8.854 56.771 1.705.29 2.941 1.456 3.101 3.552a61 61 0 0 0 5.672-.653c-5.906-20.271-10.481-40.023-9.968-59.464.532-20.15 6.092-40.17 22.206-61.965-1.89-.703-3.771-1.368-5.711-2.064m20.523 14.39c-10.33 13.991-15.004 25.947-16.859 38.168l3.626 1.577c1.463-10.727 5.113-21.086 13.239-33.113zm-88.393 22.032.628 4.878c6.083 3.473 11.753 5.349 17.75 5.668 7.285.389 14.713-1.417 24.005-4.603l1.063-4.465c-19.157 6.788-28.988 7.698-43.446-1.478m72.764 16.707-.145.745c-.699 6.713.38 13.735 2.505 20.729l6.473 9.78c1.323 4.279 2.752 8.593 3.273 12.602 3.119 5.768 6.429 11.229 9.426 16.152.106.174 2.492-.831 2.492-.831-5.001-8.214-10.825-17.952-15.198-27.964-4.465-10.223-7.417-20.733-6.431-30.199zm-7.339 8.269a.38.38 0 0 0-.274.111.39.39 0 0 0-.085.425.4.4 0 0 0 .211.21.4.4 0 0 0 .148.028h5.892a50 50 0 0 1-.062-.774zm-.638 1.548a.773.773 0 0 0-.767.892q.593.318 1.173.656h6.381a55 55 0 0 1-.185-1.548zm1.475 2.193a41 41 0 0 1 3.33 2.322h2.456a59 59 0 0 1-.385-2.322zm4.3 3.096a41 41 0 0 1 2.011 1.764 69 69 0 0 1-.376-1.764zm29.977 8.256a5.5 5.5 0 0 1-.247 1.548H166v-1.548zm-1.097 3.225a6 6 0 0 1-1.681 1.548H166v-1.548zm-1.104 3.225q.387.753.81 1.548H166v-1.548zm1.717 3.225q.42.768.854 1.548H166v-1.548zm1.798 3.225c.295.522.586 1.034.879 1.548H166v-1.548z"/><path stroke="currentColor" stroke-linecap="round" stroke-linejoin="round" d="M141.97 91.509c-1.93 3.682-7.411-2.714-12.02-1.276.7-2.327 2.109-2.592 3.891-2.288m8.129 3.564c2.302-3.458-5.868-5.318-6.789-10.102-.745 1.593-1.526 3.192-.091 4.5m6.88 5.602c-4.311.523-7.315-2.453-10.115-5.97 4.526.472 8.565 1.585 10.115 5.97m5.515-9.573c-2.075 3.601-7.297-3.013-11.96-1.763.793-2.297 2.257-2.503 4.025-2.128m7.935 3.89c2.437-3.36-5.651-5.551-6.381-10.369-.809 1.563-1.653 3.128-.271 4.493m6.652 5.877c-4.329.347-7.211-2.748-9.87-6.377 4.504.657 8.496 1.933 9.87 6.377m-9.75 18.357c-1.298 3.955-7.753-1.434-12.063.757.309-2.412 1.699-2.91 3.506-2.909m8.557 2.152c1.702-3.795-6.659-4.26-8.353-8.824-.474 1.697-.981 3.404.649 4.453m7.704 4.371c-4.165 1.239-7.616-1.193-10.955-4.192 4.541-.293 8.707.128 10.955 4.192m-3.889 10.018c-1.123 4.01-7.809-1.084-12.018 1.299.202-2.424 1.615-2.871 3.42-2.951m8.598 1.652c1.533-3.868-6.841-3.957-8.734-8.44-.398 1.717-.83 3.445.844 4.42m7.89 4.02c-4.107 1.425-7.661-.849-11.129-3.696 4.524-.496 8.704-.263 11.129 3.696m-1.837 7.988a78 78 0 0 1 1.704-7.95l.042-.156q.118-.433.242-.867a77 77 0 0 1 3.14-8.886q.137-.323.277-.647.216-.498.44-.998a89 89 0 0 1 3.666-7.253l.264-.467q.271-.476.55-.953c2.228-3.817 4.857-7.75 7.95-11.852l.393-.52m-24.959 33.269a88 88 0 0 0-.789 3.644m4.002-14.114a87 87 0 0 0-1.402 4.013m5.97-14.213a97 97 0 0 0-1.901 3.862m7.687-13.687a116 116 0 0 0-2.441 3.869m8.336-12.125-.99 1.311q-.569.755-1.119 1.505m-1.833 13.148a113 113 0 0 1 3.415-5.383m-8.146 14.36a92 92 0 0 1 2.358-4.763m-6.245 14.926a80 80 0 0 1 1.974-5.662m-4.363 15.741a81 81 0 0 1 1.142-5.543m-9.9.64a91 91 0 0 1 1.47-5.952c2.815-9.954 7.513-20.113 14.871-30.757l.15-.216a140 140 0 0 1 3.179-4.39l.35-.462m4.419 6.94q.648-.89 1.325-1.786l1.575-2.087m-9.039 13.114a115 115 0 0 1 3.066-4.843m-7.965 14.093a93 93 0 0 1 2.197-4.446m-6.143 14.657a83 83 0 0 1 1.784-5.107m-4.261 15.256a83 83 0 0 1 1.027-4.908m-5.712-.645a87 87 0 0 0-.574 2.629m1.33-5.623-.197.74m.882-3.13q-.126.415-.246.83m1.905-5.804a91 91 0 0 0-.896 2.564m2.196-5.91q-.204.498-.402.995m1.388-3.306q-.23.52-.453 1.04m2.816-6a100 100 0 0 0-1.366 2.78m2.953-5.768-.44.804m1.707-3.038q-.289.495-.57.99m3.508-5.759q-.864 1.33-1.671 2.65m3.423-5.276-.345.506m1.68-2.416-.363.513m3.307-4.503-.671.89q-.42.557-.831 1.112m2.632 2.91q.612-.835 1.246-1.677l1.283-1.702m-8.726 12.685q1.325-2.21 2.817-4.46m-7.88 13.991a96 96 0 0 1 2.105-4.268m-6.104 14.545a86 86 0 0 1 1.639-4.686m-4.166 14.786a86 86 0 0 1 .926-4.348m-69.08-87.054c26.768-4.159 48.767-4.166 70.394-1.813m-65.976 10.93c23.71-3.456 43.295-3.505 62.687-1.548M61.3 29.689c24.815-3.704 45.284-3.744 65.49-1.65M42.488.06c11.245 15.406 16.314 23.604 20.478 33.31M142.069.082c-11.73 17.09-14.145 23.76-16.445 31.751m-23.206-10.961c-2.429-2.232-3.96-5.367-4.095-9.907-5.128-.912-6.272-5.406-7.023-10.32-.751 4.914-1.895 9.408-7.023 10.32-.153 5.187-2.132 8.54-5.188 10.808m5.667-.407c1.508-2.097 2.602-4.633 3.083-7.55a11.5 11.5 0 0 0 3.461-2.589 11.5 11.5 0 0 0 3.461 2.589c.445 2.694 1.411 5.064 2.745 7.062m-30.035 2.11c-5.507-2.33-5.532-6.7-7.456-10.733-5.181.434-11.782-6.65-17.268-12.277m9.228 13.59c1.663 1.104 3.426 1.978 5.36 2.36.511 1.485 1.085 3.228 2.22 5.133a12.3 12.3 0 0 0 2.206 2.708m55.937-2.325c3.943-1.75 6.151-5.295 5.525-11.769 12.418-2.178 13.596-6.266 18.756-9.678m-18.381 21.945q.243-.26.474-.537c1.874-2.258 2.871-5.202 3.051-8.598 3.767-.904 6.578-2.058 8.785-3.325m-27.732 6.469c-.12 1.931-3.306 1.728-3.186-.203.242-3.863 5.343-3.59 5.098.325-.362 5.793-9.318 5.222-8.921-.57.441-6.426 9.323-5.867 10.564-15.482.033 9.696 8.915 10.27 8.552 16.702-.327 5.796-9.283 5.225-8.921-.569.245-3.915 5.339-3.537 5.098.325-.121 1.931-3.307 1.728-3.186-.203M70.992 18c.21 1.923-2.595 2.236-2.805.313-.42-3.847 4.062-4.4 4.488-.5.63 5.77-7.254 6.648-7.854.875-.665-6.407 7.154-7.287 6.665-16.966 1.61 9.554 9.431 8.69 10.165 15.09.66 5.766-7.224 6.645-7.854.875-.426-3.9 4.068-4.347 4.488-.5.21 1.923-2.595 2.236-2.805.313m30.233 86.97c-19.157 6.789-28.988 7.699-43.446-1.478m1.4 13.943c5.412 2.514 10.881 4.03 16.573 4.333 7.615.406 14.868-1.127 22.912-3.687m-40.257-9.71c6.083 3.472 11.753 5.348 17.75 5.668 7.285.388 14.713-1.418 24.005-4.604m-10.225 14.992c2.722-.564 5.458-1.293 8.248-2.144m-38.84-.549a52 52 0 0 0 7.799 2.631m10.742-14.18c-1.36-15.032-4.635-29.35-8.429-43.017m18.973 9.658c-3.91 8.583-6.818 17.17-8.84 25.675M96.05 75.618c-5.384 11.389-8.939 22.782-10.968 33.988m17.919-36.543c-6.263 12.02-10.324 24.024-12.608 35.837m15.465-35.795c-6.31 11.823-10.415 23.609-12.757 35.218m-9.015-6.353c-1.623-12.315-4.394-24.106-7.518-35.412m.627 42.67c-1.4-14.506-4.626-28.446-8.372-41.882m5.746 41.31c-1.438-14.149-4.627-27.811-8.329-41.047m61.156 121.777c-5.91-20.284-10.425-39.779-9.926-58.683.521-19.734 5.904-39.103 22.149-60.642m-16.022 119.994c-5.894-20.263-10.469-40.015-9.956-59.455.532-20.151 6.092-40.17 22.231-61.946m-18.054 6.536c-22.639 39.28-16.969 76.432-6.82 112.659m3.793-.684c-5.288-18.838-9.312-37.706-8.809-56.772.468-17.707 4.742-35.63 15.687-54.213m-1.869 35.231c5.2 3.758 13.224 7.772 24.617 12.091m2.859-44.401q.724-.996 1.484-2.003l1.841-2.442m-13.175 46.049c1.463-10.727 5.113-21.086 13.239-33.113M133.8 119.129c1.855-12.221 6.529-24.177 16.859-38.17m-20.477-14.344c7.062 2.428 13.954 5.051 20.501 8.068M-.04 83.229c9.982-6.811 31.92-14.72 48.167-15.977m70.096 79.995c7.145 4.089 12.023 12.291 12.023 21.743 0 5.503-1.653 10.582-4.445 14.673m1.287 4.605c4.348-5.093 6.989-11.895 6.989-19.278 0-11.741-6.682-22.015-16.285-26.28m26.73 42.06a43.6 43.6 0 0 0 2.963-15.78c0-18.96-12.408-35.988-29.907-40.662m22.098 58a39.75 39.75 0 0 0 3.978-17.338c0-16.99-10.857-32.141-26.192-36.677m19.964-11.599c.549 21.45 11.521 41.548 21.548 58.029m-.905-31.494c1.88 4.115 5.528 10.429 8.169 14.977M88.746 132.87c9.577 9.675 9.577-17.415 0-7.74m3.83 7.74s.64-.645.64-1.29-.64-1.29-.64-2.58.64-1.935.64-2.58-.64-1.29-.64-1.29m-15.322 7.74c-9.577 9.675-9.577-17.415 0-7.74m-3.831 7.74s-.638-.645-.638-1.29.638-1.29.638-2.58-.638-1.935-.638-2.58.638-1.29.638-1.29m5.746 2.58c-8.3-8.385 15.962-8.385 7.662 0m-7.662-3.87s.639-.645 1.277-.645c.639 0 1.277.645 2.554.645s1.915-.645 2.554-.645 1.277.645 1.277.645m-7.662 6.45c-8.3 8.385 15.962 8.385 7.662 0m-7.662 3.87s.639.645 1.277.645c.639 0 1.277-.645 2.554-.645s1.915.645 2.554.645 1.277-.645 1.277-.645m-11.11-10.32h1.801m-1.801 10.32h1.801M63.88 123.84h7.774m-7.796 2.58h6.518M63.788 129h6.283m-6.398 2.58h6.702m-6.89 2.58h8.168m73.916-13.769c-.638-.645-1.569-3.704 1.916-3.87m0 0c3.767-.18 7.082 3.235 10.853 3.225 2.222-.006 5.747-1.935 5.747-1.935-.027-1.394 1.008-2.535 0-4.515-3.193 1.29-11.87-.645-17.239-.645-3.192 0-5.108 3.697-5.108 6.45 0 5.805 7.733 5.083 8.104 2.183.196-1.538-2.357-4.763-2.357-4.763m-2.964 6.703c-2.404 9.869.674 15.275 9.003 16.406m1.038-14.107c-3.777-.19-3.247-1.262-3.247-1.262.283 3.828-1.124 6.089-3.192 7.74m.758-13.454c3.385.458 4.709 2.489 7.542 2.489.303 0 .596.063.871.175m-.719 3.739c-2.553-.517-1.734-3.119 2.14-4.311 7.653-2.355 9.139 1.493 2.816 3.622q-.571.192-1.09.333m-9.764-11.719V23.641l6.384-6.45m0 0 6.385 6.45v89.854m-6.385-96.304s-1.915 7.74-1.915 9.03.639 4.515.639 5.805-.639 3.87-.639 5.805 1.915 5.805 1.915 8.385-2.553 6.45-2.553 8.385 1.915 9.03 1.915 11.61-2.554 7.74-2.554 9.675 1.916 7.095 1.916 9.03-1.916 9.03-1.916 10.965 2.554 5.805 2.554 7.095-1.915 3.87-1.915 5.805c0 1.39.329 3.445.515 4.493m-26.473 75.903-.003-.178c0-1.197.471-2.346 1.309-3.193a4.435 4.435 0 0 1 5.559-.616 4.5 4.5 0 0 1 1.649 1.896m21.835-73.485c-.197-.873-.702-3.237-.763-4.789-.077-1.933 1.735-4.592 1.684-5.88s-2.756-5.048-2.833-6.981c-.076-1.933 1.557-9.103 1.481-11.037-.077-1.933-2.195-7.007-2.271-8.94-.077-1.934 2.271-7.198 2.169-9.775s-2.297-9.586-2.373-11.52c-.077-1.932 2.322-5.907 2.22-8.485s-2.169-6.363-2.245-8.296c-.077-1.934.459-4.538.408-5.827-.051-1.29-.816-4.484-.868-5.773-.051-1.29 1.557-9.103 1.557-9.103m1.193 96.38c-.192-.878-.68-3.242-.731-4.792-.064-1.934 1.765-4.577 1.723-5.866-.043-1.289-2.723-5.071-2.786-7.005s1.617-9.09 1.553-11.024-2.148-7.026-2.212-8.96 2.319-7.177 2.234-9.756c-.085-2.578-2.234-9.605-2.297-11.539s2.361-5.888 2.276-8.466c-.085-2.579-2.127-6.382-2.191-8.316s.49-4.534.447-5.823-.787-4.491-.829-5.78c-.043-1.29 1.616-9.09 1.616-9.09m6.385 64.757q1.291.81 2.553 1.653m-8.376 30.013c-.187-.884-.657-3.243-.698-4.79-.051-1.934 1.796-4.565 1.762-5.854-.034-1.29-2.689-5.09-2.74-7.024s1.676-9.078 1.625-11.013c-.051-1.934-2.102-7.04-2.153-8.975s2.366-7.16 2.298-9.74-2.17-9.62-2.221-11.554 2.399-5.872 2.331-8.451-2.085-6.396-2.136-8.33.519-4.531.485-5.82-.757-4.497-.791-5.786c-.034-1.29 1.676-9.079 1.676-9.079m-9.924 146.39c3.169 5.861 6.536 11.405 9.57 16.388m-19.316-38.769c-2.125-6.995-3.204-14.017-2.505-20.73l.145-.744m-71.27-86.432C53.214 53.038 60.375 54.56 56.184 64.5c-1.906 4.52-6.385 2.58-5.254-.545 1.642-4.54 4.615-2.68 3.977-.1-.261 1.055-1.892 1.672-2.554 1.29m13.465-32.151C55.03 53.009 61.957 54.369 58.1 64.5c-3.192 8.385-8.285 2.58-7.154-.545m16.934-31.23c-10.997 20.272-3.99 21.6-7.865 31.775-3.192 8.385-14.185 8.707-11.492 0 3.192-10.32 9.2-7.541 8.562-3.026M69.93 32.479c-11.189 20.508-4.11 21.804-8 32.021-1.37 3.6-4.102 5.344-6.561 5.47m16.609-37.734C60.6 52.976 67.75 54.243 63.846 64.5c-1.358 3.569-4.071 5.1-6.532 5.011M74.012 32.02c-11.545 20.948-4.332 22.187-8.25 32.48-1.184 3.11-3.542 4.37-5.903 4.281m16.187-36.976C64.333 52.96 71.61 54.172 67.676 64.5c-1.062 2.792-2.97 3.865-4.941 3.733m15.33-36.614c-11.86 21.334-4.53 22.523-8.473 32.881-1.062 2.79-2.87 3.671-4.71 3.285m15.201-36.351c-12.005 21.512-4.62 22.678-8.575 33.066-.95 2.493-2.547 3.322-4.253 3.026m14.83-36.246c-12.126 21.66-4.698 22.808-8.662 33.22-.892 2.343-2.368 3.055-3.972 2.675m14.635-36.049C71.839 52.935 79.312 54.063 75.338 64.5c-.839 2.204-2.255 2.758-3.84 2.219M86.07 31.005C73.727 52.931 81.235 54.044 77.254 64.5c-.72 1.889-1.902 2.438-3.273 2.055m14.072-35.671C75.614 52.927 83.158 54.024 79.17 64.5c-.72 1.894-1.91 2.347-3.29 1.814m14.13-35.502C77.513 52.924 85.077 54.013 81.085 64.5c-.585 1.537-1.577 1.957-2.79 1.565m13.643-.275s-.638 10.965-5.107 10.965-4.47-7.095-.639-7.095 2.554 4.515 0 4.515c-1.277 0-.828-1.876.639-1.935m6.783-5.724c-.638 5.805-1.576 12.578-5.252 9.823m6.928-9.097c-.384 5.388-.68 10.35-3.669 8.762m5.345-8.037c-.638 4.515-.156 9.092-2.906 7.563m4.582-6.837c-.638 4.515.213 7.678-2.538 6.148m4.214-5.423c-.455 3.467.471 6.644-2.28 5.115m3.956-4.389c-.479 2.741.16 4.676-1.988 3.843m3.664-3.117c-1.045 2.922-.239 2.299-2.036 2.385m1.327-.173c2.043.126 1.799-.732 2.385-1.487 1.221 6.106 8.555 1.451 7.354-1.935.635 2.995 1.114 6.453 3.369 4.648M84.277 60.264c.15 2.341-.723 6.98-4.87 5.941 6.24 3.604 7.166-1.929 6.402-4.836m1.532 1.105c.526 3.028-.836 8.904-5.947 4.613m7.48-3.507c-.128 1.565-.505 7.472-3.687 4.936m5.22-3.831c0 2.301-1.556 9.279-3.07 9.206m33.971-7.167c.367 10.031 10.909 14.417 8.938.715-1.37-9.528-8.081-5.634-6.695.816.769 3.578 5.396 6.446 4.842.8-.61-6.216-2.8-4.569-2.715-2.762.099 2.077.615 2.592 1.54 3.25m-7.632-2.232c1.213 6.509 2.905 10.349 7.468 8.8m-9.189-8.212c1.096 7.23 2.539 8.906 5.892 8.317m-7.614-7.73c.658 4.704.054 7.515 4.352 7.237m-6.073-6.65c.441 3.342.772 5.507 3.055 5.747m7.661-43.215s1.277 3.87 1.277 5.16-.638 2.978-.638 3.587c0 .61.457 8.028.343 9.313-.287 3.232-2.41 12.94-2.723 16.165m2.38-34.225c0 2.58 7.706 5.519 7.865 10.32.276 8.339-5.384 4.874-7.691 2.369m.116-9.464s5.262 4.523 5.456 7.095c.324 4.29-3.913 2.308-5.655 1.201m.547-5.342s2.983 1.468 3.193 3.496c.326 3.161-2.418 1.935-3.76 1.13m.253-3.34c.953.275 1.591 2.21 1.591 2.21.124 1.386-.969.622-1.863.21m.141 2.824c.168 4.716 8.745 7.931 8.745 13.736 0 8.445-5.886 5.405-6.077 4.84m-2.5-13.86c.277 1.65 6.662 5.795 6.662 9.665 0 5.143-4.137 4.618-4.469 3.87m-2.449-10.859c0 1.29 5.003 4.41 5.003 6.99 0 3.517-3.506 3.132-4.14 3.033m-1.24-7.522c.272 1.263 3.464 2.553 3.464 4.812 0 3.562-4.46 1.122-4.469.966m.638-3.87c.546.86 1.642 1.29 1.637 2.58-.01 2.485-2.053.714-2.17.142m-10.959-24.652.639-.645c.638 1.29 1.16 1.536 1.915 1.596.636.051 3.192-1.596 4.469-1.596s4.469 1.935 4.469 1.935-3.83-1.29-4.469-1.29c-.638 0-3.192 1.29-4.469 1.29s-2.554-1.29-2.554-1.29m0 0v2.58c0 .68-.638 1.29-.638 1.935s3.83 12.9 3.83 13.545-1.915 2.58-2.553 2.58c-1.277 0-1.985-1.776-3-1.776s-2.747 1.12-3.385 1.131c-2.106.036-2.036-3.19 0-3.225.638-.01 1.277.645 1.277.645m-5.108 11.338-.638.556v-.929zm0 0c1.277.272 2.823-1.699 4.417-1.699s1.215.681 2.492.681 1.277-1.02 2.554-1.02 2.03 1.665 3.306 1.665m0 0 .639.346v-.99zm-9.576 3.87c3.88 2.041 6.384-1.29 6.384-2.58M88.999 75.681a147 147 0 0 0-3.904 9.63m.015-.02c-1.321-6.33-2.862-12.498-4.504-18.51M86.192 129c0-.684-.336-1.34-.935-1.824-.598-.484-1.41-.756-2.257-.756s-1.659.272-2.257.756-.935 1.14-.935 1.824.336 1.341.935 1.825c.598.483 1.41.755 2.257.755s1.659-.272 2.257-.755c.599-.484.935-1.141.935-1.825m70.939-4.164c9.016-1.322 10.13 2.689 2.653 3.963-9.06 1.545-9.115-3.016-2.653-3.963m-.509 4.703c9.071-.858 9.983 3.204 2.451 4.095-9.126 1.078-8.951-3.479-2.451-4.095m.129 4.515c8.081-.858 8.893 3.204 2.183 4.095-8.129 1.078-7.974-3.479-2.183-4.095m4.78 8.912c0 1.197-.505 2.346-1.403 3.193a4.94 4.94 0 0 1-3.386 1.322 4.94 4.94 0 0 1-3.386-1.322 4.4 4.4 0 0 1-1.402-3.193 4.4 4.4 0 0 1 1.402-3.193 4.94 4.94 0 0 1 3.386-1.322c1.27 0 2.488.476 3.386 1.322s1.403 1.996 1.403 3.193m-33.839-3.001a4.54 4.54 0 0 1-1.309 3.193 4.45 4.45 0 0 1-3.16 1.322 4.45 4.45 0 0 1-3.16-1.322 4.54 4.54 0 0 1-1.309-3.193c0-1.197.471-2.346 1.309-3.192a4.45 4.45 0 0 1 3.16-1.323c1.185 0 2.322.476 3.16 1.323a4.54 4.54 0 0 1 1.309 3.192m8.496 7.657a4.54 4.54 0 0 1-1.309 3.192 4.43 4.43 0 0 1-4.871.979 4.5 4.5 0 0 1-1.45-.979 4.55 4.55 0 0 1 0-6.385 4.46 4.46 0 0 1 3.161-1.322c1.185 0 2.322.476 3.16 1.322a4.54 4.54 0 0 1 1.309 3.193m5.096 9.736a4.54 4.54 0 0 1-1.309 3.192 4.45 4.45 0 0 1-3.16 1.323 4.45 4.45 0 0 1-3.16-1.323 4.54 4.54 0 0 1-1.309-3.192 4.54 4.54 0 0 1 1.309-3.193 4.45 4.45 0 0 1 3.16-1.322c1.185 0 2.322.475 3.16 1.322a4.54 4.54 0 0 1 1.309 3.193m2.132 11.327a4.54 4.54 0 0 1-1.309 3.192 4.45 4.45 0 0 1-3.161 1.323 4.45 4.45 0 0 1-3.16-1.323 4.54 4.54 0 0 1-1.309-3.192 4.54 4.54 0 0 1 1.309-3.193 4.45 4.45 0 0 1 3.16-1.322c1.186 0 2.322.476 3.161 1.322a4.54 4.54 0 0 1 1.309 3.193m-1.39 10.578a4.54 4.54 0 0 1-1.309 3.193 4.45 4.45 0 0 1-3.161 1.322 4.45 4.45 0 0 1-3.16-1.322 4.54 4.54 0 0 1-1.309-3.193c0-1.197.471-2.346 1.309-3.192a4.45 4.45 0 0 1 3.16-1.323c1.186 0 2.322.476 3.161 1.323a4.54 4.54 0 0 1 1.309 3.192M91.3 38.055s5.746-4.515 8.3-4.515 7.023 1.29 7.662 1.29c1.276 0 1.276-1.29 1.276-1.29l.639.645s-1.012 1.29-1.915 1.29c-.904 0-5.747-1.29-7.662-1.29-1.634 0-8.3 3.87-8.3 3.87m18.515 18.06c-7.023.328-7.731 3.215-12.769 4.149-3.264.605-3.424-4.539-1.277-4.794 1.268-.15 1.277 2.236 1.277 2.236.037.006 1.277-3.182-1.277-3.102-3.19.1-3.201 6.762.77 6.618 3.497-.127 7.53-3.817 13.276-3.817zm3.831 0v1.29c2.554 0 4.563 2.56 6.385 2.58 2.988.034 5.337-5.482 1.863-5.389-1.277.035-1.863 1.52-1.863 1.52s.923-.995 1.921-1.026c2.029-.063-.179 4.225-1.921 4.25-1.264.018-3.831-3.225-6.385-3.225m-21.07-14.19c3.193 0 5.308-3.658 8.563-3.658 3.831 0 4.846 3.013 6.123 3.013-1.277 0-4.709 1.553-6.438 1.512-1.914-.046-6.332-.867-8.247-.867m21.254-1.061c3.192 0 2.783-2.223 6.039-2.26 3.274-.037 4.176 2.26 5.453 2.26-1.277 0-3.687 2.043-5.416 2.002-1.915-.046-4.161-2.002-6.076-2.002"/><path stroke="currentColor" stroke-linecap="round" stroke-linejoin="round" stroke-width=".5" d="M154.835 120.837c.054.918.379 1.312.836 1.464m-.525 3.25c.456 1.121 1.176 2.268 0 3.225m-.639 1.233c.456 1.121 1.176 2.268 0 3.225m.065 1.607c.456 1.121 1.176 2.268 0 3.225m4.405-11.87c.355.824.151 1.366 0 1.935m.95-6.503c.355.825.151 1.367 0 1.935m-1.31 7.035c.354.824.151 1.366 0 1.935m-.197 2.698c.355.825.151 1.367 0 1.935m-1.734-15.355c.456 1.121 1.176 2.268 0 3.225m1.652-25.51V18.481m0 88.929v6.223m1.277.062v-9.735m0-1.791V19.771m2.554 93.894V22.351m-1.277 91.383V21.061m-3.827 20.698V17.195m0 42.57v-8.953m0 21.294V96.39m-1.28-68.108V24.02M92.577 41.925c.84.14 4.47-5.805 7.661-5.805 3.193 0 4.47 1.29 5.108 2.58m-10.15 4.236c1.368 1.094 2.683 2.192 4.437 2.174 2.352-.024 4.703-.986 5.83-2.33m8.367-1.916c1.277 0 3.83-3.87 5.746-3.87 1.915 0 3.831 1.29 4.469 1.935m0 3.87c-1.958 1.564-4.33 1.67-7.023.645m-13.006-4.493q.105.42.106.885c0 1.603-1.001 2.902-2.235 2.902s-2.235-1.299-2.235-2.902c0-.524.107-1.015.294-1.439m21.967.572c.139.379.217.803.217 1.25 0 1.603-1.001 2.902-2.235 2.902s-2.235-1.3-2.235-2.902c0-.407.065-.794.181-1.145"/></svg>
