<svg xmlns="http://www.w3.org/2000/svg" width="144" height="240" fill="none"><path stroke="currentColor" stroke-linecap="round" stroke-linejoin="round" d="M123.155 85.124c-1.675 3.426-6.429-2.524-10.427-1.186.607-2.165 1.83-2.412 3.375-2.13m7.052 3.316c1.996-3.216-5.09-4.947-5.889-9.397-.647 1.483-1.324 2.97-.08 4.186m5.969 5.211c-3.74.487-6.345-2.281-8.775-5.554 3.927.44 7.431 1.475 8.775 5.554m4.784-8.905c-1.801 3.35-6.33-2.802-10.375-1.64.688-2.136 1.958-2.328 3.492-1.979m6.883 3.62c2.114-3.128-4.903-5.165-5.536-9.647-.701 1.453-1.433 2.91-.234 4.18m5.77 5.466c-3.755.324-6.256-2.556-8.562-5.931 3.907.61 7.37 1.797 8.562 5.931m-8.458 17.077c-1.126 3.679-6.726-1.335-10.464.704.268-2.244 1.474-2.707 3.041-2.706m7.423 2.002c1.477-3.53-5.776-3.964-7.246-8.209-.411 1.578-.851 3.166.563 4.143m6.683 4.066c-3.613 1.152-6.606-1.11-9.503-3.9 3.939-.272 7.553.12 9.503 3.9m-3.374 9.319c-.974 3.73-6.774-1.009-10.424 1.208.175-2.255 1.4-2.67 2.966-2.745m7.458 1.537c1.33-3.599-5.934-3.681-7.576-7.851-.345 1.596-.72 3.204.732 4.111m6.844 3.74c-3.562 1.325-6.645-.79-9.654-3.438 3.925-.462 7.551-.245 9.654 3.438m-1.593 7.43a77 77 0 0 1 1.478-7.395l.036-.145q.103-.403.21-.806a75 75 0 0 1 2.965-8.869q.186-.463.381-.928a85 85 0 0 1 3.181-6.747q.113-.218.229-.434.234-.442.476-.887c1.933-3.55 4.214-7.21 6.897-11.025l.341-.484m-21.651 30.948a88 88 0 0 0-.685 3.391m3.472-13.13a86 86 0 0 0-1.217 3.732m5.179-13.22a96 96 0 0 0-1.649 3.592m6.669-12.732a110 110 0 0 0-2.118 3.598m7.231-11.279-.858 1.22q-.494.703-.971 1.4m-1.59 12.231a106 106 0 0 1 2.962-5.007m-7.067 13.358a88 88 0 0 1 2.047-4.431m-5.418 13.885a78 78 0 0 1 1.713-5.268m-3.786 14.644q.408-2.576.991-5.157m-8.588.596q.529-2.681 1.234-5.38l.042-.157c2.442-9.26 6.517-18.71 12.9-28.611l.13-.201a130 130 0 0 1 2.757-4.083l.304-.431m3.833 6.457q.563-.828 1.15-1.663l1.366-1.941m-7.841 12.2a108 108 0 0 1 2.659-4.506m-6.909 13.11a90 90 0 0 1 1.906-4.136m-5.329 13.635q.689-2.362 1.547-4.75m-3.695 14.19q.377-2.28.89-4.565m-4.955-.6a91 91 0 0 0-.498 2.445m1.155-5.23q-.088.343-.172.688m.765-2.912q-.108.386-.213.773m1.652-5.399a85 85 0 0 0-.776 2.385m1.905-5.499q-.178.464-.35.927m1.205-3.076q-.201.485-.393.969m2.442-5.583a98 98 0 0 0-1.184 2.586m2.561-5.365q-.194.376-.381.748m1.48-2.826a90 90 0 0 0-.494.921m3.043-5.358q-.75 1.238-1.45 2.466m2.97-4.908-.299.47m1.456-2.247-.315.477m2.869-4.189-.582.828q-.365.518-.72 1.034m2.283 2.708q.53-.777 1.08-1.56l1.114-1.583m-7.57 11.8q1.15-2.057 2.444-4.149m-6.836 13.015a92 92 0 0 1 1.826-3.97m-5.295 13.53q.641-2.17 1.422-4.36m-3.614 13.755q.349-2.019.803-4.045M50.772 22.55c23.22-3.869 42.303-3.876 61.064-1.687M54.603 31.03c20.568-3.215 37.558-3.26 54.38-1.44m-55.807-1.973c21.526-3.445 39.283-3.482 56.811-1.535M36.857.056c9.755 14.331 14.152 21.956 17.764 30.985M123.241.076c-10.176 15.897-12.271 22.102-14.266 29.536m-20.13-10.196c-2.107-2.077-3.436-4.993-3.553-9.216-4.448-.849-5.44-5.029-6.092-9.6-.652 4.571-1.644 8.751-6.092 9.6-.133 4.825-1.85 7.945-4.5 10.054m4.916-.379c1.308-1.95 2.256-4.31 2.673-7.023a10 10 0 0 0 3.003-2.408 10 10 0 0 0 3.003 2.407c.385 2.507 1.224 4.711 2.38 6.57M58.53 21.384c-4.777-2.168-4.798-6.233-6.467-9.984-4.495.404-10.22-6.187-14.98-11.42m8.005 12.641c1.442 1.027 2.971 1.84 4.649 2.195.444 1.382.941 3.003 1.926 4.775a11.4 11.4 0 0 0 1.914 2.52m48.523-2.163c3.421-1.628 5.336-4.926 4.793-10.948 10.772-2.026 11.795-5.83 16.271-9.003M107.218 20.41q.21-.24.411-.5c1.626-2.1 2.49-4.839 2.646-7.998 3.268-.84 5.707-1.914 7.621-3.093M93.84 14.838c-.105 1.796-2.869 1.607-2.764-.19.21-3.592 4.634-3.34 4.422.303-.314 5.39-8.083 4.858-7.739-.529.383-5.978 8.088-5.459 9.164-14.403.03 9.02 7.734 9.554 7.419 15.537-.284 5.391-8.053 4.86-7.739-.53.213-3.642 4.632-3.29 4.422.303-.104 1.797-2.868 1.608-2.763-.189m-36.678 1.604c.182 1.79-2.251 2.08-2.434.29-.364-3.578 3.524-4.092 3.894-.465.546 5.368-6.293 6.185-6.813.815-.577-5.96 6.205-6.778 5.78-15.782 1.398 8.887 8.182 8.084 8.818 14.037.574 5.364-6.266 6.182-6.812.814-.37-3.627 3.528-4.043 3.893-.465.182 1.789-2.251 2.08-2.433.29m26.226 80.903c-16.619 6.315-25.147 7.162-37.688-1.375m1.214 12.971c4.695 2.338 9.44 3.748 14.377 4.03 6.606.378 12.898-1.049 19.876-3.429m-34.922-9.033c5.277 3.23 10.195 4.975 15.397 5.272 6.32.361 12.763-1.319 20.824-4.282m-8.87 13.946c2.361-.525 4.734-1.203 7.155-1.995m-33.693-.511a43 43 0 0 0 6.765 2.448m9.32-13.19c-1.18-13.984-4.022-27.302-7.313-40.016M80.604 71a136.7 136.7 0 0 0-7.67 23.883m10.387-24.542c-4.67 10.594-7.753 21.192-9.514 31.617m15.544-33.993c-5.433 11.18-8.956 22.347-10.936 33.336M91.83 68.005c-5.474 10.997-9.035 21.961-11.067 32.76m-7.82-5.91c-1.408-11.455-3.812-22.424-6.522-32.94m.544 39.692c-1.214-13.494-4.012-26.461-7.263-38.96m4.985 38.428c-1.247-13.162-4.013-25.87-7.225-38.183m53.051 113.281c-5.127-18.869-9.043-37.004-8.61-54.589.452-18.357 5.121-36.375 19.213-56.411m-13.899 111.622c-5.112-18.849-9.08-37.223-8.636-55.307.462-18.745 5.284-37.368 19.285-57.624m-15.662 6.08c-19.638 36.54-14.72 71.099-5.915 104.799m3.29-.637c-4.587-17.523-8.078-35.075-7.642-52.81.406-16.472 4.113-33.145 13.608-50.43m-1.621 32.772c4.511 3.495 11.471 7.229 21.354 11.248m2.481-41.304q.627-.927 1.287-1.863l1.597-2.271m-11.429 42.836c1.269-9.979 4.435-19.615 11.485-30.803m-14.631 29.336c1.61-11.368 5.664-22.49 14.625-35.506M112.93 61.967c6.126 2.26 12.104 4.7 17.784 7.505M-.034 77.422C8.625 71.086 27.654 63.73 41.749 62.56m60.806 74.413c6.198 3.805 10.43 11.435 10.43 20.227 0 5.119-1.435 9.844-3.856 13.649m1.116 4.284c3.772-4.738 6.063-11.066 6.063-17.933 0-10.922-5.796-20.479-14.127-24.447m23.188 39.126a43.1 43.1 0 0 0 2.57-14.679c0-17.638-10.764-33.478-25.944-37.825m19.17 53.953c2.212-4.892 3.45-10.397 3.45-16.128 0-15.805-9.417-29.899-22.72-34.118m17.318-10.79c.476 19.953 9.994 38.649 18.693 53.981m-.786-29.298c1.631 3.829 4.796 9.702 7.087 13.933M76.985 123.6c8.307 9 8.307-16.2 0-7.2m3.323 7.2s.554-.6.554-1.2-.554-1.2-.554-2.4.554-1.8.554-2.4-.554-1.2-.554-1.2m-13.293 7.2c-8.307 9-8.307-16.2 0-7.2m-3.323 7.2s-.553-.6-.553-1.2.553-1.2.553-2.4-.553-1.8-.553-2.4.553-1.2.553-1.2m4.985 2.4c-7.2-7.8 13.846-7.8 6.646 0m-6.646-3.6s.554-.6 1.108-.6c.553 0 1.107.6 2.215.6s1.662-.6 2.216-.6c.553 0 1.107.6 1.107.6m-6.646 6c-7.2 7.8 13.846 7.8 6.646 0m-6.646 3.6s.554.6 1.108.6c.553 0 1.107-.6 2.215-.6s1.662.6 2.216.6c.553 0 1.107-.6 1.107-.6m-9.637-9.6h1.563m-1.563 9.6h1.563m-11.835-9.6h6.743m-6.763 2.4h5.654m-5.714 2.4h5.45m-5.55 2.4h5.814m-5.977 2.4h7.086m64.12-12.809c-.554-.6-1.362-3.445 1.662-3.6m0 0c3.267-.167 6.144 3.01 9.415 3 1.927-.005 4.985-1.8 4.985-1.8-.024-1.296.874-2.358 0-4.2-2.77 1.2-10.297-.6-14.954-.6-2.77 0-4.431 3.439-4.431 6 0 5.4 6.708 4.729 7.029 2.031.171-1.431-2.044-4.431-2.044-4.431m-2.571 6.235c-2.086 9.182.585 14.21 7.809 15.262m.901-13.123c-3.277-.176-2.816-1.174-2.816-1.174.245 3.561-.976 5.665-2.77 7.2m.658-12.515c2.936.426 4.085 2.315 6.542 2.315.263 0 .518.059.756.163m-.623 3.478c-2.215-.48-1.505-2.901 1.855-4.01 6.639-2.19 7.929 1.389 2.443 3.369q-.495.18-.945.31M130.708 105V21.991l5.538-6m0 0 5.539 6v83.585m-5.539-89.585s-1.661 7.2-1.661 8.4.554 4.2.554 5.4-.554 3.6-.554 5.4 1.661 5.4 1.661 7.8-2.215 6-2.215 7.8 1.661 8.4 1.661 10.8-2.215 7.2-2.215 9 1.662 6.6 1.662 8.4-1.662 8.4-1.662 10.2 2.215 5.4 2.215 6.6-1.661 3.6-1.661 5.4c0 1.293.286 3.205.447 4.18m-22.965 70.608-.003-.166c0-1.114.409-2.182 1.136-2.97s1.713-1.23 2.741-1.23c.738 0 1.46.228 2.082.656a4.1 4.1 0 0 1 1.43 1.764m18.941-68.357c-.171-.813-.609-3.012-.662-4.455-.066-1.799 1.505-4.272 1.461-5.47-.044-1.2-2.391-4.696-2.457-6.495-.066-1.798 1.35-8.468 1.284-10.266s-1.904-6.519-1.97-8.317 1.97-6.695 1.882-9.093-1.992-8.917-2.059-10.715c-.066-1.799 2.015-5.496 1.926-7.894-.088-2.398-1.881-5.92-1.948-7.718s.399-4.221.355-5.42-.709-4.171-.753-5.37c-.044-1.2 1.35-8.468 1.35-8.468m1.035 89.656c-.166-.817-.59-3.016-.634-4.458-.055-1.799 1.532-4.257 1.495-5.457-.037-1.199-2.362-4.717-2.417-6.516-.056-1.799 1.402-8.455 1.347-10.254-.055-1.8-1.864-6.537-1.919-8.336s2.012-6.676 1.938-9.075-1.937-8.935-1.993-10.734c-.055-1.799 2.049-5.477 1.975-7.875-.074-2.399-1.845-5.937-1.9-7.736-.056-1.8.424-4.218.387-5.417-.037-1.2-.682-4.178-.719-5.377-.037-1.2 1.402-8.455 1.402-8.455m5.539 60.239a86 86 0 0 1 2.214 1.538m-7.265 27.919c-.163-.823-.571-3.017-.606-4.456-.044-1.8 1.558-4.246 1.528-5.446s-2.333-4.734-2.377-6.534 1.454-8.445 1.41-10.244c-.044-1.8-1.823-6.55-1.868-8.349-.044-1.8 2.053-6.662 1.994-9.06-.06-2.4-1.883-8.95-1.927-10.749s2.082-5.462 2.023-7.861c-.06-2.4-1.809-5.95-1.853-7.75s.45-4.214.42-5.413c-.029-1.2-.657-4.183-.686-5.383s1.454-8.445 1.454-8.445m-8.609 136.177c2.749 5.452 5.67 10.609 8.301 15.245m-16.755-36.065c-1.843-6.507-2.78-13.039-2.173-19.283l.125-.693m-61.825-80.4C46.163 49.336 52.374 50.752 48.74 60c-1.653 4.204-5.539 2.4-4.558-.507 1.425-4.223 4.004-2.493 3.45-.093-.227.981-1.64 1.555-2.216 1.2m11.681-29.908C47.736 49.31 53.746 50.576 50.4 60c-2.77 7.8-7.187 2.4-6.206-.507m14.69-29.05C49.344 49.3 55.422 50.533 52.062 60c-2.77 7.8-12.306 8.099-9.97 0 2.77-9.6 7.982-7.015 7.428-2.815m11.142-26.973C50.956 49.29 57.097 50.497 53.723 60c-1.189 3.35-3.56 4.97-5.692 5.089m14.407-35.102C52.57 49.28 58.772 50.459 55.385 60c-1.179 3.32-3.532 4.744-5.666 4.661m14.484-34.876C54.188 49.272 60.445 50.425 57.046 60c-1.026 2.892-3.072 4.064-5.12 3.982m14.042-34.396C55.807 49.265 62.118 50.393 58.708 60c-.922 2.597-2.577 3.595-4.288 3.472m13.299-34.06C57.43 49.259 63.79 50.366 60.369 60c-.921 2.595-2.489 3.415-4.085 3.056M69.47 29.24C59.056 49.252 65.462 50.337 62.03 60c-.822 2.32-2.209 3.09-3.688 2.815m12.864-33.718C60.687 49.247 67.13 50.314 63.692 60c-.773 2.18-2.053 2.842-3.446 2.488m12.696-33.534C62.318 49.242 68.801 50.291 65.354 60c-.728 2.05-1.957 2.566-3.33 2.064m12.639-33.222C63.956 49.238 70.469 50.273 67.016 60c-.624 1.757-1.65 2.267-2.84 1.911M76.385 28.73C65.594 49.234 72.137 50.255 68.677 60c-.626 1.762-1.658 2.184-2.854 1.687M78.08 28.662C67.24 49.232 73.802 50.245 70.338 60c-.507 1.43-1.367 1.82-2.419 1.455m11.835-.255s-.554 10.2-4.43 10.2c-3.878 0-3.878-6.6-.555-6.6s2.216 4.2 0 4.2c-1.107 0-.718-1.746.554-1.8m5.885-5.325c-.554 5.4-1.368 11.7-4.556 9.138m6.01-8.463c-.333 5.013-.59 9.628-3.183 8.151m4.636-7.476c-.553 4.2-.135 8.458-2.52 7.035m3.974-6.36c-.553 4.2.185 7.142-2.201 5.72m3.655-5.045c-.395 3.225.409 6.18-1.977 4.758m3.431-4.083c-.415 2.55.138 4.35-1.724 3.575m3.178-2.9c-.907 2.718-.208 2.139-1.767 2.219m1.152-.161c1.772.117 1.56-.68 2.069-1.383 1.06 5.68 7.42 1.35 6.38-1.8.55 2.786.965 6.003 2.921 4.323M73.108 56.06c.13 2.178-.627 6.493-4.224 5.527 5.413 3.353 6.216-1.794 5.553-4.499m1.33 1.028c.455 2.817-.726 8.283-5.16 4.291m6.489-3.262c-.111 1.456-.438 6.95-3.199 4.592m4.528-3.564c0 2.14-1.35 8.631-2.663 8.564m29.469-6.667c.318 9.331 9.464 13.411 7.754.665-1.189-8.863-7.01-5.24-5.808.759.667 3.328 4.681 5.996 4.2.743-.529-5.781-2.429-4.249-2.355-2.568.086 1.932.534 2.41 1.336 3.023m-6.62-2.076c1.052 6.054 2.52 9.627 6.477 8.185m-7.971-7.639c.951 6.727 2.203 8.286 5.111 7.737m-6.604-7.19c.571 4.376.046 6.99 3.775 6.732m-5.268-6.186c.383 3.108.67 5.122 2.65 5.346m6.646-40.2s1.108 3.6 1.108 4.8-.554 2.77-.554 3.337c0 .566.396 7.468.297 8.663-.248 3.006-2.091 12.037-2.361 15.037m2.064-31.837c0 2.4 6.684 5.134 6.822 9.6.24 7.757-4.67 4.534-6.671 2.203m.101-8.803s4.564 4.207 4.732 6.6c.281 3.991-3.394 2.147-4.905 1.117m.475-4.97s2.587 1.366 2.769 3.253c.283 2.94-2.097 1.8-3.261 1.05m.219-3.105c.826.255 1.38 2.055 1.38 2.055.107 1.29-.841.578-1.616.194m.122 2.628c.146 4.387 7.587 7.378 7.587 12.778 0 7.855-5.107 5.028-5.272 4.502m-2.169-12.893c.241 1.535 5.779 5.391 5.779 8.991 0 4.784-3.589 4.296-3.877 3.6m-2.124-10.102c0 1.2 4.34 4.102 4.34 6.502 0 3.273-3.042 2.914-3.591 2.822m-1.076-6.997c.236 1.175 3.005 2.375 3.005 4.477 0 3.313-3.869 1.043-3.877.898m.554-3.6c.473.8 1.424 1.2 1.42 2.4-.009 2.312-1.781.664-1.883.132M98.585 31.8l.553-.6c.554 1.2 1.007 1.429 1.662 1.485.552.047 2.769-1.485 3.877-1.485s3.877 1.8 3.877 1.8-3.323-1.2-3.877-1.2-2.769 1.2-3.877 1.2-2.215-1.2-2.215-1.2m0 0v2.4c0 .633-.554 1.2-.554 1.8s3.323 12 3.323 12.6-1.662 2.4-2.216 2.4c-1.107 0-1.721-1.652-2.601-1.652S94.154 50.39 93.6 50.4c-1.827.034-1.766-2.968 0-3 .554-.01 1.108.6 1.108.6m-4.431 10.547-.554.517V58.2zm0 0c1.108.253 2.45-1.58 3.831-1.58 1.383 0 1.054.633 2.162.633s1.108-.95 2.216-.95c1.107 0 1.76 1.55 2.868 1.55m0 0 .554.322V57.6zm-8.308 3.6c3.366 1.899 5.539-1.2 5.539-2.4m-21.38 11a142 142 0 0 0-3.387 8.958m.012-.018c-1.146-5.887-2.483-11.626-3.907-17.219M74.77 120c0-.637-.291-1.247-.81-1.697s-1.227-.703-1.96-.703-1.439.253-1.958.703c-.52.45-.811 1.06-.811 1.697s.292 1.247.81 1.697c.52.45 1.225.703 1.96.703.733 0 1.438-.253 1.957-.703s.811-1.06.811-1.697m61.537-3.874c7.822-1.229 8.788 2.502 2.302 3.687-7.86 1.437-7.907-2.806-2.302-3.687m-.441 4.376c7.869-.799 8.66 2.98 2.126 3.808-7.916 1.003-7.765-3.236-2.126-3.808m.112 4.2c7.01-.799 7.714 2.98 1.894 3.808-7.052 1.003-6.917-3.236-1.894-3.808m4.146 8.289a4.23 4.23 0 0 1-1.216 2.97 4.13 4.13 0 0 1-2.938 1.23 4.13 4.13 0 0 1-2.937-1.23 4.22 4.22 0 0 1-1.217-2.97c0-1.113.438-2.182 1.217-2.969a4.13 4.13 0 0 1 2.937-1.231c1.102 0 2.159.443 2.938 1.231a4.23 4.23 0 0 1 1.216 2.969m-29.354-2.791c0 1.114-.408 2.182-1.135 2.97s-1.713 1.23-2.742 1.23-2.014-.442-2.741-1.23a4.4 4.4 0 0 1-1.136-2.97c0-1.114.409-2.182 1.136-2.97s1.713-1.23 2.741-1.23 2.015.442 2.742 1.23 1.135 1.856 1.135 2.97m7.37 7.123c0 1.113-.409 2.182-1.136 2.969-.727.788-1.713 1.231-2.741 1.231a3.6 3.6 0 0 1-1.484-.32 3.9 3.9 0 0 1-1.257-.911 4.3 4.3 0 0 1-.841-1.362 4.5 4.5 0 0 1-.295-1.607c0-.552.1-1.098.295-1.608.195-.509.481-.972.841-1.362s.787-.7 1.257-.911c.471-.211.975-.32 1.484-.319 1.028 0 2.014.442 2.741 1.23.727.787 1.136 1.856 1.136 2.97m4.421 9.056c0 1.114-.408 2.182-1.136 2.97-.727.788-1.713 1.23-2.741 1.23s-2.014-.442-2.741-1.23a4.4 4.4 0 0 1-1.136-2.97c0-1.114.409-2.182 1.136-2.97.727-.787 1.713-1.23 2.741-1.23s2.014.443 2.741 1.23c.728.788 1.136 1.856 1.136 2.97m1.849 10.537a4.4 4.4 0 0 1-1.136 2.97c-.727.787-1.713 1.23-2.741 1.23s-2.014-.443-2.742-1.23c-.727-.788-1.135-1.856-1.135-2.97s.408-2.182 1.135-2.97 1.714-1.23 2.742-1.23 2.014.442 2.741 1.23a4.4 4.4 0 0 1 1.136 2.97m-1.206 9.84c0 1.114-.408 2.182-1.135 2.97s-1.714 1.23-2.742 1.23-2.014-.442-2.741-1.23a4.4 4.4 0 0 1-1.136-2.97c0-1.114.409-2.182 1.136-2.97.727-.787 1.713-1.23 2.741-1.23s2.014.443 2.742 1.23c.727.788 1.135 1.856 1.135 2.97M79.2 35.4s4.985-4.2 7.2-4.2 6.092 1.2 6.646 1.2c1.108 0 1.108-1.2 1.108-1.2l.554.6S93.83 33 93.046 33s-4.984-1.2-6.646-1.2c-1.418 0-7.2 3.6-7.2 3.6m16.062 16.8c-6.093.305-6.707 2.99-11.077 3.86-2.832.562-2.97-4.223-1.108-4.46 1.1-.14 1.108 2.08 1.108 2.08.032.005 1.107-2.96-1.108-2.886-2.768.092-2.777 6.29.668 6.157 3.033-.118 6.532-3.551 11.517-3.551zm3.323 0v1.2c2.215 0 3.958 2.38 5.538 2.4 2.592.031 4.63-5.1 1.616-5.013-1.107.032-1.616 1.413-1.616 1.413s.801-.925 1.667-.954c1.76-.058-.155 3.93-1.667 3.954-1.096.017-3.323-3-5.538-3M80.308 39c2.769 0 4.603-3.403 7.427-3.403 3.323 0 4.204 2.803 5.311 2.803-1.108 0-4.084 1.444-5.584 1.406-1.66-.042-5.493-.806-7.154-.806m18.436-.987c2.769 0 2.415-2.068 5.238-2.102 2.841-.035 3.623 2.102 4.731 2.102-1.108 0-3.199 1.9-4.698 1.862-1.661-.043-3.61-1.862-5.271-1.862"/><path fill="currentColor" d="M86.554 24.785c-10.354.035-21.27.895-33.378 2.833l1.427 3.412c20.568-3.214 37.558-3.26 54.38-1.44l1.004-3.508c-7.669-.852-15.381-1.324-23.433-1.297m26.336 37.14c.01.229.055.512.095.809.762 5.683-.634 8.021-2.443 8.04l-4.997.091c-9.495 17.286-13.202 33.959-13.608 50.431-.436 17.735 3.055 35.287 7.68 52.81 1.48.27 2.552 1.355 2.691 3.304a50 50 0 0 0 4.92-.608c-5.123-18.856-9.092-37.23-8.647-55.314.462-18.745 5.285-37.368 19.264-57.643-1.641-.654-3.272-1.272-4.955-1.92m17.803 13.386c-8.961 13.016-13.015 24.138-14.625 35.506l3.146 1.467c1.269-9.979 4.435-19.615 11.485-30.803zM54.015 95.806l.545 4.539c5.277 3.23 10.195 4.975 15.397 5.272 6.32.361 12.763-1.319 20.824-4.282l.921-4.154c-16.618 6.315-25.145 7.162-37.687-1.375m63.12 15.542-.125.693c-.607 6.244.33 12.776 2.173 19.283l5.615 9.097c1.148 3.981 2.387 7.994 2.839 11.723 2.706 5.366 5.577 10.446 8.177 15.025.092.162 2.162-.773 2.162-.773-4.339-7.641-9.391-16.699-13.184-26.012-3.874-9.511-6.434-19.287-5.579-28.092zm-6.366 7.692a.3.3 0 0 0-.128.026.3.3 0 0 0-.11.078.385.385 0 0 0 0 .512q.048.051.11.078a.3.3 0 0 0 .128.026h5.111a58 58 0 0 1-.053-.72zm-.554 1.44a.6.6 0 0 0-.28.063.7.7 0 0 0-.23.185.75.75 0 0 0-.155.582q.514.295 1.017.61h5.536q-.09-.72-.16-1.44zm1.28 2.04q1.495 1.004 2.889 2.16h2.131a58 58 0 0 1-.335-2.16zm3.731 2.88a38 38 0 0 1 1.744 1.641 63 63 0 0 1-.326-1.641zm26.003 7.68a5.5 5.5 0 0 1-.214 1.44H144v-1.44zm-.951 3a5.4 5.4 0 0 1-1.459 1.44H144v-1.44zm-.958 3q.337.701.703 1.44H144v-1.44zm1.489 3q.365.715.741 1.44H144v-1.44zm1.56 3c.256.486.508.962.763 1.44H144v-1.44z"/><path fill="currentColor" d="M88.541 35.243a.8.8 0 0 0-.485.174 1.55 1.55 0 0 0-.412.495 3 3 0 0 0-.275.74 4 4 0 0 0-.097.873c0 .3.033.597.097.874s.157.528.275.74.258.38.412.495a.8.8 0 0 0 .485.173.8.8 0 0 0 .486-.173c.153-.115.293-.283.411-.495a3 3 0 0 0 .275-.74c.064-.277.097-.574.097-.874 0-.605-.134-1.185-.372-1.613s-.56-.669-.897-.669m15.665.468a.8.8 0 0 0-.485.174 1.55 1.55 0 0 0-.412.495 3 3 0 0 0-.275.74 4 4 0 0 0-.096.873c0 .605.133 1.186.371 1.614s.561.668.897.668.659-.24.897-.668.371-1.008.371-1.614a4 4 0 0 0-.096-.873 3 3 0 0 0-.275-.74 1.55 1.55 0 0 0-.412-.495.8.8 0 0 0-.485-.174m1.671 15.076h-.138c-1.107.032-1.616 1.413-1.616 1.413s.801-.925 1.667-.954c1.76-.058-.155 3.93-1.667 3.954-1.096.017-3.323-3-5.538-3v1.2c2.215 0 3.958 2.38 5.538 2.4 2.552.03 4.566-4.94 1.754-5.013m-22.8.007c-2.768.092-2.777 6.29.668 6.157 3.033-.118 6.532-3.551 11.517-3.551v-1.2c-6.093.305-6.707 2.99-11.077 3.86-2.832.562-2.97-4.223-1.108-4.46 1.1-.14 1.108 2.08 1.108 2.08.032.005 1.107-2.96-1.108-2.886m-18.98 11.032-4.411.756q.291 1.122.578 2.25l2.135-.627q.217-.066.443-.07c.84-.007 1.553.666 1.662 1.569s-.422 1.75-1.237 1.976l-2.136.627.107.44 2.14-.598q.217-.064.443-.063c.84.003 1.546.685 1.644 1.59.098.903-.442 1.745-1.258 1.96l-2.142.597.106.455 2.158-.567q.219-.06.444-.057c.84.016 1.537.71 1.624 1.615.086.906-.465 1.739-1.285 1.94l-2.159.567.088.41 2.152-.526q.22-.057.445-.049c.84.03 1.526.736 1.6 1.643.072.907-.491 1.73-1.313 1.918l-2.153.526.085.426 2.18-.49q.139-.033.28-.04c.871-.047 1.627.645 1.731 1.583s-.48 1.804-1.336 1.982l-2.181.49.08.436 2.187-.444q.138-.03.28-.035c.872-.028 1.615.68 1.702 1.62.088.94-.51 1.793-1.37 1.953l-2.187.444.113.702 2.196-.39a1.6 1.6 0 0 1 .28-.029c.873-.007 1.602.718 1.67 1.66s-.549 1.781-1.411 1.92l-2.196.391.086.603 2.205-.335q.14-.023.28-.02c.873.015 1.586.758 1.634 1.702s-.587 1.766-1.453 1.884l-2.203.334.055.476 2.215-.277q.141-.02.282-.013c.871.038 1.567.8 1.593 1.744s-.626 1.75-1.494 1.845l-2.215.277q.055.55.105 1.1l4.492.426c-1.185-14.054-4.05-27.435-7.36-40.207m25.28 6.091c-.29.14-.678.059-1.043.294-.608.394-1.188 1.055-1.419.595-.631 1.255-1.489.996-1.883.7-.702.603-.782.611-1.468.29-4.806 10.777-7.966 21.56-9.756 32.163l3.084-.44-.728-.164c-.847-.177-1.428-1.026-1.338-1.955.09-.93.822-1.63 1.684-1.612q.166.003.33.043l2.151.484.041-.197-2.136-.559c-.81-.199-1.361-1.015-1.289-1.912s.745-1.598 1.575-1.642q.25-.013.494.055l2.133.558.095-.4-2.115-.637c-.804-.229-1.329-1.065-1.228-1.959.1-.893.794-1.569 1.624-1.582q.252-.005.493.072l2.112.636.116-.423-2.094-.714c-.796-.258-1.293-1.112-1.165-2.002s.842-1.539 1.672-1.522q.252.005.49.09l2.091.713.112-.363-2.07-.787c-.758-.275-1.227-1.096-1.117-1.954s.767-1.509 1.565-1.55c.222-.013.444.024.653.107l2.07.787q.074-.222.152-.446l-2.046-.861c-.749-.303-1.193-1.14-1.057-1.993s.814-1.481 1.613-1.494c.222-.004.443.041.649.132l2.045.861.156-.414-2.019-.933c-.739-.329-1.157-1.181-.996-2.03.162-.847.858-1.45 1.657-1.435.222.004.441.056.644.154l2.02.934.132-.32-1.99-1.001c-.73-.354-1.124-1.22-.938-2.062.185-.842.899-1.422 1.697-1.38.222.012.44.072.64.177l1.992 1.002a133 133 0 0 1 1.912-4.104m52.408 8.283-.046 29.388c.191-.044.407-.113.6-.197.874 1.842-.024 2.904 0 4.2 0 0-1.815 1.065-3.529 1.556-.511.147-1.014.243-1.456.244-3.271.01-6.148-3.167-9.415-3 0 0 .628.851 1.2 1.874 2.947.437 4.096 2.326 6.553 2.326.263 0 .518.059.756.164l2.207-.898-.013.077c5.79-1.546 6.691 1.776 1.481 3.657-.33.12-.645.222-.891.3 5.019.039 4.917 2.909-.624 3.922q-.808.147-1.506.218l.012.378c6.685-.294 7.047 3.119.877 3.901l-.302.282c5.372-.044 5.488 3.163.182 3.918l-.372.576a4.2 4.2 0 0 1 2.624 3.905 4.16 4.16 0 0 1-2.95 3.995c1.549 3.726 4.554 9.336 6.827 13.539V77.797l-.001-.06a86 86 0 0 0-2.214-1.537m-11.082 5.26c-7.054 11.209-10.22 20.845-11.544 30.803 1.861.846 3.918 1.727 5.956 2.406-1.291-.776-2.161-1.933-2.161-3.878 0-2.561 1.662-6 4.431-6 .966 0 2.055.078 3.261.199zm-74.895 21.244-1.068 2.285 1.509.732-.406.961-.554-.314c-.397-.237-.714.419-.308.638l1.174.666.977-2.312-1.484-.72.455-.974c.38.204.758.405 1.135.593.454.226.907.434 1.36.639l-.494 1.312-.752 2.001.307.137q1 .443 2 .824 1.045.4 2.096.722l.318.097.647-2.42-.322-.098a29 29 0 0 1-1.654-.574l.323-.999c.536.202 1.072.395 1.608.561.51.158 1.025.293 1.54.419l-.292 1.4-.436 2.108.32.082a30 30 0 0 0 2.15.463q1.139.203 2.29.318l.329.032.221-2.508-.333-.033a26 26 0 0 1-1.806-.253l.158-1.066a25 25 0 0 0 3.035.351c.102.006.208.006.311.01l-.044 1.432-.066 2.162.328.016c.678.034 1.351.039 2.022.027.721.026 1.6-.102 2.234-.114l.35-.007-.169-2.531-.332.027c-.582.048-1.163.07-1.744.084v-1.08a35 35 0 0 0 1.67-.086c.626-.05 1.258-.128 1.894-.217l.173 1.452.25 2.144.329-.044q1.094-.147 2.194-.354 1.035-.194 2.083-.438l.324-.075-.482-2.465-.326.076c-.561.131-1.116.243-1.67.35l-.175-1.086a39 39 0 0 0 3.234-.731l.32 1.411.469 2.102.322-.083a59 59 0 0 0 2.053-.573q.956-.284 1.939-.605l.316-.104-.664-2.415-.32.105a53 53 0 0 1-1.564.484l-.268-1.054c.508-.149 1.02-.302 1.54-.469a98 98 0 0 0 1.647-.546l1.062 3.629.632-.208-.203-.706-1.058-3.616-.316.109q-.99.339-1.953.648c-.625.2-1.241.39-1.843.561l-.326.093.621 2.444.319-.091a56 56 0 0 0 1.582-.49l.285 1.036c-.539.174-1.075.344-1.604.501-.577.171-1.145.327-1.71.477l-.313-1.4-.477-2.107-.324.087q-.964.259-1.905.474-.98.227-1.93.394l-.333.058.407 2.509.326-.06c.56-.105 1.127-.228 1.695-.356l.206 1.057c-.58.13-1.157.256-1.731.363-.615.115-1.225.209-1.834.296l-.167-1.423-.258-2.163-.332.051a33 33 0 0 1-4.144.351l-.327.006v2.517l.337-.004a30 30 0 0 0 1.79-.086l.071 1.079c-.63.035-1.325.112-1.853.092h-.018c-.554.011-1.11-.001-1.665-.022l.044-1.439.068-2.167-.346.002a9 9 0 0 1-.618-.02 30 30 0 0 1-1.264-.1c-.68-.07-1.356-.163-2.026-.289l-.332-.062-.37 2.49.327.06c.614.111 1.232.19 1.852.259l-.095 1.075a29 29 0 0 1-1.913-.266 29 29 0 0 1-1.783-.384l.29-1.4.436-2.097-.329-.076a28 28 0 0 1-3.705-1.153l-.316-.124-.763 2.36.31.121a30 30 0 0 0 1.694.586l-.278 1.037a33 33 0 0 1-1.742-.599 38 38 0 0 1-1.658-.684l.499-1.327.585-1.554a.38.38 0 0 0 .06-.285.344.344 0 0 0-.303-.312 40 40 0 0 1-2.957-1.464zm34.442.526-.947.342.478 1.554zm11.636 19.838c-.044 3.217.064 6.466.295 9.71 8.331 3.943 14.127 13.5 14.127 24.422 0 6.867-2.291 13.195-6.063 17.932l.242 1.069a95 95 0 0 0 5.653-1.367c1.7-.464 3.411-.949 5.058-1.515a39.6 39.6 0 0 0 3.418-16.119c0-15.805-9.418-29.899-22.73-34.132m5.006 2.932c1.029 0 2.015.442 2.742 1.23s1.135 1.856 1.135 2.97-.408 2.182-1.135 2.97c-.727.787-1.713 1.23-2.742 1.23s-2.014-.443-2.741-1.23c-.727-.788-1.135-1.856-1.135-2.97s.408-2.182 1.135-2.97 1.713-1.23 2.741-1.23m7.37 7.122c1.028 0 2.014.443 2.741 1.231.727.787 1.136 1.855 1.136 2.969s-.409 2.183-1.136 2.97-1.713 1.23-2.741 1.23-2.014-.442-2.741-1.23c-.727-.787-1.136-1.856-1.136-2.97s.409-2.182 1.136-2.969c.727-.788 1.713-1.231 2.741-1.231m-9.139 8.019a2.38 2.38 0 0 0-1.638.695l-.323.307.389 2.025 1.038-.987.009-.009a.8.8 0 0 1 .587-.231c.417.016.646.266.754.604.109.337.073.687-.245.981l-.009.008-1.745 1.658.681 3.548 3.211-1.472.01-.005a.8.8 0 0 1 .298-.075c.409-.02.761.273.849.706.087.434-.119.859-.499 1.027l-.011.005-3.512 1.61.548 2.855 3.922-.478.011-.002a1 1 0 0 1 .141-.006h.001c.443.02.782.393.794.874s-.307.874-.749.921l-.012.001-3.768.46.649 3.375 2.978.589.01.003c.467.085.764.545.679 1.049-.085.505-.513.821-.977.722l-.011-.003-2.314-.458.366 1.903 1.639.324c1.353.288 2.684-.694 2.932-2.164s-.677-2.898-2.037-3.147l-2.681-.531 2.708-.331c1.295-.137 2.285-1.352 2.249-2.761-.035-1.408-1.084-2.563-2.384-2.624q-.212-.01-.422.019l.012-.001-1.777.216 1.642-.753c1.119-.492 1.754-1.8 1.496-3.078s-1.34-2.179-2.546-2.12a2.4 2.4 0 0 0-.893.225l-2.239 1.027 1.847-1.755-.009.008c.835-.771 1.047-1.977.737-2.942-.311-.966-1.168-1.768-2.265-1.811zm1.746 20.297-.365-1.902-.143-.028.422 1.913zm-1.014-5.277-.34-1.77-.256.031.371 1.767zm-.888-4.625-.346-1.796-.235.108.327 1.804zm-1.027-5.344-.389-2.024-.088.083.325 2.085zm14.743-4.013c1.028 0 2.014.443 2.741 1.23.728.788 1.136 1.856 1.136 2.97s-.408 2.182-1.136 2.97c-.727.788-1.713 1.23-2.741 1.23s-2.014-.442-2.741-1.23a4.4 4.4 0 0 1-1.136-2.97c0-1.114.409-2.182 1.136-2.97.727-.787 1.713-1.23 2.741-1.23m1.849 10.537c1.028 0 2.014.442 2.741 1.23a4.4 4.4 0 0 1 1.136 2.97 4.4 4.4 0 0 1-1.136 2.97c-.727.787-1.713 1.23-2.741 1.23s-2.014-.443-2.741-1.23a4.4 4.4 0 0 1-1.136-2.97c0-1.114.409-2.182 1.136-2.97s1.713-1.23 2.741-1.23m-1.206 9.84c1.028 0 2.015.443 2.742 1.23.727.788 1.135 1.856 1.135 2.97s-.408 2.182-1.135 2.97-1.714 1.23-2.742 1.23-2.014-.442-2.741-1.23a4.4 4.4 0 0 1-1.136-2.97c0-1.114.409-2.182 1.136-2.97.727-.787 1.713-1.23 2.741-1.23m-3.939 9.057c.738 0 1.46.228 2.082.656a4.1 4.1 0 0 1 1.43 1.764l-7.385 1.946-.003-.166c0-1.114.408-2.182 1.135-2.97s1.713-1.23 2.741-1.23"/><path stroke="currentColor" stroke-linecap="round" stroke-linejoin="round" stroke-width=".5" d="M134.315 112.407c.047.854.328 1.22.725 1.361m-.455 3.023c.395 1.043 1.02 2.11 0 3m-.555 1.148c.395 1.042 1.02 2.11 0 3m.057 1.495c.395 1.042 1.02 2.11 0 3m3.821-11.043c.307.767.131 1.271 0 1.8m.824-6.048c.308.766.131 1.271 0 1.8m-1.137 6.543c.308.767.131 1.271 0 1.8m-.171 2.511c.308.766.132 1.271 0 1.8m-1.504-14.285c.396 1.043 1.02 2.11 0 3m1.434-23.73V17.191m0 82.726v5.788m1.107.058v-9.056m0-1.666V18.39m2.216 87.344V20.791m-1.108 85.008V19.591m-3.32 19.255V15.995m0 39.6v-8.328m0 19.808v22.591m-1.111-63.356v-3.965M80.308 39c.729.13 3.876-5.4 6.646-5.4s3.877 1.2 4.43 2.4m-8.804 3.94c1.187 1.018 2.327 2.04 3.849 2.023 2.04-.023 4.079-.918 5.057-2.168m7.258-1.782c1.107 0 3.323-3.6 4.984-3.6s3.323 1.2 3.877 1.8m0 3.6c-1.698 1.455-3.756 1.554-6.092.6m-11.282-4.18q.09.392.091.824c0 1.49-.868 2.7-1.938 2.7s-1.939-1.21-1.939-2.7c0-.487.093-.944.255-1.339m19.055.533c.121.352.189.746.189 1.162 0 1.491-.868 2.7-1.939 2.7-1.07 0-1.938-1.209-1.938-2.7 0-.378.056-.739.157-1.065"/></svg>
