<svg xmlns="http://www.w3.org/2000/svg" width="144" height="240" fill="none"><path fill="currentColor" d="M91.662 18c.367 0 .72.253.979.703.26.45.405 1.06.405 1.697s-.146 1.247-.405 1.697c-.26.45-.612.703-.98.703-.367 0-.719-.253-.978-.703-.26-.45-.406-1.06-.406-1.697 0-.636.146-1.247.406-1.697s.611-.703.979-.703m15.507.6c.368 0 .72.253.979.703.26.45.406 1.06.406 1.697s-.146 1.247-.406 1.697c-.259.45-.611.703-.979.703-.367 0-.719-.253-.979-.703-.259-.45-.405-1.06-.405-1.697s.146-1.247.405-1.697c.26-.45.612-.703.979-.703m-2.602 36.136c-.393 13.025-.359 25.773-3.13 37.15C92.142 77.31 81.082 66.48 70.163 56.024c9.416 1.787 16.534 2.219 22.216 1.729 4.998-.431 8.907-1.61 12.188-3.018m-4.754 2.75c-2.501.013-5.819.281-9.25.75-7.282.994-13.087 2.599-12.966 3.584.122.986 6.238.61 13.52-.384s12.973-2.23 12.852-3.215c-.059-.483-1.558-.748-4.156-.735M20.215 59.1c-.265 1.008-.468 2.19-.606 3.461v.044c-.818-.164-1.824.01-3.016.674l2.355-2.552a.2.2 0 0 0 .038-.197.2.2 0 0 0-.06-.081.157.157 0 0 0-.213.024l-2.355 2.552c.612-1.29.773-2.378.623-3.263 1.188-.15 2.293-.37 3.234-.662m-14.4 0c.934.289 2.027.508 3.204.658h.031c-.15.886.01 1.975.623 3.267l-2.355-2.552a.156.156 0 0 0-.209-.026.2.2 0 0 0-.063.081.19.19 0 0 0 .037.2l2.355 2.551c-1.191-.664-2.196-.838-3.014-.675v-.02c-.138-1.28-.341-2.47-.609-3.484m94.553 1.83c-2.258.013-5.254.282-8.351.75-6.576.995-11.817 2.6-11.707 3.585.11.986 5.529.979 12.104-.015 6.576-.994 11.817-2.6 11.707-3.585-.053-.482-1.407-.747-3.753-.734m-.852 4.163c-1.672-.01-3.613.097-5.592.307-5.705.605-10.413 1.77-10.376 2.76.036.99 4.69 1.303 10.395.698s10.3-1.898 10.263-2.888c-.022-.61-1.719-.861-4.69-.877m-65.444 2.53c2.911 2.14 6.425 4.767 9.508 7.9L26.225 90.695q-.986-1.196-1.96-2.412c4.14.554 4.289-5.949 8.412-7.884-5.92-2.945-8.215.683-8.824 7.368a144 144 0 0 1-5.922-7.95c5.594-3.826 11.007-7.876 16.14-12.194M23.853 87.769l.411.516a5 5 0 0 1-.448-.084q.017-.217.037-.432m2.371 2.928-.146.123c-3.13.167-7.247.981-7.247.981-3.682-2.089-6.372-4.434-8.65-6.886a261 261 0 0 0 6.56-4.286 140 140 0 0 0 5.324 7.208c-3.814-1.817-5.539-5.565-7.364-.556 3.56-.25 6.87 5.35 7.445.66q1.188 1.509 2.394 2.982zM99.705 69c-1.344-.01-2.905.097-4.497.307-4.588.605-8.284 1.898-8.254 2.888s3.773 1.303 8.361.698 8.284-1.898 8.254-2.888c-.018-.61-1.474-.99-3.864-1.005M9.438 70.52l-2.355 2.552a.193.193 0 0 0-.003.257q.024.025.055.04a.16.16 0 0 0 .129-.002.2.2 0 0 0 .054-.04l2.355-2.553c-.613 1.292-.773 2.381-.622 3.268h-.036c-1.175.15-2.267.368-3.2.657.27-1.02.473-2.216.611-3.504.818.162 1.822-.012 3.012-.675m7.155 0c1.19.663 2.195.838 3.012.675v.009c.139 1.284.342 2.478.61 3.495-.94-.291-2.045-.512-3.234-.662.15-.885-.011-1.973-.623-3.263l2.355 2.552a.2.2 0 0 0 .054.04.16.16 0 0 0 .13.002.2.2 0 0 0 .054-.039.19.19 0 0 0-.003-.257zm83.105 2.466c-.86-.002-1.81.071-2.775.213-3.38.498-6.114 2.01-6.12 3-.005.99 2.731 1.39 6.11.892s6.124-1.703 6.13-2.694c.003-.675-1.295-1.408-3.345-1.411m-.326 4.354c-.435-.002-.886.018-1.341.059-2.779.253-4.96.843-5.032 1.797-.07.954 2.124 1.523 4.903 1.27s5.089-1.231 5.16-2.186c.058-.776-1.528-.931-3.69-.94m.706 3.693q-.256 0-.518.022c-1.689.138-3.116.892-3.188 1.683s1.238 1.321 2.927 1.183c1.688-.139 3.116-.892 3.188-1.684.063-.697-.954-1.205-2.409-1.204m.301 3.657q-.163 0-.328.017c-1.07.11-1.975.708-2.02 1.336-.047.628.784 1.048 1.854.939s1.975-.708 2.021-1.336c.04-.554-.604-.958-1.527-.956M0 84.7l3.797.342c-.025 2.4.751 4.698 3.403 6.757-2.661.276-5.037 1.272-6.646 4.2q1.66 4.499 5.538 5.4c-2.18 2.629-3.121 5.662-3.326 8.934l-.001.001L0 111.667zm102.185 16.4c.49 0 1.032.24 1.647 1.109.614.868 1.122 2.314 1.122 3.991s-.508 3.123-1.122 3.991c-.615.869-1.157 1.109-1.647 1.109s-1.032-.24-1.647-1.109c-.615-.868-1.123-2.314-1.123-3.991s.508-3.123 1.123-3.991c.615-.869 1.157-1.109 1.647-1.109m.03.575c-.327.011-.659.61-.659 1.285-1.211-.013-1.626.397-.629 1.56-1.517.449-1.179 1.044-.314 1.68-.865.636-1.203 1.231.314 1.68-.997 1.163-.582 1.573.629 1.56 0 1.2 1.048 2.16 1.257 0 1.211.013 1.626-.397.629-1.56 1.517-.449 1.179-1.044.314-1.68.865-.636 1.203-1.231-.314-1.68.997-1.163.582-1.573-.629-1.56-.091-.945-.343-1.293-.598-1.285m-39.03.625 8.328 10.433-4.763-.005-5.212-6.528H50.954l1.661-3.9zm-3.293 7.8 2.13 2.668-15.083.027 1.8-2.695zm11.535 6.29 34.977.022c-.271.297-.553.585-.838.875a92 92 0 0 0-4.643 5.055c-.118-.533-.67-1.336-1.784-2.342 3.323-3 1.661-4.2-1.662-1.8-3.323-2.4-4.985-1.2-1.662 1.8-3.323 3-1.661 4.2 1.662 1.8 1.226.886 2.225 1.28 2.832 1.275l-.433.526-28.403-.016zm18.832.534c-.603-.018-1.616.376-2.862 1.276-3.323-2.4-4.985-1.2-1.662 1.8-3.323 3-1.661 4.2 1.662 1.8 3.323 2.4 4.985 1.2 1.662-1.8 2.076-1.875 2.206-3.047 1.2-3.076m-10.08 0c-.603-.018-1.616.376-2.862 1.276-3.323-2.4-4.985-1.2-1.661 1.8-3.324 3-1.662 4.2 1.661 1.8 3.323 2.4 4.985 1.2 1.662-1.8 2.076-1.875 2.206-3.047 1.2-3.076"/><path fill="currentColor" d="M88.651 0C77.668 25.491 66.626 50.854 45.296 53.31L82.246 0zm22.129 7.183c3.806 14.76 12.497 28.56 6.624 47.81l-12.159-10.24c3.064-4.716 5.524-10.878 5.524-14.153 0-2.4-.554-18-.554-18.6 0-.24.267-2.313.565-4.817M44.318 54.58c16.987 16.671 35.57 36.984 52.106 58.155l-4.525.065C78.031 94.449 59.356 74.522 42.208 57.766zM37.03 65.076c3.198 2.302 7.103 5.295 10.41 9.063l-2.83 2.405c-3.349-3.581-7.307-6.551-10.59-8.878a54 54 0 0 0 3.01-2.59M68.123 90.6l17.712 22.186-4.974.014-14.384-18.3h-11.83l.184-3.9z"/><path stroke="currentColor" stroke-linecap="round" stroke-linejoin="round" d="M97.8 112.8H46.964m62.89 0h-3.185m-.273 3.6H44.144m85.252-51.216-24.28-20.233M144 77.354l-4.966-4.138M17.926 79.822c6.666-4.56 13.076-9.436 19.149-14.727M10.127 84.949a261 261 0 0 0 6.634-4.335M82.244 0 37.058 65.11M.03 127.171c7.585 4.713 12.93 9.189 18.198 15.817 4.979-9.341 10.403-15.672 17.746-23.122 8.425-8.548 12.658-15.791 14.33-21.651s.987-10.393-.88-14.517c-3.137-6.927-10.137-12.282-15.405-16.063M88.65.005c-10.983 25.49-22.024 50.848-43.273 53.257m58.263 44.216c4.905-15.228 3.971-32.362 4.766-48.977-8.498 4.783-18.095 9.293-50.72.692C72.6 63.975 88.429 77.046 100.529 97.422M92.38 57.754c4.998-.431 8.908-1.61 12.19-3.019-.397 13.026-.378 25.762-3.143 37.153-9.289-14.565-20.345-25.408-31.264-35.863 9.417 1.787 16.534 2.219 22.217 1.729m0 0c4.998-.431 8.906-1.61 12.188-3.018-.393 13.025-.36 25.773-3.13 37.15C92.142 77.31 81.082 66.48 70.163 56.025c9.416 1.787 16.534 2.219 22.216 1.729m-44.454-4.905c16.362 16.04 33.996 34.82 47.77 52.684M119.2 56.744c.091 21.98-4.208 41.218-10.869 55.953m14.457-53.091c-.231 18.11-3.368 34.367-8.369 47.848m-17.995 5.282C79.889 91.565 61.305 71.252 44.318 54.581m47.581 58.22C78.031 94.449 59.356 74.522 42.208 57.766M85.846 112.8 68.123 90.6H54.784m26.307 22.206L66.477 94.5H54.648m21.62 18.227L64.831 98.4H54.057m17.456 14.333L63.184 102.3h-10.4m13.966 10.428-5.212-6.528H51.01m11.012 6.568-2.13-2.668H48.738M43.6 75.53 26.165 90.802m21.253-16.663L28.44 90.84m64.647-33.08c4.957 11.06 5.89 22.594 8.266 34.039m9.01-91.8c4.936 19.535 18.282 39.25 10.438 58.017m-3.398-3.023c5.873-19.25-2.818-33.052-6.645-47.919M54.741 39.616a54 54 0 0 0-5.112-2.066m94.36 70.779c-7.95-5.121-12.953-9.855-18.82-18.329-5.538 12-11.061 18.62-19.604 27.287-31.188 31.642-10.429 49.153 1.45 57.656M18.831 91.8c-1.863 3.626-2.953 7.225-3.323 10.8m3.323-10.8c-6.772-3.842-10.195-8.55-13.846-13.2-1.138 4.64-2.756 9.34 2.215 13.2-2.661.276-5.037 1.272-6.646 4.2q1.66 4.499 5.538 5.4c-2.847 3.434-3.582 7.555-3.323 12 3.557-4.58 7.507-8.601 12.739-10.8m3.323-10.8s9.101-1.8 10.523-.6 3.652 3.757 4.43 4.8c3.542 4.743-.403 5.968-2.215 3.6m-16.061 3c6.23 7.577 13.182 7.955 10.835 3.311M0 84.7l3.802.343M0 111.667l2.899-1.396m8.984-9.9c-4.176 2.45-6.045 7.142-7.231 10.681m8.311-16.861c-2.941-.105-5.367-.74-8.532 1.809 1.621 2.342 3.338 3.567 7.444 4.157M7.24 81.499c.221 4.847 1.416 9.993 5.783 12.55m2.224-4.598c-2.94 4.785-3.996 9.705-2.988 14.812M27.692 96c6.57 3.054 7.115 14.474-2.215 3m3.19 3.424c1.656 3.875-.083 7.236-6.48-.63m4.037-11.098c-3.718-4.515-7.342-9.22-10.683-14.488m8.999 14.714c-3.6-4.402-7.1-9-10.33-14.139M23.815 88.2c.549-6.96 2.814-10.808 8.862-7.8m-8.862 7.8c4.584 1.099 4.594-5.797 8.862-7.8m-8.862 7.8c2.643-2.904 4.674-8.55 8.862-7.8M14.7 87.28c1.84-5.049 3.576-1.2 7.453.6-.554 4.8-3.877-.85-7.453-.6m0 0c1.634-2.207 4.53 1.654 7.445.662m-2.537-25.38c.138-1.272.34-2.453.606-3.462-.95.294-2.066.516-3.267.666m.027 14.271c1.19.15 2.297.371 3.24.663-.268-1.017-.471-2.21-.61-3.495M6.43 71.158c-.138 1.302-.343 2.512-.615 3.542.932-.288 2.024-.508 3.2-.657m.004-14.285c-1.177-.15-2.27-.37-3.204-.658.268 1.014.47 2.204.61 3.483m97.924-16.232q.793-.415 1.582-.855m-44.794.577c13.915 3.498 23.17 4.392 29.717 3.976M139.569 34.2s0-1.2-1.107-1.2m0 0c-1.427 0-1.662 5.4 1.107 5.4 3.877 0 3.323-8.4-.554-8.4-3.323 0-4.43 6-4.43 6s-1.108-6-4.431-6c-3.877 0-4.431 8.4-.554 8.4 2.769 0 2.535-5.4 1.108-5.4m7.754 0c-6.093.32 1.661 30 1.605 35.555-.036 3.526-1.052 7.045-5.482 7.045-4.431 0-5.447-3.52-5.482-7.045C129.046 63 136.8 33.32 130.708 33m0 0c-1.108 0-1.108 1.2-1.108 1.2m6.646-2.402V25m-3.323 6.823v-6.774m-.355 50.238c-2.062.612-3.522 2.133-3.522 3.913 0 2.32 2.48 4.2 5.539 4.2s5.538-1.88 5.538-4.2c0-1.78-1.46-3.3-3.52-3.913m.094 7.81c2.687.852 3.426 3.392 3.426 5.703 0 4.35-1.455 11.536-2.256 15.161m-8.086-7.88c-.419-2.611-.735-5.254-.735-7.281 0-2.328.75-4.888 3.485-5.721M115.544 106.2h-.707m29.163 0h-3.183m-24.019-1.8h-1.318m28.52 0h-5.659m-20.224-1.8h-2.058m27.941 0h-5.82m-18.874-1.8h-2.669m27.363 0h-5.466M120.432 99h-3.312M144 99h-5.145m-17.362-1.8h-3.827m26.334 0h-4.823m-16.72-1.8h-4.308m11.511 0h-.579m14.919 0h-4.501m-16.109-1.8h-4.759m10.771 0h-1.607m16.205 0h-4.244m-15.498-1.8h-5.177m10.096 0h-2.733m16.448 0h-2.911m-10.9-1.8h-9.582m23.393 0h-2.718m-11.125-1.8h-9.196m22.485 0h-2.229m-10.803-1.8h-8.014m21.046 0h-2.53m-12.977-1.8h-4.985M108 61.2c1.31-2.108 2.709-3.834 5.031-5.66 2.401-1.887 3.547 1.157 2.644 2.725M108 64.8c1.516-1.886 4.511-4.718 6.896-6.217 2.26-1.42 2.938 1.812 1.056 3.36m-8.135 6.762c1.516-1.886 4.478-4.783 6.896-6.217 3.661-2.17 4.857 1.699.304 3.817m-7.536 9.552c1.516-1.886 4.478-4.782 6.897-6.216 3.412-2.024 4.171 2.023.566 4.296m-7.284-2.215c1.536-1.63 3.691-3.324 5.624-4.741 2.445-1.792 3.778.537 2.53 2.067m-8.611 10.079c1.525-1.588 3.613-3.227 5.492-4.603 2.664-1.952 4.007 1.472 2.133 3.038m-7.989 4.83c1.799-1.555 4.427-3.223 6.431-4.352 3.464-1.95 4.086 2.458.365 4.455m-7.235 2.698c5.055-4.632 10.882-3.036 6.031.607m-6.71 3.463c5.514-5.068 15.523-5.073 5.699.66m-7.203 5.768c6.961-4.808 15.7-3.533 4.862 1.28m-4.53.915c4.809-2.18 10.279.025 4.871 1.639m-2.616.501c4.039-1.366 6.195 1.131 1.265 2.425m.082-46.365a21 21 0 0 1 2.864-2.688c1.941-1.526 2.96.04 2.783 1.499m-5.483-3.51q.218-.18.449-.361c2.151-1.69 3.169.413 2.684 1.963m-6.384 39.333c4.634-3.915 9.652-2.759 6.406.311m-11.391 3.971c-10.806.125-7.304 3.074-2.348 3.076m.831-5.394c-3.531-1.43-6.71-1.1-8.303-.195-1.863 1.058-1.555 2.904 2.898 3.641m3.151-6.804c-6.488-1.32-11.486 1.674-6.146 3.142m3.812-6.517c-7.468-2.172-13.897 1.289-5.475 4.04m3.533-6.679c-7.67-2.816-15 .537-7.438 3.377m4.35-7.203c-5.594-.96-9.823 1.16-6.154 3.363m4.268-5.663c-8.558-2.393-17.497 2.072-5.402 3.33m1.32-7.92c-6.334-.601-11.078 2.163-4.456 4.203m2.464-6.288c-8.335-2.376-16.819 1.753-5.674 4.12m2.578-7.334c-6.163-.917-11.35 1.41-7.116 3.451m4.47-6.097c-7.928-1.982-15.582 1.754-5.922 4.088m1.491-8.473c-6.327-.543-10.966 2.265-4.038 4.295m1.418-6.812c-8.184-2.028-16.047 2.028-4.839 4.33m.585-8.382c-6.4-.66-11.271 2.12-4.655 4.176m1.815-6.943c-7.534-1.43-14.133 2.092-4.852 4.323m16.248-23.991c.565 1.394 1.103 2.807 3.938 2.536 1.592 9.756 8.172 11.807 14.4 14.4 0 0 2.15 1.878 3.258 1.878 1.662 0 2.834-.678 3.388-.678s1.108.6 2.769.6 3.323-3 4.431-6c3.323-4.8 6.092-11.525 6.092-15 0-2.4-.554-18-.554-18.6.001-.37.635-5.093 1.12-8.649M74.998 28.84c.7 1.227 1.522 2.93.879 2.961-.303.015-.772-1.245-1.135-2.389M43.847 59.378l-5.601 6.5m7.17-4.894-5.398 6.266m7.02-4.72-5.319 6.174m6.838-4.508-5.112 5.934m6.732-4.385-5.092 5.91m6.663-4.305-3.91 4.537m5.48-2.93-2.662 3.089m4.3-1.563-1.976 2.294m3.505-.64-.989 1.148M90.526 111h-6.14m4.684-1.8h-6.093m4.729-1.8h-6.184m4.729-1.8h-6.139m4.684-1.8h-6.139m4.093-2.4H79.2m-22.708-3v3.9m2.77-3.9v3.9m2.769-3.9v3.9m4.069-2.308-2.501 2.709m4.625-.21-2.592 2.808m4.603-.187-2.524 2.734m4.49-.063-2.502 2.71m4.603-.187-2.297 2.488M56.35 37.291a58 58 0 0 0-5.33-2.003m7.007-.446a58 58 0 0 0-5.402-2.017m7.1-.367a58 58 0 0 0-5.519-2.059m7.1-.132a57 57 0 0 0-5.622-2.149m6.445-.617a57 57 0 0 0-3.97-1.512m5.363-1.002a56 56 0 0 0-2.853-1.103m4.5-1.283a65 65 0 0 0-1.814-.7m-19.092-10.57c5.745 2.38 11.485-2.959 15.395-.096C64.8 15 60.369 22.2 56.566 19.823c-3.523-2.202-.074-7.223 1.588-6.023 1.03.744 1.649 2.197 1.107 3-.684 1.015-1.161 1.155-2.215.6m-12.9-5.744c4.397 4.599 2.45 12.466 6.504 15.047 5.352 3.406 9.442-4.027 5.823-6.721-3.351-2.496-6.048 3.039-4.333 4.146 1.064.687 2.54.666 2.976-.209.551-1.107.462-1.634-.454-2.424m4.6.105-9.97-7.2m1.108 4.8c1.108-1.2 5.036-1.363 6.092.6-2.437-1.325-3.85-2.97-2.769-5.4m2.215 13.2c-2.769 3.6-5.538 2.4-8.307 1.2-2.665 3.932-7.163 4.64-11.631 5.4m0 0c4.006.642 8.85 1.694 13.64 3.28M36 34.2C41.55 22.587 44.319 11.298 47.175 0m16.517 15.6c1.108-2.4-1.661-5.4-3.323-6.6.648-2.766-.3-5.879-1.284-9m7.377 10.8c-1.108-3-2.77-3-2.77-3 .94-4.58-.364-5.744-.907-7.792m33.81-.006C94.7 6.21 90.464 9.408 84.26 10.08M94.523.005c-1.768 4.656-5.025 7.399-9.579 8.477m7.964-8.48c-1.548 3.292-3.953 5.484-7.127 6.688M91.164.013c-1.15 1.961-2.658 3.463-4.501 4.534M102.875.005c1.653 4.819 3.362 9.604 7.374 12.03m-5.64-12.03c1.359 3.812 2.933 7.417 5.864 9.63M106.386.003c1.09 2.782 2.401 5.342 4.415 7.184M107.983.01c.852 1.757 1.869 3.346 3.2 4.615m-.968 9.775c-4.552-3.008-6.819-1.714-8.861 0m0 0c-2.216 6.6 1.661 13.2 1.597 18.201-.024 1.857-1.299 1.614-2.151 1.599-.554-.01-1.662 1.2-1.662 1.2m2.216-21c2.716-1.5 5.584-1.917 8.861.6M96.369 29.4c-2.215 0-2.215 3.6-.554 3.6 4.431.6 4.431-1.2.554 0m6.646 5.4.554.6v-1.2zm0 0s-.553.6-1.107.6-.581-.481-1.365-.538c-.85-.062-.85.538-1.405.538-.553 0-1.661-1.2-2.215-1.2s-1.662.6-2.215.6H93.6m0 0-.554-.6V39zm-9.415-19.2c1.661 0 4.04-3.046 6.245-2.826 3.303.33 4.278 4.626 5.94 5.226m0 0c-1.987-2.569-3.744-3.386-5.326-3.368-3.234.038-4.09 3.968-7.967 2.768m13.292.6c-1.661-1.2-3.634 1.205-5.004 1.194C88.163 22.766 86.456 21 85.292 21m24.923-1.2c-2.508-5.13-7.194-1.139-7.2-.6M53.169 31.8c-1.661 1.8-3.877 1.2-4.984.6m0 0c-2.273 1.759-4.736 2.486-6.944 2.788m6.944-2.788c-2.273 1.759-4.736 2.486-6.94 2.792m8.489 2.248L73.62 0m22.194 106.2c0 1.182.165 2.352.485 3.444s.79 2.084 1.38 2.92c.592.836 1.294 1.499 2.067 1.951s1.601.685 2.438.685c.836 0 1.664-.233 2.437-.685s1.475-1.115 2.066-1.951c.592-.836 1.061-1.828 1.381-2.92a12.3 12.3 0 0 0 .485-3.444c0-2.387-.671-4.676-1.866-6.364-1.194-1.688-2.814-2.636-4.503-2.636s-3.31.948-4.504 2.636c-1.195 1.688-1.866 3.977-1.866 6.364m6.37-5.1c-.49 0-1.033.24-1.647 1.109-.615.868-1.123 2.314-1.123 3.991s.508 3.123 1.123 3.991c.614.869 1.157 1.109 1.647 1.109s1.032-.24 1.646-1.109c.615-.868 1.123-2.314 1.123-3.991s-.508-3.123-1.123-3.991c-.614-.869-1.156-1.109-1.646-1.109M16.062 70.2c8.307 5.4 8.307-12 0-6.6 4.984-9-11.077-9-6.093 0-8.307-5.4-8.307 12 0 6.6-4.984 9 11.077 9 6.092 0m-9.693-3.3c6.646 0 6.646 0 6.646-7.2 0 7.2 0 7.2 6.647 7.2-6.647 0-6.647 0-6.647 7.2 0-7.2 0-7.2-6.646-7.2m128.216-50.7c-1.195 3.736-.554 10.8-3.877 10.8-7.2 0-2.216-11.4 3.877-17.4 6.092 6 11.077 17.4 3.877 17.4-3.324 0-2.682-7.064-3.877-10.8M100.8 40.8c-.34 3.414-5.053 1.043-4.985.6.554.6 4.96 3.822 4.985-.6m-4.43-24.6c-5.71-4.406-9.512-1.942-13.293.6 3.922-3.118 9.415-5.4 13.292-.6m5.538 4.8c2.215 0 3.42-2.3 5.209-2.435 1.367-.103 3.234 1.514 3.234 2.114 0 .848-1.245 2.485-2.519 2.79-1.816.437-4.02-2.427-5.924-2.469"/><path stroke="currentColor" stroke-linecap="round" stroke-linejoin="round" stroke-width=".5" d="m34.715 97.344-1.941 3.221m-.397.657-1.582 2.625m3.157-7.743c-1.395 2.498-2.92 4.775-4.505 6.953m-.408.556c-.671.91-1.351 1.803-2.036 2.69m-.396.512q-.821 1.056-1.644 2.109m8.014-13.97c-2.841 5.146-6.24 9.354-9.584 13.652m8.584-14.737c-2.946 5.388-6.505 9.742-9.986 14.227m9.223-15.047c-3.016 5.413-6.645 9.793-10.168 14.351M133.81 49.09c-.592 4.129-1.369 8.388-1.991 11.946s-1.064 6.582-1.055 7.499c.016 1.582.288 3.011.814 3.867s1.197 1.398 3.007 1.398c1.809 0 2.48-.543 3.006-1.398m-4.14-11.031a158 158 0 0 0-.754 4.679c-.183 1.285-.273 2.342-.271 2.465.013 1.371.336 2.565.535 2.888.172.28.217.321.367.4.151.08.506.197 1.257.197m-1.578 5.023c-1.577.468-2.299 1.463-2.299 2.177 0 .465.236.982.913 1.495s1.749.905 2.964.905 2.286-.391 2.963-.905m-4.567 4.117c-.979.298-1.423.772-1.764 1.44-.342.667-.509 1.594-.509 2.548 0 1.824.3 4.413.71 6.973m1.178-16.539c.338.247 1.118.566 1.989.566.886 0 1.683-.331 2.01-.58m-3.925 7.904c-.137.268-.301.95-.301 1.676 0 1.61.285 4.16.686 6.665M63.498 44.193c9.626 2.328 16.844 3.328 22.366 3.516M64.732 42.79c7.275 1.702 13.125 2.624 17.883 3.005m-16.49-4.485c5.513 1.246 10.178 2.03 14.151 2.463m-12.794-3.962c4.243.924 7.965 1.565 11.244 1.98m-10.064-3.527c3.327.699 6.323 1.22 9.03 1.59m-7.93-3.163c2.586.524 4.966.938 7.16 1.255m-5.982-2.821c1.999.389 3.87.709 5.625.968M100.8 45.6c-1.323-1.675-3.015-1.524-4.984 0m-.554-22.2c-1.108 1.8-3.323 1.8-4.985 1.8m19.385-.6c-5.539 3-6.647-3.6-7.754-3.6m3.321-1.553a4 4 0 0 0-.198 1.267c0 1.565.84 2.833 1.876 2.833 1.035 0 1.875-1.268 1.875-2.833 0-.695-.166-1.333-.442-1.826m-18.457-.455a3.9 3.9 0 0 0-.335 1.616c0 1.565.84 2.833 1.875 2.833s1.876-1.268 1.876-2.833c0-.484-.08-.94-.222-1.338"/></svg>
