<svg xmlns="http://www.w3.org/2000/svg" fill="none" width="166" height="258"><path stroke="currentColor" stroke-linecap="round" stroke-linejoin="round" stroke-width=".5" d="m40.018 104.645-2.238 3.462m-.456.707-1.825 2.822m3.64-8.324c-1.608 2.685-3.367 5.133-5.194 7.474m-.47.598a164 164 0 0 1-2.347 2.892m-.457.55q-.946 1.136-1.894 2.267m9.238-15.018c-3.276 5.533-7.193 10.056-11.049 14.676m9.896-15.841c-3.396 5.791-7.499 10.472-11.512 15.293m10.632-16.176c-3.477 5.82-7.66 10.528-11.72 15.428m129.992-62.682c-.683 4.437-1.579 9.016-2.296 12.84-.717 3.825-1.227 7.076-1.216 8.062.018 1.701.332 3.237.939 4.157.606.919 1.379 1.503 3.465 1.503s2.86-.584 3.466-1.503m-4.772-11.858a157 157 0 0 0-.87 5.03c-.211 1.38-.314 2.517-.313 2.65.016 1.474.388 2.757.617 3.105.199.3.251.344.424.43.173.085.582.211 1.448.211m-1.819 5.4c-1.818.503-2.65 1.573-2.65 2.34 0 .5.272 1.056 1.053 1.608.78.551 2.015.972 3.416.972s2.636-.42 3.416-.972m-5.264 4.424c-1.129.321-1.641.83-2.034 1.548-.394.718-.587 1.714-.587 2.74 0 1.96.345 4.744.818 7.496m1.359-17.78c.389.266 1.288.609 2.292.609 1.021 0 1.941-.356 2.318-.623m-4.525 8.496c-.158.288-.347 1.021-.347 1.802 0 1.731.328 4.473.791 7.165M73.198 47.508c11.098 2.502 19.418 3.577 25.784 3.78M74.622 46c8.385 1.83 15.13 2.822 20.615 3.23m-19.01-4.82c6.355 1.339 11.733 2.181 16.314 2.647m-14.75-4.259c4.892.993 9.183 1.683 12.962 2.128m-11.602-3.791c3.836.751 7.29 1.31 10.41 1.71m-9.141-3.401c2.981.563 5.725 1.008 8.254 1.349m-6.896-3.033c2.304.418 4.462.763 6.484 1.042M116.2 49.02c-1.525-1.8-3.476-1.638-5.746 0m-.639-23.865c-1.277 1.935-3.83 1.935-5.746 1.935m22.346-.645c-6.384 3.225-7.661-3.87-8.938-3.87m3.828-1.67c-.146.41-.228.873-.228 1.363 0 1.682.968 3.045 2.162 3.045s2.163-1.363 2.163-3.045c0-.748-.192-1.433-.51-1.963m-21.277-.49a3.9 3.9 0 0 0-.387 1.738c0 1.682.968 3.045 2.163 3.045s2.162-1.363 2.162-3.045c0-.52-.093-1.01-.256-1.438"/><path stroke="currentColor" stroke-linecap="round" stroke-linejoin="round" d="M112.742 121.26H54.138m72.498 0h-3.672m-.314 3.87H50.888m98.276-55.058-27.988-21.75M166 83.156l-5.725-4.45M20.665 85.81c7.684-4.902 15.073-10.144 22.074-15.832M11.674 91.32a305 305 0 0 0 7.647-4.66M94.81 0 42.72 69.993M.035 136.71c8.744 5.067 14.906 9.878 20.977 17.004 5.74-10.043 11.993-16.849 20.458-24.857 9.712-9.189 14.592-16.975 16.52-23.275s1.137-11.172-1.016-15.605C53.36 82.53 45.29 76.773 39.217 72.708M102.194.005C89.534 27.406 76.805 54.667 52.31 57.257m67.163 47.531c5.656-16.37 4.579-34.789 5.495-52.649-9.796 5.14-20.86 9.99-58.468.743 17.191 15.892 35.438 29.943 49.386 51.846m-9.393-42.643c5.762-.463 10.268-1.73 14.052-3.245-.457 14.003-.436 27.694-3.624 39.94-10.707-15.658-23.453-27.314-36.04-38.553 10.855 1.92 19.06 2.385 25.612 1.858m0 0c5.761-.463 10.267-1.73 14.05-3.244-.453 14.002-.415 27.706-3.609 39.936-10.714-15.668-23.465-27.31-36.052-38.55 10.855 1.92 19.06 2.385 25.611 1.858m-51.246-5.272c18.862 17.243 39.19 37.431 55.067 56.635M137.411 61c.105 23.63-4.851 44.309-12.529 60.149m16.665-57.073c-.266 19.47-3.882 36.945-9.647 51.437m-20.745 5.679c-19.061-22.76-40.484-44.596-60.067-62.517m54.851 62.587c-15.986-19.729-37.514-41.15-57.283-59.164m50.306 59.162L78.53 97.395H63.154m30.326 23.872-16.847-19.679H62.997m24.924 19.594L74.735 105.78h-12.42m20.124 15.408-9.601-11.215h-11.99m16.1 11.21-6.008-7.018H58.803m12.695 7.061-2.456-2.868H56.185M50.26 81.196 30.163 97.612m24.499-17.914L32.786 97.655m74.524-35.561c5.714 11.89 6.789 24.288 9.528 36.591M127.225 0c5.691 21 21.075 42.193 12.033 62.368m-3.917-3.25c6.77-20.694-3.248-35.53-7.661-51.512M63.104 42.587a64 64 0 0 0-5.893-2.22m108.777 76.087c-9.165-5.505-14.933-10.594-21.696-19.704-6.384 12.9-12.751 20.016-22.599 29.333-35.953 34.016-12.022 52.84 1.671 61.981M21.708 98.685c-2.148 3.898-3.404 7.767-3.831 11.61m3.83-11.61c-7.806-4.13-11.752-9.192-15.96-14.19-1.312 4.987-3.177 10.04 2.553 14.19-3.068.297-5.806 1.367-7.662 4.515q1.914 4.836 6.385 5.805c-3.282 3.691-4.13 8.122-3.83 12.9 4.1-4.923 8.653-9.246 14.684-11.61m3.83-11.61S32.2 96.75 33.84 98.04s4.21 4.039 5.107 5.16c4.083 5.099-.465 6.415-2.554 3.87m-18.515 3.225c7.182 8.146 15.196 8.552 12.49 3.559M0 91.053l4.383.369M0 120.042l3.342-1.501m10.356-10.642c-4.814 2.634-6.968 7.678-8.336 11.482m9.582-18.126c-3.39-.112-6.187-.796-9.836 1.945 1.869 2.518 3.848 3.834 8.58 4.469m-5.34-20.057c.254 5.21 1.632 10.742 6.665 13.49m2.565-4.942c-3.389 5.144-4.607 10.433-3.445 15.923m17.79-8.883c7.574 3.283 8.201 15.56-2.554 3.225m3.679 3.68c1.908 4.166-.097 7.779-7.47-.677m4.653-11.93c-4.287-4.853-8.464-9.91-12.316-15.574M28.29 97.742c-4.149-4.732-8.184-9.676-11.908-15.2m11.073 12.273c.632-7.482 3.244-11.619 10.215-8.385m-10.215 8.385c5.284 1.182 5.296-6.232 10.215-8.385m-10.215 8.385c3.047-3.122 5.388-9.192 10.215-8.385m-20.722 7.396c2.121-5.427 4.122-1.29 8.592.645-.639 5.16-4.47-.914-8.592-.645m0 0c1.884-2.373 5.221 1.778 8.583.711m-2.925-27.284c.16-1.366.392-2.636.699-3.72-1.095.316-2.382.554-3.767.716m.031 15.341c1.373.161 2.649.399 3.736.713-.31-1.094-.544-2.377-.703-3.758m-15.188-.05c-.16 1.4-.396 2.7-.71 3.808 1.075-.31 2.334-.546 3.689-.707m.005-15.356c-1.357-.161-2.617-.397-3.693-.707.308 1.09.542 2.369.702 3.744m112.885-17.45a84 84 0 0 0 1.824-.918m-51.638.62c16.04 3.76 26.711 4.72 34.257 4.274m56.158-17.038s0-1.29-1.277-1.29m0 0c-1.644 0-1.915 5.805 1.277 5.805 4.47 0 3.831-9.03-.638-9.03-3.831 0-5.108 6.45-5.108 6.45s-1.277-6.45-5.108-6.45c-4.469 0-5.107 9.03-.638 9.03 3.192 0 2.922-5.805 1.277-5.805m8.938 0c-7.023.344 1.916 32.25 1.851 38.221-.041 3.791-1.212 7.574-6.32 7.574s-6.278-3.783-6.319-7.574c-.065-5.97 8.873-37.877 1.85-38.22m0 0c-1.277 0-1.277 1.29-1.277 1.29m7.662-2.583v-7.308m-3.831 7.334v-7.281m-.41 54.006c-2.376.657-4.059 2.293-4.059 4.206 0 2.494 2.858 4.515 6.384 4.515s6.385-2.021 6.385-4.515c0-1.913-1.683-3.548-4.059-4.206m.109 8.395c3.097.917 3.95 3.647 3.95 6.131 0 4.676-1.678 12.401-2.601 16.298m-9.322-8.47c-.482-2.808-.846-5.65-.846-7.828 0-2.502.864-5.254 4.017-6.15m-19.582 24.855h-.816m33.619 0h-3.67m-27.688-1.935h-1.519m32.877 0h-6.524m-23.314-1.935h-2.372m32.21 0h-6.709m-21.757-1.935h-3.077m31.543 0H159.7m-20.868-1.935h-3.818m30.987 0h-5.931m-20.015-1.935h-4.411m30.357 0h-5.56m-19.274-1.935H136.2m13.27 0h-.668m17.199 0h-5.189m-18.57-1.935h-5.486m12.417 0h-1.853m18.681 0h-4.893m-17.865-1.935h-5.968m11.639 0h-3.151m18.961 0h-3.356m-12.566-1.935h-11.045m26.967 0h-3.134m-12.825-1.935h-10.6m25.921 0h-2.57m-12.454-1.935h-9.238m24.262 0h-2.917m-14.96-1.935h-5.746M124.5 65.79c1.51-2.267 3.123-4.121 5.8-6.084 2.768-2.03 4.088 1.243 3.047 2.93M124.5 69.66c1.747-2.027 5.2-5.072 7.95-6.683 2.604-1.526 3.386 1.948 1.217 3.611m-9.378 7.27c1.748-2.028 5.162-5.142 7.95-6.684 4.219-2.333 5.598 1.827.35 4.104m-8.687 10.269c1.747-2.028 5.162-5.142 7.95-6.683 3.934-2.176 4.808 2.175.653 4.619m-8.397-2.381c1.77-1.753 4.254-3.574 6.484-5.097 2.818-1.926 4.355.577 2.916 2.222m-9.927 10.834c1.759-1.707 4.165-3.468 6.332-4.948 3.07-2.098 4.619 1.583 2.458 3.266m-9.209 5.193c2.073-1.672 5.103-3.465 7.413-4.678 3.993-2.098 4.71 2.641.421 4.788m-8.34 2.9c5.826-4.978 12.544-3.263 6.952.653m-7.736 3.723c6.357-5.448 17.895-5.453 6.571.71m-8.304 6.2c8.025-5.169 18.099-3.798 5.605 1.376m-5.222.984c5.544-2.344 11.849.027 5.615 1.761m-3.016.539c4.656-1.468 7.142 1.216 1.459 2.607m.094-49.842c.918-.979 1.981-1.921 3.302-2.89 2.237-1.64 3.412.042 3.208 1.611m-6.321-3.773q.252-.193.518-.388c2.479-1.818 3.653.444 3.094 2.11m-7.359 42.283c5.341-4.209 11.126-2.965 7.384.335m-13.131 4.269c-12.457.134-8.42 3.304-2.707 3.306m.958-5.798c-4.071-1.538-7.736-1.184-9.572-.211-2.147 1.138-1.792 3.123 3.341 3.915m3.633-7.314c-7.48-1.42-13.24 1.799-7.085 3.378m4.394-7.007c-8.609-2.334-16.02 1.386-6.311 4.343m4.073-7.18c-8.843-3.027-17.293.578-8.575 3.632m5.014-7.744c-6.448-1.033-11.323 1.247-7.093 3.615m4.919-6.088c-9.865-2.573-20.17 2.227-6.227 3.58m1.521-8.515c-7.3-.645-12.77 2.326-5.136 4.52m2.841-6.76c-9.609-2.555-19.389 1.884-6.541 4.429m2.972-7.885c-7.105-.986-13.084 1.516-8.204 3.711m5.153-6.555c-9.14-2.13-17.962 1.886-6.827 4.394m1.72-9.107c-7.294-.584-12.642 2.434-4.656 4.616m1.635-7.323c-9.434-2.18-18.498 2.18-5.578 4.655m.673-9.01c-7.376-.71-12.992 2.278-5.366 4.489m2.093-7.464c-8.685-1.538-16.292 2.25-5.593 4.647m18.73-25.79c.651 1.498 1.272 3.018 4.54 2.726 1.835 10.488 9.42 12.692 16.6 15.48 0 0 2.479 2.018 3.756 2.018 1.916 0 3.267-.728 3.905-.728.639 0 1.277.645 3.193.645 1.915 0 3.83-3.225 5.107-6.45 3.831-5.16 7.023-12.39 7.023-16.125 0-2.58-.639-19.35-.638-19.995 0-.399.731-5.475 1.29-9.297M86.456 31.002c.807 1.32 1.755 3.15 1.013 3.183-.349.016-.89-1.339-1.308-2.568M50.546 63.831l-6.457 6.989m8.266-5.262-6.223 6.736m8.093-5.074-6.132 6.637m7.883-4.846-5.894 6.38m7.76-4.715-5.869 6.353m7.68-4.628-4.505 4.878m6.315-3.15-3.068 3.32m4.958-1.68-2.279 2.466m4.04-.688-1.14 1.234m40.381 40.544h-7.076m5.399-1.935h-7.024m5.451-1.935h-7.129m5.452-1.935h-7.076m5.399-1.935h-7.077m4.718-2.58H91.3m-26.177-3.225v4.193m3.192-4.193v4.193m3.193-4.193v4.193m4.69-2.481-2.883 2.912m5.332-.226-2.988 3.018m5.306-.2-2.91 2.939m5.176-.068-2.883 2.913m5.305-.2-2.647 2.674M64.958 40.087a70 70 0 0 0-6.144-2.153m8.077-.479a70 70 0 0 0-6.227-2.168m8.185-.394a70 70 0 0 0-6.362-2.214m8.184-.141a68 68 0 0 0-6.481-2.31m7.43-.665a69 69 0 0 0-4.577-1.625m6.182-1.076a67 67 0 0 0-3.288-1.186m5.186-1.38a78 78 0 0 0-2.09-.752M51.025 12.182C57.647 14.739 64.264 9 68.77 12.077c5.929 4.048.821 11.788-3.563 9.232-4.06-2.367-.085-7.764 1.83-6.474 1.188.8 1.902 2.362 1.277 3.225-.789 1.091-1.339 1.242-2.553.645M50.89 12.53c5.07 4.944 2.824 13.4 7.499 16.175 6.17 3.663 10.884-4.328 6.712-7.225-3.863-2.682-6.972 3.267-4.995 4.458 1.226.738 2.929.716 3.43-.225.636-1.19.534-1.756-.523-2.606m5.302.113-11.492-7.74m1.277 5.16c1.277-1.29 5.806-1.465 7.023.645-2.81-1.424-4.439-3.194-3.192-5.805m2.554 14.19c-3.193 3.87-6.385 2.58-9.577 1.29-3.072 4.227-8.257 4.988-13.408 5.805m0 0c4.618.69 10.202 1.821 15.723 3.527M41.5 36.765C47.897 24.281 51.09 12.145 54.382 0m19.041 16.77c1.277-2.58-1.915-5.805-3.83-7.095.746-2.974-.346-6.32-1.481-9.674m8.503 11.61c-1.276-3.226-3.192-3.226-3.192-3.226 1.083-4.924-.42-6.175-1.045-8.376m38.974-.007c-2.183 6.674-7.067 10.112-14.219 10.833M108.964.005c-2.038 5.006-5.793 7.954-11.042 9.113m9.181-9.116c-1.786 3.539-4.557 5.896-8.216 7.19m6.204-7.178a13.8 13.8 0 0 1-5.19 4.874M118.593.006c1.906 5.18 3.875 10.324 8.501 12.93M120.591.007c1.567 4.097 3.381 7.972 6.76 10.353M122.639.003c1.257 2.99 2.769 5.741 5.09 7.722M124.48.011c.982 1.888 2.155 3.597 3.689 4.961m-1.115 10.508c-5.249-3.234-7.861-1.843-10.216 0m0 0c-2.553 7.095 1.916 14.19 1.842 19.566-.028 1.997-1.498 1.735-2.48 1.72-.638-.011-1.915 1.29-1.915 1.29m2.553-22.576c3.132-1.613 6.438-2.06 10.216.645m-15.962 15.48c-2.554 0-2.554 3.87-.638 3.87 5.108.645 5.108-1.29.638 0m7.662 5.805.638.645v-1.29zm0 0s-.639.645-1.277.645c-.639 0-.67-.517-1.574-.578-.98-.067-.98.578-1.618.578s-1.916-1.29-2.554-1.29c-.639 0-1.916.645-2.554.645H107.9m0 0-.638-.645v1.29zM97.046 20.64c1.915 0 4.657-3.274 7.2-3.038 3.807.355 4.931 4.973 6.846 5.618m0 0c-2.29-2.762-4.315-3.64-6.138-3.62-3.729.04-4.716 4.265-9.185 2.975m15.323.645c-1.915-1.29-4.189 1.296-5.768 1.283-3.691-.03-5.66-1.928-7-1.928m28.73-1.29c-2.891-5.515-8.294-1.224-8.3-.645M61.292 34.185c-1.915 1.935-4.469 1.29-5.746.645m0 0c-2.62 1.89-5.46 2.673-8.004 2.997m8.004-2.997c-2.62 1.89-5.46 2.673-8 3.001m9.786 2.417L84.868 0m25.586 114.165c0 1.271.19 2.529.559 3.703s.91 2.24 1.591 3.138c.682.899 1.492 1.612 2.382 2.098a5.85 5.85 0 0 0 2.81.736c.964 0 1.919-.25 2.81-.736s1.7-1.199 2.382-2.098 1.223-1.965 1.592-3.138c.369-1.174.558-2.432.558-3.703 0-2.566-.773-5.027-2.15-6.841s-3.245-2.834-5.192-2.834-3.815 1.019-5.192 2.834c-1.377 1.814-2.15 4.275-2.15 6.841m7.342-5.482c-.565 0-1.19.258-1.898 1.192-.709.933-1.294 2.487-1.294 4.29s.585 3.357 1.294 4.291c.708.933 1.333 1.192 1.898 1.192s1.19-.259 1.899-1.192c.708-.934 1.293-2.488 1.293-4.291s-.585-3.357-1.293-4.29c-.709-.934-1.334-1.192-1.899-1.192m-99.28-33.218c9.576 5.805 9.576-12.9 0-7.095 5.746-9.675-12.77-9.675-7.024 0-9.577-5.805-9.577 12.9 0 7.095-5.746 9.675 12.77 9.675 7.023 0M7.341 71.918c7.662 0 7.662 0 7.662-7.74 0 7.74 0 7.74 7.661 7.74-7.661 0-7.661 0-7.661 7.74 0-7.74 0-7.74-7.662-7.74m147.804-54.503c-1.377 4.016-.638 11.61-4.469 11.61-8.3 0-2.554-12.255 4.469-18.705 7.023 6.45 12.769 18.705 4.469 18.705-3.83 0-3.091-7.594-4.469-11.61M116.2 43.86c-.392 3.67-5.825 1.12-5.746.645.638.645 5.717 4.109 5.746-.645m-5.108-26.445c-6.58-4.737-10.964-2.087-15.323.645 4.521-3.352 10.854-5.805 15.323-.645m6.385 5.16c2.554 0 3.942-2.472 6.006-2.617 1.575-.111 3.727 1.627 3.727 2.272 0 .912-1.434 2.67-2.904 3-2.093.469-4.634-2.61-6.829-2.655"/><path fill="currentColor" d="M102.196 0c-12.662 27.403-25.391 54.668-49.98 57.308L94.811 0zm25.509 7.721c4.388 15.867 14.406 30.703 7.636 51.397L121.324 48.11c3.533-5.07 6.368-11.695 6.368-15.215 0-2.58-.639-19.35-.638-19.995 0-.259.308-2.486.651-5.179M51.088 58.675c19.583 17.921 41.006 39.757 60.067 62.516l-5.216.07c-15.987-19.728-37.514-41.15-57.282-59.163zm-8.4 11.281c3.686 2.476 8.188 5.693 12 9.743l-3.263 2.585c-3.86-3.85-8.422-7.042-12.207-9.543a62 62 0 0 0 3.47-2.785M78.53 97.395l20.418 23.85-5.734.015-16.582-19.673H62.997l.21-4.192z"/><path fill="currentColor" d="M105.666 19.35c.423 0 .829.272 1.128.756.3.483.468 1.14.468 1.824s-.168 1.34-.468 1.824c-.299.484-.705.756-1.128.756-.424 0-.83-.272-1.129-.756s-.468-1.14-.468-1.824.169-1.34.468-1.824.705-.756 1.129-.756m17.877.645c.423 0 .829.272 1.128.756.3.483.468 1.14.468 1.824s-.168 1.34-.468 1.824c-.299.484-.705.756-1.128.756-.424 0-.83-.272-1.129-.756-.299-.483-.468-1.14-.468-1.824s.169-1.34.468-1.824.705-.756 1.129-.756m-3 38.846c-.453 14.002-.415 27.706-3.609 39.936-10.714-15.668-23.464-27.31-36.051-38.55 10.855 1.92 19.06 2.385 25.61 1.858 5.761-.463 10.267-1.73 14.05-3.244m-5.481 2.957c-2.883.013-6.708.302-10.662.805-8.396 1.069-15.088 2.794-14.947 3.854.14 1.06 7.19.655 15.585-.413 8.394-1.07 14.955-2.397 14.816-3.457-.069-.518-1.797-.803-4.792-.79m-91.758 1.734c-.306 1.085-.54 2.355-.699 3.721v.047c-.943-.176-2.102.01-3.477.725l2.715-2.743a.19.19 0 0 0 .044-.212.19.19 0 0 0-.177-.12.2.2 0 0 0-.137.058l-2.716 2.744c.706-1.387.891-2.556.719-3.508 1.37-.161 2.643-.398 3.728-.712m-16.6 0c1.076.311 2.337.547 3.694.708h.035c-.174.953.011 2.123.718 3.511l-2.715-2.743a.19.19 0 0 0-.314.06.2.2 0 0 0 .043.214l2.716 2.743c-1.374-.714-2.532-.9-3.475-.726v-.022c-.16-1.375-.393-2.654-.702-3.745M115.702 65.5c-2.603.013-6.056.302-9.627.806-7.58 1.068-13.623 2.794-13.496 3.853s6.374 1.052 13.954-.016 13.623-2.794 13.496-3.854c-.062-.518-1.623-.803-4.327-.79m-.982 4.474c-1.928-.01-4.165.105-6.446.33-6.577.65-12.004 1.903-11.962 2.968s5.408 1.4 11.984.75 11.873-2.04 11.831-3.105c-.026-.656-1.982-.926-5.407-.944m-75.443 2.72c3.357 2.3 7.407 5.124 10.962 8.492L30.23 97.498q-1.135-1.284-2.26-2.593c4.773.596 4.945-6.395 9.699-8.475-6.826-3.166-9.47.735-10.172 7.921-2.335-2.738-4.623-5.564-6.827-8.546 6.448-4.114 12.689-8.467 18.606-13.11m-11.78 21.656.474.554a6 6 0 0 1-.517-.09q.02-.234.044-.464m2.734 3.147-.169.132c-3.607.18-8.354 1.055-8.354 1.055-4.244-2.246-7.346-4.767-9.97-7.403a304 304 0 0 0 7.56-4.607 152 152 0 0 0 6.138 7.75c-4.396-1.954-6.384-5.984-8.489-.6 4.105-.267 7.92 5.752 8.583.71q1.37 1.622 2.76 3.207zm84.707-23.324c-1.55-.01-3.349.105-5.184.33-5.289.65-9.549 2.04-9.515 3.105s4.349 1.4 9.638.75 9.549-2.04 9.515-3.105c-.021-.656-1.699-1.063-4.454-1.08M10.881 75.81l-2.716 2.743a.2.2 0 0 0-.06.138.2.2 0 0 0 .12.181.19.19 0 0 0 .21-.045l2.716-2.743c-.707 1.388-.892 2.559-.717 3.512h-.042c-1.354.16-2.613.396-3.688.707.31-1.097.545-2.383.704-3.767.942.174 2.1-.013 3.473-.726m8.247 0c1.373.713 2.53.9 3.473.726v.01c.16 1.38.394 2.663.703 3.757-1.085-.314-2.358-.55-3.728-.712.172-.952-.013-2.121-.72-3.508l2.717 2.744a.19.19 0 0 0 .21.045.2.2 0 0 0 .105-.106.2.2 0 0 0-.001-.15.2.2 0 0 0-.044-.063zm95.802 2.65a24 24 0 0 0-3.199.23c-3.896.535-7.048 2.16-7.054 3.225s3.147 1.494 7.043.96c3.896-.535 7.059-1.832 7.065-2.897.004-.725-1.492-1.513-3.855-1.517m-.376 4.681c-.502-.002-1.022.02-1.546.064-3.203.272-5.718.907-5.8 1.932-.082 1.026 2.448 1.637 5.651 1.365s5.867-1.324 5.949-2.35c.067-.834-1.761-1-4.254-1.01m.813 3.97a8 8 0 0 0-.596.024c-1.947.149-3.592.959-3.675 1.81-.083.85 1.427 1.42 3.374 1.27 1.946-.148 3.591-.958 3.675-1.809.073-.75-1.1-1.296-2.778-1.294m.348 3.932q-.187 0-.378.018c-1.234.118-2.277.761-2.33 1.436-.053.676.905 1.127 2.139 1.01 1.233-.119 2.276-.761 2.329-1.437.047-.595-.696-1.029-1.76-1.027M0 91.053l4.377.368c-.028 2.58.866 5.05 3.923 7.264-3.068.297-5.807 1.367-7.662 4.515q1.914 4.836 6.385 5.805c-2.513 2.827-3.598 6.087-3.835 9.605v.001L0 120.042zm117.796 17.63c.565 0 1.19.258 1.899 1.192.708.933 1.294 2.487 1.294 4.29s-.586 3.357-1.294 4.291c-.709.933-1.334 1.192-1.899 1.192-.564 0-1.19-.259-1.898-1.192-.709-.934-1.294-2.488-1.294-4.291s.585-3.357 1.294-4.29c.708-.934 1.334-1.192 1.898-1.192m.035.618c-.377.012-.759.656-.759 1.381-1.396-.014-1.875.427-.725 1.677-1.749.483-1.359 1.122-.363 1.806-.996.684-1.386 1.323.363 1.806-1.15 1.25-.671 1.691.725 1.677 0 1.29 1.208 2.322 1.449 0 1.396.014 1.874-.427.725-1.677 1.749-.483 1.359-1.122.362-1.806.997-.684 1.387-1.323-.362-1.806 1.149-1.25.671-1.691-.725-1.677-.106-1.016-.396-1.39-.69-1.381m-44.993.672 9.601 11.215-5.49-.005-6.009-7.018h-12.2l1.915-4.192zm-3.795 8.385 2.455 2.868-17.388.028 2.075-2.896zm13.297 6.762 40.32.023c-.312.32-.637.629-.966.94a102 102 0 0 0-5.352 5.435c-.136-.574-.772-1.436-2.057-2.518 3.831-3.225 1.915-4.515-1.916-1.935-3.83-2.58-5.746-1.29-1.915 1.935-3.831 3.225-1.915 4.515 1.915 1.935 1.414.952 2.565 1.376 3.265 1.371q-.253.284-.499.565l-32.743-.017zm21.709.573c-.696-.019-1.863.405-3.3 1.372-3.83-2.58-5.746-1.29-1.915 1.935-3.83 3.225-1.915 4.515 1.915 1.935 3.831 2.58 5.747 1.29 1.916-1.935 2.394-2.015 2.544-3.275 1.384-3.307m-11.62 0c-.696-.019-1.863.405-3.3 1.372-3.83-2.58-5.746-1.29-1.915 1.935-3.83 3.225-1.915 4.515 1.915 1.935 3.831 2.58 5.747 1.29 1.916-1.935 2.394-2.015 2.544-3.275 1.384-3.307"/></svg>
